<svg xmlns="http://www.w3.org/2000/svg" xmlns:xlink="http://www.w3.org/1999/xlink" width="314.669" height="577" viewBox="0 0 314.669 577">
  <defs>
    <clipPath id="clip-path">
      <rect id="Rectangle_341322" data-name="Rectangle 341322" width="298.951" height="523.167" fill="#fff" stroke="#707070" stroke-width="1" opacity="0.58"/>
    </clipPath>
    <clipPath id="clip-path-2">
      <path id="Rectangle_341373" data-name="Rectangle 341373" d="M38,0H291.331a0,0,0,0,1,0,0V497.471a0,0,0,0,1,0,0H0a0,0,0,0,1,0,0V38A38,38,0,0,1,38,0Z" transform="translate(1105 4022.399)" fill="#fff" stroke="#707070" stroke-width="1" opacity="0.58"/>
    </clipPath>
    <clipPath id="clip-path-3">
      <rect id="Rectangle_341372" data-name="Rectangle 341372" width="573.683" height="528.19" fill="#8284d2"/>
    </clipPath>
  </defs>
  <g id="_14" data-name="14" transform="translate(-1105 -3858.312)">
    <g id="Group_990933" data-name="Group 990933">
      <rect id="Rectangle_338981" data-name="Rectangle 338981" width="228.669" height="577" transform="translate(1105 3858.312)" fill="#6b8dfc"/>
      <path id="Rectangle_338982" data-name="Rectangle 338982" d="M21,0H150a21,21,0,0,1,21,21V522a21,21,0,0,1-21,21H0a0,0,0,0,1,0,0V21A21,21,0,0,1,21,0Z" transform="translate(1248.669 3892.312)" fill="#3c3fa7"/>
      <g id="Mask_Group_984978" data-name="Mask Group 984978" transform="translate(1120.718 3912.145)" clip-path="url(#clip-path)">
        <path id="Union_149" data-name="Union 149" d="M116.569,163.958c-14.193,17.469-34.188,29.784-55.383,32.08C23.436,200.127-3.82,170.885.309,130.72s38.078-76.04,75.828-80.129c22.43-2.43,41.154,6.907,51.791,23.312,17.99-29.134,47.961-50.634,80.086-54.114,27.842-3.016,51.215,8.16,64.984,28.021,13.566-25.483,38.68-44.757,65.75-47.69,37.75-4.09,65.006,25.152,60.877,65.317s-38.078,76.039-75.828,80.129c-18.055,1.956-33.708-3.712-44.675-14.554-14.88,39.144-50.934,70.331-90.208,74.586C155.22,209.249,128.073,192.115,116.569,163.958Z" transform="matrix(0.809, -0.588, 0.588, 0.809, 33.712, 519.228)" fill="#1d206f"/>
      </g>
    </g>
    <g id="Group_990934" data-name="Group 990934" transform="translate(-12 -47)">
      <g id="Group_990921" data-name="Group 990921" transform="translate(5 -37.559)">
        <g id="Mask_Group_989148" data-name="Mask Group 989148" transform="translate(18.669)" clip-path="url(#clip-path-2)">
          <g id="Group_988797" data-name="Group 988797" transform="translate(939.194 4022.399)">
            <g id="Group_988796" data-name="Group 988796" clip-path="url(#clip-path-3)">
              <path id="Path_692026" data-name="Path 692026" d="M9.107,126.475H63.138a2.233,2.233,0,0,0,0-4.466H9.107a2.233,2.233,0,0,0,0,4.466" transform="translate(493.783 135.847)" fill="#fff"/>
              <g id="Group_990919" data-name="Group 990919">
                <path id="Path_692023" data-name="Path 692023" d="M26.655,273.561H568.422V0H26.655A26.654,26.654,0,0,0,0,26.654V246.906a26.654,26.654,0,0,0,26.655,26.654" transform="translate(5.26)" fill="#a6bbff"/>
                <path id="Path_692024" data-name="Path 692024" d="M9.665,144.115H573.683V124.367H9.665A9.664,9.664,0,0,0,0,134.032v.418a9.665,9.665,0,0,0,9.665,9.665" transform="translate(0 138.472)" fill="#eeecf1"/>
                <path id="Path_692025" data-name="Path 692025" d="M37.784,137.842H93.559V123.149a11.573,11.573,0,0,0-11.573-11.573H49.357a11.573,11.573,0,0,0-11.573,11.573Z" transform="translate(400.27 124.998)" fill="#e8e8e8"/>
                <path id="Path_692027" data-name="Path 692027" d="M24.432,20.587H296.824a2.314,2.314,0,1,0,0-4.628H24.432a2.314,2.314,0,1,0,0,4.628" transform="translate(227.8 17.769)" fill="#fff"/>
                <path id="Path_692028" data-name="Path 692028" d="M24.092,28.344H279.513a2.242,2.242,0,0,0,2.242-2.242v-.146a2.242,2.242,0,0,0-2.242-2.24H24.092a2.242,2.242,0,0,0-2.242,2.24V26.1a2.242,2.242,0,0,0,2.242,2.242" transform="translate(245.749 26.406)" fill="#fff"/>
                <path id="Path_692029" data-name="Path 692029" d="M23.921,36.1H241.874a2.07,2.07,0,0,0,2.071-2.069v-.486a2.072,2.072,0,0,0-2.071-2.071H23.921a2.07,2.07,0,0,0-2.071,2.071v.486A2.069,2.069,0,0,0,23.921,36.1" transform="translate(283.56 35.044)" fill="#fff"/>
                <path id="Path_692030" data-name="Path 692030" d="M24.578,58.7H296.97a2.314,2.314,0,0,0,0-4.628H24.578a2.314,2.314,0,1,0,0,4.628" transform="translate(227.345 60.202)" fill="#fff"/>
                <path id="Path_692031" data-name="Path 692031" d="M24.238,66.454H279.662a2.242,2.242,0,0,0,2.24-2.242v-.144a2.242,2.242,0,0,0-2.24-2.242H24.238A2.242,2.242,0,0,0,22,64.068v.144a2.242,2.242,0,0,0,2.242,2.242" transform="translate(245.294 68.838)" fill="#fff"/>
                <path id="Path_692032" data-name="Path 692032" d="M24.069,74.212H242.022a2.072,2.072,0,0,0,2.071-2.071v-.486a2.072,2.072,0,0,0-2.071-2.071H24.069A2.072,2.072,0,0,0,22,71.655v.486a2.072,2.072,0,0,0,2.073,2.071" transform="translate(283.103 77.476)" fill="#fff"/>
              </g>
              <path id="Path_692033" data-name="Path 692033" d="M194.025,71.212l-4.559-4.905S176.674,55.27,168.624,51.4c-3.386-1.632-8.325-.746-4.5,4.1a19.449,19.449,0,0,1,2.988,5.634,53.077,53.077,0,0,1-10.865-5.793c-2.8-2.107-6.579-10.13-9.179-8.6-4.136,2.433-.034,10.286-.034,10.286s-1.477-9.722-5.626-6.216,5.381,22.99,10.187,27.8S182.887,90.3,182.887,90.3Z" transform="translate(82.953 51.827)" fill="#f48462"/>
              <path id="Path_692034" data-name="Path 692034" d="M167.395,59.392a.591.591,0,0,0,.093-1.175c-5.8-.932-11.047-6.454-11.1-6.509a.591.591,0,1,0-.862.809c.224.239,5.571,5.871,11.774,6.869a.718.718,0,0,0,.1.006" transform="translate(77.345 57.365)"/>
              <path id="Path_692035" data-name="Path 692035" d="M158.951,61.106a.578.578,0,0,0,.275-.066l12.192-6.414a.592.592,0,0,0-.552-1.048l-11.837,6.228-5.043-4.284a.592.592,0,1,0-.767.9l5.349,4.544a.6.6,0,0,0,.383.137" transform="translate(78.572 59.581)"/>
              <path id="Path_692036" data-name="Path 692036" d="M159.1,62.27a.591.591,0,0,0,.211-1.143,26.1,26.1,0,0,1-10.174-7.386.591.591,0,1,0-.934.725,26.843,26.843,0,0,0,10.685,7.767.62.62,0,0,0,.211.038" transform="translate(101.047 59.579)"/>
              <path id="Path_692037" data-name="Path 692037" d="M154.393,219.874v22.054l-36.266-1.558v-20.5Z" transform="translate(169.639 244.812)" fill="#f48462"/>
              <path id="Path_692038" data-name="Path 692038" d="M111.644,218.774V239.41l-35.958-1.456V218.774Z" transform="translate(302.081 243.587)" fill="#f48462"/>
              <path id="Path_692039" data-name="Path 692039" d="M129.811,115.39s-28.03,44.9-44.642,116.792C70.016,297.754,68.059,349.6,68.059,349.6l64.233,2.386s7.293-53.465,9.236-74.618,8.4-49.473,8.4-49.473,7.386,122.027,9.531,124.091,63.791-.437,64.482-3.236c1.346-5.459-12.888-199.287-16.03-212.358-11.795-49.04-78.1-21.005-78.1-21.005" transform="translate(209.269 119.93)" fill="#22233a"/>
              <path id="Path_692040" data-name="Path 692040" d="M66.423,268.662c0,3.641,1.224,7.807,3.728,8.857s22.783,3.233,40.525,1.689c16.986-1.486,16.755-.873,18.008-2.416.613-.786,3.172-6.3,1.8-9.819-.087-.175-.146-.38-.232-.554-.7-1.777-1.429-3.5-1.953-4.721a20.216,20.216,0,0,0-1.923-3.35c-1.834-2.534-5.476-7.779-6.408-10.487-1.224-3.614-3.088-11.421-4.341-15.092-.947-2.733-12.084-7.038-17.455-8.971a11.142,11.142,0,0,0-5.8-.476c-5.421,1-16.609,3.206-18.495,4.785-2.477,2.069-3.73,19.257-3.73,21.851v2.593c0,2.418-1.659,7.2-2.737,11.159-.292.989-.524,1.921-.7,2.766a11.263,11.263,0,0,0-.292,2.185" transform="translate(302.419 248.446)" fill="#22233a"/>
              <path id="Path_692041" data-name="Path 692041" d="M127.955,198.6a.622.622,0,0,0,.613-.661c-.019-.262-2.063-26.24-2.657-37.75s-.615-17.011-.615-17.064a.617.617,0,0,0-.366-.56L103.7,133.113a.614.614,0,0,0-.5,1.122l20.874,9.291c.015,1.46.108,6.926.613,16.726.594,11.529,2.64,37.519,2.659,37.779a.617.617,0,0,0,.613.569" transform="translate(227.785 148.148)" fill="#a37b90"/>
              <path id="Path_692042" data-name="Path 692042" d="M92.239,141.639a.615.615,0,0,0,.353-1.118,36.244,36.244,0,0,1-13.828-18.847.615.615,0,0,0-1.194.294,36.774,36.774,0,0,0,14.318,19.56.606.606,0,0,0,.351.112" transform="translate(316.929 134.952)" fill="#a37b90"/>
              <path id="Path_692043" data-name="Path 692043" d="M116.072,274.371a1.587,1.587,0,0,1-1.334-1.851c.645-4.3,2.995-16.324,9.679-21.534,8.213-6.4,25.621-9.227,31.889-13.509s13.184-14.471,17.007-12.636,11.127,10.442,21.42,9,15-4.03,17.827-1.583,5.066,37.395,3.914,39.5-15.715.452-16.973.814-4.986-7.9-7.342-6.607-5.188,5.254-8.661,7.114c-3.24,1.735-57,2.492-67.426,1.291" transform="translate(114.451 250.098)" fill="#22233a"/>
              <path id="Path_692044" data-name="Path 692044" d="M120.421,62.761C160.253,62.2,163,81.169,163,81.169v34.292l4.576,11.527L165.957,176.2l-92.576-2.118,3.944-47.824s-1.078-62.874,43.1-63.5" transform="translate(251.024 69.866)" fill="#22233a"/>
              <path id="Path_692045" data-name="Path 692045" d="M100.437,68.32S98.476,73,98.645,75.138c.114,1.441,2.843,4.745,2.843,4.745s-4.96,11.446-5.85,17.672-.325,29.264,1.667,29.514c.835.1,9.8-26.031,10.081-28.5.427-3.766-2.1-18.881-2.1-18.881a28.355,28.355,0,0,0,3.54-3.367c.642-.987.131-8.039.131-8.039s-4.58-3.094-8.523.042" transform="translate(263.273 74.505)" fill="#f7b369"/>
              <path id="Path_692046" data-name="Path 692046" d="M130.17,55.773,100.405,79.965s10.354,25.391,29.163,39.559c19.7,14.838,48.015,11.9,48.015,11.9L174.755,195.6l7.822-13.594s13.09-52.356,20.276-75.364c7.864-25.175,9.975-37.266,9.975-37.266s-11.267-.672-27.407,3.811c-8.836,2.454-31.936,8.6-55.251-17.412" transform="translate(148.657 62.099)" fill="#fd521b"/>
              <path id="Path_692047" data-name="Path 692047" d="M85.045,62.64S71.56,188.338,72.585,189.466s23.725,2.523,33.443,1.355,15.305-3.876,15.865-4.163.573-57.468.573-57.468l-17.41-60.854c-11.934-5.717-20.01-5.7-20.01-5.7" transform="translate(297.933 69.744)" fill="#df4918"/>
              <path id="Path_692048" data-name="Path 692048" d="M126.332,79.286a2.348,2.348,0,0,0,1.765-.778c2.526-2.72.818-12.3.615-13.384a.631.631,0,0,0-.528-.507.623.623,0,0,0-.649.336c-.518,1.01-5.015,9.961-3.312,13.133a2.226,2.226,0,0,0,1.8,1.181,2.551,2.551,0,0,0,.311.019m1.456-11.968c.467,3.426.837,8.775-.613,10.335a1.1,1.1,0,0,1-1.014.364.962.962,0,0,1-.831-.526c-.89-1.659.8-6.539,2.458-10.172" transform="translate(182.493 71.938)" fill="#e6f4ff"/>
              <path id="Path_692049" data-name="Path 692049" d="M113,61.453l-.11,12.507s-5.992,3.9-12.027,3.9c-8.149,0-10.662-4.979-10.662-4.979l1.272-15.937Z" transform="translate(270.044 63.401)" fill="#f48462"/>
              <path id="Path_692050" data-name="Path 692050" d="M95.039,62.965s1.26,7.141,9.384,6.676a21.067,21.067,0,0,0,13.16-5.81s-.18,16.671-2.05,17.1c-2.234.511-13.6-8.274-13.6-8.274l-10.723,4.5a.724.724,0,0,1-.959-.913Z" transform="translate(265.464 70.106)" fill="#e6f4ff"/>
              <path id="Path_692051" data-name="Path 692051" d="M111.764,60.585S105.929,72.6,96.7,71.057c-7.437-1.238-6.459-13.627-6.459-13.627Z" transform="translate(271.282 63.943)"/>
              <path id="Path_692052" data-name="Path 692052" d="M84.741,48.361s-4.476,21.272,2.291,31.6,15.834,7.486,19.927,4.447a18.245,18.245,0,0,0,6.738-9.9s7.469,1.617,10.07-4.451c2.733-6.376-1.847-11.634-5.592-12s-4.191.306-4.191.306l1.215-6.837S92.838,25.815,84.741,48.361" transform="translate(273.06 43.535)" fill="#f48462"/>
              <path id="Path_692053" data-name="Path 692053" d="M112.912,49s-11.277-5.041-12.311,3.741c-1.2,10.174,10.983,10.472,10.983,10.472Z" transform="translate(248.332 52.956)" fill="#f48462"/>
              <path id="Path_692054" data-name="Path 692054" d="M107.262,56.6a.6.6,0,0,0,.522-.894L104.1,49.14a.6.6,0,0,0-1.046.59l3.682,6.56a.6.6,0,0,0,.524.306" transform="translate(248.183 54.371)"/>
              <path id="Path_692055" data-name="Path 692055" d="M85.342,56.066a.6.6,0,0,0,.383-.137l5.867-4.863a.6.6,0,1,0-.765-.926L84.96,55a.6.6,0,0,0,.383,1.063" transform="translate(302.778 55.673)"/>
              <path id="Path_692056" data-name="Path 692056" d="M88.969,55.361a.6.6,0,0,0,.368-1.074l-3.369-2.627a.6.6,0,0,0-.738.949L88.6,55.234a.6.6,0,0,0,.368.127" transform="translate(304.478 57.381)"/>
              <path id="Path_692057" data-name="Path 692057" d="M104.117,52.179h3.242a.6.6,0,0,0,0-1.2h-3.242a.6.6,0,1,0,0,1.2" transform="translate(246.951 56.763)"/>
              <path id="Path_692058" data-name="Path 692058" d="M93.716,52.815a.6.6,0,0,0,.6-.537L94.7,48.62a.6.6,0,1,0-1.192-.127l-.389,3.658a.6.6,0,0,0,.535.659l.063,0" transform="translate(282.191 53.397)"/>
              <path id="Path_692059" data-name="Path 692059" d="M100.16,52.409a.6.6,0,0,0,.6-.537l.389-3.66a.6.6,0,0,0-.535-.659.611.611,0,0,0-.659.535l-.389,3.658a.6.6,0,0,0,.535.659l.063,0" transform="translate(262.126 52.942)"/>
              <path id="Path_692060" data-name="Path 692060" d="M98.4,60.3a.6.6,0,0,0,.476-.968c-3.181-4.115,1.177-9.464,1.222-9.515a.6.6,0,0,0-.924-.769c-.051.061-5.017,6.139-1.249,11.017a.6.6,0,0,0,.476.235" transform="translate(269.471 54.372)"/>
              <path id="Path_692061" data-name="Path 692061" d="M98.928,47.3a.6.6,0,0,0,.277-.07,6.113,6.113,0,0,1,3.631-.2.6.6,0,0,0,.3-1.164,7.225,7.225,0,0,0-4.48.3.6.6,0,0,0,.277,1.133" transform="translate(262.291 50.811)"/>
              <path id="Path_692062" data-name="Path 692062" d="M96.259,48.664a.6.6,0,0,0,.429-1.019,7.23,7.23,0,0,0-4.163-1.68.589.589,0,0,0-.638.556.6.6,0,0,0,.556.64,6.139,6.139,0,0,1,3.388,1.321.59.59,0,0,0,.429.182" transform="translate(282.632 51.176)"/>
              <path id="Path_692063" data-name="Path 692063" d="M105.459,37.465s-5.226,4.778-6.452,10.6a26.578,26.578,0,0,0,0,10.753l1.175-.017s2.819-14.12,7.376-15.413-2.1-5.924-2.1-5.924" transform="translate(256.438 41.714)"/>
              <path id="Path_692065" data-name="Path 692065" d="M78.645,242.028h18.6a.616.616,0,0,0,.232-1.186L80.7,233.936l4-1.287c5.313-1.72,13.655,1.87,13.737,1.906a.614.614,0,0,0,.49-1.126c-.359-.156-8.851-3.8-14.606-1.953l-5.6,1.8a.616.616,0,0,0-.047,1.156l15.46,6.363H78.645a.615.615,0,0,0,0,1.23" transform="translate(309.475 257.146)" fill="#40507f"/>
              <path id="Path_692066" data-name="Path 692066" d="M153.446,240.607a.615.615,0,0,0,.357-1.116l-6.209-4.434,17.36,2.646a.608.608,0,0,0,.683-.433.614.614,0,0,0-.336-.735l-13.395-6.063a.614.614,0,1,0-.507,1.118l9.331,4.225-15.493-2.361a.617.617,0,0,0-.45,1.112l6.076,4.337-13.433-2.411a.614.614,0,1,0-.216,1.209l16.125,2.9a.622.622,0,0,0,.108.011" transform="translate(119.106 256.545)" fill="#40507f"/>
              <path id="Path_692067" data-name="Path 692067" d="M118.426,63.886s5.789-13.507,1.321-19.319c-5.2-6.769-31.1-12.778-33.741-9.417-3.608,4.582-.619,16.641-.619,16.641s1.558-2.354,10.893-1.006,10.278,6.469,10.278,6.469-.539,4.233.943,6.632a5.886,5.886,0,0,0,3.371,2.8v3.559l3.01-6.765Z" transform="translate(274.24 38.067)"/>
              <path id="Path_692068" data-name="Path 692068" d="M97.094,60.022c2.1,0,3.57-3.3,3.739-3.7a.593.593,0,0,0-.1-.63.587.587,0,0,0-.611-.184l-6.008,1.665a.6.6,0,0,0-.376.85,4.213,4.213,0,0,0,2.957,1.955,2.022,2.022,0,0,0,.4.04M99.1,57.04c-.6.955-1.429,1.917-2.173,1.765a3.561,3.561,0,0,1-1.591-.721Z" transform="translate(274.836 61.782)"/>
              <path id="Path_692069" data-name="Path 692069" d="M142.1,97.888l-32.029,23.355,30.541,49.851,36.655-19.913Z" transform="translate(163.803 108.99)" fill="#8192d3"/>
              <path id="Path_692070" data-name="Path 692070" d="M146.953,99.832l-34.584,20.834L146.828,174.1l35.812-20.971Z" transform="translate(153.56 111.154)" fill="#92b4ea"/>
              <path id="Path_692071" data-name="Path 692071" d="M140.875,105.627s-28.487,1.458-34.588,5.922,5.091,25.5,8.177,29.057,29.446-9.734,29.446-9.734l5.138-13.625Z" transform="translate(203.791 117.607)" fill="#f48462"/>
              <path id="Path_692072" data-name="Path 692072" d="M134.755,108.428s-13.577,15.381-12.425,22.5,17.641-12.607,17.641-12.607Z" transform="translate(175.323 120.726)" fill="#f48462"/>
              <path id="Path_692073" data-name="Path 692073" d="M120.795,123.972s14.712-.4,11.262,4.519-18.82,2.263-21.05-.932,6.744-10.212,6.744-10.212Z" transform="translate(207.25 130.655)" fill="#f48462"/>
              <path id="Path_692074" data-name="Path 692074" d="M113.652,124.027a.576.576,0,0,0,.146-.019l4.339-1.112a.588.588,0,0,0,.254-1l-3.037-2.83a.587.587,0,0,0-.8.86l2.253,2.1-3.3.845a.586.586,0,0,0,.146,1.154" transform="translate(216.153 132.4)"/>
              <path id="Path_692075" data-name="Path 692075" d="M122.732,119.869a.59.59,0,0,0,.52-.315c1.245-2.384,3.591-6.418,4.582-7.082a.587.587,0,0,0-.655-.974c-1.562,1.05-4.622,6.856-4.967,7.515a.585.585,0,0,0,.52.856" transform="translate(187.446 124.034)"/>
              <path id="Path_692076" data-name="Path 692076" d="M120.367,124.53a.586.586,0,0,0,.49-.264l6.148-9.356a.586.586,0,1,0-.981-.642l-6.148,9.354a.588.588,0,0,0,.49.909" transform="translate(193.435 126.931)"/>
              <path id="Path_692077" data-name="Path 692077" d="M131.287,65.335s39.87,11.691,36.89,67.746c-2.914,54.814-92.684,52.882-92.684,52.882L63.237,147.828l50.7-25.454Z" transform="translate(271.702 72.745)" fill="#fd521b"/>
              <path id="Path_692078" data-name="Path 692078" d="M86.641,100.129a.573.573,0,0,0,.169-.023c.482-.133,11.778-3.326,13.672-7.452a2.826,2.826,0,0,0,.015-2.481,2.156,2.156,0,0,0-1.75-1.331c-3.846-.469-11.713,9.166-12.6,10.265a.629.629,0,0,0,.49,1.023M98.432,90.08c.057,0,.112,0,.167.008a.913.913,0,0,1,.759.619,1.579,1.579,0,0,1-.017,1.42c-1.137,2.477-7.082,4.9-10.861,6.15,3.2-3.7,7.79-8.2,9.952-8.2" transform="translate(291.126 98.899)" fill="#e6f4ff"/>
              <path id="Path_692079" data-name="Path 692079" d="M221.7,132.688h83.446l-23.252-46.3H198.448Z" transform="translate(-161.407 96.183)" fill="#eeecf1"/>
              <path id="Path_692080" data-name="Path 692080" d="M216.683,132.688h83.446l-23.252-46.3H193.431Z" transform="translate(-160.544 96.183)" fill="#fff"/>
              <rect id="Rectangle_341371" data-name="Rectangle 341371" width="14.09" height="31.443" transform="translate(109.655 220.296)" fill="#fff"/>
              <path id="Path_692081" data-name="Path 692081" d="M186.8,143.692a.851.851,0,0,0,.85-.85V110.178l10.552-19.2a.85.85,0,0,0-1.49-.82L186.057,109.55a.846.846,0,0,0-.106.41v32.883a.851.851,0,0,0,.85.85" transform="translate(28.408 99.892)" fill="#3c3fa7"/>
              <path id="Path_692082" data-name="Path 692082" d="M184.742,397.173H315.3V142.927a28.073,28.073,0,0,0-28.075-28.073H184.742Z" transform="translate(-132.059 127.88)" fill="#bcb6c1"/>
              <path id="Path_692083" data-name="Path 692083" d="M185.863,89.028c-2.8,2.071-4.256,4.848-3.255,6.205s4.085.773,6.885-1.3,4.256-4.848,3.253-6.2-4.083-.776-6.883,1.3" transform="translate(41.386 96.868)" fill="#3c3fa7"/>
              <path id="Path_692084" data-name="Path 692084" d="M185.9,119.138h23.248v-3.388a4.074,4.074,0,0,0-4.075-4.075h-15.1a4.074,4.074,0,0,0-4.075,4.075Z" transform="translate(17.689 124.342)" fill="#3c3fa7"/>
              <path id="Path_692085" data-name="Path 692085" d="M172.9,403.728H303.459V143.578c0-15.864-12.569-28.724-28.075-28.724H172.9Z" transform="translate(-49.152 127.88)" fill="#22233a"/>
              <path id="Path_692086" data-name="Path 692086" d="M191.844,398.471a.851.851,0,0,0,.85-.85V115.3a.85.85,0,1,0-1.7,0V397.621a.851.851,0,0,0,.85.85" transform="translate(23.365 127.432)" fill="#ddd7e0"/>
              <path id="Path_692087" data-name="Path 692087" d="M209.788,398.471a.851.851,0,0,0,.85-.85V115.3a.85.85,0,1,0-1.7,0V397.621a.851.851,0,0,0,.85.85" transform="translate(-32.502 127.432)" fill="#ddd7e0"/>
            </g>
          </g>
        </g>
      </g>
    </g>
  </g>
</svg>
