<svg xmlns="http://www.w3.org/2000/svg" xmlns:xlink="http://www.w3.org/1999/xlink" width="86.906" height="86.906" viewBox="0 0 86.906 86.906">
  <defs>
    <clipPath id="clip-path">
      <path id="path1641" d="M0-682.665H86.906v86.906H0Z" transform="translate(0 682.665)"/>
    </clipPath>
  </defs>
  <g id="_2" data-name="2" transform="translate(0 682.665)">
    <g id="g1637" transform="translate(0 -682.665)">
      <g id="g1639" transform="translate(0 0)" clip-path="url(#clip-path)">
        <g id="g1645" transform="translate(1.273 1.273)">
          <path id="path1647" d="M-301.605-101.969c0-2.508-1.118-8.018-4.119-10.868-3.374-2.354-8.684-4.007-17.03-4.007-21.413,0-22.847,10.88-22.847,16.572,0,.575,0,2.1,0,2.1a14.031,14.031,0,0,0,2.422,7.069c3.522,3.482,10.382,5.7,18.727,5.7,21.413,0,22.847-10.88,22.847-16.572" transform="translate(345.602 116.844)" fill="#ffe07d"/>
        </g>
        <g id="g1649" transform="translate(3.695 5.28)">
          <path id="path1651" d="M-256.76,0a15.944,15.944,0,0,1,2.422,9.17c0,5.692-1.433,16.572-22.847,16.572-8.346,0-13.656-1.653-17.03-4.007,2.721,4,8.446,7.4,20.425,7.4,21.413,0,22.847-10.88,22.847-16.572,0-3.474-.534-8.879-5.817-12.565" transform="translate(294.215)" fill="#ffd064"/>
        </g>
        <g id="g1653" transform="translate(29.277 29.615)">
          <path id="path1655" d="M-187.819-17.321c-6.52,16.063-27.4,27.444-27.4,27.444s17.451-16.586,19.624-29.97Z" transform="translate(215.217 19.848)" fill="#6bbdd5"/>
        </g>
        <g id="g1657" transform="translate(39.94 1.273)">
          <path id="path1659" d="M-301.6-101.969c0-2.508-1.118-8.018-4.119-10.868-3.374-2.354-8.684-4.007-17.03-4.007-21.413,0-22.847,10.88-22.847,16.572a15.946,15.946,0,0,0,2.422,9.17c3.522,3.482,10.382,5.7,18.727,5.7,21.413,0,22.847-10.88,22.847-16.572" transform="translate(345.598 116.844)" fill="#94d8e6"/>
        </g>
        <g id="g1661" transform="translate(42.362 5.28)">
          <path id="path1663" d="M-256.76,0a15.944,15.944,0,0,1,2.422,9.17c0,5.692-1.433,16.572-22.847,16.572-8.346,0-13.656-1.653-17.03-4.007,2.721,4,8.446,7.4,20.425,7.4,21.413,0,22.847-10.88,22.847-16.572V10.423A13.557,13.557,0,0,0-256.76,0" transform="translate(294.215)" fill="#6bbdd5"/>
        </g>
        <g id="g1665" transform="translate(30.231 29.615)">
          <path id="path1667" d="M0-17.321C6.521-1.258,27.4,10.122,27.4,10.122S9.947-6.463,7.775-19.848Z" transform="translate(0 19.848)" fill="#ffd064"/>
        </g>
        <g id="g1669" transform="translate(68.812 15.778)">
          <path id="path1671" d="M-103.677-44.223l-1.7-6.451c-8.428.375-13.426,2.142-13.426,4.156a6.475,6.475,0,0,0,2.011,4.277l2.351,2.5Z" transform="translate(118.801 50.675)" fill="#eef9fa"/>
        </g>
        <g id="g1673" transform="translate(73.174 15.703)">
          <path id="path1675" d="M-85.41,0Q-87.19,0-88.8.074V5.252a1.273,1.273,0,0,1-1.273,1.273h-3.307l-4.484,4.484L-85.41,24.266Z" transform="translate(97.869)" fill="#dcf2f6"/>
        </g>
        <g id="g1677" transform="translate(58.653 22.229)">
          <path id="path1679" d="M-173.32-291.814l-1.7-32.129c-.667-.591-1.462-1.241-2.417-1.974l2.168-4.979-4.332-3.486c-6.138,0-11.838,4.172-11.838,12.012v3.806c0,2.172-7.167,6.1-7.167,8.754l4.552,3.609-.469,1.761c0,1.637,1.29,1.886,2.46,1.843h1.78c3.309,0,6.27,4.453,4.922,4.753L-192-296.369a1.273,1.273,0,0,0-1,1.243v4.992a6.771,6.771,0,0,0,.1,1.2,3.843,3.843,0,0,0,3.495,2.012c7.439,0,16.076-4.89,16.076-4.89" transform="translate(198.604 334.382)" fill="#c38778"/>
        </g>
        <g id="g1681" transform="translate(58.653 46.8)">
          <path id="path1683" d="M-29.94-3.713a28.184,28.184,0,0,1-4.368-.542c0,2.214,4.552,3.609,4.552,3.609l.554-2.081a.787.787,0,0,0-.738-.987" transform="translate(34.308 4.255)" fill="#9d6c6c"/>
        </g>
        <g id="g1685" transform="translate(62.649 52.17)">
          <path id="path1687" d="M-76.734-28.785c-.622-2.251-3.557-3.714-6.866-3.714h-1.78a4.537,4.537,0,0,1-2.461-.485,2.546,2.546,0,0,0,2.461,3.2h1.78c2.447,0,4.216,1.092,4.922,3.395,1.348-.3,2.282-1.169,1.944-2.4" transform="translate(87.928 32.984)" fill="#9d6c6c"/>
        </g>
        <g id="g1689" transform="translate(64.365 32.668)">
          <path id="path1691" d="M-122.524,0V29.735a2.546,2.546,0,0,1-1.437,2.292A31.512,31.512,0,0,1-136.9,35.321a13.465,13.465,0,0,1-3.495-.314,4.234,4.234,0,0,0,4.513,3.709c8.344,0,16.755-5.229,16.755-5.229V7.3c0-2.83,0-4.293-3.395-7.3" transform="translate(140.397)" fill="#9d6c6c"/>
        </g>
        <g id="g1693" transform="translate(82.238 66.155)">
          <path id="path1695" d="M-23.272,0l-3.395,1.449V7.2l3.395-1.973Z" transform="translate(26.667)" fill="#dcf2f6"/>
        </g>
        <g id="g1697" transform="translate(71.52 67.603)">
          <path id="path1699" d="M-28.859-19.038l-4.21,9.206,10.718-6.228v-5.755Z" transform="translate(33.069 21.815)" fill="#eef9fa"/>
        </g>
        <g id="g1701" transform="translate(71.52 70.38)">
          <path id="path1703" d="M-45.855-33.431l-2.479-4.877a13.932,13.932,0,0,0-4.21,9.206Z" transform="translate(52.544 38.308)" fill="#ffd064"/>
        </g>
        <g id="g1705" transform="translate(68.297 73.083)">
          <path id="path1707" d="M0-62.763l15.639,1.7-1.7-10.853A64.291,64.291,0,0,0,0-62.763" transform="translate(0 71.919)" fill="#909ba6"/>
        </g>
        <g id="g1709" transform="translate(65.031 71.386)">
          <path id="path1711" d="M-141.232,0c-1.117.546-2.253,1.11-3.395,1.7v9.156h-13.941a34.192,34.192,0,0,0-3.266,3.395h8.227l10.678-1.7,1.7-6.779Z" transform="translate(161.834)" fill="#7e8b96"/>
        </g>
        <g id="g1713" transform="translate(78.214 79.482)">
          <path id="path1715" d="M-27.588-18.9v-2.757L-31.612-18.9Z" transform="translate(31.612 21.653)" fill="#7e8b96"/>
        </g>
        <g id="g1717" transform="translate(77.518 79.155)">
          <path id="path1719" d="M-32.363,0c-1.613.985-3.225,2.027-4.721,3.083l6.418,1.7Z" transform="translate(37.084)" fill="#7e8b96"/>
        </g>
        <g id="g1721" transform="translate(73.258 77.157)">
          <path id="path1723" d="M-61.564-13.7v.537a2.546,2.546,0,0,1-2.546,2.546h-2.175a40.537,40.537,0,0,0-4.26,3.395H-58.17V-15.7c-1.1.627-2.249,1.3-3.395,2" transform="translate(70.545 15.696)" fill="#5f6c75"/>
        </g>
        <g id="g1725" transform="translate(1.273 19.947)">
          <path id="path1727" d="M-166.14-91.249a12.232,12.232,0,0,0-4.56-9.51c-5.03-2.88-12.429-3.8-19.675-3.8v27.331l23.547-10.08a12.234,12.234,0,0,0,.688-3.94" transform="translate(190.376 104.56)" fill="#785252"/>
        </g>
        <g id="g1729" transform="translate(1.273 23.747)">
          <path id="path1731" d="M-134.875,0a14.788,14.788,0,0,1,2.863,8.662c0,2.15-.674,3.091-2.725,3.091h-3.707L-154.55,23.53l24.905-8.383a10.527,10.527,0,0,0,1.027-4.788c0-4.878-2.451-8.18-6.258-10.359" transform="translate(154.55)" fill="#664646"/>
        </g>
        <g id="g1733" transform="translate(1.273 66.294)">
          <path id="path1735" d="M-64.674-84.662v-12.35h-9.434v5.092Z" transform="translate(74.108 97.012)" fill="#c38778"/>
        </g>
        <g id="g1737" transform="translate(19.389 38.895)">
          <path id="path1739" d="M0,0V4.151C0,8.489,1.623,10.68,3.395,10.68S6.79,8.489,6.79,4.151V0Z" fill="#dcf2f6"/>
        </g>
        <g id="g1741" transform="translate(1.52 29.235)">
          <path id="path1743" d="M-139.825-184.022a1.46,1.46,0,0,0,1.366-2.056l-.558-2.1a5.255,5.255,0,0,0,3.635-5.086c-1.951-1.623-5.274-3.015-5.274-4.55,0,0-1-10.722-5.749-13.054-.338,7.478-4.717,13.253-12.367,16.13l-1.45,16.3c1.371,2.319,7.163,7.511,15.56,7.511,1.024,0,1.992-2.107,1.992-7.561a6.482,6.482,0,0,1-2.876-4.487c.6-1.874,2.65-1.05,5.721-1.05" transform="translate(160.222 210.866)" fill="#ffcdbe"/>
        </g>
        <g id="g1745" transform="translate(1.273 61.617)">
          <path id="path1747" d="M-108.359-40.2a24.791,24.791,0,0,1-15.56-5.813l-.247,3.173A24.729,24.729,0,0,0-108.359-36.8c3.586,0,4.468-1.523,5.17-6.767a1.27,1.27,0,0,0-.867-1.374,8.909,8.909,0,0,1-2.311-1.117c-.621,4.517-.968,5.864-1.992,5.864" transform="translate(124.166 46.061)" fill="#ebae9d"/>
        </g>
        <g id="g1749" transform="translate(16.164 46.839)">
          <path id="path1751" d="M-79.379-14.857a3.09,3.09,0,0,0-1.384-2.167,10.558,10.558,0,0,1-4.361,3.85,1.271,1.271,0,0,0-.682,1.476l.269,1.01a.957.957,0,0,1-.895,1.347h-2.546c-1.6,0-2.121.2-1.949,2.607a42.665,42.665,0,0,0,6.192.788,2.546,2.546,0,0,0,2.461-3.2l-.468-1.761s3.364-1.735,3.364-3.949" transform="translate(90.959 17.024)" fill="#ebae9d"/>
        </g>
        <g id="g1753" transform="translate(15.337 27.409)">
          <path id="path1755" d="M-16.139-102.01h3.395v-5.5a11.652,11.652,0,0,0-4.115-9.378l-1.634,1.827a12.233,12.233,0,0,1,2.354,7.551Z" transform="translate(18.493 116.89)" fill="#ebae9d"/>
        </g>
        <g id="g1757" transform="translate(14.297 38.895)">
          <path id="path1759" d="M0,0V4.151C0,8.489,1.623,10.68,3.395,10.68S6.79,8.489,6.79,4.151V0Z" fill="#eef9fa"/>
        </g>
        <g id="g1761" transform="translate(1.273 45.978)">
          <path id="path1763" d="M-23.274,0l-3.395,1.3V16.571c3.857,0,7.275.295,8.461-2.058C-22.449,11.993-24.764,8.163-23.274,0" transform="translate(26.669)" fill="#785252"/>
        </g>
        <g id="g1765" transform="translate(1.273 60.491)">
          <path id="path1767" d="M-58.005,0a18.541,18.541,0,0,1-8.461,2.058V5.8c8.547,0,11.888-4.146,11.888-4.146A25.493,25.493,0,0,1-58.005,0" transform="translate(66.467)" fill="#664646"/>
        </g>
        <g id="g1769" transform="translate(1.273 26.129)">
          <path id="path1771" d="M0-121.705c7.451-2.483,13.152-7,13.152-16.474a1.273,1.273,0,1,1,2.546,0c0,13.978-9.6,17.726-15.7,19.868Z" transform="translate(0 139.459)" fill="#664646"/>
        </g>
        <g id="g1773" transform="translate(1.273 71.386)">
          <path id="path1775" d="M-118.7-70.644l-17.315-10.305v5.771L-123.33-66.7l5.521-3.395c-.279-.178-.574-.36-.889-.548" transform="translate(136.013 80.949)" fill="#94d8e6"/>
        </g>
        <g id="g1777" transform="translate(8.876 82.238)">
          <path id="path1779" d="M-72.666,0h-10.6l5.08,3.395h9.229A11.547,11.547,0,0,0-72.666,0" transform="translate(83.266)" fill="#6bbdd5"/>
        </g>
        <g id="g1781" transform="translate(1.273 77.157)">
          <path id="path1783" d="M0,0V5.082l4.269,1.7,4.269-1.7L0,0" fill="#6bbdd5"/>
        </g>
        <g id="g1785" transform="translate(1.273 82.239)">
          <path id="path1787" d="M-64.672-3.655l-.9-.533h-8.538V-.793h12.683a8.141,8.141,0,0,0-3.249-2.861" transform="translate(74.106 4.188)" fill="#5698af"/>
        </g>
        <g id="g1789" transform="translate(70.16 39.969)">
          <path id="path1791" d="M-16.8-34.128s-2.451-1.248-2.451-4.978h3.763" transform="translate(19.251 39.107)" fill="none" stroke="#000" stroke-linecap="round" stroke-linejoin="round" stroke-miterlimit="10" stroke-width="1.5"/>
        </g>
        <g id="g1793" transform="translate(64.832 34.059)">
          <path id="path1795" d="M-63.816-1.04c-3.6-.436-7.541.093-9.309,1.253" transform="translate(73.125 1.192)" fill="none" stroke="#000" stroke-linecap="round" stroke-linejoin="round" stroke-miterlimit="10" stroke-width="1.5"/>
        </g>
        <g id="g1797" transform="translate(58.653 22.229)">
          <path id="path1799" d="M-184.956-146.494v-3.629c0-3.386,0-4.814-5.812-9.275l2.168-4.98-4.332-3.486c-6.138,0-11.838,4.172-11.838,12.012v3.806c0,2.172-7.167,6.1-7.167,8.754,0,2.214,4.552,3.609,4.552,3.609l-.468,1.761a2.546,2.546,0,0,0,2.46,3.2h1.78a4.673,4.673,0,0,1,4.922,3.395l-6.641,1.476a1.273,1.273,0,0,0-1,1.243v4.992c0,2.567,1.336,4.908,4.617,4.908,8.344,0,16.755-5.23,16.755-5.23" transform="translate(211.937 167.864)" fill="none" stroke="#000" stroke-linecap="round" stroke-linejoin="round" stroke-miterlimit="10" stroke-width="1.5"/>
        </g>
        <g id="g1801" transform="translate(65.031 71.386)">
          <path id="path1803" d="M-141.232,0c-7.246,3.541-15.263,7.836-20.6,14.248" transform="translate(161.834)" fill="none" stroke="#000" stroke-linecap="round" stroke-linejoin="round" stroke-miterlimit="10" stroke-width="1.5"/>
        </g>
        <g id="g1805" transform="translate(73.258 82.612)">
          <path id="path1807" d="M-25.615,0a38.592,38.592,0,0,0-3.737,3.022" transform="translate(29.352)" fill="none" stroke="#000" stroke-linecap="round" stroke-linejoin="round" stroke-miterlimit="10" stroke-width="1.5"/>
        </g>
        <g id="g1809" transform="translate(81.264 77.157)">
          <path id="path1811" d="M-29.955,0c-1.416.805-2.9,1.683-4.37,2.6" transform="translate(34.325)" fill="none" stroke="#000" stroke-linecap="round" stroke-linejoin="round" stroke-miterlimit="10" stroke-width="1.5"/>
        </g>
        <g id="g1813" transform="translate(71.52 70.38)">
          <path id="path1815" d="M-45.855-33.431l-2.479-4.877a13.932,13.932,0,0,0-4.21,9.206" transform="translate(52.544 38.308)" fill="none" stroke="#000" stroke-linecap="round" stroke-linejoin="round" stroke-miterlimit="10" stroke-width="1.5"/>
        </g>
        <g id="g1817" transform="translate(77.34 55.061)">
          <path id="path1819" d="M-6.982,0V5.316A3.892,3.892,0,0,1-8,7.953" transform="translate(8)" fill="none" stroke="#000" stroke-linecap="round" stroke-linejoin="round" stroke-miterlimit="10" stroke-width="1.5"/>
        </g>
        <g id="g1821" transform="translate(1.273 45.978)">
          <path id="path1823" d="M-23.274,0c-1.854,10.158,2.184,13.607,8.493,16.169,0,0-3.341,4.146-11.888,4.146" transform="translate(26.669)" fill="none" stroke="#000" stroke-linecap="round" stroke-linejoin="round" stroke-miterlimit="10" stroke-width="1.5"/>
        </g>
        <g id="g1825" transform="translate(1.273 27.409)">
          <path id="path1827" d="M-127.224-24.724a10.73,10.73,0,0,0-2.861-3.607c0,13.978-9.6,17.726-15.7,19.868" transform="translate(145.782 28.331)" fill="none" stroke="#000" stroke-linecap="round" stroke-linejoin="round" stroke-miterlimit="10" stroke-width="1.5"/>
        </g>
        <g id="g1829" transform="translate(3.106 35.764)">
          <path id="path1831" d="M0-209.286A24.628,24.628,0,0,0,13.974-204.7c3.586,0,4.468-1.523,5.17-6.767a1.27,1.27,0,0,0-.867-1.374c-4.9-1.59-5.187-5.6-5.187-5.6a42.665,42.665,0,0,0,6.192.788,2.546,2.546,0,0,0,2.461-3.2l-.468-1.761s3.364-1.735,3.364-3.949c0-2.658-6.658-4.545-6.658-6.717v-5.5q0-.522-.033-1.022" transform="translate(0 239.815)" fill="none" stroke="#000" stroke-linecap="round" stroke-linejoin="round" stroke-miterlimit="10" stroke-width="1.5"/>
        </g>
        <g id="g1833" transform="translate(21.086 38.895)">
          <path id="path1835" d="M-32.145-51.353a12.544,12.544,0,0,0,.4-3.341v-4.15h-5.092" transform="translate(36.835 58.844)" fill="none" stroke="#000" stroke-linecap="round" stroke-linejoin="round" stroke-miterlimit="10" stroke-width="1.5"/>
        </g>
        <g id="g1837" transform="translate(1.273 26.751)">
          <path id="path1839" d="M-74.4,0c0,5.64-3.925,9.6-10.853,12.039" transform="translate(85.253)" fill="none" stroke="#000" stroke-linecap="round" stroke-linejoin="round" stroke-miterlimit="10" stroke-width="1.5"/>
        </g>
        <g id="g1841" transform="translate(14.297 38.895)">
          <path id="path1843" d="M0,0V4.151C0,8.489,1.623,10.68,3.395,10.68S6.79,8.489,6.79,4.151V0Z" fill="none" stroke="#000" stroke-linecap="round" stroke-linejoin="round" stroke-miterlimit="10" stroke-width="1.5"/>
        </g>
        <g id="g1845" transform="translate(1.273 77.157)">
          <path id="path1847" d="M0,0,9.434,5.615a8.138,8.138,0,0,1,3.249,2.861" fill="none" stroke="#000" stroke-linecap="round" stroke-linejoin="round" stroke-miterlimit="10" stroke-width="1.5"/>
        </g>
        <g id="g1849" transform="translate(1.273 71.386)">
          <path id="path1851" d="M0,0,17.315,10.305a12.929,12.929,0,0,1,4.6,3.942" fill="none" stroke="#000" stroke-linecap="round" stroke-linejoin="round" stroke-miterlimit="10" stroke-width="1.5"/>
        </g>
        <g id="g1853" transform="translate(10.707 70.13)">
          <path id="path1855" d="M0-45.56v-6.646" transform="translate(0 52.207)" fill="none" stroke="#000" stroke-linecap="round" stroke-linejoin="round" stroke-miterlimit="10" stroke-width="1.5"/>
        </g>
        <g id="g1857" transform="translate(56.312 1.273)">
          <path id="path1859" d="M0-2.656a50.216,50.216,0,0,1,6.474-.388c18.962,0,22.341,8.524,22.847,14.43-10.467,0-16.821,1.959-16.821,4.23a6.475,6.475,0,0,0,2.011,4.277" transform="translate(0 3.044)" fill="none" stroke="#000" stroke-linecap="round" stroke-linejoin="round" stroke-miterlimit="10" stroke-width="1.5"/>
        </g>
        <g id="g1861" transform="translate(39.939 2.732)">
          <path id="path1863" d="M-24.089-271.852a40.774,40.774,0,0,0,4.938-10.484C-26.9-285.9-27.6-292.414-27.6-296.4c0-4.416.863-11.955,11.249-15.113" transform="translate(27.603 311.509)" fill="none" stroke="#000" stroke-linecap="round" stroke-linejoin="round" stroke-miterlimit="10" stroke-width="1.5"/>
        </g>
        <g id="g1865" transform="translate(29.277 49.422)">
          <path id="path1867" d="M-97.181,0a86.545,86.545,0,0,1-14.176,10.164A107.735,107.735,0,0,0-103,.988" transform="translate(111.357)" fill="none" stroke="#000" stroke-linecap="round" stroke-linejoin="round" stroke-miterlimit="10" stroke-width="1.5"/>
        </g>
        <g id="g1869" transform="translate(46.499 33.967)">
          <path id="path1871" d="M-96.269-2.8a45.725,45.725,0,0,1-4.681-.408,47.246,47.246,0,0,1-9.363,12.6" transform="translate(110.312 3.208)" fill="none" stroke="#000" stroke-linecap="round" stroke-linejoin="round" stroke-miterlimit="10" stroke-width="1.5"/>
        </g>
        <g id="g1873" transform="translate(27.573 28.397)">
          <path id="path1875" d="M0-40.566q1.85-.115,3.471-.348C10.75-25.821,30.056-15.3,30.056-15.3S14.518-30.065,10.942-42.977a15.042,15.042,0,0,0,4.939-3.507" transform="translate(0 46.484)" fill="none" stroke="#000" stroke-linecap="round" stroke-linejoin="round" stroke-miterlimit="10" stroke-width="1.5"/>
        </g>
        <g id="g1877" transform="translate(11.316 20.662)">
          <path id="path1879" d="M0,0C8.8,1.406,15.889,5.146,15.889,13.445a10.527,10.527,0,0,1-1.027,4.788" fill="none" stroke="#000" stroke-linecap="round" stroke-linejoin="round" stroke-miterlimit="10" stroke-width="1.5"/>
        </g>
        <g id="g1881" transform="translate(1.273 1.273)">
          <path id="path1883" d="M-286.99-38.957c-3.135-3.207-8.8-5.683-19.018-5.683-21.413,0-22.847,10.88-22.847,16.572,0,.64,0,2.1,0,2.1,1.554,0,3.116.042,4.659.137" transform="translate(328.855 44.64)" fill="none" stroke="#000" stroke-linecap="round" stroke-linejoin="round" stroke-miterlimit="10" stroke-width="1.5"/>
        </g>
      </g>
    </g>
  </g>
</svg>
