<svg xmlns="http://www.w3.org/2000/svg" xmlns:xlink="http://www.w3.org/1999/xlink" width="392.68" height="593.723" viewBox="0 0 392.68 593.723">
  <defs>
    <clipPath id="clip-path">
      <rect id="Rectangle_340751" data-name="Rectangle 340751" width="392.68" height="593.723" transform="translate(299 970.277)" fill="#fff" opacity="0.61"/>
    </clipPath>
    <filter id="Rectangle_340752" x="-9" y="-6.277" width="411" height="594" filterUnits="userSpaceOnUse">
      <feOffset dy="3" input="SourceAlpha"/>
      <feGaussianBlur stdDeviation="3" result="blur"/>
      <feFlood flood-opacity="0.161"/>
      <feComposite operator="in" in2="blur"/>
      <feComposite in="SourceGraphic"/>
    </filter>
    <clipPath id="clip-path-2">
      <rect id="Rectangle_340747" data-name="Rectangle 340747" width="411.898" height="267.213" fill="#3c3fa7"/>
    </clipPath>
    <clipPath id="clip-path-3">
      <rect id="Rectangle_340748" data-name="Rectangle 340748" width="563.278" height="479.078" fill="none"/>
    </clipPath>
    <clipPath id="clip-path-4">
      <path id="Path_609649" data-name="Path 609649" d="M613.419,234.646s3.248,9.773,12.784,12.707,22.549-4.493,22.549-4.493-1.421-10.981-14.285-15.459a18.507,18.507,0,0,0-6.114-1.084c-9.588,0-14.934,8.328-14.934,8.328" transform="translate(-613.419 -226.318)" fill="none"/>
    </clipPath>
    <clipPath id="clip-path-6">
      <path id="Path_609652" data-name="Path 609652" d="M569.069,197.2s-6.34,18.357,11.761,16.116c0,0,6.485-15.891-1.152-20.092a8.549,8.549,0,0,0-4.112-1.2c-4.616,0-6.5,5.176-6.5,5.176" transform="translate(-567.993 -192.026)" fill="none"/>
    </clipPath>
  </defs>
  <g id="_3" data-name="3" transform="translate(-299 -970.277)" clip-path="url(#clip-path)">
    <g transform="matrix(1, 0, 0, 1, 299, 970.28)" filter="url(#Rectangle_340752)">
      <rect id="Rectangle_340752-2" data-name="Rectangle 340752" width="393" height="576" transform="translate(0 -0.28)" fill="#fff"/>
    </g>
    <rect id="Rectangle_340744" data-name="Rectangle 340744" width="395.805" height="576" transform="translate(295.78 970.277)" fill="#6b8dfc"/>
    <g id="Group_986993" data-name="Group 986993" transform="translate(276.238 1086.483)">
      <g id="Group_986990" data-name="Group 986990" transform="translate(3.021 175.632)">
        <rect id="Rectangle_340745" data-name="Rectangle 340745" width="311.568" height="312.598" transform="translate(100.853)" fill="#6b8dfc"/>
        <path id="Rectangle_340746" data-name="Rectangle 340746" d="M139,0H412.421a0,0,0,0,1,0,0V142.315a0,0,0,0,1,0,0H0a0,0,0,0,1,0,0V139A139,139,0,0,1,139,0Z" transform="translate(0 170.284)" fill="#3c3fa7"/>
      </g>
      <g id="Group_986992" data-name="Group 986992" transform="translate(0 -90)">
        <g id="Group_986991" data-name="Group 986991" clip-path="url(#clip-path-2)">
          <path id="Path_609596" data-name="Path 609596" d="M79.859,172.847H61.594a.844.844,0,0,1-.855-.833V15.882H.855a.833.833,0,1,1,0-1.665H61.594a.843.843,0,0,1,.855.833V171.182H79V.833a.835.835,0,0,1,.6-.8.869.869,0,0,1,.959.326L94.377,20.012a.814.814,0,0,1,.149.47V155.132h14.862v-76.9a.845.845,0,0,1,.855-.833h91.8V18.209a.843.843,0,0,1,.855-.833h58.751a.843.843,0,0,1,.855.833v106.48h76.872V58.474a.843.843,0,0,1,.855-.833H376.19a.843.843,0,0,1,.855.833V85.591h12.9V16.629a.814.814,0,0,1,.15-.47l10.017-14.25a.864.864,0,0,1,.959-.326.835.835,0,0,1,.6.8V96.047h9.368a.833.833,0,1,1,0,1.665H400.82a.843.843,0,0,1-.855-.833V5.07l-8.307,11.818V86.424a.843.843,0,0,1-.855.833H376.19a.843.843,0,0,1-.855-.833V59.307H341.086v66.215a.843.843,0,0,1-.855.833H261.648a.843.843,0,0,1-.855-.833V19.042h-57.04V78.235a.844.844,0,0,1-.855.833H111.1v76.9a.844.844,0,0,1-.855.833H93.671a.844.844,0,0,1-.855-.833V20.74L80.714,3.524v168.49a.843.843,0,0,1-.855.833" transform="translate(0 0)" fill="#3c3fa7"/>
          <path id="Path_609597" data-name="Path 609597" d="M267.656,293.825h-.041a.842.842,0,0,1-.814-.871c1.691-35.063-4.157-56.619-17.381-64.068-6.92-3.9-14.65-2.986-19.917-1.534a42.349,42.349,0,0,0-10,4.193.873.873,0,0,1-.913,0,.825.825,0,0,1-.4-.8,76.774,76.774,0,0,0-1.264-22.44c-3.33-15.231-11.318-24.329-23.743-27.04-8.059-1.758-14.976-.777-20.564,2.917-10.389,6.867-12.778,20.9-12.8,21.045a.861.861,0,0,1-1.656.135,64.984,64.984,0,0,0-12.874-20.309c-8.485-9.163-23.6-20-47.512-19.449-19.287.426-34.853,6.62-46.267,18.409-22.534,23.276-21.388,60.931-21.374,61.308a.842.842,0,0,1-.813.863.877.877,0,0,1-.895-.781c-.013-.2-1.364-19.944-12.1-27.557-4.184-2.968-9.32-3.722-15.262-2.24a.857.857,0,0,1-1.04-.6A.831.831,0,0,1,.643,214c6.462-1.611,12.078-.767,16.7,2.51,4.8,3.407,8.416,9.3,10.741,17.518.252.892.476,1.761.671,2.6,1.043-12.8,5.218-36.906,21.507-53.737,11.741-12.131,27.715-18.5,47.481-18.94,24.579-.52,40.139,10.6,48.868,20.049a68.677,68.677,0,0,1,12.135,18.271c1.244-4.618,4.678-14.008,12.916-19.455,5.992-3.964,13.36-5.03,21.9-3.165,27.8,6.067,27.015,41.616,26.469,49.674,4.461-2.387,18.259-8.617,30.238-1.878,13.828,7.78,19.966,29.849,18.242,65.592a.846.846,0,0,1-.854.793" transform="translate(0 -27.445)" fill="#3c3fa7"/>
          <path id="Path_609598" data-name="Path 609598" d="M355.373,305.963h-.029a.841.841,0,0,1-.826-.859,103.019,103.019,0,0,1,3.591-22.073c4.285-14.779,11.644-22.844,21.282-23.325a6.909,6.909,0,0,1,5.2,1.892c2.542,2.355,3.757,6.506,4.338,9.983,2.59-11.679,9.531-36.945,21.578-39.677,13.3-3.017,18.766,9.9,20.137,13.964,3.291-2.323,13.861-8.969,21.8-4.776,10.619,5.6,10.741,27.282,10.741,28.2a.856.856,0,0,1-1.711,0c0-.216-.12-21.605-9.846-26.738-8.326-4.4-20.793,5.25-20.918,5.349a.869.869,0,0,1-.811.139.843.843,0,0,1-.557-.592,26.66,26.66,0,0,0-4-8.294c-3.745-5.062-8.607-6.957-14.453-5.632-14.288,3.242-21.374,43.734-21.444,44.142a.857.857,0,0,1-1.7-.138c0-.107-.036-10.74-4.342-14.727a5.129,5.129,0,0,0-3.933-1.433c-21.556,1.075-23.236,43.363-23.251,43.79a.845.845,0,0,1-.854.805" transform="translate(-51.29 -38.75)" fill="#3c3fa7"/>
        </g>
      </g>
    </g>
    <g id="Group_987004" data-name="Group 987004" transform="translate(237.146 1084.922)">
      <path id="Path_609599" data-name="Path 609599" d="M157.759,546.843,115.32,698.823l183.292-1.831L274.774,543.214Z" transform="translate(-46.65 -219.745)" fill="#ffc849"/>
      <g id="Group_986995" data-name="Group 986995">
        <g id="Group_986994" data-name="Group 986994" clip-path="url(#clip-path-3)">
          <path id="Path_609600" data-name="Path 609600" d="M333.282,232.32c7.327,20.661-2.185,42.889-21.246,49.649s-40.453-4.51-47.779-25.17,2.185-42.889,21.245-49.649,40.453,4.509,47.78,25.169" transform="translate(-105.899 -83.005)"/>
          <path id="Path_609601" data-name="Path 609601" d="M241.21,592.7a.456.456,0,0,0,.048,0l89.158-4.675a.914.914,0,0,0,.865-.962.886.886,0,0,0-.962-.865l-89.158,4.675a.915.915,0,0,0,.048,1.829" transform="translate(-97.206 -237.132)"/>
          <path id="Path_609602" data-name="Path 609602" d="M185.056,264.362l63.353-17.811-3.837-29.862,32.7-1.828-.351,23.5,11.031-2.927a32.01,32.01,0,0,1,39.061,20.134l22.215,78.23s-9.2,10.322-6.812,27.929c3.142,23.15,9.862,92.927,9.862,92.927l10.68-1.632,5.011,43.784-26.713-36.14a102.647,102.647,0,0,1-23.631-42.314l-7.364-26.509-10.086,17.6-124,6.3Z" transform="translate(-71.269 -86.917)" fill="#ffc849"/>
          <path id="Path_609603" data-name="Path 609603" d="M503.528,572.243a.915.915,0,0,0,.915-.9l1.1-59.878a.915.915,0,1,0-1.83-.032l-1.1,59.878a.916.916,0,0,0,.9.931Z" transform="translate(-203.321 -206.524)"/>
          <path id="Path_609604" data-name="Path 609604" d="M481.427,614.7l10.836,57.929,2.7-60Z" transform="translate(-194.751 -247.825)" fill="#f4a187"/>
          <path id="Path_609605" data-name="Path 609605" d="M505.994,743.9l6.583,35.138,8.046-35.27Z" transform="translate(-204.689 -300.874)" fill="#f4a187"/>
          <path id="Path_609606" data-name="Path 609606" d="M684.75,323.842a69.4,69.4,0,0,1-21.973,20.407l-19.69-.376,1.9-86.089,39.762-44.242s27.394-8.9,27.544,25.415c.1,23.824.064,65.761.029,89.184Z" transform="translate(-260.147 -85.964)" fill="#fd521b"/>
          <path id="Path_609607" data-name="Path 609607" d="M606.834,367.483c-25.64.07-32.1-20.344-33.658-28.443l18.953-3.263V282.543h36.786v53.235l26.631,4.992c-3.994,5.562-20.955,26.637-48.713,26.713" transform="translate(-231.866 -114.297)" fill="#f4a187"/>
          <path id="Path_609608" data-name="Path 609608" d="M505.994,780.773l5.416-37.658H648.556l14.7,37.658Z" transform="translate(-204.689 -300.611)" fill="#5774cd"/>
          <path id="Path_609609" data-name="Path 609609" d="M156.34,543.779l120-3.722,24.248,156.434.163,1.055H115.32Zm118.434-1.841-117.014,3.629L117.7,695.715H298.612Z" transform="translate(-46.65 -218.468)"/>
          <path id="Path_609610" data-name="Path 609610" d="M641.791,312.965c-10.306,9.3-25.985,10.972-36.787,10.826V291.77h36.787Z" transform="translate(-244.741 -118.029)"/>
          <path id="Path_609611" data-name="Path 609611" d="M119.012,608.784,267.3,477.516l-14.335,5.836L108.451,595.078Z" transform="translate(-43.871 -193.168)" fill="#5774cd"/>
          <path id="Path_609612" data-name="Path 609612" d="M341.693,29.673c5.382,15.175-1.6,31.5-15.6,36.467s-29.712-3.311-35.094-18.486,1.6-31.5,15.6-36.467,29.712,3.312,35.094,18.487" transform="translate(-116.981 -3.942)"/>
          <path id="Path_609613" data-name="Path 609613" d="M188.766,74.813a36.394,36.394,0,1,1-36.395-36.394,36.395,36.395,0,0,1,36.395,36.394" transform="translate(-46.916 -15.542)"/>
          <path id="Path_609614" data-name="Path 609614" d="M118.944,177.544a45.5,45.5,0,1,1-45.5-45.5,45.5,45.5,0,0,1,45.5,45.5" transform="translate(-11.302 -53.415)"/>
          <path id="Path_609615" data-name="Path 609615" d="M398.131,99.073c6.033,17.01-1.8,35.311-17.492,40.877s-33.305-3.712-39.338-20.722,1.8-35.311,17.492-40.876,33.305,3.712,39.338,20.722" transform="translate(-137.242 -31.042)"/>
          <path id="Path_609616" data-name="Path 609616" d="M404.908,192.909c7.062,19.912-2.106,41.336-20.477,47.851s-38.988-4.346-46.049-24.258,2.106-41.336,20.476-47.851,38.988,4.345,46.05,24.258" transform="translate(-135.921 -67.459)"/>
          <path id="Path_609617" data-name="Path 609617" d="M217.794,127.159c7.327,20.661-2.185,42.889-21.246,49.649s-40.453-4.509-47.78-25.17,2.185-42.889,21.246-49.649,40.453,4.509,47.78,25.169" transform="translate(-59.181 -40.464)"/>
          <path id="Path_609618" data-name="Path 609618" d="M115.08,355.509l-9.648-24.021,16.7-6.5,7,17.148L120.1,356.9Z" transform="translate(-42.65 -131.465)"/>
          <path id="Path_609619" data-name="Path 609619" d="M75.287,371.583s-23.276,1.781-45.755,31.492l-9.76,78.235L0,500.489l3.868,81.405,71.273-15.963L98.78,387.522Z" transform="translate(0 -150.316)" fill="#5774cd"/>
          <path id="Path_609620" data-name="Path 609620" d="M107.771,329.737l-4.491,26.622-16.026,8.029L90.148,336.3Z" transform="translate(-35.297 -133.388)" fill="#5774cd"/>
          <path id="Path_609621" data-name="Path 609621" d="M292.594,58.308s34.357,7.814,25.559,54.068-33.8,50.635-50.723,46.078c-20.94-5.637-41.158-26.054-38.832-38.279l-1.842-61.206Z" transform="translate(-91.729 -23.587)" fill="#e27171"/>
          <path id="Path_609622" data-name="Path 609622" d="M346.183,131.033s1.277-11.9-10.817-16.414-19.436.48-19.436.48-.976,11.559,12.757,17.072,17.495-1.137,17.495-1.137" transform="translate(-127.797 -45.602)" fill="#fff"/>
          <path id="Path_609623" data-name="Path 609623" d="M376.512,150.878l12.611,1.746-16.554,12.253Z" transform="translate(-150.715 -61.034)" fill="#e27171"/>
          <path id="Path_609624" data-name="Path 609624" d="M324.266,94.8a1.747,1.747,0,0,1-1.3-1.033,1.5,1.5,0,0,1,.993-2,32.726,32.726,0,0,1,22.986,1.023,1.552,1.552,0,0,1,.757,2.135,1.739,1.739,0,0,1-2.286.634,29.546,29.546,0,0,0-20.25-.812,1.827,1.827,0,0,1-.895.052" transform="translate(-130.602 -36.482)"/>
          <path id="Path_609625" data-name="Path 609625" d="M183.822,280.644,145.46,290.972a52.561,52.561,0,0,0-37.7,39.588L79.26,461.693a42.009,42.009,0,0,0,67.956,41.185L224.9,438.087,200.46,392.476l-47.965,29.7,6.584-118.212Z" transform="translate(-31.674 -113.528)" fill="#ffc049"/>
          <path id="Path_609626" data-name="Path 609626" d="M353.825,131.969s1.277-11.9-10.817-16.414c-.508-.19-1-.357-1.5-.514a11.019,11.019,0,0,0-6.706,10.3,11.847,11.847,0,0,0,3.737,8.577c11.925,3.971,15.281-1.948,15.281-1.948" transform="translate(-135.439 -46.537)"/>
          <path id="Path_609627" data-name="Path 609627" d="M343.324,194.256a1.49,1.49,0,0,0,.879-2.693c-4.613-3.367-8.784-7.352-8.923-8.53a1.466,1.466,0,0,0-1.336-1.6,1.532,1.532,0,0,0-1.63,1.362c-.309,3.07,6.217,8.321,10.131,11.176a1.489,1.489,0,0,0,.879.286" transform="translate(-134.426 -73.392)"/>
          <path id="Path_609628" data-name="Path 609628" d="M202.9,287.227l13.714-6.583,71.116,93.808-11.321,7.68Z" transform="translate(-82.079 -113.528)" fill="#5774cd"/>
          <path id="Path_609629" data-name="Path 609629" d="M176.02,278.534c0,22.354-16.718,40.475-37.341,40.475s-37.342-18.121-37.342-40.475,16.718-40.475,37.342-40.475,37.341,18.121,37.341,40.475" transform="translate(-40.994 -96.301)"/>
          <path id="Path_609630" data-name="Path 609630" d="M259.083,279.1c5.061,14.269-1.509,29.622-14.674,34.29s-27.939-3.114-33-17.383,1.51-29.622,14.674-34.291,27.939,3.114,33,17.384" transform="translate(-84.83 -105.325)"/>
          <path id="Path_609631" data-name="Path 609631" d="M225.826,177.324c8.332,23.495-2.485,48.774-24.161,56.461s-46-5.128-54.335-28.623,2.485-48.773,24.161-56.461,46,5.127,54.336,28.623" transform="translate(-58.462 -59.251)"/>
          <path id="Path_609632" data-name="Path 609632" d="M262.1,19.927c5.382,15.175-1.6,31.5-15.6,36.467S216.781,53.082,211.4,37.907,213,6.406,227,1.441,256.716,4.752,262.1,19.927" transform="translate(-84.782 0)"/>
          <path id="Path_609633" data-name="Path 609633" d="M289.05,39.853c5.137,14.486-6.977,32-27.058,39.124s-40.524,1.152-45.661-13.334,6.977-32,27.058-39.125,40.524-1.151,45.662,13.335" transform="translate(-87.034 -9.512)"/>
          <path id="Path_609634" data-name="Path 609634" d="M242.2,114.892s-5.176-12.165-16.524-8.7-10.512,22.343-1.066,25.945c10.61,4.046,17.154-2.062,17.154-2.062Z" transform="translate(-87.922 -42.705)" fill="#e27171"/>
          <path id="Path_609635" data-name="Path 609635" d="M242.895,127.715a1.756,1.756,0,0,1-1.26-.935c-2.638-5.416-10.954-9.473-11.038-9.513a1.555,1.555,0,0,1-.78-2.129,1.738,1.738,0,0,1,2.283-.653c.386.186,9.5,4.638,12.638,11.081a1.49,1.49,0,0,1-.844,2.06,1.807,1.807,0,0,1-1,.09" transform="translate(-92.897 -46.237)"/>
          <path id="Path_609636" data-name="Path 609636" d="M235.249,134.269a1.8,1.8,0,0,1-1-.552,1.483,1.483,0,0,1,.179-2.215l6.188-4.739a1.816,1.816,0,0,1,2.405.235,1.483,1.483,0,0,1-.179,2.215l-6.188,4.739a1.771,1.771,0,0,1-1.408.317" transform="translate(-94.594 -51.138)"/>
          <path id="Path_609637" data-name="Path 609637" d="M288.423,457.191l2.561-4.871s1.006-21.553,17.049-30.1,11.369,1.15,11.369,1.15,12.143,29.513,8.537,38.756c-1.207,3.092-14.3,10.682-20.073,12.961-3.685,1.453-6.958,5.513-6.958,5.513Z" transform="translate(-116.675 -169.372)" fill="#e27171"/>
          <path id="Path_609638" data-name="Path 609638" d="M331.965,423.257l-16.538,8.074a5.381,5.381,0,0,0-2.24,7.5,5.774,5.774,0,0,0,7.879,2.357l15.869-9.243a4.773,4.773,0,0,0,1.486-6.767,5.1,5.1,0,0,0-6.457-1.924" transform="translate(-126.406 -171.024)" fill="#e27171"/>
          <path id="Path_609639" data-name="Path 609639" d="M345.682,445.868,326.54,456.656a5.318,5.318,0,0,1-6.483-1.178l-.35-.382a5.065,5.065,0,0,1,1.078-7.964l19.492-10.407a5.379,5.379,0,0,1,6.915,1.9,5.012,5.012,0,0,1-1.51,7.239" transform="translate(-128.742 -176.433)" fill="#e27171"/>
          <path id="Path_609640" data-name="Path 609640" d="M354.661,456.148h0a4.639,4.639,0,0,0-5.893-1.424l-13.014,6.7a4.638,4.638,0,0,0-2.2,5.8l.427,1.1a4.637,4.637,0,0,0,6.769,2.269l12.587-7.8a4.637,4.637,0,0,0,1.328-6.641" transform="translate(-134.804 -183.74)" fill="#e27171"/>
          <path id="Path_609641" data-name="Path 609641" d="M358.136,472.393h0a4.017,4.017,0,0,0-4.685-.858l-10.627,5.74a3.462,3.462,0,0,0-1.114,4.97l.7,1.148a4.055,4.055,0,0,0,5.617,1.451l9.923-6.887a3.61,3.61,0,0,0,.182-5.563" transform="translate(-137.99 -190.58)" fill="#e27171"/>
          <path id="Path_609642" data-name="Path 609642" d="M342.4,461.113a.621.621,0,0,1-.513-1.13c.665-.312,8.352-4.425,12.323-6.556a.621.621,0,1,1,.586,1.094c-.47.252-11.521,6.182-12.382,6.586l-.015.007" transform="translate(-138.16 -183.394)"/>
          <path id="Path_609643" data-name="Path 609643" d="M335.8,443.737a.62.62,0,0,1-.511-1.13c.738-.345,9.51-5.276,14.045-7.836a.62.62,0,1,1,.61,1.081c-.537.3-13.164,7.428-14.131,7.88l-.013.005" transform="translate(-135.488 -175.845)"/>
          <path id="Path_609644" data-name="Path 609644" d="M348.465,476.332a.62.62,0,0,1-.5-1.136c.877-.386,7.314-4.074,10.595-5.97a.621.621,0,1,1,.621,1.075c-.39.225-9.559,5.522-10.716,6.031h0" transform="translate(-140.612 -189.781)"/>
          <path id="Path_609645" data-name="Path 609645" d="M314.54,435.547a.621.621,0,0,1-.562-1.1l7.31-4.268a.62.62,0,1,1,.625,1.071l-7.309,4.269a.572.572,0,0,1-.064.033" transform="translate(-126.888 -173.983)"/>
          <path id="Path_609646" data-name="Path 609646" d="M549.588,202.2c7.034-29.508,39.725-53.947,67.187-48.01s44.662,32.035,37.627,61.544-36.562,43.508-67.511,40.678c-29.76-2.721-44.338-24.7-37.3-54.212" transform="translate(-221.617 -62.011)" fill="#f4a187"/>
          <path id="Path_609647" data-name="Path 609647" d="M613.419,234.646s7.646-11.911,21.049-7.245c12.863,4.478,14.285,15.459,14.285,15.459s-13.013,7.428-22.549,4.493-12.784-12.708-12.784-12.708" transform="translate(-248.145 -91.552)" fill="#fff"/>
        </g>
      </g>
      <g id="Group_986997" data-name="Group 986997" transform="translate(365.274 134.766)">
        <g id="Group_986996" data-name="Group 986996" clip-path="url(#clip-path-4)">
          <path id="Path_609648" data-name="Path 609648" d="M641.509,238.425c-1.918,7.164-8.854,11.153-15.494,8.909s-10.466-9.871-8.549-17.035,8.855-11.153,15.494-8.909,10.466,9.871,8.549,17.035" transform="translate(-614.856 -224.072)"/>
        </g>
      </g>
      <g id="Group_986999" data-name="Group 986999">
        <g id="Group_986998" data-name="Group 986998" clip-path="url(#clip-path-3)">
          <path id="Path_609650" data-name="Path 609650" d="M580.83,213.319s6.485-15.891-1.152-20.093-10.61,3.977-10.61,3.977-6.34,18.357,11.761,16.116" transform="translate(-229.769 -77.68)" fill="#fff"/>
        </g>
      </g>
      <g id="Group_987001" data-name="Group 987001" transform="translate(338.224 114.346)">
        <g id="Group_987000" data-name="Group 987000" clip-path="url(#clip-path-6)">
          <path id="Path_609651" data-name="Path 609651" d="M579.393,203.694c-3.133,7.175-8.988,11.22-13.077,9.037s-4.863-9.771-1.73-16.945,8.989-11.22,13.077-9.037,4.863,9.769,1.73,16.944" transform="translate(-565.837 -189.652)"/>
        </g>
      </g>
      <g id="Group_987003" data-name="Group 987003">
        <g id="Group_987002" data-name="Group 987002" clip-path="url(#clip-path-3)">
          <path id="Path_609653" data-name="Path 609653" d="M599.538,185.083a1.2,1.2,0,0,0,1.052-1.773,13.593,13.593,0,0,0-14.595-6.3,1.2,1.2,0,0,0,.491,2.346,11.169,11.169,0,0,1,12,5.1,1.2,1.2,0,0,0,1.052.624" transform="translate(-236.666 -71.47)"/>
          <path id="Path_609654" data-name="Path 609654" d="M657.458,220.067a1.2,1.2,0,0,0,1.03-1.811c-7.994-13.446-20.1-14.085-20.61-14.105a1.182,1.182,0,0,0-1.246,1.146,1.2,1.2,0,0,0,1.145,1.249c.461.021,11.347.651,18.651,12.934a1.2,1.2,0,0,0,1.03.587" transform="translate(-257.535 -82.584)"/>
          <path id="Path_609655" data-name="Path 609655" d="M608.705,159.624c10.471-5.428,21.976-7.75,32.691-5.434,27.462,5.937,44.662,32.035,37.627,61.543a50.162,50.162,0,0,1-5.691,14.045c-.8-.426-1.63-.908-2.491-1.466-28.533-18.476-20.743-60.64-20.743-60.64-11.125-11.555-30.87-9.952-41.394-8.049" transform="translate(-246.238 -62.013)" fill="#fd521b"/>
          <path id="Path_609656" data-name="Path 609656" d="M577.4,263.014c2.3,2.233,12.091,8.447,14.121,9.547s2.671,6.689-6.649,5.081c-16.754-2.891-14.254-21.224-7.472-14.627" transform="translate(-231.475 -105.821)"/>
          <path id="Path_609657" data-name="Path 609657" d="M823.353,658.1l-27-50.224,38.836-27.237,23.144,61.232Z" transform="translate(-322.147 -234.885)" fill="#f4a187"/>
          <path id="Path_609658" data-name="Path 609658" d="M479.218,593.963a.908.908,0,0,1-.252-.674l3.457-76.974-18.1,2.766a.914.914,0,0,1-1.048-.809L453.01,421.538a33.617,33.617,0,0,1,25.615-36.18l56.665-13.447a.918.918,0,0,1,1.125.828c.066.954,1.886,23.352,25.043,23.352h.1c23.606-.065,36.988-20.783,37.121-20.992a.923.923,0,0,1,.915-.416l51.912,8.094A35.983,35.983,0,0,1,679.938,406.4l28.216,80.079a.916.916,0,0,1-.338,1.053L647.12,530.1a.913.913,0,0,1-1.364-.385l-13.12-30.152,2.526,93.739a.915.915,0,0,1-.915.94H479.879a.916.916,0,0,1-.662-.282" transform="translate(-183.179 -150.438)" fill="#dee9ec"/>
          <path id="Path_609659" data-name="Path 609659" d="M835.828,583.6l-40.039,38.226L788.3,607.9l44.827-31.439Z" transform="translate(-318.891 -233.197)"/>
          <path id="Path_609660" data-name="Path 609660" d="M894.055,475.233s8.954-22.416,10.26-26.639c2.094-6.771,10.659-19.475,13.234-24.472.587-1.14.062-2.614-1.28-3.595-1.916-1.4-4.61-1.314-5.706.181-3.156,4.308-9.235,12.588-13.378,18.124-5.818,7.774-15.013,38.12-15.013,38.12l2.575,5.589Z" transform="translate(-356.863 -169.711)" fill="#f4a187"/>
          <path id="Path_609661" data-name="Path 609661" d="M898.353,458.674s4.778-14.5,9.674-22.59c3.949-6.525,11.4-20.824,14.141-26.117A2.966,2.966,0,0,0,921,406.284c-1.923-1.44-4.688-1.282-5.854.337-3.331,4.621-9.712,13.456-14.062,19.37-6.121,8.325-5.058,28.814-5.058,28.814l-3.534,10.865Z" transform="translate(-361.036 -163.954)" fill="#f4a187"/>
          <path id="Path_609662" data-name="Path 609662" d="M907.518,444.776s1.2-11.079,6.1-19.17c3.918-6.475,11.289-20.606,14.078-25.994a3.147,3.147,0,0,0-1.243-3.906c-1.853-1.387-4.516-1.236-5.64.324-3.307,4.589-9.757,13.52-14.141,19.483-6.122,8.325-5.059,28.815-5.059,28.815l.238,16.224Z" transform="translate(-364.697 -159.69)" fill="#f4a187"/>
          <path id="Path_609663" data-name="Path 609663" d="M894.138,448.577s6.656-11.135,9.068-20.22c1.914-7.208,2.126-21.556,2.132-27.176a3.17,3.17,0,0,0-2.793-2.815c-2.761-.477-5.151.968-5.36,3.241-.507,5.517-1.65,15.363-3.774,21.762-2.809,8.464-13.056,41.454-13.056,41.454l3.657,9.119Z" transform="translate(-356.128 -161.113)" fill="#f4a187"/>
          <path id="Path_609664" data-name="Path 609664" d="M874.479,487.931s4.512-13.251,3.764-16.531c-2.193-9.629-3.157-17.56-1.537-23.021,1.443-4.864.342-10.146.185-13.864a4.582,4.582,0,0,1,4.2-4.655,4.452,4.452,0,0,1,4.6,2.429c1.148,2.71,2.943,7.083,4.765,12.071,3.049,8.344-8.813,42.342-8.813,42.342Z" transform="translate(-353.751 -173.874)" fill="#f4a187"/>
          <path id="Path_609665" data-name="Path 609665" d="M926.852,419.7a.4.4,0,0,1-.064.086.638.638,0,0,1-.8.007,4.433,4.433,0,0,0-2.831-.852,2.641,2.641,0,0,0-2.035.982c-.852,1.162-1.934,2.646-3.141,4.3-3.324,4.558-7.46,10.23-10.487,14.275a.607.607,0,0,1-.783.085.473.473,0,0,1-.213-.678c3.024-4.041,7.158-9.711,10.481-14.267,1.208-1.657,2.291-3.141,3.143-4.3a3.627,3.627,0,0,1,2.793-1.358,5.868,5.868,0,0,1,3.753,1.126.469.469,0,0,1,.188.6" transform="translate(-366.672 -169.078)"/>
          <path id="Path_609666" data-name="Path 609666" d="M927.92,407.329a.451.451,0,0,1-.289.211.691.691,0,0,1-.76-.328,4.934,4.934,0,0,0-1.239-1.348,4.3,4.3,0,0,0-2.624-.8,2.4,2.4,0,0,0-1.748,1.066c-8.586,11.912-14,20.2-16.08,24.629a.555.555,0,0,1-.737.194.515.515,0,0,1-.339-.654c2.1-4.474,7.537-12.8,16.151-24.751a3.381,3.381,0,0,1,2.462-1.442,5.66,5.66,0,0,1,3.516,1.02,5.961,5.961,0,0,1,1.681,1.818.406.406,0,0,1,0,.388" transform="translate(-365.721 -163.463)"/>
          <path id="Path_609667" data-name="Path 609667" d="M915.449,409.776l0,0c-2.864,5.024-8.218,14.394-11.892,20.694a.581.581,0,0,1-.76.147.494.494,0,0,1-.285-.667c3.672-6.3,9.025-15.665,11.888-20.688a.578.578,0,0,1,.757-.152.5.5,0,0,1,.294.661" transform="translate(-365.069 -165.468)"/>
          <path id="Path_609668" data-name="Path 609668" d="M886.415,463.463a.565.565,0,0,1-.714.176.52.52,0,0,1-.355-.65l7.771-17.781a.555.555,0,0,1,.729-.208.521.521,0,0,1,.355.65l-7.771,17.781c0,.011-.01.022-.015.032" transform="translate(-358.134 -179.993)"/>
          <path id="Path_609669" data-name="Path 609669" d="M878.116,513.072l-3.482,104.467c-.334,10.017-9.7,17.691-20.43,16.742-10.84-.96-18.5-10.308-16.618-20.28l21.346-113.088Z" transform="translate(-338.712 -202.633)" fill="#f4a187"/>
          <path id="Path_609670" data-name="Path 609670" d="M875.739,486.012,904.2,491.69a6.565,6.565,0,0,1,5.26,6.953l-.769,9.782a6.565,6.565,0,0,1-8.337,5.8l-27.991-7.948A6.564,6.564,0,0,1,867.6,499.7l.3-7.512a6.565,6.565,0,0,1,7.843-6.177" transform="translate(-350.965 -196.553)" fill="#ffc849"/>
          <path id="Path_609671" data-name="Path 609671" d="M490.829,454.862a.952.952,0,0,0,.261-.037.917.917,0,0,0,.617-1.139l-10.024-33.78a.915.915,0,1,0-1.755.52l10.023,33.781a.916.916,0,0,0,.878.654" transform="translate(-194.129 -169.598)"/>
          <path id="Path_609672" data-name="Path 609672" d="M752.419,548.955a.915.915,0,0,0,.915-.908l.335-43.819a.915.915,0,0,0-.908-.923h-.007a.915.915,0,0,0-.915.908l-.335,43.819a.915.915,0,0,0,.908.922Z" transform="translate(-304.004 -203.601)"/>
          <path id="Path_609673" data-name="Path 609673" d="M760.867,446.916a.916.916,0,0,0,.735-.368l31.511-42.359a.915.915,0,1,0-1.469-1.092l-31.511,42.357a.915.915,0,0,0,.735,1.462" transform="translate(-307.422 -162.914)"/>
          <path id="Path_609674" data-name="Path 609674" d="M234.2,528.95a.914.914,0,0,0,.587-.213l17.5-14.6a.914.914,0,0,0,.22-1.135l-24.444-45.612a.917.917,0,0,0-1.309-.332l-81.8,53.68a.915.915,0,1,0,1,1.53l80.96-53.13,23.62,44.073-16.931,14.119a.915.915,0,0,0,.587,1.618" transform="translate(-58.474 -188.879)"/>
          <path id="Path_609675" data-name="Path 609675" d="M181.449,498.246a.913.913,0,0,0,.867-.622l18.438-54.5a.915.915,0,1,0-1.733-.587l-18.438,54.5a.915.915,0,0,0,.574,1.16.932.932,0,0,0,.293.048" transform="translate(-73.031 -178.767)"/>
          <path id="Path_609676" data-name="Path 609676" d="M400.725,447.526a.913.913,0,0,0,.867-.622c.507-1.5,12.442-36.933,11.893-51.058-.546-14.017-5.874-44.534-5.928-44.84a.915.915,0,1,0-1.8.316c.054.3,5.359,30.7,5.9,44.6.536,13.788-11.674,50.036-11.8,50.4a.914.914,0,0,0,.574,1.16.93.93,0,0,0,.293.048" transform="translate(-161.734 -141.685)"/>
          <path id="Path_609677" data-name="Path 609677" d="M189.991,360.164a1.041,1.041,0,0,0,.159-.013.915.915,0,0,0,.744-1.059,43.852,43.852,0,0,0-29.843-34.874.915.915,0,1,0-.457,1.773,42.006,42.006,0,0,1,28.5,33.415.914.914,0,0,0,.9.759" transform="translate(-64.687 -131.143)"/>
          <path id="Path_609678" data-name="Path 609678" d="M410.686,313.944a.918.918,0,0,0,.869-.626l5.931-17.777a.916.916,0,0,0-1.738-.579l-5.932,17.778a.916.916,0,0,0,.869,1.2" transform="translate(-165.764 -119.067)"/>
          <path id="Path_609679" data-name="Path 609679" d="M843.153,630.128a.914.914,0,0,0,.9-.767l8.1-49.01a.915.915,0,1,0-1.806-.3l-8.1,49.01a.915.915,0,0,0,.755,1.051.845.845,0,0,0,.15.013" transform="translate(-340.708 -234.337)"/>
          <path id="Path_609680" data-name="Path 609680" d="M358.437,698.94c.021,0,.043,0,.064,0a.916.916,0,0,0,.851-.976L348.93,544.36a.916.916,0,1,0-1.827.125l10.422,153.6a.917.917,0,0,0,.912.853" transform="translate(-140.412 -219.862)"/>
          <path id="Path_609681" data-name="Path 609681" d="M323.658,634.452c.021,0,.043,0,.064,0a.916.916,0,0,0,.851-.976L318.862,549.3a.915.915,0,1,0-1.826.124l5.711,84.172a.917.917,0,0,0,.912.853" transform="translate(-128.249 -221.863)"/>
          <path id="Path_609682" data-name="Path 609682" d="M329.168,564.711c0-4.066,1.682-7.134,3.911-7.134s3.912,3.068,3.912,7.134-1.682,7.134-3.912,7.134-3.911-3.067-3.911-7.134m1.83,0c0,3.238,1.231,5.3,2.081,5.3s2.081-2.066,2.081-5.3-1.232-5.3-2.081-5.3-2.081,2.066-2.081,5.3" transform="translate(-133.158 -225.555)"/>
          <path id="Path_609683" data-name="Path 609683" d="M608.731,406.765c15.1,0,25.8-4.749,32.166-8.791a40.636,40.636,0,0,0,10.551-9.194.72.72,0,0,0-.292-1.079,1.008,1.008,0,0,0-1.26.249c-.13.177-13.314,17.7-42.271,17.238-28.773-.452-34.353-27.925-34.407-28.2a.907.907,0,0,0-1.049-.646.806.806,0,0,0-.757.9c.055.291,5.867,29.042,36.181,29.518.381.006.761.009,1.139.009" transform="translate(-231.147 -152.235)"/>
          <path id="Path_609684" data-name="Path 609684" d="M469.137,594.426a.916.916,0,0,0,.1-.005l19.775-2.143a.915.915,0,0,0-.2-1.82L469.041,592.6a.915.915,0,0,0,.1,1.825" transform="translate(-189.41 -238.855)"/>
          <path id="Path_609685" data-name="Path 609685" d="M767.3,591.272a.906.906,0,0,0,.528-.168l45.168-31.867a.915.915,0,1,0-1.055-1.495L766.77,589.61a.915.915,0,0,0,.527,1.662" transform="translate(-310.023 -225.554)"/>
          <path id="Path_609686" data-name="Path 609686" d="M553.678,217.782c-7.645-5.667-9.79-15.772-4.783-22.527a14.314,14.314,0,0,1,10.558-5.661,18.92,18.92,0,0,1,19.515,14.463,14.042,14.042,0,0,1-12.9,17.412c-.459.036-.916.055-1.375.055a18.563,18.563,0,0,1-11.01-3.742m5.969-25.8a11.955,11.955,0,0,0-8.828,4.7c-4.22,5.693-2.3,14.293,4.287,19.172a15.932,15.932,0,0,0,10.762,3.223,11.645,11.645,0,0,0,10.755-14.512,15.971,15.971,0,0,0-6.214-9.358,16.158,16.158,0,0,0-9.582-3.273q-.591,0-1.18.048" transform="translate(-220.949 -76.674)" fill="#5774cd"/>
          <path id="Path_609687" data-name="Path 609687" d="M614.176,255.463A21.441,21.441,0,0,1,606,243.645a14.254,14.254,0,0,1,13.63-18.39,21.372,21.372,0,0,1,13.684,4.38c8.575,6.357,11.259,17.321,5.981,24.443a14.749,14.749,0,0,1-11.441,5.766c-.3.015-.6.022-.908.022a21.636,21.636,0,0,1-12.773-4.4m23.2-2.815c4.489-6.059,2.03-15.519-5.484-21.087a18.969,18.969,0,0,0-12.139-3.911,11.862,11.862,0,0,0-11.422,15.41,19.909,19.909,0,0,0,19.414,14.388,12.4,12.4,0,0,0,9.631-4.8" transform="translate(-244.93 -91.112)" fill="#5774cd"/>
          <path id="Path_609688" data-name="Path 609688" d="M691.047,276.906a1.2,1.2,0,0,0,.153-2.387l-31.2-4.05a1.2,1.2,0,1,0-.309,2.377l31.2,4.05a1.14,1.14,0,0,0,.156.011" transform="translate(-266.442 -109.407)" fill="#5774cd"/>
          <path id="Path_609689" data-name="Path 609689" d="M602.386,237.943a1.2,1.2,0,0,0,1.159-1.505c-.368-1.391-2.382-8.358-5.824-8.926-1.4-.232-2.707.529-3.859,2.263a1.2,1.2,0,0,0,2,1.326c.555-.836,1.07-1.275,1.47-1.222,1.246.2,3.021,3.875,3.894,7.173a1.2,1.2,0,0,0,1.159.892" transform="translate(-240.153 -92.018)" fill="#5774cd"/>
          <path id="Path_609690" data-name="Path 609690" d="M596.426,245.391a1.2,1.2,0,0,0,1.1-1.686l-5.444-12.245a1.2,1.2,0,0,0-2.077-.2l-4.29,6.123a1.2,1.2,0,1,0,1.962,1.377l3.074-4.387,4.583,10.309a1.2,1.2,0,0,0,1.1.712" transform="translate(-236.848 -93.345)"/>
          <path id="Path_609691" data-name="Path 609691" d="M582.927,270.559c3.5,2.369,7.487,4.854,8.7,5.512,2.03,1.1,2.671,6.688-6.649,5.08-8.2-1.414-11.778-6.523-12.51-10.6a48.235,48.235,0,0,1,10.459.011" transform="translate(-231.579 -109.331)" fill="#fd521b"/>
          <path id="Path_609692" data-name="Path 609692" d="M686.868,283.016s15.932-15.028,24.108,1.361c7.94,15.916-13.338,25.177-21.174,20.774s-8.958-8.212-8.958-8.212Z" transform="translate(-275.42 -111.942)" fill="#f4a187"/>
          <path id="Path_609693" data-name="Path 609693" d="M695.106,295.864a1,1,0,0,1-.68-.311.907.907,0,0,1,.077-1.325c9.673-8.25,18.02-5.129,18.371-4.992a.923.923,0,0,1,.537,1.224,1,1,0,0,1-1.281.513c-.31-.118-7.606-2.772-16.313,4.654a1.017,1.017,0,0,1-.711.238" transform="translate(-280.813 -116.724)"/>
          <path id="Path_609694" data-name="Path 609694" d="M702.182,305.646a.975.975,0,0,1-.9-.717l-2.2-8.717a.937.937,0,0,1,.727-1.132.99.99,0,0,1,1.189.692l2.205,8.716a.937.937,0,0,1-.728,1.132,1.044,1.044,0,0,1-.285.025" transform="translate(-282.784 -119.358)"/>
          <path id="Path_609695" data-name="Path 609695" d="M700.567,325.419a8.921,8.921,0,0,0-8.661-9.21,9.038,9.038,0,0,0-9.672,8.247,8.922,8.922,0,0,0,8.661,9.211,9.038,9.038,0,0,0,9.672-8.248m-3.44-.18a5.647,5.647,0,0,1-6.042,5.153,5.573,5.573,0,0,1-5.411-5.754,5.646,5.646,0,0,1,6.042-5.152,5.573,5.573,0,0,1,5.411,5.754" transform="translate(-275.977 -127.91)" fill="#5774cd"/>
          <path id="Path_609696" data-name="Path 609696" d="M494.2,629.408l-11.095-5.717-1.683-9,13.532-2.068Z" transform="translate(-194.751 -247.825)"/>
          <path id="Path_609697" data-name="Path 609697" d="M488.182,655.832a.916.916,0,0,0,.9-1.083L481.7,615.31a.915.915,0,0,0-1.8.336l7.378,39.439a.915.915,0,0,0,.9.747" transform="translate(-194.129 -248.608)"/>
        </g>
      </g>
    </g>
  </g>
</svg>
