<svg xmlns="http://www.w3.org/2000/svg" width="73" height="27" viewBox="0 0 73 27">
  <g id="j" transform="translate(-1212.761 -1447.738)">
    <rect id="Rectangle_338531" data-name="Rectangle 338531" width="73" height="27" rx="3" transform="translate(1212.761 1447.738)" fill="#fff0f1"/>
    <path id="Path_715811" data-name="Path 715811" d="M12.706,4.2h3.076v8.78a4.2,4.2,0,0,1-.567,2.18,3.87,3.87,0,0,1-1.582,1.485,4.835,4.835,0,0,1-2.263.527,4.661,4.661,0,0,1-3.252-1.055,3.833,3.833,0,0,1-1.16-2.988h3.094a2.113,2.113,0,0,0,.3,1.274,1.2,1.2,0,0,0,1.015.4,1.148,1.148,0,0,0,.989-.479,2.251,2.251,0,0,0,.347-1.34ZM23.252,15.972a3.054,3.054,0,0,1-2.54,1.2,3,3,0,0,1-2.369-.91,3.826,3.826,0,0,1-.8-2.615V7.49H20.5v6.179a1.065,1.065,0,0,0,1.187,1.222,1.548,1.548,0,0,0,1.45-.729V7.49h2.979V17H23.34ZM30.864,17H27.893V3.5h2.971Zm4.948,0H32.841V7.49h2.971ZM32.666,5.038A1.322,1.322,0,0,1,33.123,4,1.943,1.943,0,0,1,35.5,4a1.322,1.322,0,0,1,.457,1.037A1.322,1.322,0,0,1,35.5,6.075a1.943,1.943,0,0,1-2.373,0A1.322,1.322,0,0,1,32.666,5.038ZM42.993,17a3.344,3.344,0,0,1-.281-.853,2.754,2.754,0,0,1-2.285,1.028,3.374,3.374,0,0,1-2.285-.813,2.588,2.588,0,0,1-.94-2.043,2.66,2.66,0,0,1,1.143-2.338,5.821,5.821,0,0,1,3.322-.791h.914v-.5q0-1.316-1.134-1.316a.927.927,0,0,0-1.055,1.042H37.429A2.655,2.655,0,0,1,38.6,8.175a4.931,4.931,0,0,1,2.993-.86,4.323,4.323,0,0,1,2.874.888,3.086,3.086,0,0,1,1.081,2.435v4.21a4.311,4.311,0,0,0,.4,2V17Zm-1.854-1.934a1.652,1.652,0,0,0,.918-.237,1.487,1.487,0,0,0,.523-.536V12.772h-.861q-1.547,0-1.547,1.389a.848.848,0,0,0,.272.655A.986.986,0,0,0,41.138,15.066Z" transform="translate(1222.761 1449.738)" fill="#fc5f65"/>
  </g>
</svg>
