<?xml version="1.0" encoding="UTF-8" standalone="no"?><!DOCTYPE svg PUBLIC "-//W3C//DTD SVG 1.1//EN" "http://www.w3.org/Graphics/SVG/1.1/DTD/svg11.dtd"><svg width="100%" height="100%" viewBox="0 0 521 521" version="1.1" xmlns="http://www.w3.org/2000/svg" xmlns:xlink="http://www.w3.org/1999/xlink" xml:space="preserve" xmlns:serif="http://www.serif.com/" style="fill-rule:evenodd;clip-rule:evenodd;stroke-linejoin:round;stroke-miterlimit:2;"><circle cx="260.417" cy="260.417" r="260.417" style="fill:#ff5f65;fill-opacity:0;"/><path d="M244.792,364.583c-0,5.209 -3.471,10.417 -8.679,12.154c-1.738,1.734 -3.475,1.734 -5.209,1.734c-3.475,-0 -6.946,-1.733 -8.683,-3.471l-74.65,-64.238l-39.933,0c-6.942,0 -13.888,-6.941 -13.888,-13.887l0,-57.292c0,-6.945 5.208,-13.887 13.888,-13.887l39.933,-0l74.65,-64.238c3.475,-3.47 10.417,-3.47 13.892,-1.737c5.208,1.737 8.679,6.946 8.679,12.154l-0,192.708Zm52.083,-22.57c-5.208,-0 -8.679,-1.734 -10.417,-3.471l-1.737,-1.738c-5.209,-5.208 -5.209,-12.15 -1.733,-19.096c20.833,-31.25 20.833,-71.179 -1.738,-100.695c-5.208,-5.209 -3.471,-13.888 1.738,-19.096l1.733,-1.738c3.475,-3.471 6.946,-5.208 10.416,-3.471c3.476,0 6.946,1.738 10.417,5.209c31.25,41.666 32.988,97.221 3.475,140.625c-5.208,1.737 -8.683,3.471 -12.154,3.471Zm55.554,43.404c-1.733,3.471 -5.208,5.208 -10.416,5.208c-3.471,0 -6.942,-1.737 -10.417,-3.471l-1.733,-1.737c-5.209,-5.209 -5.209,-13.888 -0,-19.096c46.875,-57.292 45.137,-140.625 -1.738,-197.917c-5.208,-5.208 -5.208,-13.891 0,-19.1l1.738,-3.471c1.733,-3.47 6.941,-3.47 10.416,-3.47c3.471,-0 6.942,1.733 10.417,5.208c57.292,67.708 57.292,168.4 1.733,237.846Z" style="fill:#12263f;fill-rule:nonzero;"/></svg>