<svg xmlns="http://www.w3.org/2000/svg" xmlns:xlink="http://www.w3.org/1999/xlink" width="81.646" height="75.737" viewBox="0 0 81.646 75.737">
  <defs>
    <clipPath id="clip-path">
      <rect id="Rectangle_338395" data-name="Rectangle 338395" width="81.647" height="75.737" fill="none"/>
    </clipPath>
  </defs>
  <g id="a1" transform="translate(0 -0.001)">
    <g id="Group_982727" data-name="Group 982727" transform="translate(0 0)" clip-path="url(#clip-path)">
      <path id="Path_205621" data-name="Path 205621" d="M35.762,5.8c-4.462-3.06-7.117-2.308-8.669,2.43-1.606-.921-3.159-2.026-5.181-1.309-1.939.688-2.662,2.258-3.218,4.267-1.311-1.081-2.515-2.115-4.161-2.032-2.04.1-2.667,1.522-3.562,3.145-.441.8-3.075-1.116-4.322.848a3.718,3.718,0,0,0-.576,2.333c.132,1.981-1.238,3.358-1.856,4.99C3.379,22.68-.175,24.1,1.85,27.294c.355.559-.209.873-.638,1.109-1.549.852-1.462,1.943-.586,3.264C9.159,44.514,17.013,57.812,26.307,70.153c4.7,6.244,4.654,6.246,12.348,4.8A336.7,336.7,0,0,0,72.96,66.1c1.427-.428,2.922-.8,2.974-2.755a.719.719,0,0,1,.451-.5c2.353-.57,4.229-1.355,2.126-4.182,2.3-.7.362-3.459,2.306-4.558,1.489-.841.656-2.379-.045-3.474-2.567-4.008-5.193-7.977-7.828-11.94C65.673,27.754,58.24,16.932,50.363,6.421,49.439,5.188,48.509,4.3,46.9,4.865c-1.421.5-2.04-.042-2.489-1.4A4.67,4.67,0,0,0,40.556.07C37.535-.4,35.875,1.529,35.762,5.8" transform="translate(0 0)"/>
      <path id="Path_205622" data-name="Path 205622" d="M37.692,10.913c-.792.217-1.573.48-2.374.648-2.055.428-3.589,1.056-1.8,3.487a1.494,1.494,0,0,1-.279,2.018,1.454,1.454,0,0,1-1.819.215,1.472,1.472,0,0,1-.665-2.09c.9-2.312-.214-2.36-1.945-1.742-.463.165-.945.275-1.417.414-3.224.947-3.237.952-2.049,4.17a1.911,1.911,0,0,1-3.065,2.2,1.4,1.4,0,0,1,.006-2.172,1.479,1.479,0,0,0,.318-1.989c-.553-.945-1.32-.248-1.967-.12a19.2,19.2,0,0,0-2.107.675c-2.837.912-2.847.917-1.176,3.518a1.436,1.436,0,0,1,.052,1.81,1.745,1.745,0,0,1-1.987.61A1.5,1.5,0,0,1,14.2,20.941c.119-.936.849-2.34-.361-2.521-1.242-.186-2.657.575-3.953,1.041-.689.248-.319.849-.048,1.21.337.449.912.738,1.187,1.211a1.819,1.819,0,0,1-.252,2.275,1.864,1.864,0,0,1-2.028.525,1.5,1.5,0,0,1-1.11-1.923c1.021-3.193-.668-2.262-2.438-1.819-2.153.539-2.5,1.251-1.283,3.244Q16.584,45,30.366,65.09a2.646,2.646,0,0,0,3.271,1.274c12.786-3.3,25.8-5.637,38.5-9.31,3.32-.961,3.4-1.037,1.463-3.963-9.275-14.026-18.551-28.052-28.662-41.5a7.221,7.221,0,0,1-.59-.786,1.971,1.971,0,0,0-2.971-.671c-1.064.6-.739,1.747-.177,2.553.65.934.979,1.737-.032,2.549a1.8,1.8,0,0,1-2.476-.076c-.938-.816-.751-1.686-.005-2.574a1.194,1.194,0,0,0,.153-1.574c-.3-.387-.756-.127-1.147-.1" transform="translate(4.596 -3.169)" fill="#fff"/>
      <path id="Path_205623" data-name="Path 205623" d="M79.087,70.848c-6.9,1.783-13.4,3.5-19.929,5.139-6.366,1.6-12.763,3.068-19.127,4.674A3.128,3.128,0,0,1,36.3,79.227C26.645,66.347,17.78,52.938,9.308,39.261q-.389-.628-.785-1.252c-.33-.521-.519-1.367-1.417-.739-.727.508-.163,1.019.1,1.469,1.415,2.4,2.787,4.836,4.295,7.181C19.052,57.652,26.9,69.185,34.888,80.62a3.48,3.48,0,0,0,4.219,1.7c13.41-2.83,26.819-5.652,40.068-9.179.5-.134,1.761.138,1.4-1.113-.243-.845-.821-1.45-1.487-1.178" transform="translate(-3.544 -12.056)" fill="#fff"/>
      <path id="Path_205624" data-name="Path 205624" d="M86.138,80.02c-9.327,2-18.7,3.805-27.957,6.109-3.831.954-5.812-.066-7.961-3.252-8.4-12.446-17.035-24.728-24.915-37.518a3.929,3.929,0,0,0-.266-.414c-.361-.444-.428-1.461-1.363-.88-.984.611-.043,1.15.237,1.591q6.733,10.591,13.533,21.139c4.241,6.543,8.765,12.888,13.4,19.159a4.662,4.662,0,0,0,5.306,2.134A272.169,272.169,0,0,0,87.136,80.5c.034-.921-.5-.675-1-.482" transform="translate(-21.166 -14.283)" fill="#fff"/>
      <path id="Path_205625" data-name="Path 205625" d="M86.893,71.092c-6.16,1.39-12.346,2.678-18.467,4.221-2.271.572-3.612.094-4.961-1.832C54.279,60.37,45.791,46.811,37.331,33.23c-.386-.62-.411-2.1-1.785-1.358-1.392.752-.185,1.6.183,2.208C44.4,48.409,53.631,62.362,63.636,75.8a2.684,2.684,0,0,0,3.112,1.216c7.124-1.6,14.191-3.421,21.224-5.382.037-.973-.557-.687-1.079-.541" transform="translate(-29.864 -10.306)" fill="#fff"/>
      <path id="Path_205626" data-name="Path 205626" d="M57.162,5.7c.281.657-.108,2.212,1.344,1.891s3.5.036,4.148-1.743c.436-1.191-1.8-3.229-3.141-3.212S57.156,3.919,57.162,5.7" transform="translate(-19.622 -0.858)" fill="#fff"/>
      <path id="Path_205627" data-name="Path 205627" d="M5.579,87.6l1.079.541L26.434,83.3l-.229-.92L5.579,87.6" transform="translate(51.45 -26.809)" fill="#fff"/>
      <path id="Path_205628" data-name="Path 205628" d="M75.309,10.6c-.828-1.444-1.927-2.326-3.6-2.01a2.346,2.346,0,0,0-1.881,2.307c-.1.927-.063,1.747,1.26,1.218,1.35-.541,2.868-.622,4.219-1.515" transform="translate(-40.745 -2.774)" fill="#fff"/>
      <path id="Path_205629" data-name="Path 205629" d="M87.775,14.667c-.794-1.465-1.823-2.177-3.283-1.956a2.576,2.576,0,0,0-2.106,2.137c-.26,1.013-.09,1.645,1.186,1.2,1.371-.474,2.756-.911,4.2-1.386" transform="translate(-61.632 -4.124)" fill="#fff"/>
      <path id="Path_205630" data-name="Path 205630" d="M99.6,18.524a3.764,3.764,0,0,0-2.771-2.233,1.527,1.527,0,0,0-1.758.981,2.362,2.362,0,0,0,.166,2.111c.463.816,1.139.241,1.706.067.84-.256,1.661-.575,2.657-.926" transform="translate(-81.958 -5.296)" fill="#fff"/>
      <path id="Path_205631" data-name="Path 205631" d="M12.687,96.4l1,.482A21.125,21.125,0,0,0,20.8,94.227L12.687,96.4" transform="translate(52.285 -30.665)" fill="#fff"/>
      <path id="Path_205632" data-name="Path 205632" d="M108,22.13c-1.05-.807-1.54-2.018-2.736-1.247a1.143,1.143,0,0,0-.193,1.746c.919.826,1.721-.1,2.929-.5" transform="translate(-97.011 -6.716)" fill="#fff"/>
      <path id="Path_205633" data-name="Path 205633" d="M43.942,45.79A180.442,180.442,0,0,0,72.3,37.043c-9.51,2.711-18.923,5.743-28.354,8.747" transform="translate(-20.291 -12.055)"/>
      <path id="Path_205634" data-name="Path 205634" d="M76.853,30.125c-8.977,3.763-18.627,5.185-27.9,7.927,9.532-1.835,19.211-3.158,27.9-7.927" transform="translate(-28.228 -9.804)"/>
      <path id="Path_205635" data-name="Path 205635" d="M68.937,46.531C60.819,48.853,52.81,51.5,44.852,54.294q.118.366.237.733l24.5-8.019c-.094-.33-.41-.354-.655-.477" transform="translate(-18.201 -15.143)"/>
      <path id="Path_205636" data-name="Path 205636" d="M54.532,83.422l8.989-2.8q-.088-.313-.175-.626a31.782,31.782,0,0,0-8.991,2.759l.177.668" transform="translate(-18.54 -26.033)"/>
      <path id="Path_205637" data-name="Path 205637" d="M56.052,79.23l9-2.211c-1.68-.766-6.195.157-9,2.211" transform="translate(-21.217 -24.978)"/>
      <path id="Path_205638" data-name="Path 205638" d="M38.785,46.015l.655.477a7.906,7.906,0,0,0,4.093-1.516c-1.959-.195-3.316.6-4.748,1.039" transform="translate(11.952 -14.627)"/>
    </g>
  </g>
</svg>
