<svg id="a3" xmlns="http://www.w3.org/2000/svg" width="60.738" height="58.956" viewBox="0 0 60.738 58.956">
  <path id="Path_117335" data-name="Path 117335" d="M182.591,908.4a.182.182,0,0,1-.092-.026c-.014-.016-.178-.132-.193-.147q-3.63-3.686-7.275-7.354a3.017,3.017,0,0,0-2.205-.93,7.847,7.847,0,0,0-2.672.666,14.2,14.2,0,0,1-1.709.555c-.907.211-1.837.446-2.781.686a41.586,41.586,0,0,1-9.879,1.69h0q-.3,0-.6-.01c-8.809-.31-10.433-6.556-12.489-14.464l-.178-.682c-.366-1.407-.873-2.989-1.41-4.665-2.094-6.542-4.7-14.684-1.491-19.933,1.6-2.614,5.2-3.9,8.157-4.722,2.409-.672,4.8-1.39,7.2-2.109,2.552-.765,5.192-1.556,7.8-2.275.765-.21,1.607-.456,2.506-.718,4.254-1.241,10.081-2.941,15.076-2.941a12.152,12.152,0,0,1,7.329,1.965c4.448,3.29,5.746,9.557,6.89,15.087.213,1.029.421,2.034.643,2.992.134.581.275,1.169.416,1.761,1.483,6.206,3.016,12.624-.49,18-1.513,2.322-4.43,4.167-8.667,5.485a6.022,6.022,0,0,1-1.373.266c-1.392.128-1.445.767-1.586,2.473l-.025.3c-.226,2.7-.4,5.528-.537,8.632-.01.034-.018.066-.025.1a.268.268,0,0,1-.115.213A.411.411,0,0,1,182.591,908.4Z" transform="translate(-137.321 -850.232)" fill="#fff"/>
  <path id="Path_117336" data-name="Path 117336" d="M192.734,867.627c-1.443-6.237-2.3-14.44-7.832-18.535-6.443-4.765-18.918-.269-25.59,1.568-5.024,1.383-9.985,2.984-15,4.383-3.039.848-6.867,2.206-8.618,5.07-4.251,6.953,1.011,18.308,2.811,25.208,2.164,8.292,3.74,15.4,13.4,15.735,4.439.156,9.2-1.394,13.469-2.384,2.258-.524,4.256-2.1,5.848-.5q3.648,3.663,7.272,7.351a.97.97,0,0,0,.383.289,1.008,1.008,0,0,0,1.114-.112,1.033,1.033,0,0,0,.464-.727.984.984,0,0,0,.028-.115c0-.01.006-.016.007-.026.126-2.9.3-5.785.538-8.674.238-2.835.047-1.606,2.432-2.347,3.343-1.04,7.108-2.76,9.094-5.808C196.6,881.8,194.274,874.281,192.734,867.627Zm-.65,16.41c-1.409,5.412-7.547,7.145-12.218,8.532a1.153,1.153,0,0,0-.818,1.074c-.313,2.785-.507,5.581-.653,8.38-2.708-3.3-5.769-7.447-9.786-6.43-6.18,1.565-17.774,6.114-23.36,1.191-2.988-2.632-3.634-8.438-4.6-12.055-1.164-4.36-2.229-8.749-3.3-13.133-.756-3.1-1.58-6.474-.243-9.532,1.8-4.119,7.981-4.9,11.785-6.02,7.3-2.145,14.559-4.48,22.058-5.851,3.669-.672,7.691-1,11.309.063,3.557,1.049,5.038,5.137,5.934,8.337,1.509,5.391,2.782,10.885,3.871,16.375A19.979,19.979,0,0,1,192.084,884.037ZM176.126,859.4a7.4,7.4,0,0,1,1.548-2.232,8.331,8.331,0,0,1,2.163-2.064.2.2,0,0,1,.294.226,4.855,4.855,0,0,1-1.54,2.343,12.144,12.144,0,0,1-2.171,1.952A.2.2,0,0,1,176.126,859.4Zm3.9-.364c-.046.586-.452.836-.911,1.139a3.459,3.459,0,0,1-1.345.6.22.22,0,0,1-.245-.32,3.609,3.609,0,0,1,1.135-1.191,1.419,1.419,0,0,1,1.2-.448A.223.223,0,0,1,180.025,859.031Zm-25.877,27.728a7.645,7.645,0,0,1-1.265,2.625c-.423.6-.81,1.451-1.619,1.532a.145.145,0,0,1-.142-.109c-.119-.809.605-1.375,1.063-1.962.583-.746,1.168-1.472,1.789-2.187C154.045,886.575,154.171,886.663,154.148,886.759Zm-2.848.325a2.394,2.394,0,0,1,1.434-1.266.229.229,0,0,1,.278.278,2.573,2.573,0,0,1-1.132,1.569A.428.428,0,0,1,151.3,887.084Zm4.677.134a1.728,1.728,0,0,1,.086,1.233,4.081,4.081,0,0,1-.371,1.34c-.168.273-.694.275-.749-.1a3.09,3.09,0,0,1,.256-1.481,2.15,2.15,0,0,1,.56-1.023A.142.142,0,0,1,155.977,887.218Zm26.794-4.614a.349.349,0,0,1-.327.43c-.751.089-1.4-.774-1.889-1.245a21.2,21.2,0,0,1-1.658-1.671.1.1,0,0,1,.067-.163,3.79,3.79,0,0,1,2.231,1C181.729,881.369,182.667,881.889,182.771,882.6Zm-2.755-3.563c-.106-.045-.059-.192.029-.222.736-.257,1.966-.03,2.255.776a.139.139,0,0,1-.1.171,1.464,1.464,0,0,1-.974-.224C180.827,879.368,180.417,879.214,180.016,879.041Zm-.978,3.706a.4.4,0,0,1-.061.475c-.026.021-.052.042-.079.062a.4.4,0,0,1-.475-.062,3.537,3.537,0,0,1-.976-1.607.131.131,0,0,1,.16-.16A2.6,2.6,0,0,1,179.038,882.747Zm-29.4-17.989a2.623,2.623,0,0,1,.384.773.157.157,0,0,1-.151.2,1.825,1.825,0,0,1-1-.281,10.189,10.189,0,0,1-.9-.7c-.554-.471-1.21-.861-1.378-1.616a.228.228,0,0,1,.158-.278c.812-.168,1.37.394,1.919.908A9.787,9.787,0,0,1,149.638,864.759Zm1.534-.111a1.3,1.3,0,0,1-.592-.274,2.384,2.384,0,0,1-.507-.681,2.811,2.811,0,0,1-.526-1.456.553.553,0,0,1,.822-.472,2.771,2.771,0,0,1,1,1.38,3.53,3.53,0,0,1,.271.785,1.272,1.272,0,0,1-.034.392A.342.342,0,0,1,151.173,864.648Zm-3.942,10.477c-.793.467-2.242.641-2.918-.1a.187.187,0,0,1,0-.259,2.666,2.666,0,0,1,2.918-.37A.423.423,0,0,1,147.231,875.125Zm15.129-16.964a3.14,3.14,0,0,1,.152-1.733.194.194,0,0,1,.262-.068c1.087.491,1.159,2.5.419,3.326a.139.139,0,0,1-.169.022A2.1,2.1,0,0,1,162.36,858.161Zm22.309,9.7c-.324.943-2.068,1.178-2.879.8a.193.193,0,0,1-.039-.3,3.78,3.78,0,0,1,1.238-.7,2.079,2.079,0,0,1,1.376-.337A.438.438,0,0,1,184.669,867.859Zm-12.353,21.618a.2.2,0,0,1-.274.072c-.55-.277-.618-.747-.875-1.265a6.087,6.087,0,0,1-.537-1.342.272.272,0,0,1,.4-.3C171.875,887.076,172.857,888.549,172.316,889.477Zm3.509-25.563c-4.528-4.671-10.926-.171-13.114,4.828-1.83-2.062-4.126-3.532-7.078-3.091-3.021.451-4.461,3.65-4.8,6.312-1.059,8.3,8.976,13.719,15.793,14.5a.717.717,0,0,0,.726-.321C172.856,881.743,182.9,871.208,175.825,863.914ZM152.75,874.949c-.336-.633-.578-1.968.275-2.314.1-.041.191.044.224.128a3.152,3.152,0,0,1,.13,1.023c.015.329.074.645.068.974A.377.377,0,0,1,152.75,874.949Zm11.32,8.65c-2.373.1-4.486-1.336-6.314-2.707-1.575-1.182-3.384-2.81-4.037-4.726a.053.053,0,0,1,.077-.059c1.824,1.231,3.191,3.07,5.042,4.307,1.7,1.134,3.568,1.811,5.338,2.8A.211.211,0,0,1,164.069,883.6Zm7.481-18.94a.07.07,0,0,1,.017-.127c2.57-.805,6.462,3.666,4.621,5.922a.211.211,0,0,1-.328-.042c-.662-1.073-.642-2.373-1.421-3.416A10.94,10.94,0,0,0,171.551,864.659Zm4.573,8.712a.168.168,0,0,1-.226-.059c-.214-.318-.084-.594-.006-.943.068-.305.062-.58.316-.782a.162.162,0,0,1,.222,0A1.344,1.344,0,0,1,176.124,873.372Z" transform="translate(-134.072 -846.971)"/>
</svg>
