<svg xmlns="http://www.w3.org/2000/svg" xmlns:xlink="http://www.w3.org/1999/xlink" width="116.369" height="133.687" viewBox="0 0 116.369 133.687">
  <defs>
    <clipPath id="clip-path">
      <rect id="Rectangle_338394" data-name="Rectangle 338394" width="81.722" height="111.828" fill="none"/>
    </clipPath>
  </defs>
  <g id="a4" transform="translate(0 29.286) rotate(-21)">
    <g id="Group_982725" data-name="Group 982725" clip-path="url(#clip-path)">
      <path id="Path_205596" data-name="Path 205596" d="M64.163,104.5a7.519,7.519,0,0,0,0,3.945,1.634,1.634,0,0,1-.147,1.356c-.543,1.028-1.222,2-.1,3.179a1.512,1.512,0,0,1-.291,2.034,5.2,5.2,0,0,0-1.468,3.366c-.34,1.8-1.733,2.589-3.348,3.105-.657.21-1.344.288-1.424,1.345-.158,2.083-1.643,2.969-3.546,3.161a3.721,3.721,0,0,1-4.213-2.377,2.885,2.885,0,0,0-2.185-1.921c-2.516-.751-3.229-2.424-2.207-4.717.142-.318.384-.534.057-.843-2.392-2.261-1.68-5.242-1.606-7.938.117-4.294.373-8.557-.4-12.828-.828-4.554-3.254-8.187-6.377-11.4A38.05,38.05,0,0,1,26.41,64.686,31.488,31.488,0,0,1,55.73,26.794c14.531-.714,28.1,11.294,29.1,25.759q.111,1.606.224,3.211a2.184,2.184,0,0,0-.174.558c-.339,10.454-3.886,19.057-13.8,24.006a10.161,10.161,0,0,0-.986.686,11.711,11.711,0,0,0-5.063,8.1,76.467,76.467,0,0,0-.864,15.393M36.753,79.475l-.043-.054c-.234.384.177.462.317.67,5.094,5.035,9.045,10.669,9.5,18.131a13.508,13.508,0,0,0,.191,3.605q-.01,1.166-.019,2.332c-.049,1.266-.738,2.573.243,3.772,3.772-.009,3.212.415,2.968-3a113.317,113.317,0,0,0-6.964-32.095,2.77,2.77,0,0,0-2.823-2.178c-.656-.019-1.77.221-1.665-.879.09-.936,1.091-.494,1.676-.472A108.006,108.006,0,0,0,61,68.078a17.364,17.364,0,0,0,5.769-1.653c.61-.333,1.585-.826.622-1.611-1.068-.87-2.39-1.77-3.834-1.232-4.661,1.736-9.522,2.18-14.413,2.45a28.933,28.933,0,0,1-9.589-.778c-1.414-.4-2.94-.954-2.951-2.821s1.459-2.38,2.908-2.833a25.848,25.848,0,0,1,9.36-.912A103.727,103.727,0,0,1,62.4,60.62c1.791.348,3.937-1.337,3.492-2.735-.488-1.533-3.6-3.33-5.206-2.972a67.259,67.259,0,0,1-18.621,1.2,6.963,6.963,0,0,1-4.113-1.419,2.175,2.175,0,0,1,.122-3.714A9.642,9.642,0,0,1,41.8,49.531c6.455-1.237,12.689-.061,18.806,1.9,1.81.579,2.824-.259,3.8-1.39A2.841,2.841,0,0,0,64.73,46.5c-.857-1.479-2.045-1.482-3.586-1.181-5.9,1.151-11.826,1.871-17.794.342-1.731-.443-3-1.268-2.988-3.22.015-1.907,1.344-2.737,2.987-2.956,6.03-.8,12.133-1.237,17.791,1.431,2.476,1.167,4.307.66,6.343-.465a15.747,15.747,0,0,0,1.351-.871c.84-.582,1.763-.986,2.435.073.648,1.022-.041,1.786-.9,2.313A20.6,20.6,0,0,1,67.547,43.5c-.889.37-1.276.562-.626,1.643a5.153,5.153,0,0,1-.861,6.938c-1.042,1.014-1,1.435.152,2.316,2.358,1.807,3.013,4.037,1.65,5.887-.979,1.329-.559,1.691.6,2.431,2.292,1.462,2.192,3.868-.086,5.372a9.616,9.616,0,0,1-3.343,1.329,1.908,1.908,0,0,0-1.624,1.52,125.836,125.836,0,0,0-4.837,35.152c.012,1.556.752,1.544,1.853,1.5,1.194-.043,1.982-.118,1.859-1.787-.226-3.073-.108-6.171-.151-9.258-.125-8.948,2.519-16.321,11.172-20.575a13.635,13.635,0,0,0,5.914-6.424,30.081,30.081,0,0,0,3.005-17.4c-1.043-8.59-5.566-14.909-13.083-19.125a23.032,23.032,0,0,0-16.364-3.254c-15.056,2.58-25.171,15.163-24.341,30.423.364,6.708,2.441,12.939,7.1,18.053l-.014-.016c.121.425.233.859.812.843l-.026-.041c-.067.359.07.515.439.444m24.4,33.921a52.34,52.34,0,0,1-14.276.367c1.837,2.017,10.318,1.982,14.674.1.088-.145.284-.363.244-.423-.166-.247-.417-.158-.643-.044M61.684,70.2c-.732.04-1.331.031-1.918.111a87.985,87.985,0,0,1-12.828.8c-2.47-.027-2.5-.009-1.625,2.4a107.8,107.8,0,0,1,6.62,32.521c.064,1.515.733,1.821,2.031,1.648,1.145-.153,2.568.442,2.466-1.756a85.166,85.166,0,0,1,.644-13.64A115.224,115.224,0,0,1,61.684,70.2M39.352,62.465c6.288,1.956,12.523,1.164,18.754-.079-6.262-1.073-12.523-2.543-18.754.079m20.406,54.525c-4.094.489-8.18,1.363-12.309.394-.4-.1-.608.2-.755.506a.863.863,0,0,0,.207.924,2.58,2.58,0,0,0,1.568.826,17.541,17.541,0,0,0,9.509-.467c.965-.309,1.914-.755,1.779-2.184M40.284,52.959c5.042,1.176,10.1.81,15.166.028-5.03-1.473-10.071-2.139-15.166-.028M57.652,42.788a24.415,24.415,0,0,0-14.393-.194,30.854,30.854,0,0,0,14.393.194m3.7,66.447c-5.048,1.25-10.153.545-15.1,1.607a1.19,1.19,0,0,0,.728.45,53.657,53.657,0,0,0,12.58-.1c.963-.09,1.454-.81,1.788-1.955" transform="translate(-13.661 -14.196)" fill="#0c0e0e"/>
      <path id="Path_205597" data-name="Path 205597" d="M107.5,137.259a76.468,76.468,0,0,1,.864-15.393,11.715,11.715,0,0,1,5.062-8.1,10.372,10.372,0,0,1,.987-.686c9.916-4.949,13.464-13.552,13.8-24.006a2.2,2.2,0,0,1,.173-.558c.767,4.347-.221,8.508-1.5,12.589a30.113,30.113,0,0,1-11.308,15.457,14.1,14.1,0,0,0-5.991,12.063c-.013,3.017-.2,6.045-2.09,8.63" transform="translate(-56.996 -46.952)" fill="#fff"/>
      <path id="Path_205598" data-name="Path 205598" d="M17.317,42.357a17.439,17.439,0,0,1-6.669-2.764c-.548-.388-1.091-.86-.712-1.654.34-.71,1.039-.621,1.582-.463q3.353.975,6.663,2.1a1.377,1.377,0,0,1,.934,1.761c-.208.883-.846,1.121-1.8,1.022" transform="translate(-5.203 -19.82)" fill="#0c0e0e"/>
      <path id="Path_205599" data-name="Path 205599" d="M69.148,11.493c-.093.711-.13,1.388-.945,1.644a1.383,1.383,0,0,1-1.835-.784,17.867,17.867,0,0,1-1.317-6.629.809.809,0,0,1,.644-.895.955.955,0,0,1,1.175.514,40.172,40.172,0,0,1,2.278,6.15" transform="translate(-34.504 -2.542)" fill="#0c0e0e"/>
      <path id="Path_205600" data-name="Path 205600" d="M92.944,3.925a5.028,5.028,0,0,0,.126,2.59c.4.842.526,1.6-.5,1.959A1.844,1.844,0,0,1,90.2,7.494a4.553,4.553,0,0,1-.234-2.952c.2-1.183.376-2.374.666-3.536.121-.485.41-1.072,1.081-1,.614.066.878.532.936,1.127.091.932.2,1.861.295,2.792" transform="translate(-47.648 0)" fill="#0c0e0e"/>
      <path id="Path_205601" data-name="Path 205601" d="M7.075,70.973c-1.729-.265-3.785-.542-5.823-.917C.7,69.955-.069,69.722,0,68.977c.069-.7.787-.787,1.4-.888a28.416,28.416,0,0,1,6.222.052,1.386,1.386,0,0,1,1.487,1.536c-.061,1.031-.815,1.28-2.034,1.3" transform="translate(0 -36.029)" fill="#0c0e0e"/>
      <path id="Path_205602" data-name="Path 205602" d="M136.33,16a11.424,11.424,0,0,1-2.31,5.907c-.547.675-1.155,1.19-2.038.551-.834-.6-.728-1.364-.228-2.115,1.076-1.615,2.185-3.21,3.257-4.827.227-.343.415-.776.875-.678.65.139.443.713.443,1.162" transform="translate(-69.679 -7.865)" fill="#0c0e0e"/>
      <path id="Path_205603" data-name="Path 205603" d="M151.355,46.909c-1.14-.091-2.108.293-2.276-.735-.131-.8.71-1.06,1.327-1.277,1.382-.486,2.773-.955,4.186-1.337a1.2,1.2,0,0,1,1.671.95,1.271,1.271,0,0,1-1.024,1.668c-1.43.31-2.876.545-3.884.732" transform="translate(-79.066 -23.066)" fill="#0c0e0e"/>
      <path id="Path_205604" data-name="Path 205604" d="M162.4,79.41c.737,0,1.475-.013,2.211,0a1.249,1.249,0,0,1,1.368,1.386,1.2,1.2,0,0,1-1.28,1.264,14.092,14.092,0,0,1-5.429-1.283.667.667,0,0,1-.409-.806c.049-.4.365-.525.725-.528.938-.007,1.876,0,2.814,0V79.41" transform="translate(-84.254 -42.117)" fill="#0c0e0e"/>
      <path id="Path_205605" data-name="Path 205605" d="M51.931,102.533c-.453-7.466-4.4-13.1-9.5-18.134-.105-.223-.212-.447-.318-.67l.043.054-.439-.444.026.041c-.039-.5.013-1.1-.812-.843l.014.016c.342-1.85-1.421-2.722-1.939-4.176a47.026,47.026,0,0,1-3.034-14.155c-.3-8.545,1.855-16.191,8.191-22.224a24.311,24.311,0,0,1,22.7-6.536c2.6.516,5.012,1.711,7.683,1.867,7.517,4.216,12.04,10.534,13.083,19.125a30.08,30.08,0,0,1-3.005,17.4,13.633,13.633,0,0,1-5.914,6.424C70.059,84.529,67.415,91.9,67.54,100.85c.043,3.087-.076,6.185.151,9.258.123,1.668-.665,1.744-1.859,1.787-1.1.04-1.841.051-1.853-1.5A125.839,125.839,0,0,1,68.816,75.24a1.908,1.908,0,0,1,1.624-1.52,9.625,9.625,0,0,0,3.343-1.329c2.278-1.5,2.378-3.91.086-5.372-1.16-.74-1.58-1.1-.6-2.431,1.363-1.85.708-4.08-1.65-5.888-1.149-.88-1.195-1.3-.152-2.315a5.154,5.154,0,0,0,.861-6.939c-.65-1.081-.263-1.273.626-1.642a20.6,20.6,0,0,0,2.822-1.526c.86-.527,1.549-1.291.9-2.313-.672-1.059-1.6-.656-2.435-.073a15.863,15.863,0,0,1-1.351.871c-2.037,1.126-3.868,1.632-6.343.465-5.658-2.667-11.76-2.236-17.791-1.43-1.643.219-2.972,1.049-2.987,2.956-.016,1.952,1.257,2.776,2.988,3.22,5.968,1.529,11.9.809,17.794-.343,1.541-.3,2.729-.3,3.586,1.181a2.84,2.84,0,0,1-.324,3.536c-.979,1.131-1.993,1.969-3.8,1.39-6.117-1.959-12.35-3.135-18.806-1.9a9.637,9.637,0,0,0-3.723,1.446A2.176,2.176,0,0,0,43.358,59a6.963,6.963,0,0,0,4.113,1.419,67.264,67.264,0,0,0,18.622-1.2c1.61-.358,4.718,1.439,5.206,2.972.445,1.4-1.7,3.082-3.492,2.735A103.728,103.728,0,0,0,54.276,63a25.858,25.858,0,0,0-9.36.913c-1.449.453-2.919.968-2.908,2.833s1.537,2.418,2.951,2.821a28.933,28.933,0,0,0,9.589.778c4.891-.27,9.752-.715,14.413-2.45,1.444-.538,2.766.362,3.834,1.232.964.786-.012,1.278-.622,1.611A17.361,17.361,0,0,1,66.4,72.387a108.078,108.078,0,0,1-20.866,1.232c-.586-.023-1.587-.464-1.676.471-.105,1.1,1.009.86,1.665.879a2.77,2.77,0,0,1,2.823,2.178,113.317,113.317,0,0,1,6.964,32.094c.244,3.413.8,2.988-2.966,3q0-1.174,0-2.347c1.21-2.12.262-4.188-.149-6.269q-.135-.545-.271-1.09M42.825,47.191c-.635.2-.842.695-1.145,1.14C37.548,54.4,37.025,61.18,37.928,68.162a16.079,16.079,0,0,0,2.726,7.871c.429.569.942,1.027,1.7.7.782-.34.736-1.028.545-1.72a22.311,22.311,0,0,0-.663-2.309A29.418,29.418,0,0,1,40.648,58.1a36.3,36.3,0,0,1,2.482-9.458c.211-.517.5-1.145-.306-1.448" transform="translate(-19.066 -18.504)" fill="#fff"/>
      <path id="Path_205606" data-name="Path 205606" d="M83.182,119.267a115.224,115.224,0,0,0-4.609,22.082,85.167,85.167,0,0,0-.644,13.64c.1,2.2-1.321,1.6-2.467,1.756-1.3.173-1.967-.133-2.031-1.648a107.807,107.807,0,0,0-6.62-32.521c-.879-2.411-.845-2.429,1.625-2.4a87.988,87.988,0,0,0,12.828-.8c.587-.08,1.186-.071,1.918-.111" transform="translate(-35.159 -63.26)" fill="#fff"/>
      <path id="Path_205607" data-name="Path 205607" d="M54.709,101.128c6.231-2.622,12.492-1.151,18.754-.078-6.231,1.243-12.466,2.035-18.754.078" transform="translate(-29.018 -52.859)" fill="#fff"/>
      <path id="Path_205608" data-name="Path 205608" d="M83.333,218.9c.135,1.429-.814,1.874-1.779,2.184a17.537,17.537,0,0,1-9.509.467,2.58,2.58,0,0,1-1.568-.826.863.863,0,0,1-.208-.924c.147-.307.351-.6.756-.507,4.129.969,8.215.094,12.309-.394" transform="translate(-37.236 -116.107)" fill="#fff"/>
      <path id="Path_205609" data-name="Path 205609" d="M56.695,81.032c5.1-2.11,10.136-1.445,15.166.028-5.063.782-10.123,1.148-15.166-.028" transform="translate(-30.072 -42.268)" fill="#fff"/>
      <path id="Path_205610" data-name="Path 205610" d="M77.424,59.551a30.847,30.847,0,0,1-14.393-.194,24.415,24.415,0,0,1,14.393.194" transform="translate(-33.432 -30.959)" fill="#fff"/>
      <path id="Path_205611" data-name="Path 205611" d="M84.507,202.388c-.334,1.145-.825,1.865-1.788,1.955a53.657,53.657,0,0,1-12.58.1,1.19,1.19,0,0,1-.728-.45c4.943-1.062,10.048-.357,15.1-1.607" transform="translate(-36.816 -107.349)" fill="#fff"/>
      <path id="Path_205612" data-name="Path 205612" d="M85.405,211.714c-4.356,1.882-12.838,1.917-14.674-.1a52.321,52.321,0,0,0,14.276-.367l.4.467" transform="translate(-37.516 -112.048)" fill="#fff"/>
      <path id="Path_205613" data-name="Path 205613" d="M70.451,181.263c.411,2.081,1.359,4.149.151,6.27q-.123-.712-.25-1.426.009-1.166.019-2.33.04-1.255.08-2.514" transform="translate(-37.315 -96.144)" fill="#fff"/>
      <path id="Path_205614" data-name="Path 205614" d="M70.036,191.578q.126.714.25,1.426,0,1.173-.005,2.347c-.983-1.2-.293-2.507-.245-3.772" transform="translate(-36.999 -101.615)" fill="#0c0e0e"/>
      <path id="Path_205615" data-name="Path 205615" d="M70.22,180.03q-.04,1.258-.08,2.514a13.515,13.515,0,0,1-.191-3.605l.271,1.091" transform="translate(-37.084 -94.911)" fill="#0c0e0e"/>
      <path id="Path_205616" data-name="Path 205616" d="M46.565,136.291c.825-.254.773.338.812.843-.579.016-.691-.417-.812-.843" transform="translate(-24.699 -72.258)" fill="#fff"/>
      <path id="Path_205617" data-name="Path 205617" d="M49,138.9c.106.224.212.447.317.67-.141-.208-.552-.286-.317-.67" transform="translate(-25.954 -73.673)" fill="#fff"/>
      <path id="Path_205618" data-name="Path 205618" d="M48.222,138.067l.439.444c-.368.071-.506-.085-.439-.444" transform="translate(-25.569 -73.232)" fill="#fff"/>
      <path id="Path_205619" data-name="Path 205619" d="M101.131,211.118c.226-.115.477-.2.643.044.04.06-.156.278-.244.423l-.4-.467" transform="translate(-53.641 -111.919)" fill="#fff"/>
      <path id="Path_205620" data-name="Path 205620" d="M44.637,61.09c.806.3.517.931.306,1.448A36.3,36.3,0,0,0,42.461,72,29.418,29.418,0,0,0,44.043,86.6a22.31,22.31,0,0,1,.663,2.309c.192.691.238,1.38-.545,1.72-.754.327-1.266-.131-1.7-.7a16.079,16.079,0,0,1-2.726-7.871c-.9-6.982-.38-13.763,3.752-19.831.3-.445.51-.942,1.145-1.14" transform="translate(-20.879 -32.403)" fill="#0c0e0e"/>
    </g>
  </g>
</svg>
