<svg id="a5" xmlns="http://www.w3.org/2000/svg" xmlns:xlink="http://www.w3.org/1999/xlink" width="102.835" height="62.317" viewBox="0 0 102.835 62.317">
  <defs>
    <clipPath id="clip-path">
      <rect id="Rectangle_339497" data-name="Rectangle 339497" width="102.835" height="62.317" fill="none"/>
    </clipPath>
  </defs>
  <g id="Group_984384" data-name="Group 984384" clip-path="url(#clip-path)">
    <path id="Path_212362" data-name="Path 212362" d="M87.485,48.981a31.92,31.92,0,0,1-5.233-9.344,1.2,1.2,0,0,0-1.441-.818c-4.008.89-8.034,1.708-12.061,2.5-8.563,1.692-17.16,3.244-25.8,4.491-7.671,1.107-15.616,2.281-23.388,1.83a16.212,16.212,0,0,1-3.433-.458c-.226-.057-.451-.119-.673-.191-.115-.038-.229-.08-.343-.121l-.061-.021-.043-.022c-.166-.082-.325-.172-.487-.26-.074-.041-.141-.1-.21-.142.347.237-.247-.218-.35-.312-3.25-2.975-4.775-7.741-5.581-11.94-.816-4.253-1.1-9.4.855-13.405a8.22,8.22,0,0,1,1.511-2.221,5.74,5.74,0,0,1,.861-.725,6.162,6.162,0,0,1,.544-.326c.175-.094.436-.213.411-.2A20.71,20.71,0,0,1,15.2,16.47a198.609,198.609,0,0,1,21.723-3.985q14.278-2.111,28.655-3.494c7.186-.681,14.566-1.5,21.794-1.069.518.031,1.035.074,1.549.137l.015,0L89,8.071c.1.016.192.03.288.048.191.035.383.073.572.123.141.037.278.084.416.128h0l.012.007c.181.1.365.186.542.293a8.461,8.461,0,0,1,1.889,1.634c3.08,3.418,4.741,8.392,5.246,12.9.574,5.129-.357,10.4-4.069,14.192a2.093,2.093,0,0,0-.528,2.022c.081.843.2,1.684.351,2.518a34.113,34.113,0,0,0,1.23,4.7,61.668,61.668,0,0,0,4.612,10.192c1.154,2.086,2.389,4.126,3.673,6.134-.923-.613-1.831-1.245-2.727-1.885A62.767,62.767,0,0,1,87.485,48.981" transform="translate(-5.463 -5.493)" fill="#fff"/>
    <path id="Path_212363" data-name="Path 212363" d="M102.746,60.774a.973.973,0,0,0-.259-.421,110.365,110.365,0,0,1-8.417-14.182,36.712,36.712,0,0,1-3.853-12.75c7.038-7.087,5.6-19.47.8-27.412C89.543,3.575,87.409.906,84.45.366A36.066,36.066,0,0,0,77.361.025c-8,.144-16,.949-23.95,1.813q-13.805,1.5-27.534,3.653c-3.722.59-7.439,1.221-11.134,1.959A65.044,65.044,0,0,0,7.409,9.211C-.826,11.881-.68,22.8.746,29.744c.875,4.261,2.509,8.8,5.561,12.009,1.713,1.8,3.769,2.331,6.172,2.6a53.414,53.414,0,0,0,9.315.033c4.045-.251,8.078-.7,12.1-1.23,8.561-1.123,17.075-2.59,25.556-4.206Q67.2,37.478,74.91,35.815c2.23,5.834,6.266,10.838,10.77,15.1a79.218,79.218,0,0,0,12.608,9.641c.9.559,1.807,1.113,2.74,1.614a1.107,1.107,0,0,0,1.22-.074,1.022,1.022,0,0,0,.5-1.321M82.022,43.487a31.92,31.92,0,0,1-5.233-9.344,1.2,1.2,0,0,0-1.441-.818c-4.008.89-8.034,1.708-12.061,2.5-8.563,1.692-17.16,3.244-25.8,4.491C29.815,41.427,21.871,42.6,14.1,42.15a16.212,16.212,0,0,1-3.433-.458c-.226-.057-.451-.119-.673-.191-.115-.038-.229-.08-.343-.121l-.061-.021-.043-.022c-.166-.082-.325-.172-.487-.26-.074-.041-.141-.1-.21-.142.347.237-.247-.218-.35-.312-3.25-2.975-4.775-7.741-5.581-11.94-.816-4.253-1.1-9.4.855-13.405a8.22,8.22,0,0,1,1.511-2.221,5.74,5.74,0,0,1,.861-.725A6.162,6.162,0,0,1,6.689,12c.175-.094.436-.213.411-.2a20.71,20.71,0,0,1,2.641-.826A198.61,198.61,0,0,1,31.465,6.991Q45.742,4.88,60.119,3.5C67.306,2.816,74.685,2,81.913,2.428c.518.031,1.035.074,1.549.137l.015,0,.062.011c.1.016.192.03.288.048.191.035.383.073.572.123.141.037.278.084.416.128h0l.012.007c.181.1.365.186.542.293a8.461,8.461,0,0,1,1.889,1.634C90.342,8.23,92,13.2,92.508,17.707c.574,5.129-.357,10.4-4.069,14.192a2.093,2.093,0,0,0-.528,2.022c.081.843.2,1.684.351,2.518a34.113,34.113,0,0,0,1.23,4.7A61.667,61.667,0,0,0,94.1,51.33c1.154,2.086,2.389,4.126,3.673,6.134-.923-.613-1.831-1.245-2.727-1.885A62.767,62.767,0,0,1,82.022,43.487" transform="translate(0 0)" fill="#040405"/>
    <path id="Path_212364" data-name="Path 212364" d="M57.295,55.12a61.987,61.987,0,0,1,10.36-2.827,1.182,1.182,0,0,0,.818-1.441,1.2,1.2,0,0,0-1.441-.818,62.02,62.02,0,0,0-10.36,2.827,1.2,1.2,0,0,0-.818,1.441,1.181,1.181,0,0,0,1.441.818" transform="translate(-39.293 -35.208)" fill="#040405"/>
    <path id="Path_212365" data-name="Path 212365" d="M74.993,57.236q.527,6.5,1.642,12.943A1.181,1.181,0,0,0,78.076,71a1.2,1.2,0,0,0,.818-1.441q-1.059-6.123-1.558-12.321a1.2,1.2,0,0,0-1.171-1.171,1.181,1.181,0,0,0-1.171,1.171" transform="translate(-52.795 -39.471)" fill="#040405"/>
    <path id="Path_212366" data-name="Path 212366" d="M112.477,62.541l3.712-13.032H113.93q1.714,5.612,3.086,11.319c.352,1.465,2.612.845,2.259-.623Q117.9,54.5,116.189,48.886a1.181,1.181,0,0,0-2.259,0l-3.712,13.032a1.172,1.172,0,0,0,2.259.623" transform="translate(-77.561 -33.829)" fill="#040405"/>
    <path id="Path_212367" data-name="Path 212367" d="M116.5,81.088a24.007,24.007,0,0,1,3.9-.869l-.311.042.318-.041a1.281,1.281,0,0,0,.828-.343,1.172,1.172,0,0,0,0-1.657,1.126,1.126,0,0,0-.828-.343,25.665,25.665,0,0,0-4.534.951,1.172,1.172,0,0,0,.623,2.259" transform="translate(-80.972 -54.825)" fill="#040405"/>
    <path id="Path_212368" data-name="Path 212368" d="M158.851,43.8q.615,5.519,1.23,11.038c.074.663.7,1.448,1.483,1.13a58.447,58.447,0,0,1,8.35-2.7c1.465-.354.845-2.614-.623-2.259a58.436,58.436,0,0,0-8.35,2.7l1.483,1.129q-.615-5.519-1.23-11.038a1.207,1.207,0,0,0-1.171-1.171,1.179,1.179,0,0,0-1.171,1.171" transform="translate(-111.832 -30.013)" fill="#040405"/>
    <path id="Path_212369" data-name="Path 212369" d="M212.835,35.516l1.185,12.12a1.2,1.2,0,0,0,1.171,1.171,1.18,1.18,0,0,0,1.171-1.171l-1.185-12.12a1.2,1.2,0,0,0-1.171-1.171,1.18,1.18,0,0,0-1.171,1.171" transform="translate(-149.839 -24.18)" fill="#040405"/>
    <path id="Path_212370" data-name="Path 212370" d="M222.018,33.47a9.73,9.73,0,0,1-5.225,6.473,1.18,1.18,0,0,0,.591,2.183,7.753,7.753,0,0,1,6.912,2.843,1.179,1.179,0,0,0,1.657,0,1.2,1.2,0,0,0,0-1.657,9.891,9.891,0,0,0-8.569-3.529l.591,2.183a11.983,11.983,0,0,0,6.3-7.873c.353-1.465-1.906-2.09-2.259-.623" transform="translate(-152.233 -22.975)" fill="#040405"/>
    <path id="Path_212371" data-name="Path 212371" d="M272.944,23.633a4.169,4.169,0,0,1,.662.371c.16.111.009.04-.034-.033.026.044.1.082.139.115q.151.129.289.272c.084.087.163.178.241.269.136.159-.109-.155-.027-.037.034.05.071.1.1.148a4.751,4.751,0,0,1,.376.662l.03.066c.036.082.02.044-.047-.113,0,.046.049.127.065.17.041.114.078.229.11.345s.065.257.09.388c.008.045.039.262.013.059s0,.032,0,.06a4.244,4.244,0,0,1,0,.72c0,.036-.006.072-.01.108q-.015.138.019-.133a.827.827,0,0,0-.032.178c-.026.131-.06.259-.1.387a1.172,1.172,0,1,0,2.259.623,5.727,5.727,0,0,0-2.973-6.645,1.2,1.2,0,0,0-1.6.42,1.185,1.185,0,0,0,.42,1.6" transform="translate(-191.763 -15.118)" fill="#040405"/>
    <path id="Path_212372" data-name="Path 212372" d="M280.925,65.092a1.172,1.172,0,0,0,0-2.343,1.172,1.172,0,0,0,0,2.343" transform="translate(-196.983 -44.177)" fill="#040405"/>
    <path id="Path_212373" data-name="Path 212373" d="M7.964,76.676l-2.3,4.912a.919.919,0,0,0,.322,1.229.909.909,0,0,0,1.229-.322l2.3-4.912a.919.919,0,0,0-.322-1.229.909.909,0,0,0-1.229.322" transform="translate(-3.916 -53.677)" fill="#040405"/>
    <path id="Path_212374" data-name="Path 212374" d="M10.914,87.7a79.105,79.105,0,0,1-3.361,7.7.92.92,0,0,0,.322,1.229A.907.907,0,0,0,9.1,96.31a83.507,83.507,0,0,0,3.542-8.13.906.906,0,0,0-.627-1.1.917.917,0,0,0-1.1.627" transform="translate(-5.24 -61.28)" fill="#040405"/>
    <path id="Path_212375" data-name="Path 212375" d="M18.161,101.718l-3.269,7.641a.928.928,0,0,0,.322,1.229.9.9,0,0,0,1.229-.322l3.269-7.641a.928.928,0,0,0-.322-1.229.9.9,0,0,0-1.229.322" transform="translate(-10.412 -71.305)" fill="#040405"/>
    <path id="Path_212376" data-name="Path 212376" d="M28.636,114.123q-1.879,3.846-3.387,7.857a.905.905,0,0,0,.627,1.1.917.917,0,0,0,1.1-.627q1.426-3.789,3.206-7.428a.922.922,0,0,0-.322-1.229.906.906,0,0,0-1.229.322" transform="translate(-17.745 -80.037)" fill="#040405"/>
    <path id="Path_212377" data-name="Path 212377" d="M41.862,125.131a15.68,15.68,0,0,0-2.538,5.853.9.9,0,0,0,1.732.478,13.982,13.982,0,0,1,2.357-5.424.9.9,0,0,0-.322-1.229.922.922,0,0,0-1.229.322" transform="translate(-27.67 -87.787)" fill="#040405"/>
    <path id="Path_212378" data-name="Path 212378" d="M58.58,129.467,57.3,133.162a.9.9,0,0,0,.627,1.1.92.92,0,0,0,1.1-.627l1.277-3.695a.9.9,0,0,0-.627-1.1.92.92,0,0,0-1.1.627" transform="translate(-40.316 -90.689)" fill="#040405"/>
    <path id="Path_212379" data-name="Path 212379" d="M74.83,130.935a6.235,6.235,0,0,0-.618,2.928.945.945,0,0,0,.263.635.9.9,0,0,0,1.533-.635,5.419,5.419,0,0,1,.04-.937l-.032.239a5.349,5.349,0,0,1,.363-1.334l-.091.214q.043-.1.091-.2a.967.967,0,0,0,.091-.692.917.917,0,0,0-.413-.537.907.907,0,0,0-.692-.09.879.879,0,0,0-.536.413" transform="translate(-52.243 -91.867)" fill="#040405"/>
    <path id="Path_212380" data-name="Path 212380" d="M88.383,132.224q-.012.159-.033.318l.032-.239a5.712,5.712,0,0,1-.387,1.424l.091-.215q-.11.258-.243.5a.942.942,0,0,0-.091.692.9.9,0,0,0,1.641.215,6.709,6.709,0,0,0,.786-2.7.9.9,0,0,0-1.533-.635,1,1,0,0,0-.263.635" transform="translate(-61.758 -92.457)" fill="#040405"/>
  </g>
</svg>
