<svg xmlns="http://www.w3.org/2000/svg" xmlns:xlink="http://www.w3.org/1999/xlink" width="190" height="94" viewBox="0 0 190 94">
  <defs>
    <clipPath id="clip-path">
      <path id="path6681" d="M0-682.665H78.46v78.46H0Z" transform="translate(0 682.665)"/>
    </clipPath>
  </defs>
  <g id="_10" data-name="10" transform="translate(-180 -3612.46)">
    <rect id="Rectangle_45412" data-name="Rectangle 45412" width="190" height="94" rx="10" transform="translate(180 3612.46)" fill="#272966"/>
    <g id="g6675" transform="translate(240 4310.665)">
      <g id="g6677" transform="translate(0 -682.665)">
        <g id="g6679" clip-path="url(#clip-path)">
          <g id="g6685" transform="translate(1.149 41.299)">
            <path id="path6687" d="M-473.967-274.37v-12.064a12.259,12.259,0,0,0-8.692-11.729l-13.09-3.982a3.065,3.065,0,0,1-2.173-2.932V-310H-511.56v4.922a3.065,3.065,0,0,1-2.173,2.932l-13.09,3.982a12.259,12.259,0,0,0-8.692,11.729v12.064a1.532,1.532,0,0,0,1.532,1.532H-475.5a1.533,1.533,0,0,0,1.532-1.532" transform="translate(535.515 309.999)" fill="#f9f7f8"/>
          </g>
          <g id="g6689" transform="translate(34.145 41.299)">
            <path id="path6691" d="M-152.941-91.148l-13.09-3.982a3.065,3.065,0,0,1-2.173-2.932v-4.922l-4.6,2.3v4.922a3.065,3.065,0,0,0,2.173,2.932l13.09,3.982a12.259,12.259,0,0,1,8.692,11.729v11.3h3.065a1.533,1.533,0,0,0,1.532-1.532V-79.419a12.259,12.259,0,0,0-8.692-11.729" transform="translate(172.801 102.984)" fill="#efedef"/>
          </g>
          <g id="g6693" transform="translate(18.68 41.299)">
            <path id="path6695" d="M-203.964-70.441l-4.251-1.293a3.065,3.065,0,0,1-2.173-2.932v-4.922h-13.639v4.922a3.065,3.065,0,0,1-2.173,2.932l-4.251,1.293,13.243,13.792Z" transform="translate(230.45 79.588)" fill="#ffcebe"/>
          </g>
          <g id="g6697" transform="translate(34.145 41.299)">
            <path id="path6699" d="M0-55.6a3.065,3.065,0,0,0,2.173,2.932l6.1,1.856,2.747-2.861L6.77-54.971a3.067,3.067,0,0,1-1.826-1.515A3.059,3.059,0,0,1,4.6-57.9v-4.922L0-60.527Z" transform="translate(0 62.825)" fill="#ffb09c"/>
          </g>
          <g id="g6701" transform="translate(50.592 71.369)">
            <path id="path6703" d="M0-54.607H10.573a1.532,1.532,0,0,0,1.532-1.532V-61.7H0Z" transform="translate(0 61.699)" fill="#ffcebe"/>
          </g>
          <g id="g6705" transform="translate(56.568 71.369)">
            <path id="path6707" d="M-11.8,0V5.559a1.532,1.532,0,0,1-1.532,1.532h4.6A1.532,1.532,0,0,0-7.2,5.559V0Z" transform="translate(13.333)" fill="#ffb09c"/>
          </g>
          <g id="g6709" transform="translate(1.149 71.369)">
            <path id="path6711" d="M-93.221-54.607h-10.573a1.532,1.532,0,0,1-1.532-1.532V-61.7h12.105Z" transform="translate(105.326 61.699)" fill="#ffcebe"/>
          </g>
          <g id="g6713" transform="translate(31.923 49.708)">
            <path id="path6715" d="M-154.09-212.566a43.147,43.147,0,0,1-1.707-15.8,42.618,42.618,0,0,1,1.707-9.006l-9.194-2.8h0L-170-235.7a9.194,9.194,0,0,0-4.1,7.654v16.628h20.446Z" transform="translate(174.1 240.169)" fill="#685e68"/>
          </g>
          <g id="g6717" transform="translate(38.927 49.708)">
            <path id="path6719" d="M-29.353,0l-3.812,2.538,10.481,3.188a12.312,12.312,0,0,1,1.611.619c.273-1.286.587-2.471.913-3.548Z" transform="translate(33.165)" fill="#554e56"/>
          </g>
          <g id="g6721" transform="translate(11.493 49.708)">
            <path id="path6723" d="M-3.238-212.566a43.147,43.147,0,0,0,1.707-15.8,42.628,42.628,0,0,0-1.707-9.006l9.194-2.8h0l6.716,4.471a9.194,9.194,0,0,1,4.1,7.654v16.628H-3.659Z" transform="translate(3.659 240.169)" fill="#7a6d79"/>
          </g>
          <g id="g6725" transform="translate(14.285 1.149)">
            <path id="path6727" d="M-271.664-159.312h-35.278v-13.026A7.662,7.662,0,0,1-299.28-180h19.953a7.662,7.662,0,0,1,7.662,7.662Z" transform="translate(306.942 180)" fill="#685e68"/>
          </g>
          <g id="g6729" transform="translate(37.303 1.149)">
            <path id="path6731" d="M-35.4,0H-40a7.662,7.662,0,0,1,7.662,7.662V20.688h4.6V7.662A7.662,7.662,0,0,0-35.4,0" transform="translate(40)" fill="#554e56"/>
          </g>
          <g id="g6733" transform="translate(14.284 1.149)">
            <path id="path6735" d="M-171.235-88.507a53.175,53.175,0,0,0,6.33-5.673,53.081,53.081,0,0,0,3.656-4.28,7.627,7.627,0,0,0-4.607-1.54h-19.953a7.662,7.662,0,0,0-7.662,7.662v13.026H-181.3Z" transform="translate(193.472 100)" fill="#554e56"/>
          </g>
          <g id="g6737" transform="translate(37.303 1.149)">
            <path id="path6739" d="M-53.17-33.392c.841-.955,1.607-1.893,2.3-2.8h0a7.633,7.633,0,0,0-4.244-1.53c-.12-.006-.241-.009-.363-.009h-4.6a7.663,7.663,0,0,1,6.9,4.336" transform="translate(60.075 37.728)" fill="#433f43"/>
          </g>
          <g id="g6741" transform="translate(49.562 19.537)">
            <path id="path6743" d="M-9.306-52.563h-1.208v-6.826h1.208a3.413,3.413,0,0,1,3.413,3.413,3.413,3.413,0,0,1-3.413,3.413" transform="translate(10.515 59.389)" fill="#ffcebe"/>
          </g>
          <g id="g6745" transform="translate(9.663 19.537)">
            <path id="path6747" d="M-26.282-52.563h1.208v-6.826h-1.208a3.413,3.413,0,0,0-3.413,3.413,3.413,3.413,0,0,0,3.413,3.413" transform="translate(29.695 59.389)" fill="#ffb09c"/>
          </g>
          <g id="g6749" transform="translate(14.284 12.643)">
            <path id="path6751" d="M-135.352-261.378a17.763,17.763,0,0,1-17.576-17.83v-9.216a38.879,38.879,0,0,0,14.644-2.788,38.371,38.371,0,0,0,7.593-4.108,16.045,16.045,0,0,0,5.392,4.889,16.023,16.023,0,0,0,5.867,1.893c.3.036.574.3.831.32.363.025.685-.208.952-.206v9.407a17.639,17.639,0,0,1-17.7,17.639" transform="translate(152.929 295.319)" fill="#ffcebe"/>
          </g>
          <g id="g6753" transform="translate(25.104 18.844)">
            <path id="path6755" d="M-152.944-77.79a17.182,17.182,0,0,1-4.423,11.682c-5.285,5.711-14.025,4.747-15.438,4.571a17.617,17.617,0,0,0,5.631,1.347s.58.038,1.126.04a17.639,17.639,0,0,0,17.7-17.639V-87.2c-.22,0-.511.3-.8.284-.307-.017-.614-.353-.987-.4a16.184,16.184,0,0,1-2.767-.581c-.1,3.354-.048,6.742-.048,10.1" transform="translate(172.805 87.892)" fill="#ffb09c"/>
          </g>
          <g id="g6765" transform="translate(58.227 30.11)">
            <path id="path6767" d="M-137.455-138.474l-17.85-4.616v-6.416l17.74-6.882a.987.987,0,0,1,1.344.92v16.038a.987.987,0,0,1-1.234.956" transform="translate(155.305 156.456)" fill="#f78996"/>
          </g>
          <g id="g6769" transform="translate(72.709 30.11)">
            <path id="path6771" d="M-25.09-.522-28.343.74v15.7c0,.029,0,.057,0,.085l3.368.871a.987.987,0,0,0,1.234-.956V.4a.987.987,0,0,0-1.344-.92" transform="translate(28.348 0.59)" fill="#f2717f"/>
          </g>
          <g id="g6773" transform="translate(53.292 34.592)">
            <path id="path6775" d="M-38.006-8.868V.18a1.152,1.152,0,0,1-1.152,1.152H-41.79A1.152,1.152,0,0,1-42.941.18V-8.868A1.152,1.152,0,0,1-41.79-10.02h2.632a1.152,1.152,0,0,1,1.152,1.152" transform="translate(42.941 10.02)" fill="#685e68"/>
          </g>
          <g id="g6777" transform="translate(54.064 34.592)">
            <path id="path6779" d="M-23.188,0H-25.82A1.149,1.149,0,0,0-26.2.065a1.151,1.151,0,0,1,.773,1.087V10.2a1.151,1.151,0,0,1-.773,1.086,1.145,1.145,0,0,0,.379.065h2.632A1.152,1.152,0,0,0-22.036,10.2V1.152A1.152,1.152,0,0,0-23.188,0" transform="translate(26.199)" fill="#554e56"/>
          </g>
          <g id="g6781" transform="translate(1.149 45.197)">
            <path id="path6783" d="M-184.471,0V1.024a3.065,3.065,0,0,1-2.173,2.932l-13.09,3.983a12.26,12.26,0,0,0-8.692,11.729V32.114" transform="translate(208.426)" fill="none" stroke="#000" stroke-linecap="round" stroke-linejoin="round" stroke-miterlimit="10" stroke-width="2"/>
          </g>
          <g id="g6785" transform="translate(38.743 45.216)">
            <path id="path6787" d="M0,0V1.005A3.065,3.065,0,0,0,2.173,3.937L15.263,7.92a12.26,12.26,0,0,1,8.692,11.729V32.1" fill="none" stroke="#000" stroke-linecap="round" stroke-linejoin="round" stroke-miterlimit="10" stroke-width="2"/>
          </g>
          <g id="g6789" transform="translate(31.923 49.708)">
            <path id="path6791" d="M-83.289,0h0l-6.716,4.471a9.194,9.194,0,0,0-4.1,7.654V27.6" transform="translate(94.105)" fill="none" stroke="#000" stroke-linecap="round" stroke-linejoin="round" stroke-miterlimit="10" stroke-width="2"/>
          </g>
          <g id="g6793" transform="translate(50.461 52.505)">
            <path id="path6795" d="M0-52.253a42.688,42.688,0,0,1,1.472-6.785" transform="translate(0 59.039)" fill="none" stroke="#000" stroke-linecap="round" stroke-linejoin="round" stroke-miterlimit="10" stroke-width="2"/>
          </g>
          <g id="g6797" transform="translate(50.093 64.711)">
            <path id="path6799" d="M-14.169-97.028a43.371,43.371,0,0,1-1.84-12.6" transform="translate(16.009 109.628)" fill="none" stroke="#000" stroke-linecap="round" stroke-linejoin="round" stroke-miterlimit="10" stroke-width="2"/>
          </g>
          <g id="g6801" transform="translate(21.108 49.708)">
            <path id="path6803" d="M0,0H0L6.716,4.471a9.194,9.194,0,0,1,4.1,7.654" fill="none" stroke="#000" stroke-linecap="round" stroke-linejoin="round" stroke-miterlimit="10" stroke-width="2"/>
          </g>
          <g id="g6805" transform="translate(11.914 52.504)">
            <path id="path6807" d="M0-191.029a43.147,43.147,0,0,0,1.707-15.8A42.628,42.628,0,0,0,0-215.836" transform="translate(0 215.836)" fill="none" stroke="#000" stroke-linecap="round" stroke-linejoin="round" stroke-miterlimit="10" stroke-width="2"/>
          </g>
          <g id="g6809" transform="translate(50.592 71.369)">
            <path id="path6811" d="M0,0H12.105" fill="none" stroke="#000" stroke-linecap="round" stroke-linejoin="round" stroke-miterlimit="10" stroke-width="2"/>
          </g>
          <g id="g6813" transform="translate(1.149 71.369)">
            <path id="path6815" d="M0,0H12.105" fill="none" stroke="#000" stroke-linecap="round" stroke-linejoin="round" stroke-miterlimit="10" stroke-width="2"/>
          </g>
          <g id="g6817" transform="translate(14.284 1.149)">
            <path id="path6819" d="M0-159.312v-13.026A7.662,7.662,0,0,1,7.662-180H27.615a7.662,7.662,0,0,1,7.662,7.662v13.026" transform="translate(0 180)" fill="none" stroke="#000" stroke-linecap="round" stroke-linejoin="round" stroke-miterlimit="10" stroke-width="2"/>
          </g>
          <g id="g6821" transform="translate(49.562 19.537)">
            <path id="path6823" d="M0,0H1.208a3.413,3.413,0,0,1,0,6.826H0" fill="none" stroke="#000" stroke-linecap="round" stroke-linejoin="round" stroke-miterlimit="10" stroke-width="2"/>
          </g>
          <g id="g6825" transform="translate(9.663 19.537)">
            <path id="path6827" d="M-35.587,0H-36.8a3.413,3.413,0,0,0-3.413,3.413A3.413,3.413,0,0,0-36.8,6.826h1.208" transform="translate(40.208)" fill="none" stroke="#000" stroke-linecap="round" stroke-linejoin="round" stroke-miterlimit="10" stroke-width="2"/>
          </g>
          <g id="g6829" transform="translate(14.284 12.642)">
            <path id="path6831" d="M-14.176-185.051a17.876,17.876,0,0,1-1.841-7.918v-9.216a38.875,38.875,0,0,0,14.644-2.788,38.368,38.368,0,0,0,7.593-4.108,16.046,16.046,0,0,0,5.392,4.889,16.072,16.072,0,0,0,7.649,2.007v9.407a17.639,17.639,0,0,1-17.7,17.639,17.478,17.478,0,0,1-12.7-5.535" transform="translate(16.017 209.081)" fill="none" stroke="#000" stroke-linecap="round" stroke-linejoin="round" stroke-miterlimit="10" stroke-width="2"/>
          </g>
          <g id="g6833" transform="translate(29.436 36.931)">
            <path id="path6835" d="M0,0A4.35,4.35,0,0,0,2.641.794,4.323,4.323,0,0,0,4.974,0" fill="none" stroke="#000" stroke-linecap="round" stroke-linejoin="round" stroke-miterlimit="10" stroke-width="2"/>
          </g>
          <g id="g6837" transform="translate(36.521 2.689)">
            <path id="path6839" d="M0-76.648a53.173,53.173,0,0,0,6.33-5.673A53.082,53.082,0,0,0,9.986-86.6" transform="translate(0 86.601)" fill="none" stroke="#000" stroke-linecap="round" stroke-linejoin="round" stroke-miterlimit="10" stroke-width="2"/>
          </g>
          <g id="g6861" transform="translate(61.968 44.443)">
            <path id="path6863" d="M-74.877-19.365v3.331a1.646,1.646,0,0,1-1.785,1.64l-6.433-.552a1.645,1.645,0,0,1-1.5-1.64V-21.88" transform="translate(84.6 21.88)" fill="none" stroke="#000" stroke-linecap="round" stroke-linejoin="round" stroke-miterlimit="10" stroke-width="2"/>
          </g>
          <g id="g6865" transform="translate(58.227 30.11)">
            <path id="path6867" d="M0-53.517,17.74-60.4a.987.987,0,0,1,1.344.92v16.038a.987.987,0,0,1-1.234.956L0-47.1" transform="translate(0 60.467)" fill="none" stroke="#000" stroke-linecap="round" stroke-linejoin="round" stroke-miterlimit="10" stroke-width="2"/>
          </g>
          <g id="g6869" transform="translate(53.292 34.592)">
            <path id="path6871" d="M-38.006-8.868V.18a1.152,1.152,0,0,1-1.152,1.152H-41.79A1.152,1.152,0,0,1-42.941.18V-8.868A1.152,1.152,0,0,1-41.79-10.02h2.632A1.152,1.152,0,0,1-38.006-8.868Z" transform="translate(42.941 10.02)" fill="none" stroke="#000" stroke-linecap="round" stroke-linejoin="round" stroke-miterlimit="10" stroke-width="2"/>
          </g>
        </g>
      </g>
    </g>
  </g>
</svg>
