<svg id="_9" data-name="9" xmlns="http://www.w3.org/2000/svg" width="72.078" height="72.079" viewBox="0 0 72.078 72.079">
  <path id="Path_676805" data-name="Path 676805" d="M344.689,8.533H329.072a4.805,4.805,0,0,0-4.805,4.805V25.351a4.805,4.805,0,0,0,4.805,4.805h3.6v6.007l6.007-6.007h6.007a4.805,4.805,0,0,0,4.805-4.805V13.338A4.806,4.806,0,0,0,344.689,8.533Z" transform="translate(-278.617 -7.332)" fill="#f0e4d6"/>
  <path id="Path_676806" data-name="Path 676806" d="M357.277,13.466c-4.958,11.818-14.709,17.3-21.217,19.728a4.76,4.76,0,0,0,3.145,1.2h3.6V40.4l6.007-6.007h6.007a4.805,4.805,0,0,0,4.805-4.805V17.577A4.788,4.788,0,0,0,357.277,13.466Z" transform="translate(-288.75 -11.57)" fill="#ebdcca"/>
  <path id="Path_676807" data-name="Path 676807" d="M57.786,284.707,69.8,261.883h-9.61l-6.007,10.812v-9.611a7.207,7.207,0,0,0-7.208-7.208H39.766a3.6,3.6,0,0,1-3.6-3.6v-4.805h-9.61v4.805a3.6,3.6,0,0,1-3.6,3.6H15.74a7.207,7.207,0,0,0-7.208,7.208v21.624Z" transform="translate(-7.331 -212.629)" fill="#fec9a3"/>
  <g id="Group_951647" data-name="Group 951647" transform="translate(6.007 53.946)">
    <path id="Path_676808" data-name="Path 676808" d="M47.432,401.33h-2.4v-3.194a11.974,11.974,0,0,1-.5-13.554l.878-1.384,2.029,1.288-.878,1.383a9.57,9.57,0,0,0,.607,11.107,1.2,1.2,0,0,1,.263.751v3.6Z" transform="translate(-42.669 -383.198)" fill="#f5b789"/>
    <path id="Path_676809" data-name="Path 676809" d="M267.183,401.33h-2.4v-3.6a1.2,1.2,0,0,1,.263-.751,9.568,9.568,0,0,0,.607-11.106l-.878-1.384L266.8,383.2l.878,1.384a11.974,11.974,0,0,1-.5,13.554Z" transform="translate(-233.505 -383.198)" fill="#f5b789"/>
  </g>
  <path id="Path_676810" data-name="Path 676810" d="M84.837,37.364V25.351A16.818,16.818,0,0,0,68.018,8.533h0A16.818,16.818,0,0,0,51.2,25.351V37.364a7.207,7.207,0,0,0,7.208,7.208H77.629A7.207,7.207,0,0,0,84.837,37.364Z" transform="translate(-43.992 -7.332)" fill="#645e39"/>
  <path id="Path_676811" data-name="Path 676811" d="M141.339,8.533a16.821,16.821,0,0,0-4.805.705,16.82,16.82,0,0,1,12.013,16.113V37.364a7.207,7.207,0,0,1-7.208,7.208h9.61a7.207,7.207,0,0,0,7.208-7.208V25.351A16.818,16.818,0,0,0,141.339,8.533Z" transform="translate(-117.313 -7.332)" fill="#4f4a26"/>
  <path id="Path_676812" data-name="Path 676812" d="M386.279,305.875H375.467a7.207,7.207,0,0,1,7.208-7.208h10.812A7.207,7.207,0,0,1,386.279,305.875Z" transform="translate(-322.609 -256.621)" fill="#fec9a3"/>
  <g id="Group_951648" data-name="Group 951648" transform="translate(50.455 6.007)">
    <rect id="Rectangle_337407" data-name="Rectangle 337407" width="8.409" height="2.403" fill="#ccbfb0"/>
    <rect id="Rectangle_337408" data-name="Rectangle 337408" width="4.805" height="2.403" transform="translate(10.812)" fill="#ccbfb0"/>
    <rect id="Rectangle_337409" data-name="Rectangle 337409" width="15.617" height="2.403" transform="translate(0 4.805)" fill="#ccbfb0"/>
    <rect id="Rectangle_337410" data-name="Rectangle 337410" width="8.409" height="2.403" transform="translate(0 9.61)" fill="#ccbfb0"/>
  </g>
  <path id="Path_676813" data-name="Path 676813" d="M146.15,252.333v-4.866h-9.616v4.866a10.724,10.724,0,0,0,9.622,0Z" transform="translate(-117.313 -212.629)" fill="#f7c097"/>
  <path id="Path_676814" data-name="Path 676814" d="M93.867,92.6V97.77a10.812,10.812,0,1,0,21.623,0V88.16a10.753,10.753,0,0,0-1.294-5.13Z" transform="translate(-80.653 -71.341)" fill="#fec9a3"/>
  <rect id="Rectangle_337411" data-name="Rectangle 337411" width="16.818" height="13.214" transform="translate(15.617 50.455)" fill="#13c6cc"/>
  <path id="Path_676815" data-name="Path 676815" d="M60.189,313.207l-6.007,10.812v-9.611a7.207,7.207,0,0,0-7.208-7.208H43.131L31.358,322.817,20.186,307.2H15.741a7.207,7.207,0,0,0-7.208,7.208v21.623H57.787L69.8,313.207Z" transform="translate(-7.332 -263.953)" fill="#4398d1"/>
  <path id="Path_676816" data-name="Path 676816" d="M180.213,313.485H170.6L164.6,324.3v-9.61a7.208,7.208,0,0,0-6.416-7.162c-2.162,16.781-12.242,24.891-21.143,28.786H168.2Z" transform="translate(-117.745 -264.231)" fill="#3f8fc4"/>
  <g id="Group_951649" data-name="Group 951649" transform="translate(6.007 53.946)">
    <path id="Path_676817" data-name="Path 676817" d="M47.432,401.33h-2.4v-3.194a11.974,11.974,0,0,1-.5-13.554l.878-1.384,2.029,1.288-.878,1.383a9.57,9.57,0,0,0,.607,11.107,1.2,1.2,0,0,1,.263.751v3.6Z" transform="translate(-42.669 -383.198)" fill="#3685ba"/>
    <path id="Path_676818" data-name="Path 676818" d="M267.183,401.33h-2.4v-3.6a1.2,1.2,0,0,1,.263-.751,9.568,9.568,0,0,0,.607-11.106l-.878-1.384L266.8,383.2l.878,1.384a11.974,11.974,0,0,1-.5,13.554Z" transform="translate(-233.505 -383.198)" fill="#3685ba"/>
  </g>
  <path id="Path_676819" data-name="Path 676819" d="M181.479,97.769v-9.61a10.754,10.754,0,0,0-1.294-5.13l-3.049,1.434a16.744,16.744,0,0,1,.739,4.9v12.013a7.207,7.207,0,0,1-7.208,7.208,10.811,10.811,0,0,0,10.812-10.812Z" transform="translate(-146.641 -71.34)" fill="#f7c097"/>
  <path id="Path_676820" data-name="Path 676820" d="M70.3,37.24h-1.2v2.4h1.2a8.418,8.418,0,0,0,8.409-8.409V18.02a18.02,18.02,0,1,0-36.039,0V31.234a8.418,8.418,0,0,0,8.409,8.409h1.2v-2.4h-1.2a6.013,6.013,0,0,1-6.007-6.007V18.02a15.617,15.617,0,0,1,31.234,0V31.234A6.013,6.013,0,0,1,70.3,37.24Z" transform="translate(-36.66)"/>
  <path id="Path_676821" data-name="Path 676821" d="M47.439,384.486,45.41,383.2l-.878,1.384a11.974,11.974,0,0,0,.5,13.554v3.194h2.4v-3.6a1.2,1.2,0,0,0-.263-.751,9.57,9.57,0,0,1-.607-11.107Z" transform="translate(-36.661 -329.252)"/>
  <path id="Path_676822" data-name="Path 676822" d="M337.357,0H321.74a6.014,6.014,0,0,0-6.007,6.007V18.02a6.014,6.014,0,0,0,6.007,6.007h2.4v4.805a1.2,1.2,0,0,0,.741,1.11,1.2,1.2,0,0,0,1.309-.261l5.655-5.654h5.509a6.014,6.014,0,0,0,6.007-6.007V6.007A6.014,6.014,0,0,0,337.357,0Zm3.6,18.02a3.6,3.6,0,0,1-3.6,3.6H331.35a1.2,1.2,0,0,0-.849.352l-3.956,3.956V22.825a1.2,1.2,0,0,0-1.2-1.2h-3.6a3.6,3.6,0,0,1-3.6-3.6V6.007a3.6,3.6,0,0,1,3.6-3.6h15.617a3.6,3.6,0,0,1,3.6,3.6Z" transform="translate(-271.285)"/>
  <rect id="Rectangle_337412" data-name="Rectangle 337412" width="8.409" height="2.403" transform="translate(50.455 6.007)"/>
  <rect id="Rectangle_337413" data-name="Rectangle 337413" width="4.805" height="2.403" transform="translate(61.267 6.007)"/>
  <rect id="Rectangle_337414" data-name="Rectangle 337414" width="15.617" height="2.403" transform="translate(50.455 10.812)"/>
  <rect id="Rectangle_337415" data-name="Rectangle 337415" width="8.409" height="2.403" transform="translate(50.455 15.617)"/>
  <path id="Path_676823" data-name="Path 676823" d="M264.78,397.727v3.6h2.4v-3.194a11.974,11.974,0,0,0,.5-13.554L266.8,383.2l-2.029,1.288.878,1.384a9.569,9.569,0,0,1-.607,11.106A1.2,1.2,0,0,0,264.78,397.727Z" transform="translate(-227.498 -329.252)"/>
  <path id="Path_676824" data-name="Path 676824" d="M2.4,114.47a6.013,6.013,0,0,1,6.007-6.007h3.823l10.818,15.115a1.2,1.2,0,0,0,.961.5h.016a1.2,1.2,0,0,0,.961-.48L36.4,108.464h3.244a6.013,6.013,0,0,1,6.007,6.007v9.61a1.2,1.2,0,0,0,2.251.583l5.663-10.193h6.887L48.738,136.094h2.733l11.718-21.624h.48a8.418,8.418,0,0,0,8.409-8.409,1.2,1.2,0,0,0-1.2-1.2H60.065a8.409,8.409,0,0,0-8.392,8.067l-3.621,6.518V114.47a8.418,8.418,0,0,0-8.409-8.409H35.253l-.032-.025-.022.025H32.435a2.4,2.4,0,0,1-2.4-2.4v-2.827a12.014,12.014,0,0,0,6.007-10.388v-9.61a12.033,12.033,0,0,0-1.442-5.7,1.2,1.2,0,0,0-1.562-.517L12.7,84.183a1.2,1.2,0,0,0-.69,1.087v5.174a12.014,12.014,0,0,0,6.007,10.388v2.827a2.4,2.4,0,0,1-2.4,2.4H8.409A8.418,8.418,0,0,0,0,114.47v21.624H2.4Zm57.663-7.208h9.49a6.016,6.016,0,0,1-5.886,4.805h-9.49A6.016,6.016,0,0,1,60.065,107.263ZM24.051,120.852l-3.707-5.18h7.611ZM14.416,90.444V86.033L32.965,77.3a9.616,9.616,0,0,1,.672,3.529v9.61a9.61,9.61,0,1,1-19.221,0Zm1.2,18.02a4.805,4.805,0,0,0,4.805-4.805V101.9a12,12,0,0,0,7.208,0v1.755a4.805,4.805,0,0,0,4.805,4.805H33.4l-3.623,4.805H18.62l-3.439-4.805Z" transform="translate(0 -64.016)"/>
</svg>
