<svg xmlns="http://www.w3.org/2000/svg" xmlns:xlink="http://www.w3.org/1999/xlink" width="1240" height="597.821" viewBox="0 0 1240 597.821">
  <defs>
    <clipPath id="clip-path">
      <rect id="Rectangle_341936" data-name="Rectangle 341936" width="1240" height="594.676" transform="translate(180.538 4682)" fill="#ffdfe0"/>
    </clipPath>
  </defs>
  <g id="bg-2-5" transform="translate(-180.538 -4696.934)">
    <g id="Rectangle_4933" data-name="Rectangle 4933" transform="translate(180.538 4696.934)" fill="#fff7da" stroke="#fed947" stroke-width="1">
      <rect width="1239.5" height="597.821" stroke="none"/>
      <rect x="0.5" y="0.5" width="1238.5" height="596.821" fill="none"/>
    </g>
    <g id="bg-2-5-2" data-name="bg-2-5" transform="translate(0 16.768)" clip-path="url(#clip-path)">
      <g id="Group_161054" data-name="Group 161054" transform="translate(168.251 4682)" opacity="0.706">
        <g id="Group_161050" data-name="Group 161050" transform="translate(0 51.335)" style="isolation: isolate">
          <path id="Path_140330" data-name="Path 140330" d="M341.517,975.26C445.793,1082,553.553,1184.817,663.37,1285.817,615.886,1178.43,564.7,1072.753,519.618,964.24c-51.1-123.019-110.509-290.7-46.078-419.742,146.826-294.125,517.982-5.52,654.57,142.526,14.545,15.784,28.44,32.259,42.507,48.54-48.8-119.555-92.74-242.4-81.139-371.568,15.95-177.6,178.706-220.209,318.823-137.677,150.462,88.594,271.317,241.9,372.217,381.138,85.706,118.256-110.4,230.839-195.437,114.272A1537.828,1537.828,0,0,0,1432.3,542.961q12.174,22.311,24.608,44.536c54.822,97.969,108.973,196.328,153.644,299.45,85.533,197.432,212.037,470.772,104.428,678.445-54.238,104.659-181.412,115.289-277.161,72.7-128.711-57.245-217.859-183.62-303.8-290.574-89.71-111.674-168.729-230.255-251.773-346.779-34.694-48.692-69.365-98.078-109.1-142.851-.909-1.04-1.861-1.992-2.77-3.01l1,3.139c22.055,68.589,50.406,134.407,79.127,200.4,53.415,122.781,122.327,252.014,141.892,385.6,17.292,118.127-30.517,250.52-172.538,241.947-133.516-8.053-240.518-136.7-329.775-222.612C381.989,1359.3,275.83,1253.189,169.65,1147.189,58.773,1036.51,231.982,863.175,341.517,975.26Z" transform="translate(-112.263 -164.133)" fill="#fff0b5"/>
          <path id="Path_140331" data-name="Path 140331" d="M853.27,1728.713c52.4,0,96.874-18.4,129.231-53.65,44.974-49,64.409-128.8,52.008-213.476-16.167-110.4-64.3-216.138-110.834-318.373-11.146-24.487-22.184-48.736-32.616-72.724-9.891-22.755-20.3-46.657-30.625-71.382q9.48,13.217,18.764,26.284l6.147,8.638q32.366,45.4,64.15,91.062c59.756,85.3,121.547,173.531,188.38,256.712,9.761,12.146,19.566,24.551,29.478,37.088,76.637,96.951,163.491,206.828,282.4,259.7,106.007,47.091,244.848,33.9,305.145-82.51,108.367-209.124-8.635-478.22-94.082-674.7l-9.7-22.343c-25.127-58.045-53.307-114.7-83.2-171.105q10.389,13.543,20.388,27.28c52.571,72.053,144.64,70.97,203.314,28.275,48.524-35.312,75.751-100.957,27.14-168.031C1711.047,466.826,1590.6,317.046,1439.99,228.365c-83.585-49.212-175.071-57.2-244.782-21.369-61.379,31.545-99.233,93.964-106.57,175.782-8.614,95.955,12.1,187.8,42.117,275.418C1019.618,549.574,814.075,395.53,649.177,418.869c-75.751,10.761-134.382,56.747-174.27,136.66-65.622,131.419-13.852,295.033,45.45,437.732,28.223,67.94,59.259,135.706,89.277,201.265l10.627,23.188c-89.321-83.788-169.227-161.839-242.553-236.88v.021c-36.252-37.13-82.308-50.77-129.555-38.495-51.879,13.51-96.225,57.526-110.336,109.574-12.943,47.739.282,94.375,37.269,131.289l12.077,12.038c100.532,100.372,204.483,204.166,308.63,304.387,12.834,12.362,26.015,25.591,39.607,39.231,80.858,81.082,181.477,182.017,303.868,189.4C843.985,1728.583,848.66,1728.713,853.27,1728.713ZM791.177,854.87a20.427,20.427,0,0,0-10.475,2.794c-8.7,5.153-13.333,14.96-10.215,24.573L771.5,885.4c23.115,71.924,53.264,141.227,79.863,202.369,10.54,24.227,21.686,48.693,32.919,73.375,45.277,99.506,92.112,202.391,107.392,306.725,10.367,70.84-5.367,139.019-41.056,177.9-26.469,28.839-63,41.894-108.734,39.3-105.964-6.409-196.215-96.909-275.84-176.777-13.808-13.835-27.205-27.28-40.235-39.838-103.865-99.961-207.686-203.6-308.088-303.846l-12.056-12.037c-32.724-32.65-32.227-66.576-26.079-89.287,10.021-36.958,42.7-69.433,79.451-79,22.4-5.846,55.753-5.889,87.7,26.825v.021c94.732,96.93,200.285,198.775,322.719,311.336a21.647,21.647,0,0,0,34.434-24.7c-17.942-40.6-36.425-80.93-54.908-121.266-29.846-65.212-60.731-132.632-88.649-199.857C504.775,842.963,455.8,690.693,513.626,574.884c33.612-67.377,79.949-104.378,141.654-113.124,153.73-21.781,369.922,143.89,477.639,260.674,11.493,12.427,22.552,25.331,33.633,38.235l8.376,9.765a21.644,21.644,0,0,0,36.425-22.322c-28.9-70.835-71.419-220.681-71.419-220.681s-12.455-93.217-8.184-140.8c6.06-67.442,34.845-116.242,83.239-141.118,56.445-29.012,132.347-21.456,203.055,20.157,143.753,84.675,260.711,230.363,365.68,375.206,33.157,45.769,12.682,85.607-17.553,107.6-40.949,29.77-104.925,33.277-142.887-18.793a1567.748,1567.748,0,0,0-154.921-181.3,21.653,21.653,0,0,0-34.347,25.656q12.238,22.408,24.738,44.73c55.492,99.2,108.951,196.61,152.648,297.481l9.718,22.387c81.984,188.512,194.224,446.7,95.359,637.5-48.026,92.687-161.7,101.736-249.155,62.873-109.146-48.519-188.9-149.411-266.014-246.99-9.978-12.6-19.869-25.116-29.716-37.348-65.924-82.078-127.283-169.7-186.649-254.438q-32.01-45.727-64.345-91.344l-6.147-8.617c-32.573-45.748-66.249-93.033-104.406-136.053l-1.926-2.1A23.624,23.624,0,0,0,791.177,854.87Zm-428.964,141.1h0Z" transform="translate(-132.979 -184.84)" fill="#fff3c2"/>
          <path id="Path_140332" data-name="Path 140332" d="M178.52,233.777c79.733,160.3,124.729,348.229,54.67,520.525-10.346,25.482-52.225,14.332-41.728-11.518,65.751-161.774,24.673-336.387-50.32-487.162C128.763,230.767,166.1,208.791,178.52,233.777Z" transform="translate(1320.465 598.33)" fill="#fde2e3"/>
          <path id="Path_140333" data-name="Path 140333" d="M158.406,356.212c.368-.043.714-.152,1.061-.216.606-1.169,1.147-2.447,1.342-2.793l.108-.13c.043-.173-.022-.044.043-.3,2.792-9.678,4.783-19.464,6.9-29.315q7.337-34.262,14.7-68.524c2.381-11.085,15.951-18.577,26.621-15.112,11.687,3.788,17.683,14.744,15.129,26.63q-8.311,38.744-16.644,77.51c-4.61,21.5-11.99,49.71-37.745,54.018-11.125,1.862-23.851-2.923-26.621-15.134C140.918,372.386,146.459,358.2,158.406,356.212Z" transform="translate(1274.85 932.874)" fill="#fde2e3"/>
          <path id="Path_140334" data-name="Path 140334" d="M254.571,204.346c24.565-13.12,46.446,24.248,21.838,37.39-33.98,18.143-44.347,55.08-45.688,91.366-1.558,41.2,3.073,83.55,9.761,124.123A824,824,0,0,0,315.6,689.8c12.358,24.877-24.955,46.83-37.378,21.846-42.875-86.257-71.53-178.315-84.018-273.9C184.015,359.711,171.808,248.535,254.571,204.346Z" transform="translate(225.808 161.167)" fill="#fde2e3"/>
        </g>
        <g id="Group_161053" data-name="Group 161053" transform="translate(51.324)">
          <g id="Group_161052" data-name="Group 161052">
            <g id="Group_161051" data-name="Group 161051">
              <path id="Path_140335" data-name="Path 140335" d="M339.134,972.9c104.276,106.738,212.036,209.557,321.875,310.535-47.485-107.365-98.692-213.064-143.774-321.555-51.1-123.019-110.488-290.7-46.078-419.741,146.827-294.125,517.982-5.543,654.571,142.527,14.566,15.761,28.439,32.238,42.507,48.541-48.784-119.555-92.719-242.4-81.14-371.569,15.951-177.6,178.706-220.209,318.823-137.7,150.484,88.616,271.317,241.925,372.238,381.16,85.706,118.256-110.423,230.839-195.458,114.272a1539.617,1539.617,0,0,0-152.756-178.791q12.174,22.311,24.586,44.557C1509.35,683.1,1563.5,781.46,1608.172,884.561c85.555,197.454,212.036,470.772,104.427,678.467-54.238,104.659-181.39,115.29-277.161,72.7-128.71-57.244-217.858-183.619-303.8-290.574-89.71-111.674-168.707-230.255-251.752-346.779-34.715-48.692-69.388-98.078-109.1-142.872-.909-1.018-1.883-1.971-2.792-3.01l1,3.161c22.054,68.589,50.428,134.407,79.127,200.4,53.437,122.759,122.326,251.992,141.892,385.6,17.315,118.126-30.517,250.52-172.538,241.946-133.494-8.054-240.5-136.7-329.753-222.613C379.607,1356.935,273.447,1250.8,167.267,1144.8,56.411,1034.145,229.62,860.81,339.134,972.9Z" transform="translate(-109.888 -161.767)" fill="#fff2bf"/>
              <path id="Path_140336" data-name="Path 140336" d="M850.912,1726.321c52.4,0,96.853-18.381,129.209-53.628,44.974-49,64.41-128.8,52.008-213.5-16.145-110.375-64.28-216.117-110.834-318.374-11.124-24.487-22.162-48.714-32.616-72.7-9.89-22.754-20.3-46.657-30.625-71.382,6.32,8.79,12.574,17.581,18.765,26.284l6.146,8.617c21.578,30.268,42.875,60.687,64.172,91.062,59.735,85.326,121.526,173.552,188.359,256.712q14.641,18.251,29.477,37.109c76.638,96.93,163.491,206.807,282.4,259.7,106.029,47.09,244.847,33.884,305.145-82.532,108.367-209.1-8.635-478.2-94.06-674.7l-9.718-22.322c-25.128-58.046-53.307-114.706-83.174-171.105q10.356,13.542,20.388,27.258c52.549,72.075,144.618,70.992,203.292,28.3,48.524-35.312,75.751-100.956,27.141-168.031-107.718-148.631-228.161-298.411-378.753-387.114-83.607-49.19-175.071-57.179-244.8-21.347-61.379,31.545-99.211,93.943-106.57,175.76-8.615,95.956,12.1,187.82,42.138,275.419C1017.238,547.2,811.716,393.161,646.818,416.5c-75.751,10.76-134.4,56.746-174.291,136.659-65.6,131.42-13.83,295.012,45.451,437.733,28.222,67.918,59.258,135.706,89.277,201.243l10.627,23.188c-89.32-83.767-169.226-161.817-242.553-236.858h0c-36.252-37.131-82.308-50.749-129.555-38.473-51.879,13.51-96.225,57.526-110.315,109.574-12.964,47.739.26,94.353,37.247,131.268l12.077,12.06c100.532,100.372,204.483,204.143,308.629,304.386,12.834,12.362,26.015,25.591,39.628,39.231,80.837,81.082,181.455,182.018,303.846,189.4C841.627,1726.192,846.28,1726.321,850.912,1726.321ZM788.818,852.479a20.4,20.4,0,0,0-10.475,2.814c-8.723,5.153-13.354,14.939-10.238,24.574l1.018,3.161c23.114,71.9,53.263,141.227,79.862,202.369,10.541,24.205,21.687,48.67,32.92,73.374,45.3,99.507,92.133,202.391,107.414,306.7,10.367,70.841-5.367,139.019-41.078,177.926-26.448,28.816-63,41.894-108.734,39.295-105.965-6.408-196.216-96.908-275.819-176.777-13.809-13.856-27.227-27.3-40.256-39.837-103.865-99.961-207.687-203.6-308.089-303.845l-12.055-12.06c-32.7-32.628-32.227-66.554-26.058-89.287,10.021-36.936,42.68-69.434,79.452-78.982,22.379-5.845,55.731-5.889,87.676,26.825h0c94.731,96.93,200.284,198.775,322.719,311.358a21.647,21.647,0,0,0,34.434-24.7c-17.942-40.595-36.425-80.93-54.886-121.287-29.868-65.19-60.73-132.611-88.672-199.836-55.536-133.671-104.536-285.94-46.706-401.771,33.633-67.355,79.971-104.356,141.653-113.125,153.73-21.759,369.944,143.912,477.661,260.674,11.471,12.448,22.531,25.353,33.612,38.235l8.4,9.786A21.651,21.651,0,0,0,1209,745.72c-46.489-113.861-90.922-235.6-79.624-361.458,6.06-67.464,34.845-116.264,83.239-141.14,56.467-28.99,132.347-21.434,203.055,20.178,143.774,84.655,260.711,230.363,365.68,375.206,33.178,45.77,12.682,85.584-17.553,107.582-40.949,29.792-104.925,33.3-142.887-18.772a1563.855,1563.855,0,0,0-154.92-181.3,21.638,21.638,0,0,0-34.326,25.634q12.239,22.441,24.716,44.752c55.514,99.2,108.951,196.61,152.67,297.48l9.718,22.386c81.962,188.512,194.2,446.7,95.337,637.482-48.025,92.708-161.694,101.758-249.154,62.9-109.146-48.52-188.9-149.433-266.014-246.991q-14.966-18.934-29.694-37.369c-65.946-82.057-127.3-169.676-186.671-254.417-21.34-30.484-42.7-60.99-64.344-91.366l-6.147-8.6c-32.573-45.748-66.249-93.054-104.384-136.052l-1.948-2.1A23.6,23.6,0,0,0,788.818,852.479ZM359.854,993.6h0Z" transform="translate(-130.608 -182.469)" fill="#ffeda5" opacity="0.82"/>
            </g>
            <path id="Path_140337" data-name="Path 140337" d="M176.142,231.409c79.755,160.3,124.729,348.208,54.692,520.526-10.367,25.461-52.246,14.332-41.75-11.518,65.773-161.8,24.695-336.387-50.32-487.162C126.406,228.378,163.719,206.425,176.142,231.409Z" transform="translate(1322.834 600.698)" fill="#ffe891"/>
            <path id="Path_140338" data-name="Path 140338" d="M156.034,353.842c.368-.044.714-.151,1.06-.216.606-1.191,1.169-2.447,1.364-2.793l.086-.13c.043-.173-.022-.065.043-.325,2.792-9.656,4.8-19.464,6.9-29.294q7.369-34.261,14.7-68.524c2.381-11.085,15.951-18.576,26.643-15.112,11.665,3.767,17.661,14.744,15.107,26.63l-16.622,77.488c-4.632,21.52-12.012,49.732-37.767,54.04-11.125,1.841-23.851-2.922-26.621-15.133C138.546,370.015,144.108,355.833,156.034,353.842Z" transform="translate(1277.213 935.247)" fill="#fc5f65"/>
            <path id="Path_140339" data-name="Path 140339" d="M252.2,201.976c24.565-13.121,46.468,24.249,21.838,37.39-33.98,18.144-44.325,55.079-45.688,91.344-1.559,41.2,3.073,83.571,9.761,124.144a823.986,823.986,0,0,0,75.123,232.572c12.38,24.876-24.954,46.83-37.377,21.846-42.853-86.278-71.531-178.337-84.018-273.9C181.644,357.319,169.437,246.143,252.2,201.976Z" transform="translate(228.17 163.539)" fill="#ffe891" opacity="0.55"/>
          </g>
        </g>
      </g>
    </g>
  </g>
</svg>
