<svg xmlns="http://www.w3.org/2000/svg" xmlns:xlink="http://www.w3.org/1999/xlink" width="90" height="90" viewBox="0 0 90 90">
  <defs>
    <clipPath id="clip-path">
      <circle id="Ellipse_5067" data-name="Ellipse 5067" cx="45" cy="45" r="45" transform="translate(345.812 4027.19)" fill="#c4d1ff"/>
    </clipPath>
    <clipPath id="clip-path-2">
      <rect id="Rectangle_342092" data-name="Rectangle 342092" width="92.494" height="89.459" transform="translate(0 0)" fill="none"/>
    </clipPath>
  </defs>
  <g id="director" transform="translate(-345.812 -4092.031)">
    <path id="Path_715600" data-name="Path 715600" d="M45,0A45,45,0,1,1,0,45,45,45,0,0,1,45,0Z" transform="translate(345.812 4092.031)" fill="#c4d1ff"/>
    <g id="Mask_Group_989153" data-name="Mask Group 989153" transform="translate(0 64.841)" clip-path="url(#clip-path)">
      <g id="Group_991006" data-name="Group 991006" transform="translate(337.355 4038.211)">
        <g id="Group_991023" data-name="Group 991023" transform="translate(0 4)" clip-path="url(#clip-path-2)">
          <path id="Path_715459" data-name="Path 715459" d="M887.405,746.081c-1.574,9.605-6.135,33.386-11.146,34.691s-5.825-.259-8.647-3.2l1.845-9.031s9.657-19.5,12.924-26.032Z" transform="translate(-817.5 -699.621)" fill="#ffae8d"/>
          <path id="Path_715460" data-name="Path 715460" d="M732.909,398.052a4.35,4.35,0,0,1-.338,1.065,4.171,4.171,0,0,1-3.257-.432c-1.69-.86,3.595-.633,3.595-.633" transform="translate(-686.876 -375.036)" fill="#fff"/>
          <path id="Path_715461" data-name="Path 715461" d="M753.806,907.867s3.073,22.283,8.954,24.944,5.846-13.493,5.846-13.493l-1.826-14.356Z" transform="translate(-710.267 -852.693)" fill="#ffae8d"/>
          <path id="Path_715462" data-name="Path 715462" d="M431.188,403.825l-.015-10.346-10.484-3.721s-.764,8.452-3.446,11.485,13.945,2.582,13.945,2.582" transform="translate(-392.868 -367.246)" fill="#ffae8d"/>
          <path id="Path_715463" data-name="Path 715463" d="M148.761,580.778s13.456,5.8,14.769,7.7c3.463,5,6.139,21.189,6.139,21.189l-13.495,6.46-1.087-5.219-1.928,21.873s-36.055.541-36.034,0c.861-21.965-2.242-43.411,5.357-48.844a29.165,29.165,0,0,1,12.732-5.278s10.458,2.717,13.546,2.119" transform="translate(-110.361 -545.236)" fill="#12263f"/>
          <path id="Path_715464" data-name="Path 715464" d="M398.809,34.3c2.186,6.719-.025,6.735.591,9.387a6.759,6.759,0,0,0,2.084,3.388c.323.335.182,1.157-.778,1.613s.116,1.964.078,2.213c-.079.519-.542.6-2.282.545a.691.691,0,0,0-.277,1.02c.834,1.4,2.3.348,1.865.994-1.177,1.765.147,3.892-1.887,4.6s-11.521.638-15.882-7.648c0,0-10.094-7.312-4.492-15.448,7.848-11.4,20.981-.661,20.981-.661" transform="translate(-354.41 -28.002)" fill="#ffae8d"/>
          <path id="Path_715465" data-name="Path 715465" d="M694.522,202.255c-.21.513.791.322,1.4.136a18.451,18.451,0,0,1,2.516.086c.517-.074.644-1.159-.238-1.3s-3.124-.283-3.683,1.078" transform="translate(-654.381 -189.475)" fill="#944a32"/>
          <path id="Path_715466" data-name="Path 715466" d="M733.15,247.861c-.026-.906-.341-1.633-.7-1.623s-.636.753-.61,1.66.341,1.633.7,1.623.636-.753.61-1.66" transform="translate(-689.564 -232.016)" fill="#3c251d"/>
          <path id="Path_715467" data-name="Path 715467" d="M493.173,360.16,490.332,355l-1.8,2.656.773,1.83Z" transform="translate(-460.313 -334.493)" fill="#e45f29"/>
          <path id="Path_715468" data-name="Path 715468" d="M609.659,406.683h0c-3.571-.1-6.086-1.276-8.347-6.983l-.395.179s-1.6,6.481,3.386,9.45l-.074-2.755c2.95.788,4.472.44,5.43.108" transform="translate(-565.978 -376.614)" fill="#e45f29"/>
          <path id="Path_715469" data-name="Path 715469" d="M741.133,401.286a.113.113,0,0,1-.123-.086,1.82,1.82,0,0,1,.291-1.037.113.113,0,1,1,.194.115,1.633,1.633,0,0,0-.266.869.113.113,0,0,1-.083.136l-.013,0" transform="translate(-698.196 -376.999)" fill="#e07070"/>
          <path id="Path_715470" data-name="Path 715470" d="M385.04,153.937c-3.735.688-7.162,2.456-10.894,3.247-.925.2-1.011-.068-1.838-.171.665,2.227,1.041,4.619,2.65,6.44,1.887,2.137,4.419,5.032,4.887,7.7,1.712-2.3,7.2-5.656,8.385-8.193.459-.979-1.414-1.661-.209-1.745-.071-1.14.408,1.057.97.024.008-.015,2.006-5.633,1.813-8.321-1.68-.487-3.743.644-5.763,1.016" transform="translate(-350.803 -143.976)" fill="#763423"/>
          <path id="Path_715471" data-name="Path 715471" d="M16.553,628.77c-4.211,2.037-10.336,3.491-11.849,9.824S0,654.54,0,654.54,11.5,660.6,13.673,659.1c3.082-2.117,4.467-11.861,3.322-6.244Z" transform="translate(0 -592.453)" fill="#12263f"/>
          <path id="Path_715472" data-name="Path 715472" d="M928.235,1369.062a5.362,5.362,0,0,1-3.094-.88.142.142,0,0,1-.028-.2.147.147,0,0,1,.2-.028,5.537,5.537,0,0,0,4.142.706.149.149,0,0,1,.167.115.143.143,0,0,1-.115.167,6.943,6.943,0,0,1-1.272.12" transform="translate(-871.651 -1288.915)" fill="#cd5959"/>
          <path id="Path_715473" data-name="Path 715473" d="M719.654,98.448a2.555,2.555,0,0,1-1.975.06c-.683-.266-1.33-.84-2.044-.676-.441.1-.814.48-1.266.454a1.607,1.607,0,0,1,.888-1.581,7.021,7.021,0,0,0,1.614-1.057A.446.446,0,0,0,717,95.4a.182.182,0,0,0-.16-.2,6.466,6.466,0,0,0,2.031.224,1.189,1.189,0,0,1,.438.066.61.61,0,0,1-.351,1.163c.238.48,1.09.4,1.273.9.135.37-.222.737-.58.9" transform="translate(-673.082 -89.696)" fill="#763423"/>
          <path id="Path_715474" data-name="Path 715474" d="M369.883,5.625S360.461,20.736,349,21.366c0,0-7.617-9.445-.574-16.653,8.135-8.327,17.049-4.06,21.459.913" transform="translate(-325.484 -0.002)" fill="#e4474d"/>
          <path id="Path_715475" data-name="Path 715475" d="M605.214,257.573s-.825-3.458-3.213-1c-.948.978.036,4.873,3.205,4.112,0,0,.969-.783.008-3.117" transform="translate(-566.904 -240.924)" fill="#ffae8d"/>
          <path id="Path_715476" data-name="Path 715476" d="M609.817,266.736A1.785,1.785,0,0,1,608,266.7a.136.136,0,0,1-.024-.158.077.077,0,0,1,.122-.031,1.69,1.69,0,0,0,1.751-.039l-.05-.057a1.08,1.08,0,0,1-.333-1.021.648.648,0,0,1,.263-.412.45.45,0,0,1,.277-.061c-.15-.424-.557-1.4-1.118-1.366a1.484,1.484,0,0,0-1.525,1.524.108.108,0,0,1-.084.118.1.1,0,0,1-.091-.108,1.978,1.978,0,0,1,.195-.852,1.643,1.643,0,0,1,1.5-.91c.84-.047,1.333,1.635,1.354,1.706a.138.138,0,0,1-.02.12.075.075,0,0,1-.093.026.379.379,0,0,0-.317.008.443.443,0,0,0-.171.279.838.838,0,0,0,.282.778.534.534,0,0,1,.134.2.179.179,0,0,1-.056.178.742.742,0,0,1-.176.115" transform="translate(-572.117 -248.119)" fill="#cd5959"/>
          <path id="Path_715477" data-name="Path 715477" d="M299.284,272.853s-9.978,2.869-14.057-.97l-3.775,6.277a4.109,4.109,0,0,0,2.278,5.921,16.363,16.363,0,0,0,7.806.857,4.445,4.445,0,0,0,3.6-2.435Z" transform="translate(-264.668 -256.18)" fill="#e4474d"/>
          <path id="Path_715478" data-name="Path 715478" d="M447.054,55.038h0a.537.537,0,0,1-.33-.105c-.32-.244-.276-.82.1-1.311.365-.474.929-.674,1.239-.439a.63.63,0,0,1,.207.6,1.472,1.472,0,0,1-.3.711,1.248,1.248,0,0,1-.91.544m.677-1.673a1,1,0,0,0-.681.432c-.29.38-.313.784-.151.907a.247.247,0,0,0,.155.047.986.986,0,0,0,.681-.432,1.2,1.2,0,0,0,.249-.569.377.377,0,0,0-.1-.339.245.245,0,0,0-.155-.047" transform="translate(-420.72 -50.018)" fill="#763423"/>
          <path id="Path_715479" data-name="Path 715479" d="M487.04,39.469a.154.154,0,0,1-.062-.013,19.609,19.609,0,0,0-15.454-.55.144.144,0,0,1-.121-.26,19.919,19.919,0,0,1,15.7.55.144.144,0,0,1-.062.274" transform="translate(-444.097 -35.142)" fill="#763423"/>
          <path id="Path_715480" data-name="Path 715480" d="M471.041,92.1a.145.145,0,0,1-.141-.116c-1.92-9.653-7.321-11.789-7.374-11.809a.144.144,0,1,1,.1-.269c.056.021,5.6,2.2,7.556,12.022a.146.146,0,0,1-.113.169l-.028,0" transform="translate(-436.665 -75.285)" fill="#763423"/>
          <path id="Path_715481" data-name="Path 715481" d="M360.125,91.651c-4.881,0-7.031-1.985-7.149-2.1a.139.139,0,0,1-.045-.094c-.515-8.389,5.372-11.154,5.432-11.181a.15.15,0,0,1,.191.072.145.145,0,0,1-.072.191c-.057.026-5.738,2.7-5.267,10.841.436.371,4.388,3.439,13.018,1.091a.144.144,0,1,1,.076.278,23.673,23.673,0,0,1-6.184.9" transform="translate(-332.516 -73.745)" fill="#763423"/>
          <path id="Path_715482" data-name="Path 715482" d="M1061.638,594.9s-1.175-.679-2.869-4.242c-.646-1.358-1.3-6.171-.383-6.556s1.737,4.436,2.052,4.388c.49-.075.3-1.455.485-1.373,1.971.873,2.668,3.693,3.517,5.674l.328.764Z" transform="translate(-996.828 -550.344)" fill="#ffae8d"/>
          <path id="Path_715483" data-name="Path 715483" d="M1530.747,347.765s3.864.128,4,4.759a4.722,4.722,0,0,1-4.081,5.1Z" transform="translate(-1442.255 -327.679)" fill="#050504"/>
          <path id="Path_715484" data-name="Path 715484" d="M920.5,301.555l-.092-17.949-38.3,5.617.021,4.185.015,2.92Z" transform="translate(-831.157 -267.226)" fill="#272738"/>
          <path id="Path_715485" data-name="Path 715485" d="M1064.006,502.759l-.039-7.759,1.5-.008L1065.5,502l10.283-.052-.019-3.646,1.5-.008.022,4.394a.747.747,0,0,1-.744.752l-11.779.06a.748.748,0,0,1-.752-.744" transform="translate(-1002.514 -466.402)" fill="#050504"/>
          <path id="Path_715486" data-name="Path 715486" d="M871.886,372.809l-.043-8.33a.354.354,0,0,0-.355-.352l-.415,0a.354.354,0,0,0-.352.355l.042,8.33a.355.355,0,0,0,.355.352l.415,0a.354.354,0,0,0,.352-.355" transform="translate(-820.43 -343.096)" fill="#050504"/>
          <path id="Path_715487" data-name="Path 715487" d="M1538.322,291.869l-.094-18.457a.354.354,0,0,0-.355-.352l-.415,0a.355.355,0,0,0-.352.355l.094,18.457a.355.355,0,0,0,.356.352l.415,0a.354.354,0,0,0,.352-.355" transform="translate(-1448.325 -257.288)" fill="#3c251d"/>
          <path id="Path_715488" data-name="Path 715488" d="M1105.437,599.137l.135-6.554s-1.42-8.717-.619-9.062,6.969-1.11,6.969-1.11a18.386,18.386,0,0,1-.388,10.767c-.166.476-2.091,7.69-2.091,7.69Z" transform="translate(-1040.901 -548.772)" fill="#ffae8d"/>
          <path id="Path_715489" data-name="Path 715489" d="M1105.119,561.392l-.195-3.226a.823.823,0,0,0-.8-.759l-.3,0a.8.8,0,0,0-.815.857l.195,3.226a.822.822,0,0,0,.8.759l.3,0a.8.8,0,0,0,.815-.857" transform="translate(-1039.305 -525.209)" fill="#ffae8d"/>
          <path id="Path_715490" data-name="Path 715490" d="M1138.461,564.545l-.222-3.669a.822.822,0,0,0-.8-.759l-.3,0a.8.8,0,0,0-.815.857l.222,3.669a.823.823,0,0,0,.8.759l.3,0a.8.8,0,0,0,.815-.857" transform="translate(-1070.695 -527.762)" fill="#ffae8d"/>
          <path id="Path_715491" data-name="Path 715491" d="M1171.7,565.96l-.25-4.146a.822.822,0,0,0-.8-.759l-.3,0a.8.8,0,0,0-.815.857l.251,4.146a.823.823,0,0,0,.8.759l.3,0a.8.8,0,0,0,.815-.857" transform="translate(-1101.987 -528.646)" fill="#ffae8d"/>
          <path id="Path_715492" data-name="Path 715492" d="M1203.313,575.66l.143-2.658a.679.679,0,0,0-.628-.71l-.569-.039a.675.675,0,0,0-.72.637l-.143,2.658a.679.679,0,0,0,.628.71l.569.039a.675.675,0,0,0,.72-.637" transform="translate(-1132.003 -539.2)" fill="#ffae8d"/>
          <path id="Path_715495" data-name="Path 715495" d="M701.773,1425.522H672.295a1.723,1.723,0,0,1,0-3.445h29.478a1.723,1.723,0,0,1,0,3.445" transform="translate(-631.841 -1339.94)" fill="#c58f6d"/>
        </g>
      </g>
    </g>
  </g>
</svg>
