<svg id="fabio" xmlns="http://www.w3.org/2000/svg" xmlns:xlink="http://www.w3.org/1999/xlink" width="90" height="90" viewBox="0 0 90 90">
  <defs>
    <clipPath id="clip-path">
      <rect id="Rectangle_41973" data-name="Rectangle 41973" width="45.806" height="71.714" fill="none"/>
    </clipPath>
  </defs>
  <circle id="Ellipse_4780" data-name="Ellipse 4780" cx="45" cy="45" r="45" transform="translate(0 0)" fill="#c4d1ff"/>
  <g id="Group_167996" data-name="Group 167996" transform="translate(22 9.001)">
    <g id="Group_167996-2" data-name="Group 167996" transform="translate(0 0)" clip-path="url(#clip-path)">
      <path id="Path_157712" data-name="Path 157712" d="M10.9,14.374c0,.427,2.217,20.607-1.077,22.561S3.987,15.006,3.987,15.006Z" transform="translate(30.191 0)" fill="#704c44"/>
      <path id="Path_157713" data-name="Path 157713" d="M12.508,40.8a5.254,5.254,0,0,1-5.865,4.53,5.254,5.254,0,0,1-3.912-6.294A5.254,5.254,0,0,1,8.6,34.5,5.254,5.254,0,0,1,12.508,40.8" transform="translate(30.567 0)" fill="#de937a"/>
      <rect id="Rectangle_41971" data-name="Rectangle 41971" width="2.735" height="0.889" transform="translate(41.273 38.679) rotate(-169.309)" fill="#fff"/>
      <path id="Path_157714" data-name="Path 157714" d="M17.029,51.558V67.77a1.685,1.685,0,0,0,.638,1.331c1.885,1.473,7.767,5.077,15.235-.031a1.7,1.7,0,0,0,.72-1.4V56.7Z" transform="translate(-4.845 0)" fill="#fab39b"/>
      <path id="Path_157715" data-name="Path 157715" d="M33.622,62.026c-3.708.243-12.389-.1-16.593-7.866v-2.6L33.622,56.7Z" transform="translate(-4.845 0)" fill="#de937a"/>
      <path id="Path_157716" data-name="Path 157716" d="M38.515,20.963s4.653,38.224-11.126,38.876c-11.226.465-15.98-2.053-18.443-11.511C7.21,41.665,5.989,30.716,7.618,23.765c.668-2.847-2.927-6.637-.838-8.683C11.556,10.4,19.594,7.968,26.068,8.8c6.851.878,11.489,5.272,12.447,12.165" transform="translate(0.531 0)" fill="#fab39b"/>
      <path id="Path_157717" data-name="Path 157717" d="M9.057,35.987,10.216,23.2s21.152,4.416,28.657-1.791C54.12,8.8,38.446-6.521,14.623,8.638c-5.5,3.5-10.224,4.876-12.092,5.989A4.944,4.944,0,0,0,.124,18.372C-.2,21.583-.057,37.5,2.568,43.169Z" transform="translate(0.895 0)" fill="#704c44"/>
      <path id="Path_157718" data-name="Path 157718" d="M34.626,40.716c.61,3.384,3.583,5.681,6.64,5.13s5.041-3.742,4.43-7.127-3.583-5.681-6.64-5.129-5.041,3.742-4.43,7.126" transform="translate(-34.516 0)" fill="#fab39b"/>
      <path id="Path_157719" data-name="Path 157719" d="M39.3,41.538c.426-.826,2.058-1.043,2.65-1.057l.391-.009-.1-.377A4.193,4.193,0,0,0,40.2,37.206a3.093,3.093,0,0,0-2.406-.047l.246.559a2.513,2.513,0,0,1,1.906.043,3.381,3.381,0,0,1,1.6,2.138c-.732.075-2.263.352-2.783,1.359Z" transform="translate(-34.331 0)" fill="#38261f"/>
      <path id="Path_157720" data-name="Path 157720" d="M28.912,29.111c-.556-.852-2.744-.317-3.957.2-1.529.65-2.86,1.845-2.682,2.2.121.244.832-.115,2.458-.224,2.208-.149,2.961.373,3.677-.231a1.7,1.7,0,0,0,.5-1.947" transform="translate(-5.508 0)" fill="#704c44"/>
      <path id="Path_157721" data-name="Path 157721" d="M6.521,28.774c.628-.788,2.736-.057,3.885.566,1.446.783,2.648,2.086,2.438,2.422-.143.229-.809-.191-2.4-.45-2.164-.353-2.955.092-3.6-.571a1.679,1.679,0,0,1-.317-1.967" transform="translate(26.617 0)" fill="#704c44"/>
      <path id="Path_157722" data-name="Path 157722" d="M21.218,42.283H28.5a1.926,1.926,0,0,0,1.924-1.924V35.932A1.927,1.927,0,0,0,28.5,34.008H21.218a1.927,1.927,0,0,0-1.924,1.924v4.427a1.926,1.926,0,0,0,1.924,1.924M28.5,34.9a1.036,1.036,0,0,1,1.035,1.035v4.427A1.036,1.036,0,0,1,28.5,41.394H21.218a1.036,1.036,0,0,1-1.035-1.035V35.932A1.036,1.036,0,0,1,21.218,34.9Z" transform="translate(-3.911 0)" fill="#fff"/>
      <path id="Path_157723" data-name="Path 157723" d="M5.808,42.283h5.5a1.926,1.926,0,0,0,1.924-1.924V35.932a1.927,1.927,0,0,0-1.924-1.924h-5.5a1.927,1.927,0,0,0-1.924,1.924v4.427a1.926,1.926,0,0,0,1.924,1.924m5.5-7.386a1.036,1.036,0,0,1,1.035,1.035v4.427a1.036,1.036,0,0,1-1.035,1.035h-5.5a1.036,1.036,0,0,1-1.035-1.035V35.932A1.036,1.036,0,0,1,5.808,34.9Z" transform="translate(28.687 0)" fill="#fff"/>
      <path id="Path_157724" data-name="Path 157724" d="M23.327,50.029a7.75,7.75,0,0,0,2.74-.6l-.328-.692c-.184.086-4.555,2.061-9.984-2.125l-.469.606a12,12,0,0,0,8.041,2.81" transform="translate(4.453 0)" fill="#38261f"/>
      <path id="Path_157725" data-name="Path 157725" d="M12.858,44.476A3.6,3.6,0,0,0,15.5,42.623c.483-1.172.052-2.678-1.28-4.478L13.6,38.6c1.143,1.544,1.555,2.832,1.189,3.726a2.876,2.876,0,0,1-2.047,1.39Z" transform="translate(17.378 0)" fill="#38261f"/>
      <path id="Path_157726" data-name="Path 157726" d="M23.236,38.406c.185.935.776,1.605,1.321,1.5s.837-.953.652-1.888-.776-1.6-1.321-1.5-.837.953-.652,1.888" transform="translate(-2.639 0)" fill="#38261f"/>
      <path id="Path_157727" data-name="Path 157727" d="M8.695,38.107c.168.852.707,1.463,1.2,1.365s.762-.868.594-1.72-.707-1.463-1.2-1.365-.762.868-.594,1.72" transform="translate(26.618 0)" fill="#38261f"/>
      <path id="Path_157728" data-name="Path 157728" d="M12.839,38.1c3.836-2.755,6.406-.165,6.514-.054L20,37.429c-.032-.033-3.2-3.271-7.676-.055Z" transform="translate(13.488 0)" fill="#fff"/>
      <rect id="Rectangle_41972" data-name="Rectangle 41972" width="6.439" height="0.888" transform="matrix(-0.944, -0.329, 0.329, -0.944, 15.682, 38.154)" fill="#fff"/>
      <path id="Path_157729" data-name="Path 157729" d="M6.935,12.925c2.719-3.625,8.7-9.957,18.21-11.634a27.26,27.26,0,0,1,10.077.141L35.4.56a28.115,28.115,0,0,0-10.4-.144C15.181,2.146,9.022,8.662,6.224,12.391Z" transform="translate(4.186 0)" fill="#704c44"/>
      <path id="Path_157730" data-name="Path 157730" d="M28.771,51.665s6.14,6.022,10.149-3.6c0,0,1.113,9.632-4.009,14.951-3.4,3.535-19.945,4.791-24.43-1.981S7.935,41.839,7.935,41.839l4.209.985a3.348,3.348,0,0,1,1.92,2.334c.823,3.618,3.633,11.623,11.8,6.294Z" transform="translate(-0.734 0)" fill="#704c44"/>
      <path id="Path_157731" data-name="Path 157731" d="M7.035,63.626c2.087-1.43,4.158-3.13,5.189-5.872a11.16,11.16,0,0,0-.367-8.549l-.789.409a10.365,10.365,0,0,1,.323,7.828,11.833,11.833,0,0,1-4.857,5.45Z" transform="translate(26.373 0)" fill="#704c44"/>
    </g>
  </g>
</svg>
