<svg xmlns="http://www.w3.org/2000/svg" xmlns:xlink="http://www.w3.org/1999/xlink" width="90" height="90" viewBox="0 0 90 90">
  <defs>
    <clipPath id="clip-path">
      <circle id="Ellipse_5068" data-name="Ellipse 5068" cx="45" cy="45" r="45" transform="translate(345.813 3754.952)" fill="#fed947" opacity="0.32"/>
    </clipPath>
    <clipPath id="clip-path-2">
      <rect id="Rectangle_342127" data-name="Rectangle 342127" width="125.999" height="127.727" fill="none"/>
    </clipPath>
    <clipPath id="clip-path-4">
      <rect id="Rectangle_342114" data-name="Rectangle 342114" width="3.797" height="4.508" fill="none"/>
    </clipPath>
    <clipPath id="clip-path-5">
      <path id="Path_715620" data-name="Path 715620" d="M387.588,4.749a15.29,15.29,0,0,0-5.99,5.543,14.537,14.537,0,0,0-2.187,7.475c-.048,5.051,2.6,9.9,3.554,11.78.5.706,6.763,13.75,15.784,14.383a9.789,9.789,0,0,0,3.992-.557c1.829-.649,3.133-2.306,4.663-5.708,2.1-4.616,4.182-10.6,1.776-21.51-.232-1.05-.422-1.933-.619-2.71a10.645,10.645,0,0,0-4.943-7.14,17.015,17.015,0,0,0-8.038-2.955c-.548-.054-1.092-.08-1.626-.08a13.433,13.433,0,0,0-6.367,1.479" transform="translate(-379.411 -3.27)" fill="none"/>
    </clipPath>
    <clipPath id="clip-path-6">
      <rect id="Rectangle_342117" data-name="Rectangle 342117" width="32.223" height="40.751" fill="#ffae8d"/>
    </clipPath>
    <clipPath id="clip-path-9">
      <rect id="Rectangle_342123" data-name="Rectangle 342123" width="16.32" height="7.315" fill="none"/>
    </clipPath>
    <clipPath id="clip-path-10">
      <rect id="Rectangle_342124" data-name="Rectangle 342124" width="4.656" height="5.346" fill="none"/>
    </clipPath>
    <clipPath id="clip-path-11">
      <rect id="Rectangle_342125" data-name="Rectangle 342125" width="4.397" height="9.335" fill="none"/>
    </clipPath>
  </defs>
  <g id="film" transform="translate(-345.812 -3837.411)">
    <circle id="Ellipse_4780" data-name="Ellipse 4780" cx="45" cy="45" r="45" transform="translate(345.812 3837.411)" fill="#c4d1ff"/>
    <g id="Mask_Group_989154" data-name="Mask Group 989154" transform="translate(0 82.46)" clip-path="url(#clip-path)">
      <g id="Group_991109" data-name="Group 991109" transform="translate(335.853 3771.966)">
        <g id="Group_991108" data-name="Group 991108" clip-path="url(#clip-path-2)">
          <g id="Group_991079" data-name="Group 991079" transform="translate(0 0)">
            <g id="Group_991078" data-name="Group 991078" clip-path="url(#clip-path-2)">
              <path id="Path_715601" data-name="Path 715601" d="M632.034,184.827c-.031-3.531.871-6.392,2.013-6.391l3.259.6.121,11.444-3.225.738-.01-.01c-.011,0-.022.01-.033.01-1.143,0-2.093-2.865-2.124-6.4" transform="translate(-565.679 -159.703)" fill="#a6bfd5"/>
              <g id="Group_991077" data-name="Group 991077" transform="translate(66.397 19.726)" opacity="0.59">
                <g id="Group_991076" data-name="Group 991076">
                  <g id="Group_991075" data-name="Group 991075" clip-path="url(#clip-path-4)">
                    <path id="Path_715602" data-name="Path 715602" d="M633.348,187.892l2.834,1.1.053,2.848-.735.563-3.061-.414a10.874,10.874,0,0,1,.91-4.094" transform="translate(-632.438 -187.892)" fill="#fff"/>
                  </g>
                </g>
              </g>
              <path id="Path_715603" data-name="Path 715603" d="M663.7,195.4c1.142,0,2.046-2.576,2.018-5.758s-.976-5.761-2.118-5.763-2.046,2.576-2.019,5.758.976,5.762,2.118,5.763" transform="translate(-592.125 -164.572)" fill="#83a1ba"/>
              <path id="Path_715604" data-name="Path 715604" d="M620.607,187.6c-2.039,0-3.723-3.061-3.761-6.836s1.584-6.834,3.623-6.834,3.723,3.061,3.761,6.836-1.584,6.834-3.623,6.834" transform="translate(-552.085 -155.675)" fill="#3c251d"/>
              <path id="Path_715605" data-name="Path 715605" d="M19.055,707.986S6.164,737.423,9.007,743s13.526,2.772,13.526,2.772l12.706-34.1Z" transform="translate(-7.695 -633.658)" fill="#e8a080"/>
              <path id="Path_715606" data-name="Path 715606" d="M65.521,464.615s-15.931,3.19-22.213,6.938-18.333,33.2-18.333,33.2,11.538,5.385,19.615,6.346l3.269-5.961s1.44,26.1,1.281,27.872-.73,8.571-.73,8.571l53.072,1.084s-3.827-6.947-4.14-10.1S99.541,513,99.541,513s3.024-3.891,3.341-7.431l11.271-1.369s-1.125-24.381-8.41-29.344-21.25-8.942-21.25-8.942Z" transform="translate(-22.353 -415.837)" fill="#fff"/>
              <path id="Path_715607" data-name="Path 715607" d="M340.908,2.368C338.2,2.335,330.562,6.711,329.894,17s-2.484,25.973-1.2,31.542l6.771.083.451-3.651.639,3.123,21.267-.282-.106-2.439,1.191,2.317,6.094.074s-5.3-11.222-1.19-22.015c4.895-12.848.775-22.293-9.911-23.371s-12.993-.007-12.993-.007" transform="translate(-293.786 -1.696)" fill="#85554a"/>
              <path id="Path_715608" data-name="Path 715608" d="M429.415,307.373l-1.4-14.205-13.266-2.547-.791,12.748a6.619,6.619,0,0,1-3.77,5.571s5.766,6.235,12.915,6.534a9.975,9.975,0,0,0,9.019-4.421l-1.231-.977a3.947,3.947,0,0,1-1.473-2.7" transform="translate(-367.122 -260.11)" fill="#ffae8d"/>
              <path id="Path_715609" data-name="Path 715609" d="M275.618,769.827l7.957-51.463,36.643.289,1.71,36.659,4.765,15.362Z" transform="translate(-246.682 -642.946)" fill="#e06d6a"/>
              <path id="Path_715610" data-name="Path 715610" d="M638.1,752.569c.373-10.457.755-21.227.252-31.88l.886.007c.5,10.672.122,21.444-.25,31.9l-.71,19.942-.888-.015Z" transform="translate(-570.477 -645.027)" fill="#fff"/>
              <path id="Path_715611" data-name="Path 715611" d="M542.223,771.782c-.346-9.178.38-18.435,1.087-27.426.628-7.975,1.24-16.19,1.133-24.315l.884.007c.106,8.159-.5,16.39-1.131,24.378-.707,8.981-1.433,18.227-1.084,27.371Z" transform="translate(-485.218 -644.447)" fill="#fff"/>
              <path id="Path_715612" data-name="Path 715612" d="M368.048,770.4c-.524-8.362.747-16.792,2-24.987a149.746,149.746,0,0,0,2.14-19.851c.008-.453.011-.907.016-1.363a40.627,40.627,0,0,1,.313-5.364l.9.007a38.766,38.766,0,0,0-.321,5.365c0,.458-.008.915-.016,1.371a150.327,150.327,0,0,1-2.15,19.97c-1.25,8.168-2.526,16.573-2,24.867Z" transform="translate(-329.3 -643.372)" fill="#fff"/>
              <path id="Path_715613" data-name="Path 715613" d="M440.986,758.316c.089-.442.18-.883.272-1.324a45.34,45.34,0,0,0,.781-4.495c.15-1.427.162-2.9.174-4.32.009-1.062.019-2.161.085-3.244a62.394,62.394,0,0,1,1.456-9.08l3.434-16.22.907.007-3.471,16.4a61.719,61.719,0,0,0-1.439,8.95c-.064,1.061-.073,2.147-.082,3.2-.012,1.443-.025,2.936-.179,4.4a46.219,46.219,0,0,1-.8,4.583q-.138.659-.271,1.317a77.335,77.335,0,0,0-1.454,12.763l-.883-.015a78.18,78.18,0,0,1,1.465-12.922" transform="translate(-393.378 -644.083)" fill="#fff"/>
              <path id="Path_715614" data-name="Path 715614" d="M.892,1011.829c-1.184,9.318-7.731,22.815,44.512,16.341l.054-6.885s-27.55-8.064-32.209-8.767a106.194,106.194,0,0,0-12.358-.689" transform="translate(0 -905.602)" fill="#e8a080"/>
              <path id="Path_715615" data-name="Path 715615" d="M70.923,1017.968a.179.179,0,0,1-.05-.006,23.682,23.682,0,0,0-9.825-.077.2.2,0,0,1-.239-.152.2.2,0,0,1,.152-.239,24.132,24.132,0,0,1,10.012.08.2.2,0,0,1-.05.394" transform="translate(-54.421 -910.233)" fill="#c25353"/>
              <path id="Path_715616" data-name="Path 715616" d="M388.7,1060.1c3.959.891,8.945.068,11.253-1.292s8.886-6.43,8.886-6.43l-6.706-4a3.222,3.222,0,0,0-3.1-.111l-12.2,6.139Z" transform="translate(-346.22 -937.908)" fill="#e8a080"/>
              <path id="Path_715617" data-name="Path 715617" d="M485.633,1047.029s5.151,3.635,7.212,3.333-5.01-4.975-5.01-4.975,3.478-.276,2.785-1.755-3.022-2.033-3.8-2.386-4.843-3.09-6.031-2.454-3.045,3.522-3.045,3.522Z" transform="translate(-427.591 -929.648)" fill="#e8a080"/>
              <path id="Path_715618" data-name="Path 715618" d="M465.167,1026.69s4.8-4.369,5.75-4.657a63.929,63.929,0,0,1,6.822-.728,15.306,15.306,0,0,1,3.708.385s.015,1.107-2.842,1.464a27.463,27.463,0,0,0-4.939,1.067s5.4-.754,6.314-.225,5.447,2.568,5.447,2.568.382,1.439-1.987,1.2-3.7-1.4-4.579-1.224l-.875.171a19.7,19.7,0,0,1,3.877,1.765c.735.664,4.513,2.953,3.774,3.3s-1.247.849-3.125-.5a12.975,12.975,0,0,0-4.79-1.788l-2.041.4Z" transform="translate(-416.331 -914.069)" fill="#e8a080"/>
              <path id="Path_715619" data-name="Path 715619" d="M483.012,276.024l.311,4.313s-11.629-.015-12.548-12.988c-.87-12.289,12.236,8.676,12.236,8.676" transform="translate(-421.314 -235.824)" fill="#e45f29"/>
            </g>
          </g>
          <g id="Group_991084" data-name="Group 991084" transform="translate(39.833 0.343)">
            <g id="Group_991083" data-name="Group 991083" clip-path="url(#clip-path-5)">
              <g id="Group_991082" data-name="Group 991082" transform="translate(-0.047 0)">
                <g id="Group_991081" data-name="Group 991081">
                  <g id="Group_991080" data-name="Group 991080" clip-path="url(#clip-path-6)">
                    <rect id="Rectangle_342116" data-name="Rectangle 342116" width="32.251" height="40.768" transform="translate(-0.025 -0.009)" fill="#ffae8d"/>
                  </g>
                </g>
              </g>
            </g>
          </g>
          <g id="Group_991086" data-name="Group 991086" transform="translate(0 0)">
            <g id="Group_991085" data-name="Group 991085" clip-path="url(#clip-path-2)">
              <path id="Path_715621" data-name="Path 715621" d="M613.5,180.261c-.176-1.41.14-2.61.7-2.681s1.164,1.015,1.339,2.424-.14,2.61-.7,2.681-1.164-1.015-1.339-2.424" transform="translate(-549.048 -158.934)" fill="#3c251d"/>
              <path id="Path_715622" data-name="Path 715622" d="M501.392,197.68c-.175-1.41.14-2.61.7-2.681s1.164,1.015,1.339,2.424-.14,2.61-.7,2.681-1.164-1.015-1.339-2.424" transform="translate(-448.71 -174.524)" fill="#3c251d"/>
              <path id="Path_715623" data-name="Path 715623" d="M569.285,213.258a.254.254,0,0,1-.127-.048.792.792,0,0,1-.163-.759.146.146,0,0,1,.112-.1,2.9,2.9,0,0,0,.945-.3.887.887,0,0,0,.469-.715,1.421,1.421,0,0,0-.289-.7l-.064-.1a9.835,9.835,0,0,1-1.01-4.8.257.257,0,0,1,.068-.157c.156,0,.224.065.227.146a9.475,9.475,0,0,0,.966,4.654l.063.1a1.685,1.685,0,0,1,.335.855,1.168,1.168,0,0,1-.613.971,2.906,2.906,0,0,1-.946.317.5.5,0,0,0,.12.391.147.147,0,0,1-.011.208.145.145,0,0,1-.082.037" transform="translate(-509.227 -183.995)" fill="#c25353"/>
              <path id="Path_715624" data-name="Path 715624" d="M537.572,295.827s1.788,3.926,4.579,3.477c2.7-.434,3.309-4.144,3.309-4.144s-1.367-1.247-2.128-1.3a2.888,2.888,0,0,0-1.727.748,2.623,2.623,0,0,0-1.5-.571c-.832,0-1.984,1.428-2.53,1.791" transform="translate(-481.135 -263.006)" fill="#cd4747"/>
              <path id="Path_715625" data-name="Path 715625" d="M545.4,306.207l-7.831.674s5.238,5.04,7.831-.674" transform="translate(-481.135 -274.06)" fill="#fff"/>
              <path id="Path_715626" data-name="Path 715626" d="M472.033,163.425c1.561-1.66,5.706-3.165,7.239-.658.095.155.028.434-.2.428-1.014-.029-1.916-.478-2.945-.464a9.586,9.586,0,0,0-3.8,1.116.27.27,0,0,1-.3-.422" transform="translate(-422.42 -144.487)" fill="#3c251d"/>
              <path id="Path_715627" data-name="Path 715627" d="M600.89,152.693c-1.837-1.348-6.188-2.072-7.237.672-.065.169.052.432.271.385.991-.213,1.8-.819,2.811-.993a9.587,9.587,0,0,1,3.937.406.27.27,0,0,0,.219-.47" transform="translate(-531.312 -135.59)" fill="#3c251d"/>
              <path id="Path_715628" data-name="Path 715628" d="M380.91,25.224s11.5-10.034,15.05-18.387c0,0,9.848,7.139,12.775,13.022,0,0,1.961-16.838-12.979-19.492-13.52-2.4-17.636,7.731-18.11,9.674s-.914,13.483,1.61,15.463,1.653-.28,1.653-.28" transform="translate(-337.673 -0.001)" fill="#85554a"/>
              <path id="Path_715629" data-name="Path 715629" d="M479.468,45.211s.473,9.729-8.915,18.824c0,0,5.919-7.783,6.352-15.565s2.563-3.259,2.563-3.259" transform="translate(-421.152 -39.294)" fill="#85554a"/>
            </g>
          </g>
          <g id="Group_991107" data-name="Group 991107" transform="translate(0 0)">
            <g id="Group_991106" data-name="Group 991106" clip-path="url(#clip-path-2)">
              <path id="Path_715632" data-name="Path 715632" d="M385.827,231.29s-1.567-4.569-5.3-1.15c-1.481,1.358.374,6.5,5.485,5.31,0,0,1.528-1.1-.188-4.16" transform="translate(-340.138 -204.842)" fill="#e8a080"/>
              <path id="Path_715633" data-name="Path 715633" d="M389.489,238.946a3.489,3.489,0,0,1-2.977.054.147.147,0,0,1,.161-.246,3.269,3.269,0,0,0,2.843-.151c-.028-.025-.063-.055-.093-.081a1.319,1.319,0,0,1-.605-1.333.8.8,0,0,1,.852-.663c-.269-.554-1-1.843-1.909-1.77a2.718,2.718,0,0,0-1.935.828,1.943,1.943,0,0,0-.444,1.288.149.149,0,0,1-.133.167.147.147,0,0,1-.159-.133,2.207,2.207,0,0,1,.508-1.508,2.982,2.982,0,0,1,2.14-.935c1.369-.111,2.28,2.105,2.318,2.2a.147.147,0,0,1-.03.157.149.149,0,0,1-.155.038.7.7,0,0,0-.5.022.574.574,0,0,0-.267.386c-.128.484.258.815.513,1.033a.736.736,0,0,1,.229.252c.022.059.023.15-.1.247a1.322,1.322,0,0,1-.256.149" transform="translate(-344.657 -209.844)" fill="#cd5959"/>
              <g id="Group_991099" data-name="Group 991099" transform="translate(37.319 8.233)" opacity="0.3">
                <g id="Group_991098" data-name="Group 991098">
                  <g id="Group_991097" data-name="Group 991097" clip-path="url(#clip-path-9)">
                    <path id="Path_715634" data-name="Path 715634" d="M364.379,78.965c-1.4-.394-2.9.625-4.309.262-.973-.251-1.944-1.139-2.836-.675a2.195,2.195,0,0,0-.884,1.365l-.642,1.949c-.247.751-.44,1.713.168,2.217a1.451,1.451,0,0,0,1.391.143,10.747,10.747,0,0,0,1.3-.673,4.81,4.81,0,0,1,4.694.231c.613.394,1.129.926,1.749,1.309a4.336,4.336,0,0,0,3.449.477,4.146,4.146,0,0,0,2.609-2.291,8.009,8.009,0,0,0,.477-1.951l.251-1.6c-1.427.809-3.123,1.64-4.632,1-1.016-.432-1.718-1.466-2.781-1.765" transform="translate(-355.472 -78.42)" fill="#fff"/>
                  </g>
                </g>
              </g>
              <path id="Path_715635" data-name="Path 715635" d="M241.246,785.194a.207.207,0,0,1-.086-.019.2.2,0,0,1-.1-.267c1.905-4,4.026-7.485,4.048-7.52a.2.2,0,0,1,.341.209c-.02.034-2.132,3.5-4.026,7.482a.2.2,0,0,1-.181.114" transform="translate(-215.739 -695.689)" fill="#3c251d"/>
              <path id="Path_715636" data-name="Path 715636" d="M263.835,790.827a.2.2,0,0,1-.1-.374l2.693-1.54a.2.2,0,0,1,.273.074.2.2,0,0,1-.073.273l-2.693,1.54a.2.2,0,0,1-.1.027" transform="translate(-235.958 -706.065)" fill="#3c251d"/>
              <path id="Path_715637" data-name="Path 715637" d="M285.486,508.872s-.681-9.189-1.579-13.8-6.154-9.615-6.154-9.615L282.5,484.3a20.742,20.742,0,0,1,4.872,8.718c1.538,5.513,1.154,15.128,1.154,15.128Z" transform="translate(-248.594 -433.455)" fill="#12263f"/>
              <path id="Path_715638" data-name="Path 715638" d="M661.708,521.192s1.154-8.974.769-13.718-1.282-9.743-1.282-9.743l5,1.923a64.474,64.474,0,0,1,.385,11.282,48.205,48.205,0,0,1-1.923,10.256Z" transform="translate(-591.779 -445.477)" fill="#12263f"/>
              <path id="Path_715639" data-name="Path 715639" d="M345.025,702.509a2.369,2.369,0,1,1,2.35,2.387,2.369,2.369,0,0,1-2.35-2.387" transform="translate(-308.803 -626.652)" fill="#3c251d"/>
              <path id="Path_715640" data-name="Path 715640" d="M660.211,704.991a2.369,2.369,0,1,1,2.35,2.388,2.369,2.369,0,0,1-2.35-2.388" transform="translate(-590.899 -628.874)" fill="#3c251d"/>
              <path id="Path_715641" data-name="Path 715641" d="M756.545,730.435h-.009a.2.2,0,0,1-.191-.209,37.6,37.6,0,0,0-.48-5.72c-.427-3.29-.866-6.691-.239-8.729a.2.2,0,0,1,.25-.131.2.2,0,0,1,.131.25c-.6,1.954-.166,5.311.255,8.559a37.866,37.866,0,0,1,.483,5.791.2.2,0,0,1-.2.191" transform="translate(-676.016 -640.505)" fill="#3c251d"/>
              <path id="Path_715642" data-name="Path 715642" d="M406.636,128.985l-.9-3.559.665-.166.9,3.559Z" transform="translate(-363.139 -112.11)" fill="#3c251d"/>
              <path id="Path_715643" data-name="Path 715643" d="M390.3,136.337l-.9-3.559.665-.166.9,3.559Z" transform="translate(-348.518 -118.69)" fill="#3c251d"/>
              <path id="Path_715644" data-name="Path 715644" d="M383.738,8.566s-3.187,4.671-1.772,13.061l-3,.774s-2.6-6.056.314-11.434Z" transform="translate(-338.223 -7.667)" fill="#83a1ba"/>
              <path id="Path_715645" data-name="Path 715645" d="M395.094,171.359c1.767-.29,2.682-3.9,2.042-8.056s-2.591-7.3-4.358-7.007-2.682,3.9-2.042,8.056,2.591,7.3,4.358,7.007" transform="translate(-349.532 -139.87)" fill="#3c251d"/>
              <path id="Path_715646" data-name="Path 715646" d="M378.491,169.258c-.6-3.891-2.1-6.878-3.359-6.672l-3.478,1.248,1.915,12.615,3.681.235.01-.013c.012,0,.025.007.038.005,1.257-.206,1.791-3.527,1.193-7.418" transform="translate(-332.637 -145.508)" fill="#83a1ba"/>
              <g id="Group_991102" data-name="Group 991102" transform="translate(40.919 17.981)" opacity="0.59">
                <g id="Group_991101" data-name="Group 991101">
                  <g id="Group_991100" data-name="Group 991100" clip-path="url(#clip-path-10)">
                    <path id="Path_715647" data-name="Path 715647" d="M392.682,171.269l-2.922,1.714.452,3.143.91.488,3.295-1a12.123,12.123,0,0,0-1.734-4.342" transform="translate(-389.76 -171.269)" fill="#fff"/>
                  </g>
                </g>
              </g>
              <path id="Path_715648" data-name="Path 715648" d="M362.34,186.555c-1.257.206-2.713-2.469-3.251-5.975s.043-6.515,1.3-6.721,2.713,2.469,3.252,5.975-.043,6.515-1.3,6.721" transform="translate(-321.21 -155.597)" fill="#b0c0cf"/>
              <g id="Group_991105" data-name="Group 991105" transform="translate(37.883 19.652)" opacity="0.59">
                <g id="Group_991104" data-name="Group 991104">
                  <g id="Group_991103" data-name="Group 991103" clip-path="url(#clip-path-11)">
                    <path id="Path_715649" data-name="Path 715649" d="M363.881,187.189l-1.463,4.7-1.572.307c.019.152.029.3.053.451a14.642,14.642,0,0,0,1.119,3.876l.629-4.406,2.6-1.3a11.763,11.763,0,0,0-1.362-3.631" transform="translate(-360.845 -187.189)" fill="#fff"/>
                  </g>
                </g>
              </g>
              <path id="Path_715650" data-name="Path 715650" d="M450.032,293.928c-6.154-.05-10.441-6.541-10.62-6.818l.672-.436c.041.064,4.234,6.407,9.955,6.454Z" transform="translate(-393.28 -256.578)" fill="#3c251d"/>
              <path id="Path_715651" data-name="Path 715651" d="M532.486,343.255H529.2a.038.038,0,0,0-.038.038v1.992a.038.038,0,0,0,.038.038h3.29a.038.038,0,0,0,.038-.038v-1.992a.038.038,0,0,0-.038-.038" transform="translate(-473.604 -307.218)" fill="#3c251d"/>
              <path id="Path_715652" data-name="Path 715652" d="M479.824,517.434a15.537,15.537,0,0,1-4.8-.789.2.2,0,0,1-.13-.252.2.2,0,0,1,.252-.13,13.591,13.591,0,0,0,14.275-3.273.2.2,0,0,1,.3.26,13.856,13.856,0,0,1-9.9,4.184" transform="translate(-425.029 -459.071)" fill="#3c251d"/>
              <path id="Path_715653" data-name="Path 715653" d="M140.507,642.744a.2.2,0,0,1-.055-.392c4.4-1.258,9.5-4.808,9.556-4.844a.2.2,0,0,1,.228.328c-.052.036-5.206,3.625-9.675,4.9a.222.222,0,0,1-.055.008" transform="translate(-125.577 -570.547)" fill="#3c251d"/>
              <path id="Path_715654" data-name="Path 715654" d="M179.572,678.3a.2.2,0,0,1-.116-.363l3.59-2.565a.2.2,0,0,1,.231.325l-3.59,2.565a.2.2,0,0,1-.116.037" transform="translate(-160.541 -604.434)" fill="#3c251d"/>
              <path id="Path_715655" data-name="Path 715655" d="M975.486,472.334l1.008-15.258s5.794-8.382,7.056-8.046,8.3,7.283,8.3,7.283-4.743,4.02-9.955,8.786c-.077.071-1.743,8.374-1.743,8.374Z" transform="translate(-873.074 -401.881)" fill="#e8a080"/>
              <path id="Path_715656" data-name="Path 715656" d="M977.194,420.235a36.142,36.142,0,0,1,.668-11.036c.5-2.194-.185-7.719,1.248-7.323s1.2,7.307,1.634,7.494,3.35-2.274,3.35-2.274l-1.9,5.841Z" transform="translate(-874.463 -359.667)" fill="#e8a080"/>
              <path id="Path_715657" data-name="Path 715657" d="M1031.924,367.582s7.262-12.363,8.387-11.935-4.51,10.671-4.51,10.671,8.088-9.873,9.093-9.279-6.842,11.527-6.842,11.527,9.558-7.933,10.288-7.156-8.1,9.488-8.1,9.488,8.671-4.9,9.307-4.194-7.19,6.03-7.19,6.03l-5.144,3.578Z" transform="translate(-923.587 -318.3)" fill="#e8a080"/>
              <path id="Path_715658" data-name="Path 715658" d="M900.544,538.3c-.76,6.992-.389,31.9-.389,31.9L884.6,568.529s9.59-31.274,10.052-36.388,5.9,6.162,5.9,6.162" transform="translate(-791.727 -475.084)" fill="#e8a080"/>
            </g>
          </g>
        </g>
      </g>
    </g>
  </g>
</svg>
