<svg xmlns="http://www.w3.org/2000/svg" xmlns:xlink="http://www.w3.org/1999/xlink" width="90" height="90" viewBox="0 0 90 90">
  <defs>
    <clipPath id="clip-path">
      <circle id="Ellipse_5070" data-name="Ellipse 5070" cx="45" cy="45" r="45" transform="translate(1140 3900.19)" fill="#fed947" opacity="0.33"/>
    </clipPath>
    <clipPath id="clip-path-2">
      <rect id="Rectangle_342132" data-name="Rectangle 342132" width="141.195" height="231.646" fill="none"/>
    </clipPath>
    <clipPath id="clip-path-3">
      <rect id="Rectangle_342131" data-name="Rectangle 342131" width="141.196" height="231.646" fill="none"/>
    </clipPath>
  </defs>
  <g id="pirate" transform="translate(-1140 -3982.65)">
    <g id="Group_159043" data-name="Group 159043" transform="translate(1140 3982.65)">
      <circle id="Ellipse_4780" data-name="Ellipse 4780" cx="45" cy="45" r="45" fill="#c4d1ff"/>
    </g>
    <g id="Mask_Group_989156" data-name="Mask Group 989156" transform="translate(0 82.46)" clip-path="url(#clip-path)">
      <g id="Group_991129" data-name="Group 991129" transform="translate(1088.805 3911.367)">
        <g id="Group_991128" data-name="Group 991128" clip-path="url(#clip-path-2)">
          <g id="Group_991127" data-name="Group 991127" transform="translate(0 0)">
            <g id="Group_991126" data-name="Group 991126" clip-path="url(#clip-path-3)">
              <path id="Path_715766" data-name="Path 715766" d="M368.411,1528.366c0-6.39,19.837-11.569,44.307-11.569s44.307,5.18,44.307,11.569-19.837,11.569-44.307,11.569-44.307-5.18-44.307-11.569" transform="translate(-317.767 -1308.289)" fill="#cdcdcd"/>
              <path id="Path_715767" data-name="Path 715767" d="M658.322,306.158s1.2,4.887.566,7.192a13.532,13.532,0,0,1-2.336,4.363s3.965,3.766,8.863,3.2a21.062,21.062,0,0,0,9.138-3.843s-2.49-4.949-2.88-7.965.684-7.844.684-7.844Z" transform="translate(-566.299 -259.849)" fill="#ffae8d"/>
              <path id="Path_715768" data-name="Path 715768" d="M683.479,301.259l-14.026,4.9s.361,1.58.579,3.357a11.064,11.064,0,0,0,3.538.6,13.627,13.627,0,0,0,9.2-3.837,39.957,39.957,0,0,1,.706-5.014" transform="translate(-577.426 -259.847)" fill="#e45f29"/>
              <path id="Path_715769" data-name="Path 715769" d="M581.4,62.114s-10.424-27.679,10.583-23.838c12.364,2.26,17.365,13.145,17.365,23.53s-6.456,18.8-14.419,18.8S581.4,72.5,581.4,62.114" transform="translate(-499.245 -32.699)" fill="#ffae8d"/>
              <path id="Path_715770" data-name="Path 715770" d="M566.471,123.232s-.214,2.318-1.872,2-2.565-1.382-2.2-2.031-1.035-1.156-.482-2.434a7.726,7.726,0,0,1,2.037-2.434l2.46-.538Z" transform="translate(-484.561 -101.602)" fill="#8c482a"/>
              <path id="Path_715771" data-name="Path 715771" d="M752.957,126.439s1.386,6.764,3.355,7.294a3.587,3.587,0,0,0,3.347-.913l-.791,9.576s-1.747.321-1.226,1.854,2.989,1.645,2.989,1.645a1.737,1.737,0,0,0,2.618.9c1.9-1.032.781-3.181.781-3.181a2.485,2.485,0,0,0,2.8-1.957c.465-2.271-5.218-3.818-5.218-3.818l-.041-3.854a2.777,2.777,0,0,0,1.6-2.968c-.538-2.46-3.545-1.445-3.545-1.445l-3.35-3.377Z" transform="translate(-649.451 -108.844)" fill="#8c482a"/>
              <path id="Path_715772" data-name="Path 715772" d="M775.25,178.888c1.026-2.524,3.411-3.939,5.328-3.16s2.64,3.457,1.614,5.981-3.411,3.939-5.328,3.16-2.64-3.457-1.614-5.981" transform="translate(-668.277 -151.387)" fill="#ffae8d"/>
              <path id="Path_715773" data-name="Path 715773" d="M786.779,183.631a3.283,3.283,0,0,0-2.163,1.249,4.682,4.682,0,0,0-.787,1.466c-.1.278-.184.558-.272.9-.024.095-.148.619-.181.742a.436.436,0,1,0,.841.226c.036-.134.159-.665.181-.751.082-.323.165-.583.253-.832a3.838,3.838,0,0,1,.633-1.195c.923-1.1,2.131-1.286,2.869-.29a.433.433,0,1,0,.7-.516,2.275,2.275,0,0,0-2.072-1" transform="translate(-675.676 -158.381)" fill="#e45f29"/>
              <path id="Path_715777" data-name="Path 715777" d="M600.008,145.1c-.162-.732.918-1.831,2.35-2.036s2.674.561,2.836,1.293-1.015.416-2.448.621-2.576.853-2.738.122" transform="translate(-517.514 -123.372)" fill="#622b12"/>
              <path id="Path_715778" data-name="Path 715778" d="M699.468,139.158c.071-.746-1.135-1.7-2.582-1.732s-2.585.885-2.656,1.631,1.059.288,2.505.316,2.661.531,2.733-.215" transform="translate(-598.794 -118.535)" fill="#622b12"/>
              <path id="Path_715779" data-name="Path 715779" d="M573.4,118.715a.271.271,0,0,0-.2.081.3.3,0,0,0,0,.416c.07.069.212.184.425.353a14.828,14.828,0,0,0,1.3.923,30.788,30.788,0,0,0,5.764,2.742,59.127,59.127,0,0,0,10.959,2.76c6.17,1,10.036.46,12.108-1.077a3.855,3.855,0,0,0,1.05-1.131,1.933,1.933,0,0,0,.235-.561.286.286,0,0,0-.217-.344.292.292,0,0,0-.344.226,1.461,1.461,0,0,1-.172.389,3.323,3.323,0,0,1-.9.959c-1.927,1.429-5.635,1.943-11.664.968a58.49,58.49,0,0,1-10.841-2.733,30.311,30.311,0,0,1-5.665-2.7,14.568,14.568,0,0,1-1.258-.878c-.115-.092-.211-.166-.29-.235a1.14,1.14,0,0,1-.081-.081.293.293,0,0,0-.208-.081" transform="translate(-494.335 -102.396)"/>
              <path id="Path_715780" data-name="Path 715780" d="M678.022,164.3s-1.785,9.319,6.94,8.974c4.858-.192,4.289-7.768,4.289-7.768s-3.522-.066-6.331-.314a18.721,18.721,0,0,1-4.9-.892" transform="translate(-584.688 -141.717)"/>
              <path id="Path_715781" data-name="Path 715781" d="M567.686,17.689s4.159-1.876,11.244-1.027a179.412,179.412,0,0,1,20.283,3.9,2.235,2.235,0,0,0,1.678-.106s1.565-5.62-1.217-10.369C597.02,5.559,592.5.572,583.974.036c-5.268-.331-11.456,1.8-14.573,6.771-2.841,4.531-1.715,10.882-1.715,10.882" transform="translate(-489.459 -0.003)" fill="#29150c"/>
              <path id="Path_715782" data-name="Path 715782" d="M640.123,37.477c-3.48-.424-6.516.474-6.824,3-.206,1.687.978,2.988,2.816,3.8-.124.877-.18,2.472,1.041,2.876a6.684,6.684,0,0,0,.7.185l.44-1,.074,1.088a8,8,0,0,0,1.679.111l.234-1.24.26,1.205a2.712,2.712,0,0,0,1.6-.6,3.653,3.653,0,0,0,.641-1.921c1.725-.408,2.924-1.39,3.117-2.975.308-2.527-2.294-4.114-5.775-4.538" transform="translate(-546.222 -32.238)" fill="#fff"/>
              <path id="Path_715783" data-name="Path 715783" d="M654.757,57.172a.589.589,0,1,1,.511.671.6.6,0,0,1-.511-.671" transform="translate(-564.746 -48.854)" fill="#29150c"/>
              <path id="Path_715784" data-name="Path 715784" d="M682.163,52.734a2.174,2.174,0,1,1,1.9,2.328,2.128,2.128,0,0,1-1.9-2.328" transform="translate(-588.376 -43.917)" fill="#29150c"/>
              <path id="Path_715785" data-name="Path 715785" d="M610.541,77.789l-1.786.638s-1.507-1.08-2.05-.2,1.076,1.157,1.076,1.157-1.243,1.25-.225,1.6,1.557-1.794,1.557-1.794l2.136-.686a3.716,3.716,0,0,1-.41-.355,3.643,3.643,0,0,1-.3-.354" transform="translate(-523.207 -67.096)" fill="#fff"/>
              <path id="Path_715786" data-name="Path 715786" d="M717.144,85.788l1.643.917s1.66-.824,2.056.127-1.247.97-1.247.97,1.027,1.433-.034,1.613-1.25-2.02-1.25-2.02l-1.9-1a4.3,4.3,0,0,0,.39-.277,3.225,3.225,0,0,0,.341-.332" transform="translate(-617.931 -73.995)" fill="#fff"/>
              <path id="Path_715787" data-name="Path 715787" d="M613.526,21.754,611.9,20.721s-1.7.74-2.047-.231,1.295-.906,1.295-.906-.954-1.483.114-1.609,1.146,2.081,1.146,2.081l1.873,1.1s-.228.148-.405.281a2.874,2.874,0,0,0-.348.322" transform="translate(-525.976 -15.5)" fill="#fff"/>
              <path id="Path_715788" data-name="Path 715788" d="M719.65,31.958l1.666-.86s1.6.929,2.06,0-1.183-1.048-1.183-1.048,1.117-1.364.07-1.612-1.376,1.936-1.376,1.936l-1.93.824s.206.189.36.351a4.8,4.8,0,0,1,.333.4" transform="translate(-620.125 -24.517)" fill="#fff"/>
              <path id="Path_715789" data-name="Path 715789" d="M154.2,423.419s24.468-16.77,28.757-19.63,25.983-18.9,30.559-16.99,11.582.333,11.582.333,4.214,2.726,8.255,2.84,7.454-3.566,7.454-3.566,9.866-1,12.621.589,20.412,27.767,20.765,29.969-20.426,22.888-20.426,22.888l-4.7-4.756s4.642-6.125,8.174-10.483,5.955-6.951,5.955-6.951c-3.263-4.327-12.254-12.774-12.254-12.774-3.07,5.729-6.342,37.786-6.342,37.786a23.4,23.4,0,0,1-13.2,3.462c-7.34-.476-15.252-4.288-15.252-4.288s1.577-29.054-3.691-39.07c0,0-20.115,6.653-23.327,8.836-7.348,4.994-33.3,17.333-33.3,17.333Z" transform="translate(-133.005 -333.02)" fill="#fff8f3"/>
              <path id="Path_715790" data-name="Path 715790" d="M275.748,455.013c-11.336,3.508-20.2,4.129-29.22,1.33-.007.375,0,.858-.009,1.2,9.008,2.718,17.907,2.117,29.075-1.276.043-.367.108-.87.154-1.258m6.226-3.032c-.412.534-.387.5-.724.941a30.5,30.5,0,0,0,5.257,4.778c.385-.389.368-.369.833-.842a30.982,30.982,0,0,1-2.823-2.262,31.313,31.313,0,0,1-2.543-2.615m-5.538-2.461c-11.619,3.6-20.645,4.171-29.89,1.14,0,.4.017.848.018,1.24,9.228,2.935,18.28,2.357,29.718-1.122.056-.442.095-.8.154-1.258m8.488-1.285c-.253.322-.484.613-.733.932a30.338,30.338,0,0,0,5.611,5.149c.268-.275.546-.555.823-.842a28.957,28.957,0,0,1-5.7-5.24m3-3.773c-.185.226-.279.315-.471.552-.088.109-.182.233-.271.344a29.285,29.285,0,0,0,6.9,4.534c.29-.306.544-.58.833-.887a30.076,30.076,0,0,1-3.819-2.118,30.752,30.752,0,0,1-3.167-2.425m-10.569-1.7c-12.136,3.839-21.42,4.406-31.012,1.122.02.423.056.848.072,1.267,9.549,3.158,18.851,2.575,30.759-1.122.061-.424.118-.844.181-1.267m12.958-1.149c-.238.278-.507.612-.769.923a30.525,30.525,0,0,0,8.8,2.769c.333-.367.6-.685.914-1.041a29.775,29.775,0,0,1-4.7-1,30.671,30.671,0,0,1-4.244-1.647m-100.067-1.774c-.288.2-.776.528-1.023.7a22.019,22.019,0,0,0,1.475,4.054,15.323,15.323,0,0,0,1.149,1.918c.333-.161.663-.324,1.041-.507a13.963,13.963,0,0,1-1.149-1.918,21.026,21.026,0,0,1-1.412-3.9c-.033-.126-.052-.224-.081-.344M304.28,437.1a27.228,27.228,0,0,1-6.678,1.366,30.372,30.372,0,0,1-4.57.018c-.159.172-.458.5-.977,1.086a30.743,30.743,0,0,0,5.647.045,29.728,29.728,0,0,0,6.235-1.149,2.4,2.4,0,0,0,.47-1.1c-.006-.039-.11-.209-.127-.262m-109.741-.19c-.418.286-.638.427-1.032.7.007.026.011.046.018.072a22.062,22.062,0,0,0,1.493,4.108,15.261,15.261,0,0,0,1.475,2.443c.521-.256.549-.264,1.095-.534a13.453,13.453,0,0,1-1.529-2.416,20.922,20.922,0,0,1-1.412-3.891c-.045-.173-.069-.316-.109-.48m83.959-1.177c-12.893,4.144-22.551,4.612-32.713.8.046.432.095.858.136,1.294,10.081,3.642,19.753,3.161,32.36-.814.074-.43.142-.858.217-1.276m-79.543-1.846c-.476.325-.554.385-1.023.706.059.257.1.49.172.769a22.384,22.384,0,0,0,1.873,4.878,17.313,17.313,0,0,0,1.068,1.728c.351-.176.688-.356,1.041-.534A16,16,0,0,1,201,439.7a21.229,21.229,0,0,1-1.774-4.624c-.112-.431-.2-.81-.271-1.186m4.407-3-1.032.706c.015.058.021.1.036.163a22.423,22.423,0,0,0,1.882,4.878,16.528,16.528,0,0,0,1.828,2.751c.359-.185.712-.358,1.068-.543a15.131,15.131,0,0,1-1.873-2.751,21.274,21.274,0,0,1-1.783-4.624c-.054-.209-.082-.381-.127-.579m97.271-.072a28.838,28.838,0,0,1-4.941,3,30.236,30.236,0,0,1-4.452,1.728c.3.333.557.636.824.95a31.791,31.791,0,0,0,4.126-1.638,30.046,30.046,0,0,0,5.077-3.086c-.173-.275-.45-.671-.633-.959m-21.863-1.774c-13.472,4.344-23.408,4.714-34.061.362.1.448.2.881.29,1.348,10.664,4.156,20.721,3.716,34.125-.606a.582.582,0,0,0,.371-.733.572.572,0,0,0-.724-.371M208.3,427.512c-.353.24-.648.445-1.032.706.015.058.021.1.036.163a22.418,22.418,0,0,0,1.882,4.877,15.923,15.923,0,0,0,2.335,3.3c.373-.2.681-.374,1.041-.57a14.694,14.694,0,0,1-2.353-3.276,21.282,21.282,0,0,1-1.783-4.624c-.054-.209-.082-.381-.127-.579m72.729-1.918a9.028,9.028,0,0,1-1.892,1.565.579.579,0,1,0,.543,1.022c.169-.09.37-.274.552-.4a15.472,15.472,0,0,1,.8-2.19m15.818-.516a29.221,29.221,0,0,1-3.819,3.665,28.275,28.275,0,0,1-5.077,3.267c.286.294.558.582.842.878a29.96,29.96,0,0,0,4.959-3.24,30.6,30.6,0,0,0,3.746-3.575c-.229-.344-.418-.646-.652-1m-83.416-1.068-.262.181c-.114.076-.619.43-.76.525.054.232.089.439.154.688a22.393,22.393,0,0,0,1.873,4.877,16.067,16.067,0,0,0,2.335,3.312c.367-.218.676-.412,1-.615a14.735,14.735,0,0,1-2.317-3.24,21.25,21.25,0,0,1-1.774-4.624c-.1-.4-.18-.751-.253-1.1m65.8-1.584c-13.8,4.452-23.892,4.765-34.849.063a.58.58,0,1,0-.452,1.068c11.249,4.827,21.605,4.5,35.654-.027a.58.58,0,1,0-.353-1.1m-60.666-1.982c-.455.316-.625.425-1.041.715.081.4.17.815.29,1.276a22.384,22.384,0,0,0,1.873,4.877,15.827,15.827,0,0,0,2.389,3.357c.351-.153.737-.317,1.131-.48a14.51,14.51,0,0,1-2.5-3.43,21.238,21.238,0,0,1-1.774-4.624c-.144-.552-.26-1.061-.344-1.52-.012-.066-.017-.114-.027-.172m74.376-1.068a28.878,28.878,0,0,1-3.556,4.66,27,27,0,0,1-5.068,4.326c.37.359.426.407.851.824a28.267,28.267,0,0,0,5.068-4.353,30.188,30.188,0,0,0,3.43-4.452c-.25-.361-.475-.648-.724-1M223.7,417.005c-.358.24-.709.469-1.059.706,0,.017.006.028.009.045.089.486.21,1.03.362,1.611a22.384,22.384,0,0,0,1.873,4.878,15.244,15.244,0,0,0,3.122,4.1c.422-.157.819-.3,1.249-.462a13.723,13.723,0,0,1-3.348-4.19,21.242,21.242,0,0,1-1.774-4.624c-.144-.552-.26-1.061-.344-1.52-.029-.159-.054-.3-.072-.425-.009-.062-.015-.094-.018-.118m56.332-.036c-13.805,4.452-23.892,4.765-34.849.063a.58.58,0,0,0-.452,1.068c11.249,4.827,21.614,4.5,35.663-.027a.581.581,0,0,0-.362-1.1m-51.21-3.348c-.35.22-.664.42-1.014.643a31.72,31.72,0,0,0,1.529,4.606,26.551,26.551,0,0,0,4.479,7.357c.589-.206.632-.215,1.185-.407a24.786,24.786,0,0,1-4.6-7.4,30.6,30.6,0,0,1-1.584-4.8m59.3-1.014A25.249,25.249,0,0,1,284.9,420.5a28.04,28.04,0,0,1-3.656,4.878c.013.012.7.681.833.805a28.924,28.924,0,0,0,3.819-5.086,27.354,27.354,0,0,0,3.1-7.266c-.272-.367-.61-.877-.869-1.222m-52.884-2.7c-.383.2-.745.378-1.14.6a31.2,31.2,0,0,0,1.068,5.366,25.351,25.351,0,0,0,4.063,8.488c.318-.107.964-.333,1.185-.407a23.5,23.5,0,0,1-4.136-8.407,28.724,28.724,0,0,1-1.041-5.637m10.28-.145a.568.568,0,0,0-.353.262.581.581,0,0,0,.2.8c9.762,5.852,22.8,5.485,36.767.118a.576.576,0,0,0-.407-1.077c-13.665,5.252-26.356,5.6-35.763-.036a.588.588,0,0,0-.443-.063" transform="translate(-163.216 -353.422)" fill="#234e7d"/>
              <path id="Path_715791" data-name="Path 715791" d="M556.235,789.735s-12.153,50.565-6.244,58.593,11.644,1.767,12.812-.77,6.026-38.6,6.026-38.6l3.845-.714s-.777,34.909,3.475,39.534,12.332,3.8,13.187.531c5.271-20.123-3.64-55.005-4.749-57.726a31.767,31.767,0,0,1-14.609,3.083c-6.912-.383-13.743-3.932-13.743-3.932" transform="translate(-472.988 -681.174)" fill="#4b6e93"/>
              <path id="Path_715792" data-name="Path 715792" d="M603.7,781.778a37.06,37.06,0,0,0,13.769,3.583,36.185,36.185,0,0,0,15.2-3.221l.189,2.774s-8.04,4.628-15.02,4.176a33.28,33.28,0,0,1-14.192-4.178Z" transform="translate(-520.669 -674.311)" fill="#a26326"/>
              <path id="Path_715793" data-name="Path 715793" d="M685.452,796.908a6.7,6.7,0,0,1,2.706.308c.38.417-.54,3.471-.805,3.7a6.868,6.868,0,0,1-3.919.109c-.321-.336-1.18-3.245-.724-3.737a6.428,6.428,0,0,1,2.742-.38m.118-1.475c-1.793.016-3.593.2-3.918.579-.651.753.583,5.214,1.041,5.728s4.882.479,5.583-.172c.379-.352,1.691-5.026,1.149-5.665-.279-.328-2.062-.487-3.855-.471" transform="translate(-587.787 -686.088)" fill="#ffb600"/>
              <path id="Path_715794" data-name="Path 715794" d="M764.9,381.125a40.355,40.355,0,0,1,6.562-.352,38.194,38.194,0,0,1,6.4.893,95.3,95.3,0,0,0-2.224,12.351c-.516,5.629-.5,7.154-.5,7.154s-.845,23.764-6.665,29.7c0,0-4.951,5.515-6.538-3.269s2.963-46.48,2.963-46.48" transform="translate(-656.905 -328.409)" fill="#8c482a"/>
              <path id="Path_715795" data-name="Path 715795" d="M533.671,387.971a16.36,16.36,0,0,1,.938,9.068,64.462,64.462,0,0,1-2.445,10.322l-5.9,29.339s14.331,5.739,16.969-.776c5.014-12.384,3.163-47.743,3.163-47.743a19.674,19.674,0,0,1-6.324.827,38.225,38.225,0,0,1-6.4-1.036" transform="translate(-453.918 -334.639)" fill="#8c482a"/>
              <path id="Path_715796" data-name="Path 715796" d="M756.009,689.743l-.6.776s-5.434-5.522-6.259-5.454-7.592-4.854-7.592-4.854-1.159,2.283-.116,3.463c1.959,2.217,6.511,2.767,6.511,2.767l-3.682,1.165-2.945,6.106c.929.87,2.207.494,3.125-.854a13.311,13.311,0,0,0,1.145-3.6l3.208-.61-6.134,8.317a2.321,2.321,0,0,0,3.345-.808c1.879-2.946,3.158-4.647,3.158-4.647l-3.817,8.7c3.766,2.489,4.692-6.631,4.692-6.631s2.139,2.317,3.9,2.666c1.983.393,4.428-4.279,4.428-4.279Z" transform="translate(-639.141 -586.706)" fill="#ffae8d"/>
              <path id="Path_715797" data-name="Path 715797" d="M798.2,716.865a.214.214,0,0,0-.262.154c-.362,1.47-.067,5.627.86,7.185a.217.217,0,1,0,.371-.226c-.861-1.448-1.142-5.482-.805-6.85a.219.219,0,0,0-.163-.262" transform="translate(-688.116 -618.315)" fill="#e45f29"/>
              <path id="Path_715798" data-name="Path 715798" d="M423.5,1297.717l3.045,32.233s-8.173-1.946-10.229-1.112-13.2,10.453-12.445,11.764,28.619-4.375,29.64-6.036,4.93-38.447,4.93-38.447Z" transform="translate(-348.323 -1117.947)" fill="#8c482a"/>
              <path id="Path_715799" data-name="Path 715799" d="M561.819,1296.139l-14.94,1.593.661,6.977a24.556,24.556,0,0,0,13.465-1.3c.248-2.272.814-7.266.814-7.266" transform="translate(-471.702 -1117.965)" fill="#622b12"/>
              <path id="Path_715800" data-name="Path 715800" d="M523.782,1192.549a17.635,17.635,0,0,0,8.3,2.1,11.43,11.43,0,0,0,7.027-2.4l2.045,16.8s-1.678,3.4-9.312,4.507a24.831,24.831,0,0,1-12.186-1.461Z" transform="translate(-448.219 -1028.361)" fill="#8c482a"/>
              <path id="Path_715801" data-name="Path 715801" d="M761.027,1297.717l-3.045,32.233s8.173-1.946,10.229-1.112,13.2,10.453,12.445,11.764-28.619-4.375-29.64-6.036-4.93-38.447-4.93-38.447Z" transform="translate(-643.525 -1117.947)" fill="#8c482a"/>
              <path id="Path_715802" data-name="Path 715802" d="M746.1,1296.139l14.94,1.593-.661,6.977a24.556,24.556,0,0,1-13.465-1.3c-.248-2.272-.815-7.266-.815-7.266" transform="translate(-643.54 -1117.965)" fill="#622b12"/>
              <path id="Path_715803" data-name="Path 715803" d="M742.994,1192.549a17.636,17.636,0,0,1-8.3,2.1,11.429,11.429,0,0,1-7.027-2.4l-2.045,16.8s1.678,3.4,9.313,4.507a24.831,24.831,0,0,0,12.186-1.461Z" transform="translate(-625.876 -1028.361)" fill="#8c482a"/>
              <path id="Path_715804" data-name="Path 715804" d="M13.437,716.56S-3.974,723.907.842,731.5c4.055,6.393,11.481,2.7,11.481,2.7s-8.707.162-8.028-5.366c.531-4.322,11.128-9.62,11.128-9.62Z" transform="translate(0 -618.058)" fill="#65717c"/>
              <path id="Path_715805" data-name="Path 715805" d="M100.824,635.007l4.293,6.943s-2.295,4.693-5.891,6.686c-3.294,1.825-7.874,2.514-9.881-.709-1.953-3.137.056-7.389,3.062-9.773a17.735,17.735,0,0,1,8.418-3.148" transform="translate(-76.395 -547.716)" fill="#be8234"/>
              <path id="Path_715806" data-name="Path 715806" d="M26.358,29.625c.015-1.686-.521-3.059-1.2-3.065s-1.234,1.355-1.248,3.042.521,3.059,1.2,3.065,1.234-1.355,1.248-3.042" transform="translate(60.94 -2.536)" fill="#3c251d"/>
              <path id="Path_715807" data-name="Path 715807" d="M54.653,130.619a3,3,0,0,1,2.414-.057,10.548,10.548,0,0,0,4.8-.06c.816-.2,1.818-.453,2.386.167a1.831,1.831,0,0,1-.15,2.158,5.614,5.614,0,0,1-6.661,2.054,4.375,4.375,0,0,1-2.789-4.262" transform="translate(35.214 -91.554)" fill="#fff"/>
              <path id="Path_715808" data-name="Path 715808" d="M80.856,51.645a.219.219,0,0,0,.114-.076,1.271,1.271,0,0,0,.04-1.206.535.535,0,0,0-.5-.318,1.235,1.235,0,0,1-.147-.029l-.157-.044a2.216,2.216,0,0,1-.79-.333,1.108,1.108,0,0,1-.429-.943,1.983,1.983,0,0,1,.181-.572l.019-.043a13.921,13.921,0,0,0,1.023-6.348c-.007-.1-.077-.173-.147-.16a.179.179,0,0,0-.122.2,13.443,13.443,0,0,1-.988,6.131l-.019.044a2.327,2.327,0,0,0-.215.708,1.51,1.51,0,0,0,.561,1.3,2.425,2.425,0,0,0,.867.372l.154.044a1.41,1.41,0,0,0,.174.035c.126.019.256.039.291.129a.824.824,0,0,1-.018.824.224.224,0,0,0,.029.253Z" transform="translate(11.345 -15.011)" fill="#bb5151"/>
            </g>
          </g>
        </g>
      </g>
    </g>
  </g>
</svg>
