<svg xmlns="http://www.w3.org/2000/svg" width="61.852" height="65.122" viewBox="0 0 61.852 65.122">
  <g id="_11" data-name="11" transform="translate(-12.854)">
    <g id="Group_990273" data-name="Group 990273" transform="translate(13.808 0.954)">
      <g id="Group_990268" data-name="Group 990268" transform="translate(6.167 23.289)">
        <g id="Group_990266" data-name="Group 990266" transform="translate(37.714)">
          <path id="Path_714973" data-name="Path 714973" d="M371.423,196.675a1.908,1.908,0,0,1-2.7,0l-2.811-2.811a1.908,1.908,0,0,1,2.7-2.7l2.811,2.811A1.908,1.908,0,0,1,371.423,196.675Z" transform="translate(-365.355 -190.608)" fill="#685e68"/>
        </g>
        <g id="Group_990267" data-name="Group 990267">
          <path id="Path_714974" data-name="Path 714974" d="M69.4,196.675a1.908,1.908,0,0,0,2.7,0l2.811-2.811a1.908,1.908,0,0,0-2.7-2.7L69.4,193.977A1.908,1.908,0,0,0,69.4,196.675Z" transform="translate(-68.841 -190.608)" fill="#685e68"/>
        </g>
      </g>
      <g id="Group_990269" data-name="Group 990269" transform="translate(43.366)">
        <path id="Path_714975" data-name="Path 714975" d="M370.191,7.5c-4.25,0-7.7,2.648-7.7,5.914a4.809,4.809,0,0,0,.806,2.634.514.514,0,0,1-.073.641l-1.77,1.77a.509.509,0,0,0,.36.868h8.373c4.25,0,7.7-2.648,7.7-5.914S374.441,7.5,370.191,7.5Z" transform="translate(-361.308 -7.5)" fill="#feca57"/>
        <path id="Path_714976" data-name="Path 714976" d="M404.963,7.5a9.914,9.914,0,0,0-1.908.184c3.327.652,5.787,2.971,5.787,5.731,0,3.266-3.445,5.914-7.7,5.914h3.816c4.25,0,7.7-2.648,7.7-5.914S409.213,7.5,404.963,7.5Z" transform="translate(-396.08 -7.5)" fill="#f4b537"/>
      </g>
      <g id="Group_990271" data-name="Group 990271" transform="translate(8.944)">
        <path id="Path_714977" data-name="Path 714977" d="M121.674,204.615l-5.526-1.555-.445,0a2.62,2.62,0,0,1-1.962-2.544l-.156-1.481-7.281-.1v1.42a2.713,2.713,0,0,1-1.977,2.611l-5.862,1.652a9.644,9.644,0,0,0-7.787,9.443v6.521h13.182l6.21-1.908,6.21,1.908h13.182v-6.52a9.644,9.644,0,0,0-7.789-9.443Z" transform="translate(-90.677 -174.583)" fill="#7a6d79"/>
        <g id="Group_990270" data-name="Group 990270" transform="translate(19.345 24.348)">
          <path id="Path_714978" data-name="Path 714978" d="M254.421,204.615l-5.526-1.555-.73.007a2.59,2.59,0,0,1-1.835-2.611l-.1-1.168-3.462-.356v3.332a2.713,2.713,0,0,0,1.978,2.611l5.859,1.648a9.644,9.644,0,0,1,7.789,9.443v4.612h3.816v-6.52A9.644,9.644,0,0,0,254.421,204.615Z" transform="translate(-242.769 -198.931)" fill="#685e68"/>
        </g>
        <path id="Path_714979" data-name="Path 714979" d="M207.341,231.371l-12.158,0-.023.007,1.524,17.514h9.158Z" transform="translate(-181.871 -202.894)" fill="#fff"/>
        <path id="Path_714980" data-name="Path 714980" d="M249.726,231.381l-6,0a2.711,2.711,0,0,0,1.857,1.816l3.619,1.018.554-2.826Z" transform="translate(-224.255 -202.904)" fill="#f3f0f3"/>
        <path id="Path_714981" data-name="Path 714981" d="M195.342,203.056a7.754,7.754,0,0,0,12.158,0l-.587.007a2.712,2.712,0,0,1-1.978-2.611v-1.424l-7.281-.1v1.42a2.712,2.712,0,0,1-1.977,2.611Z" transform="translate(-182.03 -174.582)" fill="#c38778"/>
        <path id="Path_714982" data-name="Path 714982" d="M247.565,202.443a2.711,2.711,0,0,1-.982-2.088v-1.424h-3.816v3.332a2.713,2.713,0,0,0,1.978,2.611l1.371.386a7.792,7.792,0,0,0,2.777-2.2l-.333-.094A2.7,2.7,0,0,1,247.565,202.443Z" transform="translate(-223.424 -174.583)" fill="#b46e5a"/>
        <path id="Path_714983" data-name="Path 714983" d="M151.311,105.539h-2.78a2.944,2.944,0,1,0,0,5.887h2.78v-5.887Z" transform="translate(-138.603 -93.069)" fill="#b46e5a"/>
        <path id="Path_714984" data-name="Path 714984" d="M295.706,105.539h2.78a2.944,2.944,0,1,1,0,5.887h-2.78Z" transform="translate(-269.628 -93.069)" fill="#c38778"/>
        <path id="Path_714985" data-name="Path 714985" d="M192.774,22.429H175.588V11.316A3.816,3.816,0,0,1,179.4,7.5h9.554a3.816,3.816,0,0,1,3.816,3.816Z" transform="translate(-164.788 -7.5)" fill="#7a6d79"/>
        <path id="Path_714986" data-name="Path 714986" d="M254.522,7.5h-3.816a3.816,3.816,0,0,1,3.816,3.816V22.429h3.816V11.316A3.816,3.816,0,0,0,254.522,7.5Z" transform="translate(-230.352 -7.5)" fill="#685e68"/>
        <path id="Path_714987" data-name="Path 714987" d="M192.775,85.353v4.791a8.593,8.593,0,0,1-4.8,7.713,8.415,8.415,0,0,1-3.793.461,10.943,10.943,0,0,1-3.766-.449,8.593,8.593,0,0,1-4.825-7.725V85.353a12.546,12.546,0,0,0,11.376-2.813.507.507,0,0,1,.772.116,5.527,5.527,0,0,0,5.038,2.7Z" transform="translate(-164.789 -72.883)" fill="#c38778"/>
        <path id="Path_714988" data-name="Path 714988" d="M222.623,95.981a5.476,5.476,0,0,1-.552-.4v6.058a7.645,7.645,0,0,1-1.907,5.4,7.936,7.936,0,0,1-6.637,2.328,8.8,8.8,0,0,0,2.807.813,8.585,8.585,0,0,0,9.553-8.538V96.844A5.6,5.6,0,0,1,222.623,95.981Z" transform="translate(-197.901 -84.374)" fill="#b46e5a"/>
        <path id="Path_714989" data-name="Path 714989" d="M270.438,237.141l1.49-4.471-4.348-1.223-3.431,17.511h3.539l4.184-9.037a.89.89,0,0,0-.243-1.062l-.911-.747A.89.89,0,0,1,270.438,237.141Z" transform="translate(-242.085 -202.962)" fill="#685e68"/>
        <path id="Path_714990" data-name="Path 714990" d="M289.293,232l-1.965-.553-.554,2.826,2.24.63a9.739,9.739,0,0,1,1.744.521l.918-2.753Z" transform="translate(-261.832 -202.962)" fill="#554e56"/>
        <path id="Path_714991" data-name="Path 714991" d="M160.8,232.644l1.491,4.473a.89.89,0,0,1-.28.97l-.911.747a.89.89,0,0,0-.243,1.062l4.184,9.037h3.539l-3.432-17.514Z" transform="translate(-151.86 -202.939)" fill="#685e68"/>
      </g>
      <g id="Group_990272" data-name="Group 990272" transform="translate(0 45.995)">
        <path id="Path_714992" data-name="Path 714992" d="M57.275,411.917l-3.9-13.841h48.275l-3.9,13.841a.89.89,0,0,1-.857.649H58.132A.891.891,0,0,1,57.275,411.917Z" transform="translate(-49.173 -394.393)" fill="#e19974"/>
        <path id="Path_714993" data-name="Path 714993" d="M370.265,398.076l-3.9,13.841a.89.89,0,0,1-.857.649h3.816a.89.89,0,0,0,.857-.649l3.9-13.841Z" transform="translate(-321.606 -394.393)" fill="#dc8758"/>
        <path id="Path_714994" data-name="Path 714994" d="M75.121,376.62H22.263a1.908,1.908,0,0,1-1.908-1.908v-3.683a1.908,1.908,0,0,1,1.908-1.908H75.121a1.908,1.908,0,0,1,1.908,1.908v3.683A1.908,1.908,0,0,1,75.121,376.62Z" transform="translate(-20.355 -369.121)" fill="#f4d7c8"/>
        <path id="Path_714995" data-name="Path 714995" d="M424.754,369.121h-3.816a1.908,1.908,0,0,1,1.908,1.908v3.683a1.908,1.908,0,0,1-1.908,1.908h3.816a1.908,1.908,0,0,0,1.908-1.908v-3.683A1.908,1.908,0,0,0,424.754,369.121Z" transform="translate(-369.988 -369.121)" fill="#ecbba3"/>
      </g>
    </g>
    <path id="Path_714996" data-name="Path 714996" d="M69.872,5.914a.954.954,0,1,0,.954.954A.954.954,0,0,0,69.872,5.914ZM66.057,0c-4.769,0-8.649,3.081-8.649,6.868a5.744,5.744,0,0,0,.77,2.843L56.649,11.24a1.463,1.463,0,0,0,1.034,2.5h8.373c4.769,0,8.649-3.081,8.649-6.868S70.826,0,66.057,0Zm0,11.829h-7.3l1.01-1.01a1.474,1.474,0,0,0,.2-1.835,3.839,3.839,0,0,1-.652-2.115c0-2.735,3.024-4.96,6.741-4.96S72.8,4.133,72.8,6.868,69.774,11.829,66.057,11.829Zm0-5.914a.954.954,0,1,0,.954.954A.954.954,0,0,0,66.057,5.914Zm2.517,40.08H67.62V34.536a4.107,4.107,0,0,0-1.212-2.924l-1.42-1.418a2.881,2.881,0,0,0-.558-3.255L61.62,24.128a2.862,2.862,0,0,0-4.047,4.047l2.811,2.811a2.854,2.854,0,0,0,3.255.556l1.421,1.42a2.211,2.211,0,0,1,.653,1.575V45.995H62.491V40.429a10.492,10.492,0,0,0-2.679-6.952,12.3,12.3,0,0,0-6.456-3.582c-1.746-.454-3.47-.992-5.208-1.475a1.8,1.8,0,0,1-1.282-1.913,9.577,9.577,0,0,0,4.6-6.243,3.961,3.961,0,0,0,4.04-3.9,3.9,3.9,0,0,0-3.816-3.9V4.77A4.775,4.775,0,0,0,46.922,0H37.368A4.775,4.775,0,0,0,32.6,4.77V6.732a.954.954,0,0,0,1.908,0V4.77a2.865,2.865,0,0,1,2.862-2.862h9.554A2.865,2.865,0,0,1,49.784,4.77v7.654a4.568,4.568,0,0,1-1.8-.667,4.636,4.636,0,0,1-1.469-1.52A1.46,1.46,0,0,0,44.294,9.9a11.724,11.724,0,0,1-4.343,2.44,11.617,11.617,0,0,1-5.445.312V11.183a.954.954,0,0,0-1.908,0v1.288a3.9,3.9,0,1,0,.224,7.792,9.576,9.576,0,0,0,4.6,6.243,1.825,1.825,0,0,1-1.281,1.908c-1.752.494-3.514.956-5.265,1.453a15.238,15.238,0,0,0-4.136,1.625A10.709,10.709,0,0,0,22.159,37.7a10.485,10.485,0,0,0-.361,2.727v5.567h-3.22V34.536a2.211,2.211,0,0,1,.653-1.575l1.421-1.42a2.857,2.857,0,0,0,3.255-.556l2.811-2.811a2.9,2.9,0,0,0,0-4.047,2.865,2.865,0,0,0-4.047,0l-2.811,2.811a2.873,2.873,0,0,0-.558,3.255l-1.42,1.418a4.107,4.107,0,0,0-1.212,2.924V45.995h-.954a2.865,2.865,0,0,0-2.862,2.862v3.683A2.865,2.865,0,0,0,15.716,55.4h2.646l2.544,9.025a.954.954,0,0,0,.918.7.964.964,0,0,0,.919-1.213l-2.4-8.508h30.21a.954.954,0,0,0,0-1.908H15.716a.955.955,0,0,1-.954-.954V48.856a.955.955,0,0,1,.954-.954H68.574a.955.955,0,0,1,.954.954v3.683a.955.955,0,0,1-.954.954H55.005a.954.954,0,0,0,0,1.908h8.941l-2.4,8.508a.954.954,0,0,0,1.836.518L65.928,55.4h2.646a2.865,2.865,0,0,0,2.862-2.862V48.856a2.865,2.865,0,0,0-2.862-2.862ZM63.082,29.636a.955.955,0,0,1-1.349,0l-2.811-2.811a.954.954,0,0,1,1.349-1.349l2.811,2.811A.964.964,0,0,1,63.082,29.636ZM51.692,14.382A1.99,1.99,0,0,1,53.6,16.367a2.012,2.012,0,0,1-1.911,1.985C51.691,18.228,51.7,14.517,51.692,14.382Zm-21,1.985A1.99,1.99,0,0,1,32.6,14.382c0,.135,0,3.847,0,3.971A2,2,0,0,1,30.69,16.367Zm-9.482,11.92,2.811-2.811a.954.954,0,1,1,1.349,1.349l-2.811,2.811a.954.954,0,0,1-1.349-1.349Zm13.3-10.073V14.585a13.519,13.519,0,0,0,6-.422,13.628,13.628,0,0,0,4.665-2.5,6.454,6.454,0,0,0,4.614,2.688v3.868a7.639,7.639,0,1,1-15.278,0ZM46.581,29.767a6.793,6.793,0,0,1-8.876,0,3.689,3.689,0,0,0,1.576-2.443,9.552,9.552,0,0,0,5.726,0,3.69,3.69,0,0,0,1.573,2.445ZM30.874,45.994V44.1a.954.954,0,1,0-1.908,0v1.893h-5.26V40.427c0-4.528,3.177-7.584,7.37-8.6l1.189,3.568-.877.72a1.844,1.844,0,0,0-.5,2.2l3.556,7.682Zm5.67,0-3.907-8.439.873-.716a1.855,1.855,0,0,0,.58-2.009l-1.175-3.524,2.39-.673,3.01,15.362H36.544Zm7.487,0H40.259l-2.743-14a8.728,8.728,0,0,0,9.259,0Zm3.715,0H45.975l3.01-15.358,2.39.672L50.2,34.831a1.855,1.855,0,0,0,.58,2.009l.873.716Zm12.838,0h-5.26V44.1a.954.954,0,1,0-1.908,0v1.893H49.848L53.4,38.313a1.845,1.845,0,0,0-.5-2.2l-.877-.72,1.189-3.567c4.119.986,7.379,4.012,7.371,8.6Zm1.657-40.08a.954.954,0,1,0,.954.954A.954.954,0,0,0,62.241,5.914Z"/>
  </g>
</svg>
