<svg id="a1" xmlns="http://www.w3.org/2000/svg" width="83" height="80.566" viewBox="0 0 83 80.566">
  <path id="Path_117335" data-name="Path 117335" d="M158.178,929.431a.248.248,0,0,0,.126-.036c.019-.022.243-.18.264-.2q4.96-5.038,9.942-10.049a4.122,4.122,0,0,1,3.014-1.271,10.724,10.724,0,0,1,3.651.91,19.4,19.4,0,0,0,2.335.759c1.239.288,2.51.609,3.8.937,4.478,1.135,9.108,2.309,13.5,2.309h0q.413,0,.824-.014c12.037-.423,14.257-8.959,17.066-19.765l.243-.932c.5-1.922,1.193-4.085,1.927-6.375,2.861-8.94,6.424-20.066,2.038-27.239-2.184-3.572-7.1-5.326-11.147-6.453-3.292-.919-6.566-1.9-9.841-2.881-3.488-1.046-7.094-2.127-10.659-3.108-1.046-.287-2.2-.623-3.424-.982-5.814-1.7-13.776-4.019-20.6-4.019-4.235,0-7.6.9-10.016,2.686-6.079,4.5-7.852,13.06-9.415,20.617-.291,1.406-.575,2.779-.878,4.089-.183.794-.375,1.6-.569,2.406-2.026,8.481-4.122,17.251.669,24.6,2.068,3.173,6.053,5.694,11.844,7.5a8.223,8.223,0,0,0,1.877.363c1.9.175,1.974,1.048,2.167,3.38l.034.4c.309,3.7.549,7.555.734,11.8.014.046.024.091.034.135a.366.366,0,0,0,.157.291A.562.562,0,0,0,158.178,929.431Z" transform="translate(-137.04 -849.943)" fill="#fff"/>
  <path id="Path_117336" data-name="Path 117336" d="M136.907,875.2c1.972-8.523,3.136-19.734,10.7-25.329,8.8-6.512,25.853-.367,34.97,2.142,6.866,1.889,13.645,4.077,20.5,5.99,4.153,1.158,9.384,3.015,11.776,6.929,5.809,9.5-1.381,25.018-3.841,34.448-2.957,11.331-5.111,21.039-18.314,21.5-6.066.213-12.575-1.906-18.406-3.258-3.086-.716-5.816-2.874-7.992-.689q-4.986,5.006-9.938,10.045a1.325,1.325,0,0,1-.524.4,1.377,1.377,0,0,1-1.522-.153,1.412,1.412,0,0,1-.634-.994,1.348,1.348,0,0,1-.039-.157c0-.013-.008-.022-.009-.036-.172-3.959-.406-7.906-.736-11.854-.325-3.874-.065-2.194-3.323-3.207-4.568-1.421-9.713-3.772-12.427-7.937C131.629,894.562,134.8,884.292,136.907,875.2Zm.889,22.425c1.925,7.4,10.313,9.764,16.7,11.659a1.576,1.576,0,0,1,1.117,1.467c.428,3.806.693,7.627.892,11.452,3.7-4.509,7.884-10.177,13.373-8.786,8.445,2.139,24.289,8.355,31.922,1.628,4.083-3.6,4.967-11.531,6.286-16.473,1.591-5.959,3.047-11.956,4.508-17.947,1.034-4.238,2.159-8.848.332-13.026-2.462-5.629-10.906-6.7-16.1-8.227-9.977-2.931-19.9-6.122-30.143-8-5.014-.918-10.51-1.373-15.454.086-4.86,1.434-6.885,7.02-8.11,11.392-2.062,7.367-3.8,14.875-5.29,22.378A27.3,27.3,0,0,0,137.8,897.623ZM159.6,863.95a10.111,10.111,0,0,0-2.116-3.049,11.383,11.383,0,0,0-2.956-2.821.276.276,0,0,0-.4.309,6.634,6.634,0,0,0,2.105,3.2,16.594,16.594,0,0,0,2.966,2.668A.276.276,0,0,0,159.6,863.95Zm-5.329-.5c.062.8.618,1.142,1.246,1.556a4.727,4.727,0,0,0,1.838.823.3.3,0,0,0,.335-.437,4.932,4.932,0,0,0-1.551-1.628,1.94,1.94,0,0,0-1.64-.612A.3.3,0,0,0,154.275,863.452Zm35.362,37.892a10.447,10.447,0,0,0,1.729,3.587c.578.826,1.107,1.984,2.213,2.094a.2.2,0,0,0,.195-.149c.162-1.106-.827-1.879-1.453-2.682-.8-1.02-1.6-2.011-2.445-2.989C189.778,901.091,189.605,901.213,189.637,901.343Zm3.891.444a3.271,3.271,0,0,0-1.96-1.73.313.313,0,0,0-.381.38,3.517,3.517,0,0,0,1.546,2.144A.584.584,0,0,0,193.529,901.787Zm-6.391.183a2.361,2.361,0,0,0-.117,1.685,5.577,5.577,0,0,0,.508,1.832c.229.373.948.375,1.024-.134a4.223,4.223,0,0,0-.35-2.023,2.938,2.938,0,0,0-.765-1.4A.194.194,0,0,0,187.137,901.97Zm-36.615-6.3a.476.476,0,0,0,.447.587c1.026.121,1.918-1.058,2.582-1.7a28.984,28.984,0,0,0,2.266-2.284.132.132,0,0,0-.092-.223,5.18,5.18,0,0,0-3.048,1.373C151.946,893.977,150.665,894.689,150.523,895.666Zm3.765-4.869c.145-.062.08-.262-.039-.3-1.006-.352-2.687-.041-3.081,1.061a.191.191,0,0,0,.133.234,2,2,0,0,0,1.331-.306C153.179,891.243,153.738,891.033,154.288,890.8Zm1.337,5.065a.545.545,0,0,0,.083.649c.036.029.071.057.108.084a.543.543,0,0,0,.65-.084,4.833,4.833,0,0,0,1.334-2.2.179.179,0,0,0-.219-.219A3.558,3.558,0,0,0,155.624,895.861ZM195.8,871.279a3.582,3.582,0,0,0-.525,1.056.214.214,0,0,0,.206.271,2.493,2.493,0,0,0,1.371-.384,13.913,13.913,0,0,0,1.229-.963c.757-.644,1.654-1.176,1.883-2.208a.311.311,0,0,0-.215-.38c-1.11-.229-1.872.538-2.622,1.241A13.378,13.378,0,0,0,195.8,871.279Zm-2.1-.152a1.781,1.781,0,0,0,.809-.374,3.258,3.258,0,0,0,.693-.931,3.841,3.841,0,0,0,.719-1.99.756.756,0,0,0-1.124-.645,3.786,3.786,0,0,0-1.36,1.885,4.823,4.823,0,0,0-.371,1.072,1.74,1.74,0,0,0,.046.536A.468.468,0,0,0,193.7,871.127Zm5.386,14.317c1.084.638,3.064.875,3.988-.131a.256.256,0,0,0,0-.354,3.643,3.643,0,0,0-3.988-.506A.578.578,0,0,0,199.089,885.444Zm-20.674-23.182a4.29,4.29,0,0,0-.208-2.367.265.265,0,0,0-.358-.094c-1.486.67-1.584,3.411-.573,4.545a.189.189,0,0,0,.23.03A2.869,2.869,0,0,0,178.415,862.263Zm-30.486,13.252c.443,1.289,2.827,1.61,3.934,1.1a.263.263,0,0,0,.053-.411,5.167,5.167,0,0,0-1.691-.958,2.841,2.841,0,0,0-1.881-.46A.6.6,0,0,0,147.928,875.515Zm16.882,29.543a.278.278,0,0,0,.374.1c.752-.379.845-1.02,1.2-1.728a8.318,8.318,0,0,0,.733-1.834.372.372,0,0,0-.541-.416C165.412,901.776,164.07,903.789,164.81,905.058Zm-4.8-34.933c6.188-6.384,14.931-.233,17.921,6.6,2.5-2.818,5.638-4.826,9.672-4.224,4.128.616,6.1,4.987,6.56,8.625,1.447,11.346-12.266,18.748-21.582,19.818a.98.98,0,0,1-.993-.438C164.071,894.488,150.349,880.092,160.014,870.124Zm31.533,15.08c.459-.866.79-2.689-.375-3.162-.137-.056-.261.06-.307.174a4.308,4.308,0,0,0-.178,1.4c-.021.449-.1.882-.093,1.332A.515.515,0,0,0,191.547,885.2Zm-15.469,11.821c3.243.132,6.131-1.826,8.628-3.7,2.152-1.615,4.625-3.839,5.517-6.458a.072.072,0,0,0-.1-.081c-2.492,1.683-4.36,4.2-6.89,5.886-2.32,1.549-4.876,2.475-7.3,3.821A.288.288,0,0,0,176.079,897.026Zm-10.224-25.883a.1.1,0,0,0-.023-.174c-3.512-1.1-8.831,5.01-6.314,8.092a.288.288,0,0,0,.449-.058c.9-1.466.877-3.243,1.942-4.668A14.951,14.951,0,0,1,165.855,871.143Zm-6.249,11.906a.23.23,0,0,0,.308-.081c.293-.435.115-.812.009-1.288-.093-.417-.085-.792-.432-1.069a.221.221,0,0,0-.3,0A1.837,1.837,0,0,0,159.606,883.049Z" transform="translate(-134.072 -846.971)"/>
</svg>
