<svg xmlns="http://www.w3.org/2000/svg" width="124.629" height="191.06" viewBox="0 0 124.629 191.06">
  <g id="a2" transform="matrix(0.174, -0.985, 0.985, 0.174, -0.412, 178.707)">
    <g id="Group_81059" data-name="Group 81059" transform="translate(0 0)">
      <g id="Group_81053" data-name="Group 81053" transform="translate(2.371 0)" style="mix-blend-mode: overlay;isolation: isolate">
        <path id="Path_114995" data-name="Path 114995" d="M51.236,53.8l8.2-33.442L0,0Z" transform="translate(1 1)" fill="#3c384f"/>
        <path id="Path_114996" data-name="Path 114996" d="M1,0A1,1,0,0,0,.276,1.689L51.512,55.494a1,1,0,0,0,1.695-.451l8.2-33.443a1,1,0,0,0-.647-1.184L1.324.054A.988.988,0,0,0,1,0ZM51.7,52.791,4.543,3.271l54.7,18.741Z" transform="translate(0 0)" fill="#3c384f"/>
        <path id="Path_114997" data-name="Path 114997" d="M57.391,48.778,0,0,79.517,32.571Z" transform="translate(1 1)" fill="#3c384f"/>
        <path id="Path_114998" data-name="Path 114998" d="M1,0A1,1,0,0,0,.352,1.762L57.743,50.54a1,1,0,0,0,1.239.045L81.108,34.377a1,1,0,0,0-.212-1.732L1.379.075A.992.992,0,0,0,1,0ZM58.437,48.505l-52-44.2L78.485,33.819Z" transform="translate(0 0)" fill="#3c384f"/>
        <path id="Path_114999" data-name="Path 114999" d="M51.236,53.8,0,0,33.724,66.762Z" transform="translate(1 1)" fill="#3c384f"/>
        <path id="Path_115000" data-name="Path 115000" d="M1,0A1,1,0,0,0,.107,1.451L33.831,68.212a1,1,0,0,0,1.488.353L52.831,55.608a1,1,0,0,0,.129-1.493L1.724.31A1,1,0,0,0,1,0ZM35.082,66.252,4.946,6.594l45.785,48.08Z" transform="translate(0 0)" fill="#3c384f"/>
        <path id="Path_115001" data-name="Path 115001" d="M9.014,18.7Q4.8,9.982.133,1.5C-.488.375,1.238-.635,1.86.494q4.67,8.477,8.881,17.193C11.3,18.841,9.575,19.856,9.014,18.7Z" transform="translate(21.704 35.774)" fill="#3c384f"/>
        <path id="Path_115002" data-name="Path 115002" d="M2.982,3.4a1.018,1.018,0,0,1-.46.6,1.008,1.008,0,0,1-.77.1.987.987,0,0,1-.6-.46Q.644,2.573.135,1.507a1.07,1.07,0,0,1-.1-.77,1.018,1.018,0,0,1,.46-.6,1.008,1.008,0,0,1,.77-.1.983.983,0,0,1,.6.46q.51,1.065,1.019,2.131A1.069,1.069,0,0,1,2.982,3.4Z" transform="translate(25.933 37.218)" fill="#3c384f"/>
        <path id="Path_115003" data-name="Path 115003" d="M19.924,10.45Q10.177,6.238.518,1.827C-.651,1.293.364-.431,1.527.1q9.658,4.412,19.406,8.623C22.112,9.232,21.094,10.956,19.924,10.45Z" transform="translate(45.432 22.769)" fill="#3c384f"/>
      </g>
      <g id="Group_81058" data-name="Group 81058" transform="translate(0 2.371)">
        <g id="Group_81057" data-name="Group 81057">
          <g id="Group_81054" data-name="Group 81054" transform="translate(0 0)">
            <path id="Path_115004" data-name="Path 115004" d="M51.236,53.8l8.2-33.442L0,0Z" transform="translate(1 1)" fill="#fff"/>
            <path id="Path_115005" data-name="Path 115005" d="M1,0A1,1,0,0,0,.276,1.69l51.237,53.8a1,1,0,0,0,1.695-.451l8.2-33.442a1,1,0,0,0-.647-1.184L1.325.054A1.016,1.016,0,0,0,1,0ZM51.7,52.792,4.544,3.271l54.7,18.741Z" transform="translate(0 0)"/>
          </g>
          <g id="Group_81055" data-name="Group 81055" transform="translate(0 0)">
            <path id="Path_115006" data-name="Path 115006" d="M57.391,48.778,0,0,79.517,32.571Z" transform="translate(1 1)" fill="#fff"/>
            <path id="Path_115007" data-name="Path 115007" d="M1,0A1,1,0,0,0,.353,1.762L57.743,50.541a1,1,0,0,0,1.238.044L81.107,34.378a1,1,0,0,0-.212-1.732L1.378.075A.988.988,0,0,0,1,0ZM58.436,48.505l-52-44.2L78.485,33.82Z" transform="translate(0)"/>
          </g>
          <g id="Group_81056" data-name="Group 81056" transform="translate(0 0)">
            <path id="Path_115008" data-name="Path 115008" d="M51.236,53.8,0,0,33.724,66.762Z" transform="translate(1 1)" fill="#fff"/>
            <path id="Path_115009" data-name="Path 115009" d="M1,0A1,1,0,0,0,.108,1.451L33.832,68.212a1,1,0,0,0,1.487.353L52.832,55.609a1,1,0,0,0,.129-1.494L1.725.311A1,1,0,0,0,1,0ZM35.082,66.253,4.947,6.594l45.785,48.08Z"/>
          </g>
          <path id="Path_115010" data-name="Path 115010" d="M9.014,18.7Q4.8,9.983.133,1.5C-.489.375,1.238-.635,1.86.494q4.67,8.477,8.881,17.193C11.3,18.841,9.574,19.857,9.014,18.7Z" transform="translate(21.704 35.774)"/>
          <path id="Path_115011" data-name="Path 115011" d="M2.982,3.4a1.02,1.02,0,0,1-.46.6,1.01,1.01,0,0,1-.771.1.983.983,0,0,1-.6-.459Q.644,2.573.135,1.507a1.069,1.069,0,0,1-.1-.77,1.021,1.021,0,0,1,.459-.6,1.01,1.01,0,0,1,.771-.1.988.988,0,0,1,.6.46l1.02,2.131A1.077,1.077,0,0,1,2.982,3.4Z" transform="translate(25.933 37.218)"/>
          <path id="Path_115012" data-name="Path 115012" d="M19.925,10.45Q10.178,6.239.519,1.827C-.651,1.293.365-.431,1.528.1q9.658,4.41,19.406,8.623C22.112,9.233,21.095,10.956,19.925,10.45Z" transform="translate(45.432 22.77)"/>
        </g>
      </g>
    </g>
    <g id="Group_81063" data-name="Group 81063" transform="translate(58.302 56.359)">
      <g id="Group_81060" data-name="Group 81060" transform="translate(0 0)">
        <path id="Path_115013" data-name="Path 115013" d="M1,0A1,1,0,0,0,.247,1.659,101.137,101.137,0,0,0,8.755,10.28a1,1,0,0,0,1.337-1.487A99.055,99.055,0,0,1,1.753.342,1,1,0,0,0,1,0ZM17.176,14.847a1,1,0,0,0-.593,1.805c2.159,1.59,4.407,3.114,6.683,4.532a1,1,0,0,0,1.058-1.7c-2.232-1.39-4.438-2.885-6.556-4.444A1,1,0,0,0,17.176,14.847ZM132.1,19.26a.991.991,0,0,0-.53.153q-.909.569-1.828,1.119a1,1,0,0,0,1.026,1.717q.938-.561,1.865-1.142a1,1,0,0,0-.533-1.847ZM34.323,25.081a1,1,0,0,0-.428,1.9c3.036,1.437,6.172,2.74,9.321,3.872a1,1,0,0,0,.677-1.881c-3.089-1.112-6.165-2.39-9.142-3.8A.988.988,0,0,0,34.323,25.081Zm87.1,0a1,1,0,0,0-.424.1,101.855,101.855,0,0,1-11.029,4.406,1,1,0,0,0,.633,1.9,103.851,103.851,0,0,0,11.246-4.493,1,1,0,0,0-.426-1.906ZM51.18,31.327a1,1,0,0,0-.263,1.964,100.853,100.853,0,0,0,11.854,2.492,1,1,0,0,0,.292-1.979,99.015,99.015,0,0,1-11.619-2.441A.965.965,0,0,0,51.18,31.327Zm51.432.441a.963.963,0,0,0-.243.03c-3.193.8-6.46,1.448-9.709,1.934a1,1,0,0,0,.3,1.978c3.312-.5,6.642-1.159,9.9-1.972a1,1,0,0,0-.241-1.97ZM72.865,34.754a1,1,0,0,0-.045,2c2.674.123,5.39.142,8.076.054a1,1,0,1,0-.065-2c-2.635.086-5.3.068-7.919-.053Z" transform="translate(0 0)"/>
      </g>
    </g>
  </g>
</svg>
