<svg xmlns="http://www.w3.org/2000/svg" xmlns:xlink="http://www.w3.org/1999/xlink" width="102" height="95" viewBox="0 0 102 95">
  <defs>
    <clipPath id="clip-path">
      <rect id="Rectangle_339504" data-name="Rectangle 339504" width="102" height="95" transform="translate(1315.163 398)" fill="#8284d2" opacity="0.54"/>
    </clipPath>
    <clipPath id="clip-path-2">
      <rect id="Rectangle_339502" data-name="Rectangle 339502" width="54.895" height="51.864" fill="none"/>
    </clipPath>
  </defs>
  <g id="a2" transform="translate(-1315.163 -398)" clip-path="url(#clip-path)">
    <g id="Group_984402" data-name="Group 984402" transform="translate(376.931 146.239)">
      <g id="Group_984399" data-name="Group 984399" transform="translate(938.543 252.08)">
        <g id="Group_984398" data-name="Group 984398" clip-path="url(#clip-path-2)">
          <path id="Path_212438" data-name="Path 212438" d="M56.922,51.272a72.808,72.808,0,0,1-2.251,8.688A12.3,12.3,0,0,1,52.4,64.149c-.264.257-.533.507-.806.753a5.212,5.212,0,0,1-1.085.656c-1.9.844-4.558.569-5.51-1.484a1.1,1.1,0,0,0-1.888,0c-3,4.91-8.392,7.723-13.931,8.733-.075.014-.15.025-.226.038l-.08,0a1.02,1.02,0,0,0-.53.1c-6.23.932-12.6-.357-18.637-1.959a123.815,123.815,0,0,0,12.446-37.4,40.173,40.173,0,0,0,11.892-.518q-.377,1.889-.755,3.779a1.107,1.107,0,0,0,1.054,1.384l5.911-.269,2.892-.132c.932-.042,1.9-.026,2.464-.908a7.482,7.482,0,0,0,.642-2.444l.4-1.951c.04,0,.077.009.12.007a92.96,92.96,0,0,1,12.864.42,159.031,159.031,0,0,1-2.715,18.314" transform="translate(-7.025 -23.506)" fill="#fff"/>
          <path id="Path_212439" data-name="Path 212439" d="M112,17.437a4.415,4.415,0,0,0-.135.64,13.538,13.538,0,0,1-1.892.064l-2.515.114-3.688.168,2.04-10.215,7.95.708-.9,4.361q-.278,1.346-.556,2.692-.152.734-.3,1.468" transform="translate(-75.112 -5.941)" fill="#fff"/>
          <path id="Path_212440" data-name="Path 212440" d="M117.322,155.821a5.852,5.852,0,0,0,3.293,1.567,31.311,31.311,0,0,1-9.707,4.015c.629-.357,1.249-.746,1.857-1.173a19.816,19.816,0,0,0,4.557-4.409" transform="translate(-80.278 -112.786)" fill="#fff"/>
          <path id="Path_212441" data-name="Path 212441" d="M49.9,27.766a72.755,72.755,0,0,1-2.251,8.688,12.3,12.3,0,0,1-2.274,4.189c-.264.257-.533.507-.806.754a5.228,5.228,0,0,1-1.084.656c-1.9.844-4.558.569-5.511-1.484a1.1,1.1,0,0,0-1.888,0c-3,4.91-8.392,7.723-13.93,8.733l-.226.038-.08,0a1.02,1.02,0,0,0-.531.1c-6.23.932-12.6-.357-18.637-1.959a123.816,123.816,0,0,0,12.446-37.4,40.191,40.191,0,0,0,11.892-.518l-.755,3.778a1.107,1.107,0,0,0,1.054,1.384l5.911-.269,2.892-.132c.932-.042,1.9-.026,2.464-.908a7.479,7.479,0,0,0,.642-2.444l.4-1.951a1.193,1.193,0,0,0,.12.007,92.915,92.915,0,0,1,12.864.42A159.034,159.034,0,0,1,49.9,27.766M53.8,7.39A92.979,92.979,0,0,0,40.08,6.836l.939-4.547c0-.017,0-.031,0-.048A.99.99,0,0,0,41.058,2,1.116,1.116,0,0,0,39.965.905L29.821,0a1.094,1.094,0,0,0-1.054.8L27.482,7.243a38.542,38.542,0,0,1-13.259.548,1.087,1.087,0,0,0-1.054.8A122.1,122.1,0,0,1,.138,47.63a1.107,1.107,0,0,0,.653,1.606c6.736,1.842,14.185,3.316,21.153,2.292A33.328,33.328,0,0,0,46.969,42.14a1.11,1.11,0,0,0,.216-.3,10.607,10.607,0,0,0,.957-1.3c1.65-2.629,2.355-5.809,3.082-8.787.873-3.571,1.578-7.183,2.151-10.814.652-4.135,1.14-8.293,1.517-12.462.057-.635-.551-1.031-1.093-1.093M36.89,11.5a4.449,4.449,0,0,0-.135.64,13.54,13.54,0,0,1-1.893.064l-2.515.114-3.688.168L30.7,2.266l7.95.708-.9,4.361-.556,2.692-.3,1.468m.154,31.539A5.852,5.852,0,0,0,40.338,44.6a31.31,31.31,0,0,1-9.707,4.015c.629-.357,1.249-.746,1.857-1.173a19.816,19.816,0,0,0,4.557-4.409" transform="translate(0 0)" fill="#161615"/>
          <path id="Path_212442" data-name="Path 212442" d="M87.971,80.751,64.94,79.8c-1.407-.058-1.4,2.128,0,2.186l23.03.952c1.407.058,1.4-2.128,0-2.186" transform="translate(-46.242 -57.759)" fill="#161615"/>
          <path id="Path_212443" data-name="Path 212443" d="M82.335,110.492A141.391,141.391,0,0,0,59.9,110.5c-1.393.111-1.4,2.3,0,2.186a141.423,141.423,0,0,1,22.434-.011c1.4.111,1.4-2.076,0-2.186" transform="translate(-42.598 -79.658)" fill="#161615"/>
          <path id="Path_212444" data-name="Path 212444" d="M62,138.97a29.024,29.024,0,0,1-9.067-.406,1.12,1.12,0,0,0-1.345.763,1.1,1.1,0,0,0,.763,1.345,30.913,30.913,0,0,0,9.648.484,1.126,1.126,0,0,0,1.093-1.093A1.1,1.1,0,0,0,62,138.97" transform="translate(-37.316 -100.276)" fill="#161615"/>
        </g>
      </g>
      <g id="Group_984401" data-name="Group 984401" transform="matrix(0.899, -0.438, 0.438, 0.899, 968.157, 310.096)">
        <g id="Group_984400" data-name="Group 984400" transform="translate(0 0)" clip-path="url(#clip-path-2)">
          <path id="Path_212445" data-name="Path 212445" d="M2.715,18.8a72.808,72.808,0,0,0,2.251,8.688A12.3,12.3,0,0,0,7.24,31.674c.264.257.533.507.806.753a5.213,5.213,0,0,0,1.085.656c1.9.844,4.558.569,5.51-1.484a1.1,1.1,0,0,1,1.888,0c3,4.91,8.392,7.723,13.931,8.733.075.014.15.025.226.038l.08,0a1.02,1.02,0,0,1,.53.1c6.23.932,12.6-.357,18.637-1.959a123.814,123.814,0,0,1-12.446-37.4A40.173,40.173,0,0,1,25.594.6q.377,1.889.755,3.779A1.107,1.107,0,0,1,25.295,5.76l-5.911-.269L16.492,5.36c-.932-.042-1.9-.026-2.464-.908a7.482,7.482,0,0,1-.642-2.444l-.4-1.951c-.04,0-.077.009-.12.007A92.962,92.962,0,0,0,0,.483,159.029,159.029,0,0,0,2.715,18.8" transform="translate(2.283 8.969)" fill="#fff"/>
          <path id="Path_212446" data-name="Path 212446" d="M1.759,9.229a4.415,4.415,0,0,1,.135.64,13.538,13.538,0,0,0,1.892.064l2.515.114,3.688.168Q8.97,5.108,7.95,0L0,.708.9,5.069q.278,1.346.556,2.692.152.734.3,1.468" transform="translate(16.246 2.267)" fill="#fff"/>
          <path id="Path_212447" data-name="Path 212447" d="M3.293,0A5.852,5.852,0,0,1,0,1.567,31.311,31.311,0,0,0,9.707,5.581c-.629-.357-1.249-.746-1.857-1.173A19.816,19.816,0,0,1,3.293,0" transform="translate(14.557 43.035)" fill="#fff"/>
          <path id="Path_212448" data-name="Path 212448" d="M5,27.766a72.756,72.756,0,0,0,2.251,8.688,12.3,12.3,0,0,0,2.274,4.189c.264.257.533.507.806.754a5.228,5.228,0,0,0,1.084.656c1.9.844,4.558.569,5.511-1.484a1.1,1.1,0,0,1,1.888,0c3,4.91,8.392,7.723,13.93,8.733l.226.038.08,0a1.02,1.02,0,0,1,.531.1c6.23.932,12.6-.357,18.637-1.959a123.815,123.815,0,0,1-12.446-37.4,40.192,40.192,0,0,1-11.892-.518l.755,3.778a1.107,1.107,0,0,1-1.054,1.384l-5.911-.269-2.892-.132c-.932-.042-1.9-.026-2.464-.908a7.479,7.479,0,0,1-.642-2.444l-.4-1.951a1.193,1.193,0,0,1-.12.007,92.917,92.917,0,0,0-12.864.42A159.032,159.032,0,0,0,5,27.766M1.1,7.391a92.981,92.981,0,0,1,13.718-.555l-.939-4.547c0-.017,0-.031,0-.048A.99.99,0,0,1,13.837,2,1.116,1.116,0,0,1,14.93.906L25.073,0a1.094,1.094,0,0,1,1.054.8l1.285,6.439a38.543,38.543,0,0,0,13.259.548,1.087,1.087,0,0,1,1.054.8A122.1,122.1,0,0,0,54.757,47.63a1.107,1.107,0,0,1-.653,1.606c-6.736,1.842-14.185,3.316-21.153,2.292A33.329,33.329,0,0,1,7.926,42.141a1.11,1.11,0,0,1-.216-.3,10.608,10.608,0,0,1-.957-1.3C5.1,37.918,4.4,34.737,3.671,31.76,2.8,28.188,2.093,24.577,1.52,20.946.868,16.811.381,12.652,0,8.484-.054,7.849.555,7.453,1.1,7.391M18,11.5a4.449,4.449,0,0,1,.135.64,13.54,13.54,0,0,0,1.893.064l2.515.114,3.688.168L24.2,2.267l-7.95.708.9,4.361.556,2.692L18,11.5M17.85,43.035A5.852,5.852,0,0,1,14.557,44.6a31.311,31.311,0,0,0,9.707,4.015c-.629-.357-1.249-.746-1.857-1.173a19.816,19.816,0,0,1-4.557-4.409" transform="translate(0 0)" fill="#161615"/>
          <path id="Path_212449" data-name="Path 212449" d="M1.054.953,24.084,0c1.407-.058,1.4,2.128,0,2.186l-23.03.952c-1.407.058-1.4-2.128,0-2.186" transform="translate(12.112 22.039)" fill="#161615"/>
          <path id="Path_212450" data-name="Path 212450" d="M1.049.44A141.393,141.393,0,0,1,23.484.451c1.393.111,1.4,2.3,0,2.186A141.426,141.426,0,0,0,1.049,2.626c-1.4.111-1.4-2.076,0-2.186" transform="translate(14.109 30.394)" fill="#161615"/>
          <path id="Path_212451" data-name="Path 212451" d="M1.093.432A29.024,29.024,0,0,0,10.16.027,1.12,1.12,0,0,1,11.5.79a1.1,1.1,0,0,1-.763,1.345,30.913,30.913,0,0,1-9.648.484A1.126,1.126,0,0,1,0,1.525,1.1,1.1,0,0,1,1.093.432" transform="translate(29.116 38.261)" fill="#161615"/>
        </g>
      </g>
    </g>
  </g>
</svg>
