<svg xmlns="http://www.w3.org/2000/svg" width="80.697" height="73.005" viewBox="0 0 80.697 73.005">
  <g id="a6" transform="translate(0.001)">
    <g id="Group_81065" data-name="Group 81065" transform="translate(2.349 2.349)" style="mix-blend-mode: overlay;isolation: isolate">
      <path id="Path_115015" data-name="Path 115015" d="M200.841,221.971c-4.774,4.885-9.707,9.59-14.735,14.213,2.174-4.915,4.517-9.751,6.581-14.717,2.339-5.63,5.059-13.3,2.109-19.21-6.722-13.461-23.714-.253-29.967,6.523-.666.722-1.3,1.476-1.946,2.221,2.234-5.471,4.246-11.094,3.715-17-.73-8.128-8.181-10.078-14.6-6.3-6.888,4.055-12.421,11.071-17.04,17.443-3.924,5.412,5.054,10.564,8.947,5.23a70.384,70.384,0,0,1,6.994-8.181q-.557,1.021-1.127,2.038a151.872,151.872,0,0,0-7.034,13.7c-3.916,9.035-9.707,21.545-4.781,31.049,2.483,4.79,8.305,5.276,12.689,3.327,5.893-2.62,9.974-8.4,13.908-13.3,4.107-5.111,7.725-10.538,11.526-15.87a77.232,77.232,0,0,1,4.995-6.538c.042-.048.085-.091.127-.138l-.046.144c-1.01,3.139-2.308,6.151-3.623,9.171-2.445,5.619-5.6,11.533-6.5,17.647-.792,5.406,1.4,11.465,7.9,11.073,6.112-.369,11.011-6.256,15.1-10.188,4.948-4.762,9.808-9.618,14.669-14.469C213.785,224.774,205.856,216.842,200.841,221.971Z" transform="translate(-132.989 -184.85)" fill="#3c384f"/>
      <path id="Path_115016" data-name="Path 115016" d="M178.352,255.5a7.767,7.767,0,0,1-5.916-2.455c-2.059-2.242-2.949-5.895-2.381-9.77.74-5.052,2.944-9.892,5.074-14.57.51-1.121,1.016-2.23,1.493-3.328.453-1.041.929-2.135,1.4-3.267q-.434.6-.859,1.2l-.281.4c-.988,1.385-1.963,2.776-2.937,4.168-2.736,3.9-5.565,7.942-8.624,11.748-.447.556-.9,1.124-1.35,1.7-3.509,4.437-7.485,9.466-12.929,11.885-4.853,2.155-11.209,1.552-13.97-3.776-4.961-9.571.4-21.886,4.307-30.878l.444-1.023c1.15-2.656,2.44-5.25,3.809-7.831q-.476.62-.933,1.248a6.6,6.6,0,0,1-9.308,1.294,5.229,5.229,0,0,1-1.243-7.69c4.931-6.8,10.445-13.657,17.341-17.715,3.827-2.252,8.015-2.618,11.206-.978,2.81,1.444,4.543,4.3,4.879,8.045a30.347,30.347,0,0,1-1.928,12.6c5.088-4.971,14.5-12.021,22.047-10.953,3.468.492,6.152,2.6,7.978,6.254,3,6.014.634,13.5-2.081,20.033-1.292,3.109-2.713,6.211-4.087,9.211l-.486,1.061c4.089-3.835,7.747-7.407,11.1-10.841h0a5.954,5.954,0,0,1,5.931-1.762,7.3,7.3,0,0,1,5.051,5.015,6.007,6.007,0,0,1-1.706,6.008l-.553.551c-4.6,4.594-9.361,9.344-14.129,13.93-.588.566-1.191,1.171-1.813,1.8-3.7,3.711-8.308,8.33-13.911,8.668C178.777,255.49,178.563,255.5,178.352,255.5Zm2.843-39.991a.936.936,0,0,1,.48.128.964.964,0,0,1,.468,1.125l-.047.145c-1.058,3.292-2.438,6.463-3.656,9.261-.483,1.109-.993,2.228-1.507,3.358-2.073,4.554-4.217,9.262-4.917,14.037-.475,3.242.246,6.362,1.88,8.142a5.948,5.948,0,0,0,4.978,1.8c4.851-.293,8.983-4.435,12.628-8.09.632-.633,1.245-1.249,1.842-1.823,4.755-4.575,9.508-9.318,14.1-13.906l.552-.551a4.03,4.03,0,0,0,1.194-4.086,5.334,5.334,0,0,0-3.637-3.616,3.97,3.97,0,0,0-4.015,1.228h0c-4.337,4.436-9.169,9.1-14.774,14.248a.991.991,0,0,1-1.576-1.131c.821-1.858,1.668-3.7,2.514-5.55,1.366-2.984,2.78-6.07,4.059-9.146,2.543-6.117,4.786-13.086,2.138-18.386-1.539-3.084-3.66-4.777-6.485-5.177-7.038-1-16.935,6.585-21.867,11.93-.526.569-1.032,1.159-1.54,1.75l-.383.447a.991.991,0,0,1-1.668-1.022c2.127-5.212,4.161-10.782,3.644-16.543-.277-3.086-1.6-5.32-3.811-6.458-2.584-1.328-6.059-.982-9.3.923-6.581,3.875-11.936,10.543-16.741,17.171a3.285,3.285,0,0,0,.8,4.925,4.584,4.584,0,0,0,6.542-.86,71.756,71.756,0,0,1,7.092-8.3.991.991,0,0,1,1.572,1.174q-.56,1.026-1.133,2.047a151.6,151.6,0,0,0-6.988,13.614l-.445,1.025c-3.753,8.627-8.892,20.443-4.366,29.175,2.2,4.242,7.4,4.656,11.407,2.877,5-2.22,8.648-6.838,12.178-11.3.457-.577.91-1.149,1.36-1.709,3.018-3.756,5.827-7.766,8.545-11.644q1.465-2.093,2.946-4.18l.281-.394a73.725,73.725,0,0,1,4.78-6.227l.088-.1A1.082,1.082,0,0,1,181.194,215.5Zm19.638,6.457h0Z" transform="translate(-132.979 -184.841)" fill="#3c384f"/>
      <path id="Path_115017" data-name="Path 115017" d="M142.754,223.269c-3.65,7.336-5.71,15.937-2.5,23.822.474,1.166,2.391.656,1.91-.527-3.01-7.4-1.13-15.395,2.3-22.295C145.032,223.132,143.323,222.126,142.754,223.269Z" transform="translate(-133.031 -185.188)" fill="#3c384f"/>
      <path id="Path_115018" data-name="Path 115018" d="M145.8,244.331c-.017,0-.033-.007-.049-.01-.028-.053-.053-.112-.061-.128l0-.006c0-.008,0,0,0-.014-.128-.443-.219-.891-.316-1.342q-.336-1.568-.673-3.136a1,1,0,0,0-1.219-.692,1.014,1.014,0,0,0-.693,1.219q.38,1.773.762,3.547c.211.984.549,2.275,1.728,2.472a1.015,1.015,0,0,0,1.219-.693A1,1,0,0,0,145.8,244.331Z" transform="translate(-133.069 -185.336)" fill="#3c384f"/>
      <path id="Path_115019" data-name="Path 115019" d="M189.829,201.722c-1.125-.6-2.126,1.11-1,1.711,1.556.83,2.03,2.521,2.092,4.181a28.657,28.657,0,0,1-.447,5.68,37.7,37.7,0,0,1-3.439,10.644c-.566,1.138,1.142,2.143,1.711,1a39.656,39.656,0,0,0,3.846-12.535C193.059,208.832,193.618,203.744,189.829,201.722Z" transform="translate(-133.474 -184.994)" fill="#3c384f"/>
    </g>
    <g id="Group_81068" data-name="Group 81068" transform="translate(0 0)">
      <g id="Group_81067" data-name="Group 81067">
        <g id="Group_81066" data-name="Group 81066">
          <path id="Path_115020" data-name="Path 115020" d="M198.47,219.6c-4.774,4.885-9.707,9.59-14.736,14.212,2.174-4.914,4.518-9.751,6.582-14.716,2.339-5.63,5.058-13.3,2.109-19.21-6.722-13.461-23.714-.254-29.967,6.523-.667.721-1.3,1.475-1.946,2.221,2.233-5.471,4.245-11.093,3.715-17-.73-8.128-8.181-10.078-14.6-6.3-6.889,4.056-12.421,11.072-17.041,17.444-3.924,5.412,5.055,10.564,8.948,5.23a70.467,70.467,0,0,1,6.993-8.182q-.557,1.021-1.126,2.039a152,152,0,0,0-7.034,13.7c-3.917,9.036-9.707,21.545-4.781,31.05,2.483,4.79,8.3,5.276,12.689,3.327,5.893-2.62,9.974-8.4,13.908-13.3,4.107-5.111,7.724-10.538,11.525-15.87a77.839,77.839,0,0,1,4.995-6.539c.042-.047.086-.09.128-.138l-.046.145c-1.01,3.139-2.309,6.151-3.623,9.171-2.446,5.618-5.6,11.532-6.5,17.647-.793,5.406,1.4,11.465,7.9,11.073,6.111-.369,11.01-6.256,15.1-10.188,4.949-4.762,9.809-9.619,14.67-14.47C211.413,222.4,203.484,214.471,198.47,219.6Z" transform="translate(-130.618 -182.479)" fill="#c4d1ff"/>
          <path id="Path_115021" data-name="Path 115021" d="M175.98,253.124a7.764,7.764,0,0,1-5.915-2.454c-2.059-2.242-2.949-5.895-2.381-9.771.739-5.051,2.943-9.891,5.074-14.57.509-1.121,1.015-2.229,1.493-3.327.453-1.041.929-2.135,1.4-3.267-.289.4-.576.8-.859,1.2l-.281.394c-.988,1.385-1.963,2.777-2.938,4.167-2.735,3.9-5.564,7.943-8.623,11.748-.447.557-.9,1.125-1.35,1.7-3.509,4.436-7.485,9.465-12.928,11.885-4.854,2.155-11.209,1.551-13.97-3.777-4.961-9.57.4-21.885,4.306-30.878l.445-1.022c1.15-2.656,2.44-5.25,3.808-7.831q-.474.62-.933,1.247a6.593,6.593,0,0,1-9.307,1.3,5.229,5.229,0,0,1-1.243-7.69c4.931-6.8,10.445-13.657,17.34-17.716,3.828-2.251,8.015-2.617,11.207-.977,2.81,1.444,4.542,4.3,4.879,8.044a30.329,30.329,0,0,1-1.929,12.6c5.089-4.97,14.5-12.02,22.047-10.952,3.468.492,6.153,2.6,7.979,6.254,3,6.014.633,13.5-2.081,20.033-1.292,3.108-2.713,6.211-4.087,9.21l-.486,1.061c4.089-3.834,7.747-7.406,11.1-10.84h0a5.953,5.953,0,0,1,5.931-1.761,7.3,7.3,0,0,1,5.05,5.015,6,6,0,0,1-1.705,6.008l-.553.552c-4.6,4.594-9.361,9.343-14.129,13.93-.588.566-1.191,1.171-1.814,1.8-3.7,3.711-8.307,8.33-13.91,8.668C176.4,253.118,176.192,253.124,175.98,253.124Zm2.843-39.991a.934.934,0,0,1,.48.129.963.963,0,0,1,.469,1.125l-.047.145c-1.058,3.291-2.438,6.463-3.656,9.261-.483,1.108-.993,2.227-1.507,3.358-2.074,4.554-4.218,9.262-4.918,14.036-.475,3.242.246,6.362,1.881,8.143a5.95,5.95,0,0,0,4.978,1.8c4.851-.293,8.983-4.435,12.627-8.09.632-.634,1.246-1.249,1.843-1.823,4.755-4.575,9.508-9.318,14.1-13.906l.552-.552a4.028,4.028,0,0,0,1.193-4.086,5.331,5.331,0,0,0-3.637-3.615,3.969,3.969,0,0,0-4.014,1.228h0c-4.337,4.436-9.169,9.1-14.774,14.249a.991.991,0,0,1-1.576-1.131c.821-1.858,1.668-3.7,2.513-5.551,1.367-2.983,2.78-6.069,4.059-9.146,2.542-6.117,4.786-13.086,2.138-18.387-1.54-3.083-3.661-4.776-6.485-5.177-7.038-1-16.936,6.586-21.868,11.93-.525.57-1.031,1.16-1.539,1.75l-.384.448a.991.991,0,0,1-1.668-1.023c2.128-5.211,4.163-10.782,3.645-16.542-.277-3.087-1.6-5.321-3.811-6.459-2.585-1.327-6.059-.981-9.3.923-6.582,3.874-11.936,10.543-16.741,17.171a3.284,3.284,0,0,0,.8,4.923,4.583,4.583,0,0,0,6.542-.859,71.577,71.577,0,0,1,7.092-8.3.991.991,0,0,1,1.571,1.173q-.56,1.027-1.132,2.048a151.607,151.607,0,0,0-6.989,13.614l-.445,1.025c-3.752,8.627-8.891,20.443-4.365,29.174,2.2,4.243,7.4,4.657,11.407,2.878,5-2.22,8.648-6.839,12.178-11.3q.685-.867,1.359-1.71c3.019-3.755,5.828-7.765,8.546-11.643.977-1.4,1.955-2.791,2.946-4.181l.281-.393a73.751,73.751,0,0,1,4.779-6.226l.089-.1A1.081,1.081,0,0,1,178.822,213.133Zm19.638,6.458h0Z" transform="translate(-130.608 -182.47)"/>
        </g>
        <path id="Path_115022" data-name="Path 115022" d="M140.383,220.9c-3.651,7.336-5.71,15.936-2.5,23.822.475,1.165,2.392.656,1.911-.527-3.011-7.4-1.131-15.395,2.3-22.3C142.66,220.76,140.952,219.755,140.383,220.9Z" transform="translate(-130.66 -182.817)"/>
        <path id="Path_115023" data-name="Path 115023" d="M143.43,241.96c-.017,0-.033-.007-.049-.01-.028-.054-.053-.112-.062-.128l0-.006c0-.008,0,0,0-.015-.128-.442-.22-.891-.316-1.341q-.337-1.568-.673-3.136a1,1,0,0,0-1.22-.692,1.014,1.014,0,0,0-.692,1.219l.761,3.546c.212.985.55,2.276,1.729,2.473a1.016,1.016,0,0,0,1.219-.693A1,1,0,0,0,143.43,241.96Z" transform="translate(-130.698 -182.965)"/>
        <path id="Path_115024" data-name="Path 115024" d="M187.458,199.351c-1.125-.6-2.127,1.11-1,1.711,1.556.83,2.029,2.521,2.092,4.18a28.665,28.665,0,0,1-.447,5.682,37.7,37.7,0,0,1-3.439,10.644c-.567,1.138,1.142,2.143,1.711,1a39.7,39.7,0,0,0,3.846-12.535C190.688,206.46,191.247,201.372,187.458,199.351Z" transform="translate(-131.103 -182.623)"/>
      </g>
    </g>
  </g>
</svg>
