<svg id="bg-card-2" xmlns="http://www.w3.org/2000/svg" xmlns:xlink="http://www.w3.org/1999/xlink" width="567.958" height="309.631" viewBox="0 0 567.958 309.631">
  <defs>
    <clipPath id="clip-path">
      <rect id="Rectangle_342188" data-name="Rectangle 342188" width="567.958" height="309.099" fill="#e5ebff" opacity="0.57"/>
    </clipPath>
    <clipPath id="clip-path-2">
      <rect id="Rectangle_342189" data-name="Rectangle 342189" width="567.958" height="309.099" fill="#ffbfc1" opacity="0.57"/>
    </clipPath>
    <clipPath id="clip-path-3">
      <rect id="Rectangle_342190" data-name="Rectangle 342190" width="567.958" height="309.099" fill="#e6ecff" opacity="0.57"/>
    </clipPath>
    <clipPath id="clip-path-4">
      <path id="Path_717910" data-name="Path 717910" d="M0,0H567.958V309.63H0Z" fill="#e8e8e8" opacity="0.37"/>
    </clipPath>
    <clipPath id="clip-path-5">
      <rect id="Rectangle_342191" data-name="Rectangle 342191" width="196.654" height="125.578" fill="#6b8dfc"/>
    </clipPath>
  </defs>
  <g id="card-bg" transform="translate(0 0)">
    <g id="Mask_Group_989163" data-name="Mask Group 989163" transform="translate(0 0.532)" opacity="0.57" clip-path="url(#clip-path)">
      <g id="Group_991279" data-name="Group 991279" transform="translate(329.234 0)">
        <g id="Group_991277" data-name="Group 991277" transform="translate(11.366 78.979)">
          <path id="Path_717870" data-name="Path 717870" d="M331.4,386.977s-15.3,14.795-16.87,66.39h8.612Z" transform="translate(-286.237 -281.995)" fill="#e5ebff"/>
          <g id="Group_991276" data-name="Group 991276" transform="translate(0 88.399)">
            <path id="Path_717871" data-name="Path 717871" d="M272.76,387.648c.177.7-7.22,13.431-18.654,10.1l-.517-4.335s10.242,3.464,17.712-7.143Z" transform="translate(-251.359 -370.103)" fill="#e5ebff"/>
            <path id="Path_717872" data-name="Path 717872" d="M281.016,439.287l-7.792-70.4s-15.048,6.732-17.19-10.144L253.74,361s2.986,12.273,10.152,13.11c0,0-6.249,4.977-11.337-9.029l-2.729,4s4.195,10.954,13.881,7.362c0,0-9.694,2.807-14.11-4.477l-1.223,4.548s10.431,9.6,19.4,2.9l-3.1,61.15Z" transform="translate(-248.375 -358.746)" fill="#e5ebff"/>
          </g>
          <path id="Path_717873" data-name="Path 717873" d="M354.467,260.351l1.8,79.626,13.929-2.55L368.028,256.4Z" transform="translate(-309.094 -228.118)" fill="#e5ebff"/>
          <path id="Path_717874" data-name="Path 717874" d="M356.789,370.485l-16.076,2.8-11.864,73.21,42.29-.165S376.727,407.179,356.789,370.485Z" transform="translate(-294.432 -275.191)" fill="#e5ebff"/>
          <path id="Path_717875" data-name="Path 717875" d="M380.212,371.007l-7.36,75.77h24.192S399.754,379.239,380.212,371.007Z" transform="translate(-319.616 -275.406)" fill="#e5ebff"/>
          <path id="Path_717876" data-name="Path 717876" d="M350.729,388.754s10.685,2.428,16.821-18.854l-13.829-1.575Z" transform="translate(-306.954 -274.3)" fill="#e5ebff"/>
          <path id="Path_717877" data-name="Path 717877" d="M387.641,383.222l3.923,19.968h-4.427l-2.185,8.711.886-11.286h3.251Z" transform="translate(-326.541 -280.446)" fill="#e5ebff"/>
          <path id="Path_717878" data-name="Path 717878" d="M340.5,393.373l-5.087,15.8h2.9v4.778l1.278-6.938h-1.633Z" transform="translate(-298.19 -284.634)" fill="#e5ebff"/>
          <path id="Path_717879" data-name="Path 717879" d="M355.922,353.1l14.6-15.176V317.3l-13.782,21.1Z" transform="translate(-309.926 -253.246)" fill="#e5ebff"/>
          <path id="Path_717880" data-name="Path 717880" d="M377.912,233.407s14.062-4.674,16.262,18.987S381.1,284.806,381.1,284.806Z" transform="translate(-322.512 -218.477)" fill="#e5ebff"/>
          <path id="Path_717881" data-name="Path 717881" d="M300.769,241.326,287.93,286.137l12.7-1.676.345,8.638s17.7,8.427,18.563-4.384c0,0-.008,15.113-18.562,15.558l.409,11.236s30.225,2.761,26.9-31.56-2.519-38.739-2.519-38.739l-25-3.883Z" transform="translate(-271.013 -221.9)" fill="#e5ebff"/>
          <path id="Path_717882" data-name="Path 717882" d="M327,276.811s-.673,13.967-4.886,9.734c-1.538-1.547.21-11.426.21-11.426s.237,8.458,1.066,9C324.929,285.12,327,276.811,327,276.811Z" transform="translate(-290.216 -235.843)" fill="#e5ebff"/>
          <path id="Path_717883" data-name="Path 717883" d="M345.629,292c.217,2.338-.987,4.477-2.689,4.776s-3.26-1.356-3.477-3.694.987-4.477,2.689-4.775S345.412,289.666,345.629,292Z" transform="translate(-300.492 -241.271)" fill="#e5ebff"/>
          <path id="Path_717884" data-name="Path 717884" d="M334.4,232.908l-39.328-6.565s.018-9.553,13.619-9.449l-7.1-5.333S328.751,195.853,334.4,232.908Z" transform="translate(-275.098 -208.254)" fill="#e5ebff"/>
          <path id="Path_717885" data-name="Path 717885" d="M369.976,260.373l-1.641-19.485L359.75,239.7S349.055,271.956,369.976,260.373Z" transform="translate(-310.553 -221.229)" fill="#e5ebff"/>
          <path id="Path_717886" data-name="Path 717886" d="M393.194,280.816c.289,3.113-1.314,5.958-3.58,6.356s-4.339-1.8-4.627-4.917,1.313-5.959,3.58-6.356S392.9,277.7,393.194,280.816Z" transform="translate(-326.541 -236.145)" fill="#e5ebff"/>
          <path id="Path_717887" data-name="Path 717887" d="M323.132,256.487l9.079.205s-.9-4.827-8.958-4.835Z" transform="translate(-291.16 -226.245)" fill="#e5ebff"/>
          <path id="Path_717888" data-name="Path 717888" d="M286.666,416.476l10.495-1.053,5.77,49.68H285.722Z" transform="translate(-269.749 -293.732)" fill="#e5ebff"/>
          <path id="Path_717889" data-name="Path 717889" d="M282.729,409.972h13.642l1.365,5.4-13.727,1.166Z" transform="translate(-268.037 -291.483)" fill="#e5ebff"/>
          <path id="Path_717890" data-name="Path 717890" d="M401.257,377.149l31.37,35.5-5.007,36.664h-15.1l5.855-30.475-14.039-12.883Z" transform="translate(-335.873 -277.94)" fill="#e5ebff"/>
          <path id="Path_717891" data-name="Path 717891" d="M420.471,437.647l-15.556-14.909,17.59,12.8L415.5,466.978l-.1-4.233Z" transform="translate(-337.966 -296.75)" fill="#e5ebff"/>
          <path id="Path_717892" data-name="Path 717892" d="M384.952,237.469a24.274,24.274,0,0,1,10.977,20.84S399.653,236.922,384.952,237.469Z" transform="translate(-326.541 -220.304)" fill="#e5ebff"/>
          <path id="Path_717893" data-name="Path 717893" d="M300.442,230.886s3.338-4.073,11.042-3.271C311.484,227.616,306.22,220.659,300.442,230.886Z" transform="translate(-278.174 -215.289)" fill="#e5ebff"/>
          <path id="Path_717894" data-name="Path 717894" d="M295.21,274.355l-7.28,25.41,12.7-1.677Z" transform="translate(-271.013 -235.527)" fill="#e5ebff" opacity="0.5"/>
          <path id="Path_717895" data-name="Path 717895" d="M393.816,282.975s-3.658-2.76-4.66,6.069C389.156,289.044,391.565,282.91,393.816,282.975Z" transform="translate(-328.947 -238.915)" fill="#e5ebff"/>
          <path id="Path_717896" data-name="Path 717896" d="M317.818,288.8s17.234,6.089,24.2-12.747-.94-28.8-.94-28.8l5.914-.3s13.687,73.756-29.17,76.26Z" transform="translate(-288.119 -224.216)" fill="#e5ebff"/>
          <path id="Path_717897" data-name="Path 717897" d="M314.12,323.094s13.494,2.884,18.326-4.544c0,0,1.334,21.066-17.772,18.361Z" transform="translate(-286.002 -253.762)" fill="#e5ebff"/>
          <path id="Path_717898" data-name="Path 717898" d="M321.483,349.59s18.527.455,26.268-20.9c0,0-2.492,24.5-26.268,26.616Z" transform="translate(-290.216 -257.948)" fill="#e5ebff"/>
        </g>
        <g id="Group_991278" data-name="Group 991278">
          <path id="Path_717899" data-name="Path 717899" d="M258.013,74.439C234.248,76.672,221.8,91.034,221.8,111.5c0,12.116,3.892,22.8,12.274,29.551a40.692,40.692,0,0,0,3.3,13.266c8.314,17.983,16.021,19.744,16.021,19.744-5.3-8.12-7.257-17.607-7.339-27.038a46.889,46.889,0,0,0,11.954,1.541c41.973.332,55.352-9.714,55.352-34.764C313.365,87.731,303.506,70.164,258.013,74.439Z" transform="translate(-221.798 -73.798)" fill="#e5ebff"/>
        </g>
      </g>
      <rect id="Rectangle_342187" data-name="Rectangle 342187" width="567.958" height="541.166" transform="translate(0 -0.026)" fill="#e5ebff"/>
      <g id="Group_991280" data-name="Group 991280" transform="translate(-6.826 -94.278)" opacity="0.254">
        <path id="Path_717900" data-name="Path 717900" d="M871.235,2140.7c40.266-16.43,65.681-71.538,103.29-97.232,53.091-36.272,118.627-7.395,174.981-32.731,28.228-12.692,52.443-39.865,68.478-74.142H752.194V2087.3c9.909,12.115,20.372,23.259,31.766,32.618C810.043,2141.346,842.1,2152.585,871.235,2140.7Z" transform="translate(-752.194 -1936.593)" fill="#e5ebff" opacity="0.614"/>
        <path id="Path_717901" data-name="Path 717901" d="M7.453,0H522.868c4.116,0,7.453,6.175,7.453,13.792V529.4c0,7.617-3.337,13.792-7.453,13.792H7.453C3.337,543.19,0,537.015,0,529.4V13.792C0,6.175,3.337,0,7.453,0Z" transform="translate(7.424 5.209)" fill="none"/>
      </g>
    </g>
    <g id="Mask_Group_989164" data-name="Mask Group 989164" transform="translate(0 0.532)" clip-path="url(#clip-path-2)">
      <g id="Group_991281" data-name="Group 991281" transform="translate(-314.161 124.959) rotate(30)" opacity="0.254">
        <path id="Path_717902" data-name="Path 717902" d="M352.286,1.955c-41.477,9.865-64.161,54.72-102.093,72.869-53.547,25.62-125.4-6.348-183.267,9.48C37.941,92.233,14.349,113.1,0,140.971l494.656,50L482.877,60.836a300.648,300.648,0,0,0-36.283-31.574C417.22,7.964,382.3-5.181,352.286,1.955Z" transform="translate(0)" fill="#dddeff" opacity="0.614"/>
      </g>
    </g>
    <g id="Mask_Group_989165" data-name="Mask Group 989165" transform="translate(0 0.532)" clip-path="url(#clip-path-3)">
      <g id="Group_991282" data-name="Group 991282" transform="translate(-19.523 -82.596)">
        <path id="Path_717903" data-name="Path 717903" d="M18.807,0H595.959c10.387,0,18.807,10.325,18.807,23.062V338.728c0,12.737-8.421,23.062-18.807,23.062H18.807C8.42,361.79,0,351.465,0,338.728V23.062C0,10.325,8.42,0,18.807,0Z" transform="translate(18.731 48.321)" fill="#e1e8ff"/>
        <path id="Path_717904" data-name="Path 717904" d="M849.153,22.439A296.569,296.569,0,0,0,736.1,0C549.8,0,398.77,174.342,398.77,389.405A449.917,449.917,0,0,0,404.9,463.5H849.153Z" transform="translate(-209.17)" fill="#f7f9ff"/>
        <path id="Path_717905" data-name="Path 717905" d="M255.257,23.783c-27.288,98.61-88.965,167.4-160.687,167.4a116.557,116.557,0,0,1-52.992-13.031V23.783Z" transform="translate(-41.579 -6.977)" fill="#f0f4ff"/>
        <line id="Line_1690" data-name="Line 1690" y2="2.161" transform="translate(96.644 439.839)" fill="#1d2b5e"/>
      </g>
    </g>
    <g id="Group_991287" data-name="Group 991287" transform="translate(0 0)" opacity="0.48" clip-path="url(#clip-path-4)">
      <g id="Group_991284" data-name="Group 991284" transform="translate(203.062 219.025)">
        <g id="Group_991283" data-name="Group 991283">
          <path id="Path_717906" data-name="Path 717906" d="M216.794,48.1c1.211-26.113-15.581-49.21-41.846-48.063-30.1.7-59.837,20.749-90.1,24.024-15.57,2.943-29.37-1.677-44.185-2.109C6.859,24.141-2.789,65.868.657,91.776,13.754,214.238,204.523,177.884,216.794,48.1Z" transform="matrix(0.602, -0.799, 0.799, 0.602, 0, 221.149)" fill="#e4e8f9"/>
          <path id="Path_717907" data-name="Path 717907" d="M.119,38.75C2.118,20.211,18.207,2.075,39.134.339c24.052-2.427,45.613,9,69.5,8.4,12.148.587,23.738-4.056,35.664-5.806,26.853-1.728,29.843,27.146,24.134,45.992C144.011,137.692-4.8,130.281.119,38.75Z" transform="translate(151.377 17.46) rotate(99)" fill="#afb8ee" opacity="0.21" style="mix-blend-mode: multiply;isolation: isolate"/>
        </g>
      </g>
      <g id="Group_991286" data-name="Group 991286" transform="translate(-82.775 219.025)">
        <g id="Group_991285" data-name="Group 991285" transform="translate(0 0)">
          <path id="Path_717908" data-name="Path 717908" d="M156.45,85.715c.874,18.844-11.244,35.512-30.2,34.685-21.722-.507-43.182-14.974-65.021-17.337-11.236-2.124-21.2,1.21-31.886,1.522C4.95,103.008-2.013,72.9.474,54.2,9.925-34.176,147.595-7.942,156.45,85.715Z" transform="matrix(-0.602, -0.799, 0.799, -0.602, 94.181, 232.068)" fill="#f0f4ff" opacity="0.4"/>
          <path id="Path_717909" data-name="Path 717909" d="M.086,52.579C1.528,65.958,13.139,79.046,28.241,80.3,45.6,82.05,61.158,73.8,78.4,74.239c8.767-.424,17.13,2.927,25.737,4.19,19.379,1.247,21.536-19.59,17.417-33.19C103.926-18.823-3.464-13.474.086,52.579Z" transform="translate(160.67 0) rotate(81)" fill="#f0f4ff" opacity="0.55" style="mix-blend-mode: multiply;isolation: isolate"/>
        </g>
      </g>
    </g>
  </g>
  <g id="Group_991290" data-name="Group 991290" transform="translate(371.304 184.053)" opacity="0.12">
    <g id="Mask_Group_989166" data-name="Mask Group 989166" transform="translate(0)" clip-path="url(#clip-path-5)">
      <g id="Group_991289" data-name="Group 991289" transform="translate(32.798 19.912)">
        <path id="Union_159" data-name="Union 159" d="M84.862,180.18c-14.705-.862-26.795-12.645-36.51-22.11-1.633-1.592-3.217-3.137-4.759-4.58-12.513-11.7-25-23.817-37.082-35.534l-1.451-1.405C.615,112.241-.974,106.8.581,101.224A18.9,18.9,0,0,1,13.838,88.432,15.915,15.915,0,0,1,29.4,92.926v0c8.81,8.76,18.411,17.872,29.143,27.653l-1.277-2.707c-3.607-7.653-7.336-15.564-10.727-23.5-3.406-7.963-6.6-16.483-8.147-24.835-1.7-9.224-1.43-18.257,2.686-26.265,4.792-9.329,11.837-14.7,20.939-15.954,19.813-2.725,44.509,15.258,57.862,27.939-3.607-10.229-6.1-20.95-5.06-32.152.881-9.551,5.43-16.838,12.8-20.521C136-1.6,147-.664,157.04,5.081c18.1,10.353,32.568,27.838,45.51,45.189,5.841,7.83,2.569,15.493-3.261,19.616-7.05,4.984-18.112,5.111-24.429-3.3q-1.2-1.6-2.45-3.185c3.591,6.584,6.977,13.2,10,19.975l1.165,2.608c10.266,22.937,24.325,54.351,11.3,78.764-7.245,13.59-23.927,15.13-36.664,9.632-14.287-6.172-24.722-19-33.931-30.317-1.191-1.463-2.369-2.912-3.542-4.329-8.03-9.711-15.454-20.01-22.634-29.968-2.556-3.549-5.115-7.1-7.708-10.631l-.739-1.008Q88.544,96.6,87.4,95.057c1.24,2.886,2.491,5.677,3.68,8.333,1.253,2.8,2.58,5.631,3.919,8.49,5.591,11.935,11.374,24.279,13.317,37.167,1.49,9.885-.845,19.2-6.249,24.921-3.888,4.115-9.232,6.263-15.527,6.263C85.99,180.23,85.429,180.215,84.862,180.18Z" transform="translate(0 5.993)" fill="#5355a7" stroke="rgba(0,0,0,0)" stroke-miterlimit="10" stroke-width="1" opacity="0.412"/>
        <path id="Path_717913" data-name="Path 717913" d="M156.5,275.629c12.529,12.46,25.477,24.463,38.674,36.252-5.705-12.534-11.858-24.873-17.275-37.538-6.14-14.361-13.275-33.936-5.536-49C190,191.006,234.6,224.7,251.01,241.981c1.75,1.84,3.417,3.763,5.107,5.667-5.861-13.957-11.14-28.3-9.749-43.377,1.917-20.733,21.472-25.707,38.307-16.075,18.081,10.345,32.6,28.242,44.725,44.5,10.3,13.805-13.267,26.948-23.485,13.34a181.221,181.221,0,0,0-18.354-20.872q1.463,2.6,2.954,5.2c6.587,11.437,13.093,22.919,18.46,34.955,10.28,23.051,25.477,54.958,12.547,79.2-6.517,12.218-21.794,13.459-33.3,8.487-15.465-6.683-26.176-21.436-36.5-33.921-10.779-13.037-20.271-26.88-30.248-40.483a199.232,199.232,0,0,0-13.109-16.679c-.109-.119-.226-.23-.335-.351l.12.369a249.094,249.094,0,0,0,9.507,23.394c6.42,14.331,14.7,29.417,17.048,45.014,2.08,13.79-3.667,29.245-20.731,28.245-16.04-.94-28.9-15.959-39.62-25.988-12.989-12.147-25.744-24.537-38.5-36.911a14.8,14.8,0,0,1-3.1-4.226C126.736,278.964,144.7,263.892,156.5,275.629Z" transform="translate(-122.789 -180.939)" fill="#8284d2"/>
        <path id="Path_717914" data-name="Path 717914" d="M217.154,362.7c6.3,0,11.637-2.146,15.525-6.261,5.4-5.72,7.739-15.036,6.249-24.923-1.94-12.885-7.723-25.229-13.317-37.167-1.337-2.858-2.663-5.687-3.919-8.487-1.188-2.656-2.439-5.447-3.68-8.333.759,1.026,1.511,2.052,2.255,3.068l.739,1.006c2.593,3.534,5.151,7.085,7.71,10.631,7.177,9.961,14.6,20.26,22.632,29.968q1.759,2.131,3.542,4.332c9.208,11.316,19.644,24.143,33.931,30.317,12.74,5.5,29.419,3.956,36.664-9.635,13.02-24.41-1.038-55.824-11.3-78.764l-1.168-2.606c-3.019-6.776-6.4-13.391-9.993-19.975q1.244,1.581,2.45,3.182c6.314,8.414,17.376,8.288,24.426,3.3,5.83-4.122,9.1-11.786,3.261-19.616-12.943-17.351-27.414-34.836-45.508-45.191-10.046-5.742-21.035-6.675-29.414-2.492-7.375,3.683-11.92,10.967-12.8,20.518-1.035,11.2,1.454,21.926,5.063,32.152-13.356-12.678-38.05-30.661-57.863-27.936-9.1,1.256-16.149,6.624-20.941,15.953-7.882,15.342-1.662,34.439,5.461,51.1,3.391,7.929,7.12,15.842,10.727,23.493l1.277,2.707c-10.732-9.779-20.333-18.89-29.143-27.651h0a15.914,15.914,0,0,0-15.566-4.491,18.9,18.9,0,0,0-13.255,12.792c-1.558,5.573.031,11.015,4.475,15.324l1.451,1.408c12.079,11.717,24.569,23.832,37.082,35.534,1.542,1.443,3.126,2.987,4.761,4.58,9.713,9.465,21.8,21.249,36.508,22.11C216.038,362.682,216.6,362.7,217.154,362.7Zm-7.461-102.012a2.505,2.505,0,0,0-1.259.329,2.429,2.429,0,0,0-1.23,2.869l.122.369a251.773,251.773,0,0,0,9.6,23.624c1.267,2.826,2.606,5.682,3.955,8.566,5.443,11.616,11.07,23.627,12.906,35.8,1.246,8.27-.645,16.229-4.936,20.771-3.178,3.364-7.57,4.891-13.065,4.587-12.732-.748-23.576-11.313-33.14-20.637-1.659-1.618-3.271-3.187-4.837-4.651-12.48-11.669-24.954-23.768-37.017-35.471l-1.449-1.408c-3.929-3.809-3.872-7.77-3.131-10.423a13.8,13.8,0,0,1,9.546-9.22,10.615,10.615,0,0,1,10.534,3.132h0c11.382,11.315,24.065,23.2,38.775,36.348a2.655,2.655,0,0,0,3.274.192,2.48,2.48,0,0,0,.863-3.076c-2.156-4.739-4.376-9.448-6.595-14.159-3.589-7.61-7.3-15.481-10.654-23.329-6.673-15.6-12.56-33.38-5.612-46.9,4.041-7.863,9.609-12.182,17.02-13.206,18.471-2.54,44.449,16.8,57.392,30.431,1.378,1.453,2.707,2.96,4.039,4.464l1.009,1.142a2.643,2.643,0,0,0,3.326.5,2.493,2.493,0,0,0,1.051-3.111c-5.586-13.292-10.924-27.5-9.567-42.2.728-7.876,4.187-13.573,10-16.477,6.785-3.384,15.9-2.5,24.4,2.356,17.275,9.882,31.325,26.892,43.937,43.8,3.986,5.343,1.524,9.991-2.109,12.559-4.92,3.478-12.607,3.887-17.168-2.191a184.072,184.072,0,0,0-18.614-21.165,2.651,2.651,0,0,0-3.4-.243,2.48,2.48,0,0,0-.728,3.235q1.47,2.62,2.97,5.224c6.67,11.581,13.091,22.952,18.343,34.728l1.168,2.613c9.848,22.007,23.334,52.147,11.455,74.419-5.77,10.823-19.428,11.879-29.936,7.342-13.114-5.664-22.7-17.445-31.962-28.834q-1.8-2.21-3.568-4.362c-7.924-9.579-15.3-19.808-22.429-29.7-2.564-3.559-5.131-7.12-7.731-10.666l-.739-1a188.836,188.836,0,0,0-12.542-15.883l-.234-.245A2.876,2.876,0,0,0,209.693,260.686ZM158.153,277.16h0Z" transform="translate(-124.442 -182.47)" fill="#3c3fa7"/>
        <path id="Path_717915" data-name="Path 717915" d="M141.078,221.68c9.583,18.714,14.986,40.649,6.571,60.766-1.246,2.972-6.278,1.673-5.016-1.345,7.9-18.888,2.967-39.269-6.046-56.871C135.1,221.326,139.586,218.764,141.078,221.68Z" transform="translate(45.193 -124.541)" fill="#3c3fa7"/>
        <path id="Path_717916" data-name="Path 717916" d="M142.266,250.282c.044-.005.086-.018.127-.025.073-.139.14-.286.164-.326l.01-.015c.005-.02,0-.008.005-.038.335-1.127.577-2.272.83-3.42q.885-4,1.766-8a2.63,2.63,0,0,1,3.2-1.764,2.578,2.578,0,0,1,1.815,3.109l-2,9.046c-.557,2.512-1.443,5.806-4.538,6.309a2.676,2.676,0,0,1-3.2-1.767A2.551,2.551,0,0,1,142.266,250.282Z" transform="translate(36.108 -99.795)" fill="#3c3fa7"/>
        <path id="Path_717917" data-name="Path 717917" d="M192.678,199.546c2.952-1.532,5.583,2.831,2.624,4.365-4.083,2.118-5.326,6.43-5.49,10.663a71.114,71.114,0,0,0,1.173,14.492,94.27,94.27,0,0,0,9.026,27.15c1.487,2.9-3,5.467-4.491,2.55a99.192,99.192,0,0,1-10.095-31.975C184.2,217.681,182.734,204.7,192.678,199.546Z" transform="translate(-128.795 -156.876)" fill="#3c3fa7"/>
      </g>
    </g>
  </g>
</svg>
