<svg xmlns="http://www.w3.org/2000/svg" width="451.153" height="61" viewBox="0 0 451.153 61">
  <g id="Grupo_991297" data-name="Grupo 991297" transform="translate(-772.433 -3098)">
    <path id="Trazado_717593" data-name="Trazado 717593" d="M10,0H258.153a10,10,0,0,1,10,10V51a10,10,0,0,1-10,10H10A10,10,0,0,1,0,51V10A10,10,0,0,1,10,0Z" transform="translate(955.433 3098)" fill="#fcf2ca"/>
    <path id="Trazado_717594" data-name="Trazado 717594" d="M39.869,5.625l1.4,8.227,4.242-8.227h3.047L46.58,17h-2.3l.563-3.242L45.955,8.7,41.6,17h-1.57L38.5,8.406l-.734,5.6L37.244,17H34.955L36.931,5.625Zm12.2,8.156,2.414-5.234h2.453l-4.945,9.727a4.231,4.231,0,0,1-1.246,1.641,2.723,2.723,0,0,1-1.652.523,5.035,5.035,0,0,1-1.062-.164l.164-1.719.3.016a1.651,1.651,0,0,0,1.578-.789l.484-.9L49.181,8.547h2.281Zm13.125.836q.125-.625-.867-.906l-.711-.18q-2.523-.7-2.453-2.453a2.428,2.428,0,0,1,1.059-1.949,3.942,3.942,0,0,1,2.457-.738,3.536,3.536,0,0,1,2.313.758,2.5,2.5,0,0,1,.9,1.977L65.7,11.117a.963.963,0,0,0-1.078-1.1,1.551,1.551,0,0,0-.895.258,1.061,1.061,0,0,0-.465.7q-.117.625.945.883l.313.07a6.285,6.285,0,0,1,1.648.59,2.488,2.488,0,0,1,.879.824,2.04,2.04,0,0,1,.285,1.18,2.251,2.251,0,0,1-.52,1.406,3.18,3.18,0,0,1-1.359.93,4.736,4.736,0,0,1-1.816.3,3.568,3.568,0,0,1-2.344-.809,2.607,2.607,0,0,1-.953-2.051l2.078.016a1.142,1.142,0,0,0,1.3,1.227,1.845,1.845,0,0,0,1-.25A.987.987,0,0,0,65.2,14.617Zm7.992-6.227a3.39,3.39,0,0,1,1.926.574A3.234,3.234,0,0,1,76.3,10.5a4.762,4.762,0,0,1,.27,2.176,5.143,5.143,0,0,1-1.4,3.262,3.96,3.96,0,0,1-3.02,1.215,3.38,3.38,0,0,1-1.906-.566,3.222,3.222,0,0,1-1.187-1.527,4.657,4.657,0,0,1-.273-2.156A5.3,5.3,0,0,1,70.2,9.578,3.878,3.878,0,0,1,73.189,8.391Zm-2.227,5.32a1.955,1.955,0,0,0,.352,1.184,1.168,1.168,0,0,0,.945.449,1.712,1.712,0,0,0,1.594-.934,4.659,4.659,0,0,0,.539-2.535,2.127,2.127,0,0,0-.363-1.2,1.148,1.148,0,0,0-.949-.465,1.714,1.714,0,0,0-1.574.926A4.611,4.611,0,0,0,70.962,13.711Zm9.727-5.172-.187,1a3.042,3.042,0,0,1,2.461-1.148,2.028,2.028,0,0,1,1.766.875,3.526,3.526,0,0,1,.414,2.359L84.251,17h-2.2l.906-5.4a2.528,2.528,0,0,0,.016-.555.9.9,0,0,0-1-.82,1.9,1.9,0,0,0-1.555.8L79.361,17h-2.2l1.469-8.453Zm12.594.945a2.946,2.946,0,0,1,2.289-1.094,2.143,2.143,0,0,1,1.848.9,3.548,3.548,0,0,1,.441,2.379L96.97,17h-2.2l.9-5.352a2.591,2.591,0,0,0,.016-.562.885.885,0,0,0-.984-.867,1.9,1.9,0,0,0-1.562.766L92.072,17h-2.2L91.947,5h2.211ZM103.58,17a2.281,2.281,0,0,1-.086-.766,2.863,2.863,0,0,1-2.156.922,2.594,2.594,0,0,1-1.84-.723,2.186,2.186,0,0,1-.684-1.746,2.527,2.527,0,0,1,1.16-2.121,5.266,5.266,0,0,1,2.965-.738l1.031.016.109-.508a1.764,1.764,0,0,0,.023-.492.846.846,0,0,0-.277-.574.955.955,0,0,0-.629-.215,1.345,1.345,0,0,0-.875.254,1.231,1.231,0,0,0-.461.777l-2.211.008a2.457,2.457,0,0,1,1.113-1.965,4.312,4.312,0,0,1,2.613-.738,3.117,3.117,0,0,1,2.25.855,2.5,2.5,0,0,1,.68,2.121l-.648,4.047-.039.5a2.412,2.412,0,0,0,.133.938l-.008.148Zm-1.7-1.555a2.017,2.017,0,0,0,1.664-.828l.273-1.461-.766-.008a2.139,2.139,0,0,0-1.758.742,1.292,1.292,0,0,0-.242.633.75.75,0,0,0,.176.668A.891.891,0,0,0,101.884,15.445Zm10.1-.828q.125-.625-.867-.906l-.711-.18q-2.523-.7-2.453-2.453a2.428,2.428,0,0,1,1.059-1.949,3.942,3.942,0,0,1,2.457-.738,3.536,3.536,0,0,1,2.313.758,2.5,2.5,0,0,1,.9,1.977l-2.187-.008a.963.963,0,0,0-1.078-1.1,1.551,1.551,0,0,0-.895.258,1.061,1.061,0,0,0-.465.7q-.117.625.945.883l.313.07a6.285,6.285,0,0,1,1.648.59,2.488,2.488,0,0,1,.879.824,2.04,2.04,0,0,1,.285,1.18,2.251,2.251,0,0,1-.52,1.406,3.18,3.18,0,0,1-1.359.93,4.736,4.736,0,0,1-1.816.3,3.568,3.568,0,0,1-2.344-.809,2.607,2.607,0,0,1-.953-2.051l2.078.016a1.142,1.142,0,0,0,1.3,1.227,1.845,1.845,0,0,0,1-.25A.987.987,0,0,0,111.986,14.617ZM123.978,17a2.281,2.281,0,0,1-.086-.766,2.863,2.863,0,0,1-2.156.922,2.594,2.594,0,0,1-1.84-.723,2.186,2.186,0,0,1-.684-1.746,2.527,2.527,0,0,1,1.16-2.121,5.266,5.266,0,0,1,2.965-.738l1.031.016.109-.508a1.764,1.764,0,0,0,.023-.492.846.846,0,0,0-.277-.574.955.955,0,0,0-.629-.215,1.345,1.345,0,0,0-.875.254,1.231,1.231,0,0,0-.461.777l-2.211.008a2.457,2.457,0,0,1,1.113-1.965,4.312,4.312,0,0,1,2.613-.738,3.117,3.117,0,0,1,2.25.855,2.5,2.5,0,0,1,.68,2.121l-.648,4.047-.039.5a2.412,2.412,0,0,0,.133.938l-.008.148Zm-1.7-1.555a2.017,2.017,0,0,0,1.664-.828l.273-1.461-.766-.008a2.139,2.139,0,0,0-1.758.742,1.292,1.292,0,0,0-.242.633.75.75,0,0,0,.176.668A.891.891,0,0,0,122.283,15.445Zm12.852-.1a1.447,1.447,0,0,0,1.016-.332,1.632,1.632,0,0,0,.531-.926l2.07-.008a3.036,3.036,0,0,1-.559,1.6,3.394,3.394,0,0,1-1.344,1.109,3.847,3.847,0,0,1-1.77.375,3.123,3.123,0,0,1-2.437-1.062,3.965,3.965,0,0,1-.867-2.766l.023-.43.008-.086a5.284,5.284,0,0,1,1.391-3.27,3.761,3.761,0,0,1,2.914-1.16,3.047,3.047,0,0,1,2.27.934A3.3,3.3,0,0,1,139.2,11.7H137.15a1.73,1.73,0,0,0-.3-1.07,1.128,1.128,0,0,0-.891-.422q-1.578-.047-1.914,2.3a7.783,7.783,0,0,0-.086,1.438Q134.041,15.32,135.134,15.344Zm8.484,1.813a3.677,3.677,0,0,1-1.965-.543,3.292,3.292,0,0,1-1.277-1.469,4.093,4.093,0,0,1-.328-2.059l.023-.312a5.465,5.465,0,0,1,.719-2.266,4.341,4.341,0,0,1,1.547-1.59,3.827,3.827,0,0,1,2.094-.527,2.926,2.926,0,0,1,2.473,1.2,4.105,4.105,0,0,1,.637,2.957l-.125.961h-5.18a1.814,1.814,0,0,0,.4,1.313,1.521,1.521,0,0,0,1.172.508,2.712,2.712,0,0,0,2.109-.93l1.008,1.25a3.135,3.135,0,0,1-1.375,1.121A4.5,4.5,0,0,1,143.619,17.156Zm.7-6.945a1.565,1.565,0,0,0-1.082.383,3.363,3.363,0,0,0-.848,1.383h3.031l.047-.2a2.071,2.071,0,0,0,.008-.594,1.134,1.134,0,0,0-.383-.707A1.2,1.2,0,0,0,144.322,10.211ZM150.4,17h-2.219l2.086-12h2.211Zm4.2,0h-2.219l2.086-12h2.211Zm13.93-4.2a6.981,6.981,0,0,1-.7,2.359,3.826,3.826,0,0,1-1.32,1.531,3.058,3.058,0,0,1-1.75.477,2.44,2.44,0,0,1-1.937-.914l-.773,4h-2.2l2.023-11.7,2.031-.008-.148.852a2.7,2.7,0,0,1,2.156-1,2.4,2.4,0,0,1,1.93.9,3.922,3.922,0,0,1,.734,2.363A9.131,9.131,0,0,1,168.525,12.8Zm-2.187-.164.047-.75a2.084,2.084,0,0,0-.277-1.2,1,1,0,0,0-.855-.461,1.819,1.819,0,0,0-1.586.813l-.633,3.484a1.233,1.233,0,0,0,1.242.82,1.591,1.591,0,0,0,1.328-.617A4.223,4.223,0,0,0,166.337,12.633Zm6.242-3.148a2.946,2.946,0,0,1,2.289-1.094,2.143,2.143,0,0,1,1.848.9,3.548,3.548,0,0,1,.441,2.379L176.267,17h-2.2l.9-5.352a2.591,2.591,0,0,0,.016-.562.885.885,0,0,0-.984-.867,1.9,1.9,0,0,0-1.562.766L171.369,17h-2.2l2.078-12h2.211Zm10.242-1.094a3.39,3.39,0,0,1,1.926.574,3.234,3.234,0,0,1,1.188,1.539,4.761,4.761,0,0,1,.27,2.176,5.143,5.143,0,0,1-1.4,3.262,3.96,3.96,0,0,1-3.02,1.215,3.38,3.38,0,0,1-1.906-.566,3.222,3.222,0,0,1-1.187-1.527,4.657,4.657,0,0,1-.273-2.156,5.3,5.3,0,0,1,1.422-3.328A3.878,3.878,0,0,1,182.822,8.391Zm-2.227,5.32a1.956,1.956,0,0,0,.352,1.184,1.168,1.168,0,0,0,.945.449,1.712,1.712,0,0,0,1.594-.934,4.659,4.659,0,0,0,.539-2.535,2.127,2.127,0,0,0-.363-1.2,1.148,1.148,0,0,0-.949-.465,1.714,1.714,0,0,0-1.574.926A4.611,4.611,0,0,0,180.6,13.711Zm9.727-5.172-.187,1A3.042,3.042,0,0,1,192.6,8.391a2.028,2.028,0,0,1,1.766.875,3.526,3.526,0,0,1,.414,2.359L193.884,17h-2.2l.906-5.4a2.527,2.527,0,0,0,.016-.555.9.9,0,0,0-1-.82,1.9,1.9,0,0,0-1.555.8L188.994,17h-2.2l1.469-8.453Zm9.3,8.617a3.677,3.677,0,0,1-1.965-.543,3.292,3.292,0,0,1-1.277-1.469,4.093,4.093,0,0,1-.328-2.059l.023-.312a5.465,5.465,0,0,1,.719-2.266,4.341,4.341,0,0,1,1.547-1.59,3.827,3.827,0,0,1,2.094-.527,2.926,2.926,0,0,1,2.473,1.2,4.105,4.105,0,0,1,.637,2.957l-.125.961h-5.18a1.814,1.814,0,0,0,.4,1.313,1.521,1.521,0,0,0,1.172.508,2.712,2.712,0,0,0,2.109-.93l1.008,1.25a3.135,3.135,0,0,1-1.375,1.121A4.5,4.5,0,0,1,199.626,17.156Zm.7-6.945a1.565,1.565,0,0,0-1.082.383,3.363,3.363,0,0,0-.848,1.383h3.031l.047-.2a2.071,2.071,0,0,0,.008-.594,1.134,1.134,0,0,0-.383-.707A1.2,1.2,0,0,0,200.33,10.211Zm5.289,4.461a1.22,1.22,0,0,1,.895.324,1.111,1.111,0,0,1,.371.855,1.151,1.151,0,0,1-.344.879,1.323,1.323,0,0,1-1.766.051,1.149,1.149,0,0,1-.375-.852,1.161,1.161,0,0,1,.336-.883A1.238,1.238,0,0,1,205.619,14.672Z" transform="translate(968 3108)" fill="#12263f"/>
    <path id="Trazado_717597" data-name="Trazado 717597" d="M43.634,5.625l3.719,9.281,3.719-9.281h1.945V17h-1.5V12.57l.141-4.781L47.923,17H46.775L43.048,7.813,43.2,12.57V17H41.7V5.625ZM57.009,17H55.564V8.547h1.445ZM55.447,6.3a.863.863,0,0,1,.215-.594.807.807,0,0,1,.637-.242.819.819,0,0,1,.641.242.854.854,0,0,1,.219.594.826.826,0,0,1-.219.586.834.834,0,0,1-.641.234.821.821,0,0,1-.637-.234A.834.834,0,0,1,55.447,6.3ZM64.728,9.57a3.073,3.073,0,0,1,2.5-1.18q2.68,0,2.7,3.023V17H68.486V11.406a1.946,1.946,0,0,0-.418-1.352,1.675,1.675,0,0,0-1.277-.437,2.086,2.086,0,0,0-1.234.375,2.546,2.546,0,0,0-.828.984V17H63.283V5h1.445ZM73.666,17H72.22V8.547h1.445ZM72.1,6.3a.863.863,0,0,1,.215-.594.807.807,0,0,1,.637-.242.819.819,0,0,1,.641.242.854.854,0,0,1,.219.594.826.826,0,0,1-.219.586.834.834,0,0,1-.641.234.821.821,0,0,1-.637-.234A.834.834,0,0,1,72.1,6.3ZM77.47,8.547v9.43q0,2.438-2.211,2.438a2.682,2.682,0,0,1-.883-.141V19.117a2.794,2.794,0,0,0,.656.063.982.982,0,0,0,.738-.262,1.294,1.294,0,0,0,.254-.91V8.547ZM75.876,6.3a.867.867,0,0,1,.215-.59.79.79,0,0,1,.629-.246.819.819,0,0,1,.641.242.854.854,0,0,1,.219.594.826.826,0,0,1-.219.586.834.834,0,0,1-.641.234.808.808,0,0,1-.633-.234A.843.843,0,0,1,75.876,6.3ZM79.416,12.7a4.993,4.993,0,0,1,.488-2.234A3.643,3.643,0,0,1,81.263,8.93a3.7,3.7,0,0,1,1.988-.539,3.565,3.565,0,0,1,2.793,1.2,4.6,4.6,0,0,1,1.066,3.18v.1a5.036,5.036,0,0,1-.473,2.215,3.589,3.589,0,0,1-1.352,1.527,3.743,3.743,0,0,1-2.02.547,3.556,3.556,0,0,1-2.785-1.2A4.575,4.575,0,0,1,79.416,12.8Zm1.453.172a3.616,3.616,0,0,0,.652,2.258,2.211,2.211,0,0,0,3.5-.012,3.955,3.955,0,0,0,.648-2.418,3.61,3.61,0,0,0-.66-2.254,2.1,2.1,0,0,0-1.754-.863,2.075,2.075,0,0,0-1.727.852A3.925,3.925,0,0,0,80.869,12.867ZM94.845,6.5V8.547h1.578V9.664H94.845v5.242a1.171,1.171,0,0,0,.211.762.888.888,0,0,0,.719.254,3.5,3.5,0,0,0,.688-.094V17a4.19,4.19,0,0,1-1.109.156,1.8,1.8,0,0,1-1.461-.586,2.517,2.517,0,0,1-.492-1.664V9.664H91.861V8.547H93.4V6.5ZM99.681,17H98.236V8.547h1.445ZM98.119,6.3a.863.863,0,0,1,.215-.594.807.807,0,0,1,.637-.242.819.819,0,0,1,.641.242.854.854,0,0,1,.219.594.826.826,0,0,1-.219.586.834.834,0,0,1-.641.234.821.821,0,0,1-.637-.234A.834.834,0,0,1,98.119,6.3ZM105.5,17.156a3.693,3.693,0,0,1-2.8-1.129,4.19,4.19,0,0,1-1.078-3.02v-.266a5.073,5.073,0,0,1,.48-2.246,3.748,3.748,0,0,1,1.344-1.547,3.378,3.378,0,0,1,1.871-.559,3.166,3.166,0,0,1,2.563,1.086,4.7,4.7,0,0,1,.914,3.109v.6h-5.727a3,3,0,0,0,.73,2.02,2.3,2.3,0,0,0,1.777.77,2.517,2.517,0,0,0,1.3-.312,3.259,3.259,0,0,0,.93-.828l.883.688A3.55,3.55,0,0,1,105.5,17.156Zm-.18-7.578a1.928,1.928,0,0,0-1.469.637A3.1,3.1,0,0,0,103.119,12h4.234v-.109a2.753,2.753,0,0,0-.594-1.707A1.815,1.815,0,0,0,105.322,9.578Zm6.516-1.031.047,1.063a3.08,3.08,0,0,1,2.531-1.219q2.68,0,2.7,3.023V17h-1.445V11.406a1.946,1.946,0,0,0-.418-1.352,1.675,1.675,0,0,0-1.277-.437,2.086,2.086,0,0,0-1.234.375,2.546,2.546,0,0,0-.828.984V17H110.47V8.547Zm10.969,8.609a3.693,3.693,0,0,1-2.8-1.129,4.19,4.19,0,0,1-1.078-3.02v-.266a5.073,5.073,0,0,1,.48-2.246,3.748,3.748,0,0,1,1.344-1.547,3.378,3.378,0,0,1,1.871-.559,3.166,3.166,0,0,1,2.563,1.086,4.7,4.7,0,0,1,.914,3.109v.6h-5.727a3,3,0,0,0,.73,2.02,2.3,2.3,0,0,0,1.777.77,2.517,2.517,0,0,0,1.3-.312,3.259,3.259,0,0,0,.93-.828l.883.688A3.55,3.55,0,0,1,122.806,17.156Zm-.18-7.578a1.928,1.928,0,0,0-1.469.637A3.1,3.1,0,0,0,120.423,12h4.234v-.109a2.753,2.753,0,0,0-.594-1.707A1.815,1.815,0,0,0,122.626,9.578Zm14.328,6.586a3.07,3.07,0,0,1-2.477.992,2.628,2.628,0,0,1-2.059-.785,3.4,3.4,0,0,1-.715-2.324v-5.5h1.445v5.461q0,1.922,1.563,1.922a2.163,2.163,0,0,0,2.2-1.234V8.547h1.445V17h-1.375Zm4.969-7.617.047,1.063A3.08,3.08,0,0,1,144.5,8.391q2.68,0,2.7,3.023V17h-1.445V11.406a1.946,1.946,0,0,0-.418-1.352,1.675,1.675,0,0,0-1.277-.437,2.086,2.086,0,0,0-1.234.375,2.546,2.546,0,0,0-.828.984V17h-1.445V8.547Zm14.813,7.43a2.082,2.082,0,0,0,1.352-.469,1.649,1.649,0,0,0,.641-1.172H160.1a2.621,2.621,0,0,1-.5,1.383,3.293,3.293,0,0,1-1.23,1.047,3.55,3.55,0,0,1-1.629.391A3.482,3.482,0,0,1,153.99,16a4.59,4.59,0,0,1-1.02-3.152v-.242a5.089,5.089,0,0,1,.453-2.2,3.451,3.451,0,0,1,1.3-1.492,3.7,3.7,0,0,1,2-.531,3.39,3.39,0,0,1,2.363.852,3.043,3.043,0,0,1,1,2.211h-1.367a1.992,1.992,0,0,0-.621-1.348,1.932,1.932,0,0,0-1.379-.527,2.023,2.023,0,0,0-1.707.793,3.724,3.724,0,0,0-.605,2.293v.273a3.65,3.65,0,0,0,.6,2.25A2.033,2.033,0,0,0,156.736,15.977Zm8.492,1.18a3.693,3.693,0,0,1-2.8-1.129,4.19,4.19,0,0,1-1.078-3.02v-.266a5.073,5.073,0,0,1,.48-2.246,3.748,3.748,0,0,1,1.344-1.547,3.378,3.378,0,0,1,1.871-.559,3.166,3.166,0,0,1,2.563,1.086,4.7,4.7,0,0,1,.914,3.109v.6H162.8a3,3,0,0,0,.73,2.02,2.3,2.3,0,0,0,1.777.77,2.517,2.517,0,0,0,1.3-.312,3.258,3.258,0,0,0,.93-.828l.883.688A3.55,3.55,0,0,1,165.228,17.156Zm-.18-7.578a1.928,1.928,0,0,0-1.469.637A3.1,3.1,0,0,0,162.845,12h4.234v-.109a2.753,2.753,0,0,0-.594-1.707A1.815,1.815,0,0,0,165.048,9.578ZM171.767,17h-1.445V5h1.445Zm7.531-.836a3.07,3.07,0,0,1-2.477.992,2.628,2.628,0,0,1-2.059-.785,3.4,3.4,0,0,1-.715-2.324v-5.5h1.445v5.461q0,1.922,1.563,1.922a2.163,2.163,0,0,0,2.2-1.234V8.547H180.7V17H179.33ZM184.47,17h-1.445V5h1.445ZM192,17a3.036,3.036,0,0,1-.2-.891,3.225,3.225,0,0,1-2.406,1.047,2.984,2.984,0,0,1-2.051-.707,2.287,2.287,0,0,1-.8-1.793,2.39,2.39,0,0,1,1-2.051,4.733,4.733,0,0,1,2.824-.73h1.406v-.664A1.623,1.623,0,0,0,191.322,10a1.821,1.821,0,0,0-1.336-.449,2.107,2.107,0,0,0-1.3.391,1.151,1.151,0,0,0-.523.945h-1.453a2,2,0,0,1,.449-1.223,3.066,3.066,0,0,1,1.219-.934,4.1,4.1,0,0,1,1.691-.344,3.342,3.342,0,0,1,2.289.73,2.635,2.635,0,0,1,.859,2.012v3.891a4.757,4.757,0,0,0,.3,1.852V17Zm-2.4-1.1a2.54,2.54,0,0,0,1.289-.352,2.127,2.127,0,0,0,.883-.914V12.9h-1.133q-2.656,0-2.656,1.555a1.316,1.316,0,0,0,.453,1.063A1.742,1.742,0,0,0,189.6,15.9Zm9.969-6.055a4.331,4.331,0,0,0-.711-.055A1.9,1.9,0,0,0,196.931,11v6h-1.445V8.547h1.406l.023.977a2.251,2.251,0,0,1,2.016-1.133,1.477,1.477,0,0,1,.641.109Zm.4,6.4a.905.905,0,0,1,.223-.625.848.848,0,0,1,.668-.25.874.874,0,0,1,.676.25.887.887,0,0,1,.23.625.839.839,0,0,1-.23.6.89.89,0,0,1-.676.242.8.8,0,0,1-.891-.844Z" transform="translate(968 3129)" fill="#777"/>
    <g id="Grupo_991292" data-name="Grupo 991292" transform="translate(892.433 3121.957)">
      <path id="Trazado_601927" data-name="Trazado 601927" d="M-5521.9-9516h49.549" transform="translate(5521.897 9522)" fill="none" stroke="#3c3fa7" stroke-linecap="round" stroke-width="2"/>
      <g id="Polígono_156" data-name="Polígono 156" transform="translate(54.999 0) rotate(90)" fill="#3c3fa7">
        <path d="M 10.31546020507812 10.49999618530273 L 1.684540033340454 10.49999618530273 C 1.427629947662354 10.49999618530273 1.298280000686646 10.32882595062256 1.254590034484863 10.25523567199707 C 1.210899949073792 10.18163585662842 1.122570037841797 9.986115455627441 1.245599985122681 9.760576248168945 L 5.561049938201904 1.848905920982361 C 5.689330101013184 1.613725900650024 5.910749912261963 1.588335871696472 6 1.588335871696472 C 6.089250087738037 1.588335871696472 6.310669898986816 1.613725900650024 6.438950061798096 1.848905920982361 L 10.7544002532959 9.760576248168945 C 10.8774299621582 9.986115455627441 10.78909969329834 10.18163585662842 10.74540996551514 10.25523567199707 C 10.70172023773193 10.32882595062256 10.57236957550049 10.49999618530273 10.31546020507812 10.49999618530273 Z" stroke="none"/>
        <path d="M 6 2.088325500488281 L 1.68486499786377 9.999996185302734 L 10.31529712677002 9.999715805053711 L 6.000010013580322 2.088335990905762 C 6.000007629394531 2.08833122253418 6.000008106231689 2.088325500488281 6 2.088325500488281 M 6 1.08833122253418 C 6.344194889068604 1.08833122253418 6.688389778137207 1.262045860290527 6.877900123596191 1.609476089477539 L 11.19334983825684 9.521145820617676 C 11.55683040618896 10.18752574920654 11.07452011108398 10.99999618530273 10.31546020507812 10.99999618530273 L 1.684539794921875 10.99999618530273 C 0.9254798889160156 10.99999618530273 0.4431695938110352 10.18752574920654 0.8066501617431641 9.521145820617676 L 5.122099876403809 1.609476089477539 C 5.311610221862793 1.262045860290527 5.655805110931396 1.08833122253418 6 1.08833122253418 Z" stroke="none" fill="#3c3fa7"/>
      </g>
    </g>
    <path id="Trazado_717592" data-name="Trazado 717592" d="M10,0H120.588a10,10,0,0,1,10,10V38.652a10,10,0,0,1-10,10H10a10,10,0,0,1-10-10V10A10,10,0,0,1,10,0Z" transform="translate(772.433 3104)" fill="#fff0b5"/>
    <path id="Trazado_717595" data-name="Trazado 717595" d="M14.821,13.961q.164-.93-.914-1.422l-1.508-.6Q9.774,10.766,9.907,8.711a2.964,2.964,0,0,1,.625-1.687,3.758,3.758,0,0,1,1.6-1.152,5.67,5.67,0,0,1,2.227-.4,3.857,3.857,0,0,1,2.664.98,3.267,3.267,0,0,1,1,2.543H15.743a1.628,1.628,0,0,0-.34-1.2,1.531,1.531,0,0,0-1.176-.445,2.37,2.37,0,0,0-1.359.355,1.458,1.458,0,0,0-.687,1.02q-.148.852,1.141,1.352l1.031.391.594.273q2.3,1.141,2.156,3.2a3.09,3.09,0,0,1-.645,1.738A3.633,3.633,0,0,1,14.9,16.8a5.565,5.565,0,0,1-2.176.367,4.873,4.873,0,0,1-2.156-.508,3.349,3.349,0,0,1-1.437-1.367,3.54,3.54,0,0,1-.43-1.875l2.289.008q-.109,1.852,1.82,1.883a2.392,2.392,0,0,0,1.375-.367A1.43,1.43,0,0,0,14.821,13.961Zm7.688-7.492-.367,2.078h1.406L23.258,10.2H21.852l-.719,4.234a1.077,1.077,0,0,0,.063.609q.109.211.531.227.125.008.672-.039l-.156,1.727a3.706,3.706,0,0,1-1.266.18,1.985,1.985,0,0,1-1.617-.68,2.456,2.456,0,0,1-.437-1.8l.727-4.461h-1.2l.289-1.656h1.2L20.3,6.469ZM28.25,17a2.281,2.281,0,0,1-.086-.766,2.863,2.863,0,0,1-2.156.922,2.594,2.594,0,0,1-1.84-.723,2.186,2.186,0,0,1-.684-1.746,2.527,2.527,0,0,1,1.16-2.121,5.266,5.266,0,0,1,2.965-.738l1.031.016.109-.508a1.764,1.764,0,0,0,.023-.492.846.846,0,0,0-.277-.574.955.955,0,0,0-.629-.215,1.345,1.345,0,0,0-.875.254,1.231,1.231,0,0,0-.461.777l-2.211.008a2.457,2.457,0,0,1,1.113-1.965,4.312,4.312,0,0,1,2.613-.738,3.117,3.117,0,0,1,2.25.855,2.5,2.5,0,0,1,.68,2.121l-.648,4.047-.039.5a2.412,2.412,0,0,0,.133.938L30.415,17Zm-1.7-1.555a2.017,2.017,0,0,0,1.664-.828l.273-1.461-.766-.008a2.139,2.139,0,0,0-1.758.742,1.292,1.292,0,0,0-.242.633.75.75,0,0,0,.176.668A.891.891,0,0,0,26.555,15.445Zm9.672-8.977L35.86,8.547h1.406L36.977,10.2H35.571l-.719,4.234a1.077,1.077,0,0,0,.063.609q.109.211.531.227.125.008.672-.039l-.156,1.727a3.706,3.706,0,0,1-1.266.18,1.985,1.985,0,0,1-1.617-.68,2.456,2.456,0,0,1-.437-1.8l.727-4.461h-1.2l.289-1.656h1.2l.359-2.078Zm4.867,10.688a3.677,3.677,0,0,1-1.965-.543,3.292,3.292,0,0,1-1.277-1.469,4.093,4.093,0,0,1-.328-2.059l.023-.312a5.465,5.465,0,0,1,.719-2.266,4.341,4.341,0,0,1,1.547-1.59,3.827,3.827,0,0,1,2.094-.527,2.926,2.926,0,0,1,2.473,1.2,4.105,4.105,0,0,1,.637,2.957l-.125.961h-5.18a1.814,1.814,0,0,0,.4,1.313,1.521,1.521,0,0,0,1.172.508,2.712,2.712,0,0,0,2.109-.93l1.008,1.25a3.135,3.135,0,0,1-1.375,1.121A4.5,4.5,0,0,1,41.094,17.156Zm.7-6.945a1.565,1.565,0,0,0-1.082.383,3.363,3.363,0,0,0-.848,1.383H42.9l.047-.2a2.071,2.071,0,0,0,.008-.594,1.134,1.134,0,0,0-.383-.707A1.2,1.2,0,0,0,41.8,10.211Zm7.266-1.672-.18.961A3.112,3.112,0,0,1,51.36,8.391a2.379,2.379,0,0,1,1.3.359,1.679,1.679,0,0,1,.7.93,3.255,3.255,0,0,1,2.625-1.289,2.126,2.126,0,0,1,1.754.8,3.271,3.271,0,0,1,.5,2.234l-.016.2L57.313,17H55.1l.9-5.4a3.9,3.9,0,0,0,.023-.539.837.837,0,0,0-.937-.844,1.86,1.86,0,0,0-1.555.969l-.023.18L52.524,17h-2.2l.9-5.383a3.9,3.9,0,0,0,.023-.539.836.836,0,0,0-.93-.852,1.867,1.867,0,0,0-1.508.789L47.75,17h-2.2l1.461-8.453Zm14.016,8.617a3.677,3.677,0,0,1-1.965-.543,3.292,3.292,0,0,1-1.277-1.469,4.093,4.093,0,0,1-.328-2.059l.023-.312a5.465,5.465,0,0,1,.719-2.266A4.341,4.341,0,0,1,61.8,8.918a3.827,3.827,0,0,1,2.094-.527,2.926,2.926,0,0,1,2.473,1.2A4.105,4.105,0,0,1,67,12.547l-.125.961H61.7a1.814,1.814,0,0,0,.4,1.313,1.521,1.521,0,0,0,1.172.508,2.712,2.712,0,0,0,2.109-.93l1.008,1.25a3.135,3.135,0,0,1-1.375,1.121A4.5,4.5,0,0,1,63.079,17.156Zm.7-6.945a1.565,1.565,0,0,0-1.082.383,3.363,3.363,0,0,0-.848,1.383h3.031l.047-.2a2.071,2.071,0,0,0,.008-.594,1.134,1.134,0,0,0-.383-.707A1.2,1.2,0,0,0,63.782,10.211Zm7.234-1.672-.187,1A3.042,3.042,0,0,1,73.29,8.391a2.028,2.028,0,0,1,1.766.875,3.526,3.526,0,0,1,.414,2.359L74.579,17h-2.2l.906-5.4a2.528,2.528,0,0,0,.016-.555.9.9,0,0,0-1-.82,1.9,1.9,0,0,0-1.555.8L69.688,17h-2.2l1.469-8.453Zm9.758-2.07-.367,2.078h1.406L81.524,10.2H80.118L79.4,14.438a1.077,1.077,0,0,0,.063.609q.109.211.531.227.125.008.672-.039l-.156,1.727a3.706,3.706,0,0,1-1.266.18,1.985,1.985,0,0,1-1.617-.68,2.456,2.456,0,0,1-.437-1.8l.727-4.461h-1.2l.289-1.656h1.2l.359-2.078Z" transform="translate(792.433 3108)" fill="#12263f"/>
    <path id="Trazado_717596" data-name="Trazado 717596" d="M4.348,17V5.625H7.559a5.169,5.169,0,0,1,2.625.656,4.438,4.438,0,0,1,1.762,1.867,6.078,6.078,0,0,1,.629,2.781v.727a6.1,6.1,0,0,1-.621,2.82,4.369,4.369,0,0,1-1.773,1.859A5.5,5.5,0,0,1,7.5,17Zm1.5-10.141v8.914H7.426a3.435,3.435,0,0,0,2.7-1.078,4.452,4.452,0,0,0,.965-3.07v-.664a4.522,4.522,0,0,0-.91-3.012A3.24,3.24,0,0,0,7.6,6.859Zm12.273,10.3a3.693,3.693,0,0,1-2.8-1.129,4.19,4.19,0,0,1-1.078-3.02v-.266a5.073,5.073,0,0,1,.48-2.246,3.748,3.748,0,0,1,1.344-1.547,3.378,3.378,0,0,1,1.871-.559A3.166,3.166,0,0,1,20.5,9.477a4.7,4.7,0,0,1,.914,3.109v.6H15.692a3,3,0,0,0,.73,2.02,2.3,2.3,0,0,0,1.777.77,2.517,2.517,0,0,0,1.3-.312,3.259,3.259,0,0,0,.93-.828l.883.688A3.55,3.55,0,0,1,18.122,17.156Zm-.18-7.578a1.928,1.928,0,0,0-1.469.637A3.1,3.1,0,0,0,15.739,12h4.234v-.109a2.753,2.753,0,0,0-.594-1.707A1.815,1.815,0,0,0,17.942,9.578Zm8.539,6.4a2.082,2.082,0,0,0,1.352-.469,1.649,1.649,0,0,0,.641-1.172H29.84a2.621,2.621,0,0,1-.5,1.383,3.293,3.293,0,0,1-1.23,1.047,3.55,3.55,0,0,1-1.629.391A3.482,3.482,0,0,1,23.735,16a4.59,4.59,0,0,1-1.02-3.152v-.242a5.089,5.089,0,0,1,.453-2.2,3.451,3.451,0,0,1,1.3-1.492,3.7,3.7,0,0,1,2-.531,3.39,3.39,0,0,1,2.363.852,3.043,3.043,0,0,1,1,2.211H28.473a1.992,1.992,0,0,0-.621-1.348,1.932,1.932,0,0,0-1.379-.527,2.023,2.023,0,0,0-1.707.793,3.724,3.724,0,0,0-.605,2.293v.273a3.65,3.65,0,0,0,.6,2.25A2.033,2.033,0,0,0,26.481,15.977ZM33.036,17H31.59V5h1.445Zm7.531,0a3.036,3.036,0,0,1-.2-.891,3.225,3.225,0,0,1-2.406,1.047,2.984,2.984,0,0,1-2.051-.707,2.287,2.287,0,0,1-.8-1.793,2.39,2.39,0,0,1,1-2.051,4.733,4.733,0,0,1,2.824-.73H40.34v-.664A1.623,1.623,0,0,0,39.887,10a1.821,1.821,0,0,0-1.336-.449,2.107,2.107,0,0,0-1.3.391,1.151,1.151,0,0,0-.523.945H35.278a2,2,0,0,1,.449-1.223,3.066,3.066,0,0,1,1.219-.934,4.1,4.1,0,0,1,1.691-.344,3.342,3.342,0,0,1,2.289.73,2.635,2.635,0,0,1,.859,2.012v3.891a4.757,4.757,0,0,0,.3,1.852V17Zm-2.4-1.1a2.54,2.54,0,0,0,1.289-.352,2.127,2.127,0,0,0,.883-.914V12.9H39.208q-2.656,0-2.656,1.555A1.316,1.316,0,0,0,37,15.516,1.742,1.742,0,0,0,38.168,15.9Zm9.969-6.055a4.331,4.331,0,0,0-.711-.055A1.9,1.9,0,0,0,45.5,11v6H44.051V8.547h1.406l.023.977A2.251,2.251,0,0,1,47.5,8.391a1.477,1.477,0,0,1,.641.109ZM54.372,17a3.036,3.036,0,0,1-.2-.891,3.225,3.225,0,0,1-2.406,1.047,2.984,2.984,0,0,1-2.051-.707,2.287,2.287,0,0,1-.8-1.793,2.39,2.39,0,0,1,1-2.051,4.733,4.733,0,0,1,2.824-.73h1.406v-.664A1.623,1.623,0,0,0,53.692,10a1.821,1.821,0,0,0-1.336-.449,2.107,2.107,0,0,0-1.3.391,1.151,1.151,0,0,0-.523.945H49.083a2,2,0,0,1,.449-1.223,3.066,3.066,0,0,1,1.219-.934,4.1,4.1,0,0,1,1.691-.344,3.342,3.342,0,0,1,2.289.73,2.635,2.635,0,0,1,.859,2.012v3.891a4.757,4.757,0,0,0,.3,1.852V17Zm-2.4-1.1a2.54,2.54,0,0,0,1.289-.352,2.127,2.127,0,0,0,.883-.914V12.9H53.012q-2.656,0-2.656,1.555a1.316,1.316,0,0,0,.453,1.063A1.742,1.742,0,0,0,51.973,15.9Zm9.273.078a2.082,2.082,0,0,0,1.352-.469,1.649,1.649,0,0,0,.641-1.172h1.367a2.621,2.621,0,0,1-.5,1.383,3.293,3.293,0,0,1-1.23,1.047,3.55,3.55,0,0,1-1.629.391A3.482,3.482,0,0,1,58.5,16a4.59,4.59,0,0,1-1.02-3.152v-.242a5.089,5.089,0,0,1,.453-2.2,3.451,3.451,0,0,1,1.3-1.492,3.7,3.7,0,0,1,2-.531,3.39,3.39,0,0,1,2.363.852,3.043,3.043,0,0,1,1,2.211H63.239a1.992,1.992,0,0,0-.621-1.348,1.932,1.932,0,0,0-1.379-.527,2.023,2.023,0,0,0-1.707.793,3.724,3.724,0,0,0-.605,2.293v.273a3.65,3.65,0,0,0,.6,2.25A2.033,2.033,0,0,0,61.247,15.977ZM67.8,17H66.356V8.547H67.8ZM66.239,6.3a.863.863,0,0,1,.215-.594.807.807,0,0,1,.637-.242.819.819,0,0,1,.641.242.854.854,0,0,1,.219.594.826.826,0,0,1-.219.586.834.834,0,0,1-.641.234.821.821,0,0,1-.637-.234A.834.834,0,0,1,66.239,6.3ZM69.731,12.7a4.993,4.993,0,0,1,.488-2.234A3.643,3.643,0,0,1,71.579,8.93a3.7,3.7,0,0,1,1.988-.539,3.565,3.565,0,0,1,2.793,1.2,4.6,4.6,0,0,1,1.066,3.18v.1a5.036,5.036,0,0,1-.473,2.215A3.589,3.589,0,0,1,75.6,16.609a3.743,3.743,0,0,1-2.02.547,3.556,3.556,0,0,1-2.785-1.2A4.575,4.575,0,0,1,69.731,12.8Zm1.453.172a3.616,3.616,0,0,0,.652,2.258,2.211,2.211,0,0,0,3.5-.012,3.955,3.955,0,0,0,.648-2.418,3.61,3.61,0,0,0-.66-2.254,2.1,2.1,0,0,0-1.754-.863,2.075,2.075,0,0,0-1.727.852A3.925,3.925,0,0,0,71.184,12.867ZM74.223,5h1.75L73.879,7.3H72.715Zm6.383,3.547.047,1.063a3.08,3.08,0,0,1,2.531-1.219q2.68,0,2.7,3.023V17H84.442V11.406a1.946,1.946,0,0,0-.418-1.352,1.675,1.675,0,0,0-1.277-.437,2.086,2.086,0,0,0-1.234.375,2.546,2.546,0,0,0-.828.984V17H79.239V8.547Z" transform="translate(792.433 3124.457)" fill="#777"/>
  </g>
</svg>
