<svg id="card" xmlns="http://www.w3.org/2000/svg" xmlns:xlink="http://www.w3.org/1999/xlink" width="1172.5" height="569.995" viewBox="0 0 1172.5 569.995">
  <defs>
    <clipPath id="clip-path">
      <rect id="Rectangle_45714" data-name="Rectangle 45714" width="1172.5" height="568.897" fill="#e5ebff" opacity="0.57"/>
    </clipPath>
    <clipPath id="clip-path-2">
      <rect id="Rectangle_45764" data-name="Rectangle 45764" width="1172.5" height="568.897" fill="#ffbfc1" opacity="0.57"/>
    </clipPath>
    <clipPath id="clip-path-3">
      <rect id="Rectangle_45772" data-name="Rectangle 45772" width="1172.5" height="568.897" rx="10" fill="#e6ecff" opacity="0.57"/>
    </clipPath>
    <clipPath id="clip-path-4">
      <path id="Path_186631" data-name="Path 186631" d="M0,0H1172.5V569.994H0Z" fill="#e8e8e8" opacity="0.37"/>
    </clipPath>
    <clipPath id="clip-path-5">
      <rect id="Rectangle_41289" data-name="Rectangle 41289" width="405.975" height="259.245" fill="#6b8dfc"/>
    </clipPath>
  </defs>
  <g id="Group_982060" data-name="Group 982060" transform="translate(0)">
    <g id="Mask_Group_319" data-name="Mask Group 319" transform="translate(0 1.097)" opacity="0.57" clip-path="url(#clip-path)">
      <g id="Group_175720" data-name="Group 175720" transform="translate(679.675 0.001)">
        <g id="Group_175718" data-name="Group 175718" transform="translate(23.465 145.361)">
          <path id="Path_185972" data-name="Path 185972" d="M349.357,386.977s-31.59,27.23-34.827,122.19h17.779Z" transform="translate(-256.121 -193.758)" fill="#e5ebff"/>
          <g id="Group_175717" data-name="Group 175717" transform="translate(0 162.698)">
            <path id="Path_185973" data-name="Path 185973" d="M293.165,388.805c.365,1.282-14.906,24.721-38.509,18.592l-1.067-7.978s21.145,6.375,36.565-13.147Z" transform="translate(-248.986 -356.513)" fill="#e5ebff"/>
            <path id="Path_185974" data-name="Path 185974" d="M315.759,506.982,299.674,377.417s-31.065,12.391-35.487-18.671l-4.736,4.155s6.164,22.589,20.958,24.129c0,0-12.9,9.16-23.405-16.619l-5.633,7.369s8.66,20.161,28.657,13.551c0,0-20.012,5.166-29.128-8.24l-2.524,8.37s21.534,17.672,40.053,5.345l-6.395,112.547Z" transform="translate(-248.375 -358.746)" fill="#e5ebff"/>
          </g>
          <path id="Path_185975" data-name="Path 185975" d="M354.467,263.673l3.711,146.553,28.755-4.693L382.464,256.4Z" transform="translate(-260.798 -204.349)" fill="#e5ebff"/>
          <path id="Path_185976" data-name="Path 185976" d="M386.528,370.485l-33.187,5.151L328.849,510.38l87.3-.3S427.69,438.021,386.528,370.485Z" transform="translate(-257.798 -195.096)" fill="#e5ebff"/>
          <path id="Path_185977" data-name="Path 185977" d="M388.046,371.007,372.852,510.462h49.942S428.389,386.159,388.046,371.007Z" transform="translate(-262.951 -195.053)" fill="#e5ebff"/>
          <path id="Path_185978" data-name="Path 185978" d="M350.729,405.925s22.058,4.468,34.726-34.7l-28.548-2.9Z" transform="translate(-260.36 -195.271)" fill="#e5ebff"/>
          <path id="Path_185979" data-name="Path 185979" d="M390.5,383.222l8.1,36.751h-9.139l-4.511,16.033,1.83-20.771h6.712Z" transform="translate(-264.367 -194.063)" fill="#e5ebff"/>
          <path id="Path_185980" data-name="Path 185980" d="M345.918,393.373l-10.5,29.073h5.978v8.794l2.637-12.77h-3.372Z" transform="translate(-258.567 -193.239)" fill="#e5ebff"/>
          <path id="Path_185981" data-name="Path 185981" d="M355.922,383.184l30.142-27.931V317.3l-28.451,38.827Z" transform="translate(-260.968 -199.409)" fill="#e5ebff"/>
          <path id="Path_185982" data-name="Path 185982" d="M377.912,233.722s29.03-8.6,33.571,34.945S384.5,328.323,384.5,328.323Z" transform="translate(-263.543 -206.244)" fill="#e5ebff"/>
          <path id="Path_185983" data-name="Path 185983" d="M314.436,241.326,287.93,323.8l26.222-3.085.712,15.9s36.548,15.511,38.323-8.069c0,0-.017,27.815-38.319,28.634l.845,20.679s62.4,5.082,55.543-58.086-5.2-71.3-5.2-71.3l-51.62-7.146Z" transform="translate(-253.007 -205.572)" fill="#e5ebff"/>
          <path id="Path_185984" data-name="Path 185984" d="M332.877,278.233s-1.39,25.707-10.086,17.916c-3.176-2.847.433-21.029.433-21.029s.49,15.567,2.2,16.56C328.6,293.525,332.877,278.233,332.877,278.233Z" transform="translate(-256.936 -202.831)" fill="#e5ebff"/>
          <path id="Path_185985" data-name="Path 185985" d="M352.22,295.137c.449,4.3-2.038,8.239-5.551,8.789s-6.729-2.5-7.179-6.8,2.038-8.239,5.552-8.788S351.77,290.834,352.22,295.137Z" transform="translate(-259.038 -201.764)" fill="#e5ebff"/>
          <path id="Path_185986" data-name="Path 185986" d="M376.256,253.629l-81.189-12.084s.037-17.582,28.114-17.391L308.53,214.34S364.6,185.431,376.256,253.629Z" transform="translate(-253.842 -208.254)" fill="#e5ebff"/>
          <path id="Path_185987" data-name="Path 185987" d="M383.77,277.748l-3.388-35.862L362.66,239.7S340.581,299.067,383.77,277.748Z" transform="translate(-261.096 -205.703)" fill="#e5ebff"/>
          <path id="Path_185988" data-name="Path 185988" d="M401.967,284.987c.6,5.73-2.713,10.966-7.391,11.7s-8.957-3.32-9.553-9.05,2.71-10.967,7.39-11.7S401.367,279.258,401.967,284.987Z" transform="translate(-264.367 -202.771)" fill="#e5ebff"/>
          <path id="Path_185989" data-name="Path 185989" d="M323.132,260.379l18.743.377s-1.852-8.883-18.492-8.9Z" transform="translate(-257.128 -204.717)" fill="#e5ebff"/>
          <path id="Path_185990" data-name="Path 185990" d="M287.671,417.361l21.666-1.937,11.912,91.436H285.722Z" transform="translate(-252.748 -191.451)" fill="#e5ebff"/>
          <path id="Path_185991" data-name="Path 185991" d="M282.729,409.972h28.162l2.818,9.94-28.338,2.146Z" transform="translate(-252.398 -191.893)" fill="#e5ebff"/>
          <path id="Path_185992" data-name="Path 185992" d="M401.257,377.149l64.76,65.334L455.68,509.964H424.513L436.6,453.876l-28.983-23.711Z" transform="translate(-266.276 -194.555)" fill="#e5ebff"/>
          <path id="Path_185993" data-name="Path 185993" d="M437.028,450.178l-32.113-27.441,36.313,23.554-14.467,57.87-.213-7.791Z" transform="translate(-266.705 -190.857)" fill="#e5ebff"/>
          <path id="Path_185994" data-name="Path 185994" d="M384.952,237.477s22.745,11.51,22.662,38.356C407.614,275.833,415.3,236.471,384.952,237.477Z" transform="translate(-264.367 -205.885)" fill="#e5ebff"/>
          <path id="Path_185995" data-name="Path 185995" d="M300.442,235.578s6.891-7.5,22.795-6.02C323.237,229.558,312.37,216.753,300.442,235.578Z" transform="translate(-254.472 -206.871)" fill="#e5ebff"/>
          <path id="Path_185996" data-name="Path 185996" d="M302.959,274.355,287.93,321.122l26.222-3.086Z" transform="translate(-253.007 -202.893)" fill="#e5ebff" opacity="0.5"/>
          <path id="Path_185997" data-name="Path 185997" d="M398.775,283.318s-7.551-5.079-9.619,11.17C389.156,294.488,394.129,283.2,398.775,283.318Z" transform="translate(-264.86 -202.227)" fill="#e5ebff"/>
          <path id="Path_185998" data-name="Path 185998" d="M317.818,323.977s35.579,11.207,49.952-23.461-1.942-53.014-1.942-53.014l12.208-.56S406.291,382.689,317.818,387.3Z" transform="translate(-256.506 -205.116)" fill="#e5ebff"/>
          <path id="Path_185999" data-name="Path 185999" d="M314.12,326.912s27.857,5.308,37.833-8.362c0,0,2.755,38.772-36.688,33.793Z" transform="translate(-256.073 -199.308)" fill="#e5ebff"/>
          <path id="Path_186000" data-name="Path 186000" d="M321.483,367.153s38.248.837,54.227-38.459c0,0-5.145,45.094-54.227,48.986Z" transform="translate(-256.936 -198.485)" fill="#e5ebff"/>
        </g>
        <g id="Group_175719" data-name="Group 175719" transform="translate(0 0)">
          <path id="Path_186001" data-name="Path 186001" d="M296.56,74.977C247.5,79.087,221.8,105.52,221.8,143.194c0,22.3,8.035,41.971,25.339,54.39A68.407,68.407,0,0,0,253.959,222c17.164,33.1,33.075,36.338,33.075,36.338-10.942-14.945-14.981-32.405-15.151-49.763a107.923,107.923,0,0,0,24.677,2.837c86.65.611,114.27-17.878,114.27-63.983C410.83,99.442,390.478,67.109,296.56,74.977Z" transform="translate(-221.798 -73.798)" fill="#e5ebff"/>
        </g>
      </g>
      <rect id="Rectangle_45713" data-name="Rectangle 45713" width="1172.5" height="996.017" transform="translate(0 -0.047)" fill="#e5ebff"/>
      <g id="Group_175721" data-name="Group 175721" transform="translate(-14.092 -173.518)" opacity="0.254">
        <path id="Path_186003" data-name="Path 186003" d="M997.944,2312.249c83.126-30.24,135.593-131.666,213.234-178.957,109.6-66.76,244.895-13.61,361.234-60.242,58.275-23.359,108.265-73.371,141.366-136.457H752.194v277.384c20.457,22.3,42.055,42.808,65.578,60.034C871.619,2313.442,937.8,2334.128,997.944,2312.249Z" transform="translate(-752.194 -1936.593)" fill="#e5ebff" opacity="0.614"/>
        <path id="Path_186004" data-name="Path 186004" d="M15.386,0H1079.417c8.5,0,15.387,11.365,15.387,25.384V974.357c0,14.02-6.889,25.384-15.387,25.384H15.386C6.889,999.741,0,988.377,0,974.357V25.384C0,11.365,6.889,0,15.386,0Z" transform="translate(15.326 9.586)" fill="none"/>
      </g>
    </g>
    <g id="Mask_Group_327" data-name="Mask Group 327" transform="translate(0 1.097)" clip-path="url(#clip-path-2)">
      <g id="Group_176633" data-name="Group 176633" transform="translate(-639.188 168.991) rotate(30)" opacity="0.254">
        <path id="Path_186092" data-name="Path 186092" d="M729.737,27.061c-84.261,22.73-134.168,110-212.112,148.093-110.03,53.78-251.243.119-369,35.747C89.642,228.748,40.236,270.6,8.714,324.859l988.637,46.858L986.313,126.066C964.393,105.322,941.371,86.106,916.5,69.7,859.57,32.16,790.7,10.617,729.737,27.061Z" transform="translate(0 0)" fill="#dddeff" opacity="0.614"/>
      </g>
    </g>
    <g id="Mask_Group_334" data-name="Mask Group 334" transform="translate(0 1.097)" clip-path="url(#clip-path-3)">
      <g id="Group_173646" data-name="Group 173646" transform="translate(-40.304 -152.018)">
        <path id="Path_178337" data-name="Path 178337" d="M38.826,0h1191.48c21.443,0,38.826,19,38.826,42.446V623.429c0,23.442-17.383,42.446-38.826,42.446H38.826c-21.443,0-38.826-19-38.826-42.446V42.446C0,19,17.383,0,38.826,0Z" transform="translate(38.668 88.934)" fill="#e1e8ff"/>
        <path id="Path_178348" data-name="Path 178348" d="M1328.547,41.3A677.428,677.428,0,0,0,1095.149,0C710.551,0,398.77,320.877,398.77,716.7a740.526,740.526,0,0,0,12.646,136.371h917.13Z" transform="translate(-7.357)" fill="#f7f9ff"/>
        <path id="Path_178349" data-name="Path 178349" d="M482.7,23.783C426.366,165.294,299.038,264.016,150.976,264.016a328.7,328.7,0,0,1-109.4-18.7V23.783Z" transform="translate(-41.579 7.148)" fill="#f0f4ff"/>
        <line id="Line_1427" data-name="Line 1427" y2="3.977" transform="translate(199.514 809.525)" fill="#1d2b5e"/>
      </g>
    </g>
    <g id="Group_177466" data-name="Group 177466" opacity="0.48" clip-path="url(#clip-path-4)">
      <g id="Group_177463" data-name="Group 177463" transform="translate(849.63 -435.657)">
        <g id="Group_177462" data-name="Group 177462" transform="translate(0 0)">
          <path id="Path_186627" data-name="Path 186627" d="M419.343,227.648c-.479,51.663-35.232,99.279-85.586,99.826-57.773,1.84-112.768-34.727-170.577-37.971-29.607-4.164-56.625,6.482-85.144,8.931C13.306,297.733-.753,216,8.653,164.247,46.98-80.058,409.7-28.448,419.343,227.648Z" transform="matrix(0.602, 0.799, -0.799, 0.602, 248.165, 0)" fill="#e4e8f9"/>
          <path id="Path_186628" data-name="Path 186628" d="M1.586,154.223c3.05,38.1,32.13,74.887,70.709,77.739,44.325,4.166,84.529-20.111,128.619-19.691,22.45-1.629,43.688,7.531,65.648,10.723,49.521,2.631,56.038-56.923,46.149-95.528C270.678-54.464-4.336-34.064,1.586,154.223Z" transform="translate(51.451 618.07) rotate(-99)" fill="#afb8ee" opacity="0.21" style="mix-blend-mode: multiply;isolation: isolate"/>
        </g>
      </g>
      <g id="Group_177465" data-name="Group 177465" transform="translate(-150.745 399.957)">
        <g id="Group_177464" data-name="Group 177464" transform="translate(0 0)">
          <path id="Path_186629" data-name="Path 186629" d="M302.621,164.283c-.345,37.283-25.425,71.645-61.763,72.04-41.692,1.328-81.38-25.061-123.1-27.4-21.366-3-40.864,4.678-61.444,6.445C9.6,214.86-.543,155.881,6.244,118.53,33.9-57.774,295.664-20.529,302.621,164.283Z" transform="matrix(-0.602, -0.799, 0.799, -0.602, 172.156, 446.032)" fill="#b9c3f1" opacity="0.4"/>
          <path id="Path_186630" data-name="Path 186630" d="M1.145,111.3c2.2,27.5,23.187,54.043,51.027,56.1,31.988,3.006,61-14.513,92.818-14.21,16.2-1.176,31.528,5.435,47.375,7.738,35.737,1.9,40.44-41.079,33.3-68.938C195.336-39.3-3.129-24.583,1.145,111.3Z" transform="translate(314.116 0) rotate(81)" fill="#dce2fd" opacity="0.32" style="mix-blend-mode: multiply;isolation: isolate"/>
        </g>
      </g>
    </g>
  </g>
  <g id="Group_982061" data-name="Group 982061" transform="translate(766.525 310.75)" opacity="0.12">
    <g id="Mask_Group_167" data-name="Mask Group 167" transform="translate(0 0)" clip-path="url(#clip-path-5)">
      <g id="Group_166176" data-name="Group 166176" transform="translate(67.709 41.107)">
        <path id="Union_28" data-name="Union 28" d="M175.19,371.966c-30.358-1.779-55.316-26.1-75.372-45.645-3.371-3.287-6.641-6.475-9.824-9.455C64.161,292.713,38.376,267.7,13.44,243.51l-3-2.9C1.27,231.712-2.01,220.473,1.2,208.968c3.5-12.544,14.5-23.151,27.368-26.407,11.719-2.958,23.143.328,32.135,9.277v-.005c18.188,18.085,38.008,36.895,60.164,57.088l-2.636-5.589c-7.446-15.8-15.144-32.131-22.145-48.5-7.031-16.438-13.635-34.028-16.818-51.271-3.515-19.042-2.952-37.689,5.544-54.222C94.706,70.076,109.25,58.994,128.039,56.4c40.9-5.625,91.885,31.5,119.452,57.677-7.446-21.116-12.583-43.25-10.447-66.375,1.82-19.718,11.209-34.761,26.434-42.363,17.291-8.635,39.984-6.71,60.717,5.15,37.359,21.372,67.233,57.469,93.952,93.289,12.057,16.165,5.3,31.985-6.732,40.495-14.554,10.29-37.391,10.55-50.431-6.814q-2.48-3.311-5.057-6.574c7.414,13.592,14.4,27.247,20.636,41.236l2.405,5.385c21.194,47.351,50.216,112.2,23.337,162.6-14.956,28.055-49.4,31.234-75.689,19.885-29.494-12.742-51.037-39.222-70.047-62.587-2.459-3.021-4.891-6.011-7.312-8.938-16.577-20.047-31.9-41.309-46.726-61.867-5.277-7.326-10.56-14.652-15.912-21.946l-1.525-2.082q-2.3-3.147-4.654-6.334c2.561,5.958,5.143,11.719,7.6,17.2,2.588,5.781,5.325,11.625,8.09,17.527,11.542,24.638,23.481,50.122,27.491,76.727,3.076,20.407-1.745,39.639-12.9,51.447-8.026,8.495-19.058,12.93-32.055,12.93C177.519,372.07,176.36,372.039,175.19,371.966Z" transform="translate(0 12.372)" fill="#5355a7" stroke="rgba(0,0,0,0)" stroke-miterlimit="10" stroke-width="1" opacity="0.412"/>
        <path id="Path_115699" data-name="Path 115699" d="M183.054,373.722c25.865,25.724,52.594,50.5,79.839,74.838-11.778-25.875-24.48-51.348-35.662-77.494-12.675-29.647-27.406-70.059-11.429-101.157,36.419-70.883,128.482-1.336,162.362,34.349,3.613,3.8,7.054,7.769,10.544,11.7-12.1-28.813-23-58.418-20.126-89.547,3.956-42.8,44.327-53.07,79.082-33.185,37.327,21.356,67.3,58.3,92.331,91.859,21.259,28.5-27.39,55.632-48.482,27.54a374.1,374.1,0,0,0-37.89-43.088q3.02,5.377,6.1,10.738c13.6,23.61,27.03,47.315,38.11,72.162,21.221,47.586,52.594,113.455,25.9,163.509-13.453,25.223-44.993,27.785-68.748,17.521-31.926-13.8-54.038-44.252-75.356-70.028-22.252-26.913-41.847-55.491-62.445-83.573-8.611-11.735-17.211-23.636-27.062-34.432-.225-.245-.467-.475-.692-.725l.247.762c5.47,16.53,12.508,32.392,19.627,48.3,13.254,29.585,30.342,60.729,35.2,92.928,4.295,28.468-7.57,60.375-42.8,58.309-33.112-1.941-59.654-32.945-81.793-53.649-26.815-25.077-53.147-50.654-79.485-76.2a30.556,30.556,0,0,1-6.393-8.723C121.61,380.607,158.688,349.492,183.054,373.722Z" transform="translate(-113.461 -178.242)" fill="#8284d2"/>
        <path id="Path_115700" data-name="Path 115700" d="M309.275,554.535c13,0,24.024-4.43,32.049-12.924,11.156-11.808,15.976-31.04,12.9-51.452-4-26.6-15.944-52.084-27.492-76.727-2.759-5.9-5.5-11.74-8.09-17.521-2.453-5.484-5.035-11.244-7.6-17.2,1.568,2.118,3.119,4.237,4.655,6.334l1.525,2.077c5.352,7.295,10.635,14.626,15.917,21.946,14.817,20.563,30.144,41.826,46.721,61.867q3.632,4.4,7.312,8.943c19.009,23.36,40.553,49.84,70.047,62.587,26.3,11.349,60.733,8.166,75.689-19.89,26.88-50.393-2.142-115.245-23.331-162.6l-2.41-5.38c-6.233-13.989-13.222-27.644-20.631-41.236q2.569,3.264,5.057,6.569c13.034,17.37,35.871,17.109,50.425,6.82,12.036-8.51,18.789-24.33,6.732-40.5-26.719-35.82-56.594-71.916-93.947-93.294-20.738-11.855-43.425-13.78-60.722-5.145-15.225,7.6-24.609,22.64-26.434,42.358-2.137,23.125,3,45.264,10.452,66.375-27.572-26.172-78.55-63.3-119.452-57.672-18.789,2.593-33.338,13.676-43.232,32.934-16.272,31.672-3.43,71.1,11.274,105.493,7,16.368,14.7,32.7,22.145,48.5l2.636,5.588c-22.155-20.188-41.975-39-60.164-57.082h0c-8.992-8.949-20.416-12.23-32.135-9.272-12.868,3.256-23.868,13.864-27.363,26.407-3.216,11.505.064,22.739,9.239,31.635l3,2.906c24.936,24.189,50.721,49.2,76.553,73.357,3.183,2.979,6.453,6.167,9.83,9.454,20.051,19.541,45.009,43.866,75.367,45.645C306.971,554.5,308.126,554.535,309.275,554.535Zm-15.4-210.594a5.172,5.172,0,0,0-2.6.678,5.014,5.014,0,0,0-2.539,5.922l.252.762c5.733,17.328,13.211,34.036,19.809,48.771,2.615,5.834,5.379,11.729,8.166,17.683,11.236,23.981,22.853,48.776,26.643,73.915,2.572,17.073-1.331,33.5-10.189,42.88-6.56,6.945-15.627,10.1-26.971,9.47-26.284-1.544-48.67-23.355-68.415-42.6-3.425-3.34-6.753-6.58-9.985-9.6-25.763-24.09-51.515-49.068-76.419-73.226l-2.99-2.906c-8.111-7.863-7.994-16.04-6.464-21.518,2.486-8.9,10.587-16.733,19.707-19.035,5.551-1.409,13.824-1.419,21.747,6.465h0c23.5,23.36,49.679,47.9,80.048,75.037a5.482,5.482,0,0,0,6.759.4,5.12,5.12,0,0,0,1.782-6.35c-4.45-9.783-9.035-19.5-13.614-29.23-7.408-15.711-15.064-31.959-21.994-48.16-13.775-32.214-25.929-68.911-11.585-96.826,8.342-16.232,19.836-25.15,35.136-27.263,38.132-5.244,91.762,34.683,118.48,62.822,2.845,3,5.589,6.11,8.337,9.215l2.083,2.358a5.457,5.457,0,0,0,6.866,1.038,5.146,5.146,0,0,0,2.169-6.423c-11.531-27.44-22.552-56.78-19.75-87.111,1.5-16.259,8.643-28.019,20.647-34.015,14.006-6.987,32.828-5.166,50.366,4.863,35.662,20.4,64.668,55.517,90.7,90.424,8.23,11.03,3.146,20.626-4.354,25.927-10.157,7.18-26.026,8.025-35.442-4.524a380.007,380.007,0,0,0-38.427-43.693,5.474,5.474,0,0,0-7.011-.5,5.12,5.12,0,0,0-1.5,6.679q3.036,5.408,6.131,10.785c13.77,23.908,27.024,47.383,37.869,71.692l2.41,5.4c20.33,45.431,48.171,107.653,23.648,153.632-11.912,22.342-40.107,24.523-61.8,15.158C434.509,521.23,414.726,496.91,395.6,473.4q-3.712-4.563-7.365-9.006c-16.357-19.775-31.577-40.892-46.3-61.314-5.293-7.347-10.592-14.7-15.96-22.019l-1.525-2.072c-8.079-11.025-16.433-22.426-25.892-32.788l-.483-.506A5.936,5.936,0,0,0,293.873,343.941Zm-106.4,34.009h0Z" transform="translate(-117.878 -182.469)" fill="#3c3fa7"/>
        <path id="Path_115701" data-name="Path 115701" d="M146.175,223.049c19.783,38.632,30.938,83.917,13.566,125.446-2.572,6.136-12.959,3.454-10.356-2.776,16.315-38.992,6.125-81.069-12.482-117.405C133.838,222.318,143.094,217.028,146.175,223.049Z" transform="translate(238.366 -22.512)" fill="#3c3fa7"/>
        <path id="Path_115702" data-name="Path 115702" d="M144.267,264.851c.091-.01.177-.036.263-.052.15-.287.29-.59.338-.673l.021-.031c.011-.042-.005-.016.011-.078.693-2.327,1.192-4.691,1.713-7.06q1.828-8.257,3.645-16.514a5.43,5.43,0,0,1,6.609-3.642,5.321,5.321,0,0,1,3.747,6.418l-4.123,18.674c-1.149,5.186-2.979,11.985-9.368,13.023-2.759.444-5.916-.7-6.6-3.647C139.93,268.749,141.309,265.331,144.267,264.851Z" transform="translate(223.97 45.817)" fill="#3c3fa7"/>
        <path id="Path_115703" data-name="Path 115703" d="M201.33,199.888c6.093-3.162,11.526,5.844,5.417,9.011-8.428,4.373-10.994,13.274-11.333,22.014a146.814,146.814,0,0,0,2.421,29.919,194.615,194.615,0,0,0,18.634,56.049c3.071,6-6.19,11.286-9.271,5.265a204.774,204.774,0,0,1-20.84-66.01C183.829,237.325,180.8,210.532,201.33,199.888Z" transform="translate(-69.447 -111.8)" fill="#3c3fa7"/>
      </g>
    </g>
  </g>
</svg>
