<svg id="patricia" xmlns="http://www.w3.org/2000/svg" xmlns:xlink="http://www.w3.org/1999/xlink" width="90" height="90" viewBox="0 0 90 90">
  <defs>
    <clipPath id="clip-path">
      <rect id="Rectangle_38904" data-name="Rectangle 38904" width="46.721" height="63.186" fill="none"/>
    </clipPath>
  </defs>
  <g id="Group_159043" data-name="Group 159043" transform="translate(0 0)">
    <circle id="Ellipse_4780" data-name="Ellipse 4780" cx="45" cy="45" r="45" fill="#c4d1ff"/>
  </g>
  <g id="Group_162305" data-name="Group 162305" transform="translate(21.639 13.407)">
    <g id="Group_162304" data-name="Group 162304" clip-path="url(#clip-path)">
      <g id="Group_162303" data-name="Group 162303" transform="translate(0 0)">
        <g id="Group_162302" data-name="Group 162302" clip-path="url(#clip-path)">
          <path id="Path_143571" data-name="Path 143571" d="M5.673,6.184c12.45-9.43,30.316-8.487,36.9,5.675a19.033,19.033,0,0,1,1.192,3.314c1.878,7.345-1.282,10.013-.566,12.985A52.286,52.286,0,0,1,44.5,34.381a42.851,42.851,0,0,0,.923,5.087c.36,1.495.833,2.972,1.145,4.478.039.192.066.331.085.424a13.231,13.231,0,0,1-.012,2.716c-.444,2.9-1.94,5.691-3.375,8.386A55.511,55.511,0,0,1,37.985,59.4C32.461,62.979,25.333,62.643,19,62.926c-2.965.133-5.931.275-8.9.259l-.008,0A32.413,32.413,0,0,0,6.24,57.574c1.492-1.223,1.82-2.675.064-4.821C1.6,47-.349,43.24,2.172,38.749S1.753,34.712.7,27.891C.085,23.919-1.913,11.929,5.673,6.184" transform="translate(0.001 0)" fill="#181709"/>
          <path id="Path_143572" data-name="Path 143572" d="M10.048,65.242a30.011,30.011,0,0,0-3.069-4.634q.332-.048.668-.118c.395-.08.79-.181,1.186-.295q.474-.137.942-.3a31.559,31.559,0,0,0,5.659-2.7l6.574-.765.752-.088,11.553-1.347A7.676,7.676,0,0,0,36.4,57.547c.143.127.295.259.455.39a20.038,20.038,0,0,0,2.114,1.524c.218.139.442.278.68.416.1.06.213.121.319.182-.67.482-1.341.962-2.019,1.4-5.524,3.581-12.652,3.245-18.988,3.528-2.734.122-5.468.253-8.2.26-.235,0-.469,0-.7-.006" transform="translate(0.04 -2.062)" fill="#fff"/>
          <path id="Path_143573" data-name="Path 143573" d="M10.213,64.039c1.454-2.189,2.985-4.326,4.61-6.391.143.127.295.258.455.39-1.473,1.876-2.865,3.812-4.2,5.79-.287.076-.577.145-.868.211" transform="translate(21.613 -2.162)" fill="#e2cec3"/>
          <path id="Path_143574" data-name="Path 143574" d="M24.958,57.252a.3.3,0,0,1,0-.6.3.3,0,0,1,0,.6" transform="translate(-2.269 -2.124)" fill="#e2cec3"/>
          <path id="Path_143575" data-name="Path 143575" d="M29.972,57.033c-1.58,2.624-3.037,5.316-4.413,8.049l-.7.029q2.207-4.406,4.754-8.633l.752-.088c-.052.086-.106.172-.155.258-.08.127-.157.257-.233.384" transform="translate(-7.56 -2.115)" fill="#e2cec3"/>
          <path id="Path_143576" data-name="Path 143576" d="M41.614,35.459l2.279,12.476s-1.707,1.6-6.072.38l3.136-12.848Z" transform="translate(-33.574 -1.33)" fill="#fff"/>
          <path id="Path_143577" data-name="Path 143577" d="M42.406,27.884a2.956,2.956,0,0,0-2.43,2.8c-.383,2.615.95,6.971,3.593,6.426s-1.163-9.228-1.163-9.228" transform="translate(-36.195 -1.046)" fill="#de937a"/>
          <line id="Line_387" data-name="Line 387" y2="0.002" transform="translate(13.534 47.104)" fill="#c9614d"/>
          <path id="Path_143578" data-name="Path 143578" d="M22.788,63.566a18.428,18.428,0,0,1-4.247.749l-.471.018c-5.31.045-6.127-3.5-6.127-3.5a18.366,18.366,0,0,0,.752-4.032c.041-.531.064-1.077.067-1.641A44.354,44.354,0,0,0,12.451,50c-.048-.455-.1-.928-.164-1.415l-.007-.058C19,46.9,24.5,43.879,28.24,38.89l1.007-.607.679-.412.127.392-.121,1.252c-.591,5.886.762,10.751,4.042,16.156a21.3,21.3,0,0,1-11.185,7.9" transform="translate(1.253 -1.42)" fill="#fab39b"/>
          <path id="Path_143579" data-name="Path 143579" d="M11.362,63.74c-.327.086-.658.162-.99.234a80.767,80.767,0,0,0,4.45-9c.186-.421.8-.057.619.362a88.3,88.3,0,0,1-4.078,8.4" transform="translate(21.265 -2.055)" fill="#110e0a"/>
          <path id="Path_143580" data-name="Path 143580" d="M35,65.3c-.243,0-.485.014-.728.015a29.726,29.726,0,0,1,2.22-8.159c.162-.426.854-.242.69.191A29.184,29.184,0,0,0,35,65.3" transform="translate(-23.468 -2.134)" fill="#110e0a"/>
          <path id="Path_143581" data-name="Path 143581" d="M34.033,44.334c-1.4,3.222-4.673,8.922-10.842,11.073a44.579,44.579,0,0,0-.311-5.165c-.049-.454-.1-.928-.165-1.414.133.014.269.025.405.033,3.669.222,7.644-1.69,10.912-4.527" transform="translate(-9.176 -1.662)" fill="#de937a"/>
          <path id="Path_143582" data-name="Path 143582" d="M43.409,26.969c.251,3.648-2.529,8.326-7.292,8.785l-.025,0h0l-.1.011c-.064.216-.139.427-.218.644-.032.093-.068.189-.1.282a.062.062,0,0,1-.012.026c-2.545,6.4-11.125,10.652-15.89,11.109a10.949,10.949,0,0,1-3.247-.2c-5.137-.752-6.554-7.526-6.119-12.808a20.069,20.069,0,0,1,.3-2.181l.029-.141s-2.2-7.2-2.814-10.358c-1.192-6.13,1.924-12.656,15.4-14.823s17.3,6.026,18.562,10.426c.212.732.367,5.175-.326,5.941a3.624,3.624,0,0,1,1.859,3.281" transform="translate(-4.099 -0.261)" fill="#fab39b"/>
          <path id="Path_143583" data-name="Path 143583" d="M37.636,30.433c.137.892.623,1.559,1.087,1.488s.73-.852.593-1.745-.623-1.559-1.087-1.488-.73.852-.593,1.745" transform="translate(-28.819 -1.076)" fill="#181709"/>
          <path id="Path_143584" data-name="Path 143584" d="M40.931,29.427A.239.239,0,0,0,40.957,29c-.1-.056-2.351-1.355-4.159.122a.239.239,0,0,0,.3.371c1.551-1.27,3.593-.092,3.613-.081a.237.237,0,0,0,.217.013" transform="translate(-29.686 -1.066)" fill="#181709"/>
          <path id="Path_143585" data-name="Path 143585" d="M29.531,29.335c.137.892.623,1.559,1.087,1.488s.73-.852.593-1.745-.624-1.559-1.088-1.488-.729.852-.592,1.745" transform="translate(-12.913 -1.034)" fill="#181709"/>
          <path id="Path_143586" data-name="Path 143586" d="M32.329,28.6a.239.239,0,0,0,.079-.419c-.087-.067-2.16-1.642-4.14-.4a.239.239,0,0,0,.253.405c1.7-1.064,3.576.363,3.594.377a.243.243,0,0,0,.214.04" transform="translate(-12.878 -1.024)" fill="#181709"/>
          <path id="Path_143587" data-name="Path 143587" d="M38.358,36.833s-.007,4.282-3.582,4.689a3.692,3.692,0,0,1-4.146-3.092Z" transform="translate(-21.117 -1.381)" fill="#fff"/>
          <path id="Path_143588" data-name="Path 143588" d="M33.629,43.291a1.925,1.925,0,0,0,1.058-.719.324.324,0,0,0-.537-.361,1.31,1.31,0,0,1-1.395.449.324.324,0,0,0-.146.63,2.1,2.1,0,0,0,1.02,0" transform="translate(-19.165 -1.578)" fill="#722324"/>
          <path id="Path_143589" data-name="Path 143589" d="M42.613,23.648a7.931,7.931,0,0,0-1.09.2A8.059,8.059,0,0,0,36.9,27.4c-.192-1.239-1.519-6.924-9.821-7.859-.118-.013-.246-.025-.379-.036a7.079,7.079,0,0,1-.914-3.562c.827-3.375-15.422-1.661-15.968,3.519-.228,2.17-.35,3.584-.416,4.5v0a8.919,8.919,0,0,0-.058,1.685s-1.434,1.494-1.554-5.64A9.687,9.687,0,0,1,10.2,13.644C13.442,9.7,19.6,6.877,26.408,6c10.081-1.291,17.427,9.3,17.909,13.167s-1.7,4.477-1.7,4.477" transform="translate(-5.163 -0.221)" fill="#181709"/>
          <path id="Path_143591" data-name="Path 143591" d="M36.992,35.924a.424.424,0,0,1-.228-.04l-1.933-.961a.413.413,0,0,1-.051-.711,5.963,5.963,0,0,0,2.5-4.379.414.414,0,0,1,.819.121,6.9,6.9,0,0,1-2.3,4.525l1.337.663a.414.414,0,0,1-.141.783" transform="translate(-24.682 -1.106)" fill="#181709"/>
          <path id="Path_143592" data-name="Path 143592" d="M26.872,25.516a1.006,1.006,0,0,1-1.486-1.3,2.923,2.923,0,0,1,1.628-1.242,7.3,7.3,0,0,1,6.422.952s-3.872.129-5.608.992a5.706,5.706,0,0,0-.956.6" transform="translate(-11.004 -0.848)" fill="#181709"/>
          <path id="Path_143593" data-name="Path 143593" d="M42.515,26.279a1.006,1.006,0,0,0,1.1-1.638,2.916,2.916,0,0,0-1.891-.783c-3.784-.262-4.736,2.225-4.736,2.225a13.354,13.354,0,0,1,4.449-.137,5.571,5.571,0,0,1,1.077.333" transform="translate(-32.805 -0.894)" fill="#181709"/>
          <path id="Path_143595" data-name="Path 143595" d="M18.763,36.82l-.025,0h0l-.1.011c-.062.215-.137.427-.216.644-.034.093-.069.189-.1.282a.16.16,0,0,1-.013.026,4.4,4.4,0,0,1-1.892-.6,3.486,3.486,0,0,1-1.044-.987.494.494,0,0,1,.809-.566,2.656,2.656,0,0,0,1.245.947,3.563,3.563,0,0,0,.878.209,4.248,4.248,0,0,0,.466.034" transform="translate(13.255 -1.328)" fill="#722324"/>
          <path id="Path_143596" data-name="Path 143596" d="M11.226,33.693a.493.493,0,0,0,.376-.421c.422-3.477,4.414-5.244,4.453-5.261a.493.493,0,0,0-.39-.907c-.186.08-4.553,2-5.043,6.048a.492.492,0,0,0,.43.55.514.514,0,0,0,.172-.01" transform="translate(20.145 -1.015)" fill="#181709"/>
          <path id="Path_143597" data-name="Path 143597" d="M14.466,31.575a.48.48,0,0,0,.172-.078.493.493,0,0,0,.116-.688,3.387,3.387,0,0,0-3.073-1.265.493.493,0,0,0,.108.981,2.4,2.4,0,0,1,2.161.856.494.494,0,0,0,.516.194" transform="translate(21.055 -1.107)" fill="#181709"/>
          <path id="Path_143598" data-name="Path 143598" d="M20.347,43.176c-2.688,1.986-5.432,3.033-8.4.43a25.228,25.228,0,0,1,2.1-12c2.365-4.636-1.763-10.352-1.763-10.352,2.63,1.089,5.543,1.058,7.106,4.135-2.608,3.01-.98,11.184.954,17.785" transform="translate(14.931 -0.797)" fill="#181709"/>
          <path id="Path_143599" data-name="Path 143599" d="M9.6,33.979l4.385,11.9S12.578,47.745,8.068,47.3l.886-13.2Z" transform="translate(24.971 -1.274)" fill="#fff"/>
        </g>
      </g>
    </g>
  </g>
</svg>
