<svg id="teacher" xmlns="http://www.w3.org/2000/svg" width="90" height="90" viewBox="0 0 90 90">
  <circle id="Ellipse_4780" data-name="Ellipse 4780" cx="45" cy="45" r="45" transform="translate(0 0)" fill="#c4d1ff"/>
  <g id="Group_984354" data-name="Group 984354" transform="translate(12.905 17)">
    <g id="Group_984355" data-name="Group 984355" transform="translate(0 0)">
      <path id="Path_212183" data-name="Path 212183" d="M57.334,28.627c3.3-1.855,5.585-5.893,5.585-10.589,0-6.45-5.252-11.734-12.517-14.344-5-1.8-6.736,7.894-6.736,14.344a13.359,13.359,0,0,0,1.8,6.79,10.739,10.739,0,0,0-5.993,3.307c-5.095,5.921-4.468,21.562,7.907,23a14.7,14.7,0,0,0,9.781-2.914c2.829-1.969,4.866-5.3,4.629-8.737-.182-2.639-1.614-5-2.826-7.35q-.885-1.718-1.634-3.5" transform="translate(-2.824 0)" fill="#2b244a"/>
      <path id="Path_212184" data-name="Path 212184" d="M52.4,43.293a5.711,5.711,0,1,1,5.711-5.71,5.716,5.716,0,0,1-5.711,5.71m0-10.421a4.711,4.711,0,1,0,4.711,4.711A4.716,4.716,0,0,0,52.4,32.872" transform="translate(-2.824 0)" fill="#ffc37a"/>
      <path id="Path_212185" data-name="Path 212185" d="M21.861,18.882c.246,3.106-.111,7.431-6.333,11.209S5.234,34.754,1.028,40.608c-4.14,5.76,5.453-2.736,7.119,5.928,3.039,1.843-4.09,7.527,8.764,3.28s19.283,4.72,19.283-3.28,3.135-14.774-.766-22.387-13.567-5.267-13.567-5.267" transform="translate(0 0)" fill="#2b244a"/>
      <path id="Path_212186" data-name="Path 212186" d="M29.238,25.554,23.526,46.62s8.617,6.239,18.472.693l1.436-9.4Z" transform="translate(-2.824 0)" fill="#e0785e"/>
      <path id="Path_212187" data-name="Path 212187" d="M26.291,9.517C29.182-.57,37.383-1.64,46.422,2.251s10.73,8.316,10.671,16.74a176.631,176.631,0,0,1-1.5,20.872c-.437,2.644-4.484,7.662-11.3,4.184A36.775,36.775,0,0,1,30.234,31.715c-2.011-3-6.834-12.111-3.943-22.2" transform="translate(-2.824 0)" fill="#e0785e"/>
      <path id="Path_212188" data-name="Path 212188" d="M49.891,22.221c-.585,1.541-1.954.3-3.834.689-1.728.356-2.883.131-2.862-.778.025-1.1,1.709-2.294,4.163-2.156,2.3.13,2.96,1.121,2.533,2.245" transform="translate(-2.824 0)" fill="#2b244a"/>
      <path id="Path_212189" data-name="Path 212189" d="M56.949,24.023c-1.672-.632-3.166.163-3.4-1.411-.174-1.185.679-2.019,2.953-1.654.178.029.355.068.522.106a2.074,2.074,0,0,1-.076,2.959" transform="translate(-2.824 0)" fill="#2b244a"/>
      <path id="Path_212190" data-name="Path 212190" d="M48.478,24.613a1.2,1.2,0,0,0-.9-.714,1.137,1.137,0,0,0-1.078.666,3.951,3.951,0,0,0-.372,1.353,2.5,2.5,0,0,0,.238,1.607,1.051,1.051,0,0,0,1.832-.141,3.474,3.474,0,0,0,.281-2.771" transform="translate(-2.824 0)" fill="#2b244a"/>
      <path id="Path_212191" data-name="Path 212191" d="M56.719,25.5a1.2,1.2,0,0,0-.9-.714,1.138,1.138,0,0,0-1.078.666,3.957,3.957,0,0,0-.372,1.353,2.507,2.507,0,0,0,.238,1.608,1.052,1.052,0,0,0,1.832-.142,3.474,3.474,0,0,0,.281-2.771" transform="translate(-2.824 0)" fill="#2b244a"/>
      <path id="Path_212192" data-name="Path 212192" d="M50.824,32.336a3.93,3.93,0,0,0,1.984-.383A1.987,1.987,0,0,0,53.725,30a25.145,25.145,0,0,0-.465-2.647l-.534-2.822c-.119-.631-1.083-.364-.964.266q.437,2.306.871,4.612c.1.53.264,1.262-.251,1.633a2.7,2.7,0,0,1-1.558.3.5.5,0,0,0,0,1" transform="translate(-2.824 0)" fill="#2b244a"/>
      <path id="Path_212193" data-name="Path 212193" d="M52.087,4.868A24,24,0,0,0,40.369.145C36.6-.215,32.935-.11,28.935,2.89c-2.975,2.232-6.416,9.006-4.25,15.991.63,2.031.706,11.576.706,11.576L12.166,47.52c23.937,7.639,21.5-6.265,23.8-17.8,1.733-8.7,7.693-7.428,11.449-10.825C51.644,15.068,51.31,8.485,51.31,8.485l5.146,3.644a10.072,10.072,0,0,0-4.369-7.261" transform="translate(-2.824 0)" fill="#2b244a"/>
      <path id="Path_212194" data-name="Path 212194" d="M43.846,25.791a5.688,5.688,0,1,1-7.037-3.9,5.688,5.688,0,0,1,7.037,3.9" transform="translate(-2.824 0)" fill="#e0785e"/>
      <path id="Path_212195" data-name="Path 212195" d="M32.244,42.023a5.711,5.711,0,1,1,5.71-5.71,5.717,5.717,0,0,1-5.71,5.71m0-10.421a4.711,4.711,0,1,0,4.71,4.711,4.716,4.716,0,0,0-4.71-4.711" transform="translate(-2.824 0)" fill="#ffc37a"/>
      <path id="Path_212196" data-name="Path 212196" d="M38.467,40.257a15.778,15.778,0,0,0,1.613,1.756c.606.558,1.262,1.06,1.916,1.561a.5.5,0,0,0,.684-.18.514.514,0,0,0-.18-.684c-.57-.437-1.193-.923-1.748-1.437a15.7,15.7,0,0,1-1.578-1.723.5.5,0,0,0-.707,0,.512.512,0,0,0,0,.707" transform="translate(-2.824 0)" fill="#2b244a"/>
      <path id="Path_212197" data-name="Path 212197" d="M36.97,29.363a2.525,2.525,0,0,1,.377-3.8,2.669,2.669,0,0,1,1.581-.448.5.5,0,0,0,0-1,3.524,3.524,0,0,0-3.557,4.337,3.494,3.494,0,0,0,.892,1.617c.445.467,1.151-.241.707-.707" transform="translate(-2.824 0)" fill="#2b244a"/>
      <path id="Path_212198" data-name="Path 212198" d="M50.36,36.658A4.1,4.1,0,0,1,47.528,34.6a.439.439,0,0,1,.439-.679,42.586,42.586,0,0,0,4.842.516.436.436,0,0,1,.363.656,3.082,3.082,0,0,1-2.812,1.565" transform="translate(-2.824 0)" fill="#fff"/>
    </g>
  </g>
</svg>
